<?xml version="1.0" encoding="utf-8"?>
<!-- Generator: Adobe Illustrator 25.2.0, SVG Export Plug-In . SVG Version: 6.00 Build 0)  -->
<svg version="1.1" id="Layer_1" xmlns="http://www.w3.org/2000/svg" xmlns:xlink="http://www.w3.org/1999/xlink" x="0px" y="0px"
	 viewBox="0 0 108 39" style="enable-background:new 0 0 108 39;" xml:space="preserve">
<style type="text/css">
	.st0{fill:#00C868;}
</style>
<path d="M14.8,14.9l-1-4.9L0.5,12.7l11.9,6.5L14.8,14.9z M18.8,10.8l-4.7,1.6l0,0L18.8,10.8z M11.7,6.8l-0.9-4.9l-0.1,0l-0.1,0
	L11.7,6.8z M10.6,7.2l-4.9,1l1.2,6.2l5.7-2.6L10.6,7.2z M10.5,6.7h5V6.5l0-0.2L10.5,6.7z M7.3,7l-5,0.2l0,0l0,0L7.3,7z M7.1,23.4
	l5,0.4l0,0L7.1,23.4z M10.3,23.1l-5-0.4l0,0l0,0L10.3,23.1z M10.7,15.4l1.6-4.7L5.9,8.6l-0.2,6.7L10.7,15.4z M16.6,20.8l4.7-1.7l0,0
	l0,0L16.6,20.8z M12.6,26.1l-3.3-3.8L1,29.5l10.9,1.5L12.6,26.1z M15.1,19.9l-4.9,0.7l0,0l0,0L15.1,19.9z M11.8,20.2l-4.9,0.8l0,0.1
	l0,0.1L11.8,20.2z M9.9,25.3l-3.1-3.9l0,0l0,0L9.9,25.3z M8.3,26.3l-2.1-4.5l0,0l0,0L8.3,26.3z M7.7,26.6l1.5,4.8l-2.8-9.6L7.7,26.6
	z M8.7,28.2l-1.3-4.8l-0.1,0l-0.1,0L8.7,28.2z M10.3,27.6l1.2-4.8l-1.9-0.5L8,23.2L10.3,27.6z M20.2,23.8L15.3,23l0,0L20.2,23.8z
	 M10.7,13.3h5v-0.1l0-0.1L10.7,13.3z M14.3,9.8L17,5.6l0,0l0,0L14.3,9.8z M14.9,12.8l-2.9-4.1l0,0l0,0L14.9,12.8z M10.7,13.5h-5v5.1
	l5.1-0.1L10.7,13.5z M15.8,19.8c1.5-0.3,3.6-0.9,5.4-2.3c0.9-0.8,1.9-1.9,2.5-3.5c0.5-1.6,0.4-3.3-0.1-4.7l-9.5,3.2
	c-0.1-0.3-0.2-0.9,0-1.6c0.2-0.7,0.6-1.1,0.8-1.2c0.1-0.1,0.1-0.1-0.1,0c-0.2,0.1-0.6,0.2-1,0.3L15.8,19.8z M23.5,9.2
	c-1-2.8-3.2-4.8-5.2-5.9c-2-1.1-4.7-1.9-7.5-1.4l1.7,9.9c-0.1,0-0.1,0,0.2,0c0.2,0,0.5,0.1,0.8,0.3c0.3,0.2,0.5,0.3,0.6,0.4
	c0.1,0.1,0.1,0.1,0-0.1L23.5,9.2z M10.6,1.9C9.9,2.1,9.2,2.3,8.5,2.6l4.1,9.1c0,0,0,0,0,0c0,0,0,0,0.1,0L10.6,1.9z M15.5,6.2
	c0,0.2,0.1,0.4,0.1,0.5c0,0.1,0,0.1,0,0h-10c0,0.1,0,0.7,0.1,1.4L15.5,6.2z M15.5,6.4c-0.2-3-2.4-4.4-3.7-4.9C10.6,1,9.4,0.9,8.4,1
	C7.5,1.1,6.3,1.3,5.1,2C4,2.7,2.2,4.4,2.3,7.3l10-0.5c0.1,2.2-1.3,3.4-1.9,3.7c-0.6,0.3-1,0.4-1.1,0.4c-0.1,0-0.6,0-1.2-0.2
	c-0.6-0.2-2.4-1.3-2.6-3.6L15.5,6.4z M2.3,7.3C2.6,12.5,2.5,17.7,2.1,23l10,0.8c0.4-5.6,0.5-11.3,0.2-17L2.3,7.3z M2.1,23
	c-0.3,3.3,2.2,5,3.4,5.6c1.3,0.5,2.5,0.6,3.4,0.6c0.9-0.1,2.1-0.3,3.2-0.9c1.1-0.6,2.9-2.1,3.1-4.7l-10-0.7c0.1-2,1.6-3,2-3.3
	c0.5-0.3,0.9-0.3,1-0.3c0.1,0,0.6,0,1.2,0.3c0.4,0.2,1,0.5,1.6,1.3c0.7,0.9,1,2,0.9,3.1L2.1,23z M15.3,23.5c0.2-2.7,0.3-5.3,0.4-7.9
	l-10-0.2c-0.1,2.5-0.2,4.9-0.4,7.4L15.3,23.5z M9.2,20.2c1.5,0.5,2.4,1.4,2.8,2.4l9.4-3.5c-1.6-4.4-5.2-7.2-9-8.4L9.2,20.2z
	 M11.9,22.6c0.2,0.4,0.1,0.5,0.1,0.4c0-0.2,0.1-0.6,0.4-1c0.3-0.4,0.8-0.6,1-0.7c0.2-0.1,0.2,0-0.1,0l-1.4,9.9
	c2.7,0.4,6.2-0.1,8.4-3c2.2-2.8,1.9-6.3,1-9L11.9,22.6z M15.9,29.9c2.8-2.4,4.9-6.1,4.1-10.8l-9.9,1.6c0.1,0.4,0,0.6-0.1,0.7
	C10,21.7,9.8,22,9.4,22.3L15.9,29.9z M20,19.2c-0.4-2.8-2.5-4.1-3.8-4.6c-1.2-0.5-2.5-0.5-3.4-0.4c-0.9,0.1-2.1,0.4-3.3,1.1
	c-1.1,0.7-3.1,2.6-2.7,5.7l9.9-1.5c0.4,2.5-1.3,3.9-1.9,4.3c-0.6,0.4-1,0.4-1.1,0.4c-0.1,0-0.5,0-1.1-0.2c-0.6-0.2-2.2-1.1-2.6-3.3
	L20,19.2z M6.9,21c0,0.1,0,0.2,0,0.3c0,0,0,0,0,0c0,0,0,0,0,0c0,0,0,0-0.1,0.1l6.2,7.8c3.1-2.5,4.4-6.2,3.7-9.9L6.9,21z M6.8,21.4
	c-0.1,0.1-0.3,0.2-0.6,0.4l4.3,9c0.9-0.4,1.8-1,2.6-1.6L6.8,21.4z M6.1,21.8c0.1-0.1,0.2-0.1-0.2,0.1C5.8,22,5.7,22,5.6,22
	c0,0-0.2,0.1-0.3,0.1c-0.1,0-0.2,0.1-0.4,0.2c0,0-0.6,0.3-1.1,0.9c-0.2,0.2-1.1,1.2-1.3,2.9c-0.1,1,0.1,2.1,0.7,3.1
	C3.7,30.1,4.5,30.7,5,31c0.9,0.5,1.8,0.6,2,0.7c0.3,0,0.6,0,0.7,0c0.5,0,0.8-0.1,0.8-0.1c0.2,0,0.4-0.1,0.5-0.1l-2.6-9.6
	c-0.1,0,0,0,0.1,0c0,0,0.1,0,0.2,0c0.1,0,0.3,0,0.6-0.1c0.1,0,0.4,0,0.7,0c0.2,0,1.1,0.1,2,0.7c0.5,0.3,1.2,0.9,1.8,1.8
	c0.6,1,0.8,2.1,0.7,3.1c-0.2,1.6-1.1,2.6-1.3,2.8c-0.5,0.6-1.1,0.9-1.1,0.9c-0.2,0.1-0.3,0.2-0.3,0.2c-0.1,0.1-0.2,0.1-0.2,0.1
	c0,0-0.1,0,0,0c0,0,0.1,0,0.1-0.1c0.1,0,0.1-0.1,0.2-0.1c0.1,0,0.4-0.2,0.7-0.3L6.1,21.8z M6.3,21.8c-1,0.3-2.8,1-3.8,2.9
	C1.1,27.2,1.8,29.6,3,31c1.9,2.3,4.9,2.7,7.2,2l-2.9-9.6c0.5-0.2,1-0.2,1.5,0c0.4,0.1,1.2,0.4,1.9,1.2c0.4,0.5,0.8,1.2,0.9,2.1
	c0.2,1-0.1,2-0.5,2.9c-0.4,0.8-1,1.2-1.3,1.4c-0.3,0.2-0.6,0.3-0.7,0.3L6.3,21.8z M10.1,33.1c0.9-0.3,1.8-0.6,2.6-1L8,23.2
	c-0.2,0.1-0.4,0.2-0.6,0.2L10.1,33.1z M9.1,32.5c2.2,0.6,5.5,1.1,8.5,0.3c1.6-0.4,3.4-1.2,4.8-2.6c1.5-1.5,2.4-3.4,2.7-5.6L15.3,23
	c-0.1,0.3-0.1,0.2,0.1,0.1c0.1-0.1,0.2-0.1-0.1,0c-0.3,0.1-0.8,0.1-1.5,0.1c-0.7-0.1-1.5-0.2-2.2-0.4L9.1,32.5z M25.2,24.6
	c1.1-7.1-3.9-11.9-8-14.1l-4.8,8.8c1.2,0.6,2,1.4,2.5,2.1c0.4,0.6,0.5,1.2,0.4,1.7L25.2,24.6z M15.7,13.2c0-0.3,0-0.5,0-0.7
	c0-0.2,0.1-0.1-0.2,0.2c-0.3,0.4-1,1.3-2.4,1.5c-1.2,0.2-1.9-0.3-1.7-0.2L17,5.6c-1.3-0.8-3.1-1.6-5.2-1.3C9.5,4.7,8,6.1,7.2,7.4
	c-1.4,2.1-1.5,4.7-1.5,6.1L15.7,13.2z M11.5,14c0,0-0.1,0-0.2-0.2c-0.1-0.1-0.3-0.4-0.5-1c-0.2-0.6-0.3-1.5,0-2.4
	c0.3-0.9,0.9-1.5,1.2-1.7l5.7,8.2c1-0.7,2-1.7,2.5-3.2c0.5-1.5,0.4-2.9,0-4c-0.7-2-2.2-3.4-3.3-4.1L11.5,14z M12,8.8
	c0.2-0.2,0.4-0.2,0.5-0.3c0.1,0,0.2-0.1,0.2-0.1c0,0-0.1,0-0.3,0c-0.2,0-0.5,0-0.8,0c-0.2,0-0.3,0-0.5,0c-0.2,0-0.4,0-0.5,0l0.2,10
	c0.4,0,1.6,0,2.6-0.1c0.9-0.1,2.8-0.3,4.5-1.5L12,8.8z M15.7,13.5C15.7,13.5,15.7,13.5,15.7,13.5C15.7,13.5,15.7,13.5,15.7,13.5
	L15.7,13.5C15.7,13.5,15.7,13.5,15.7,13.5C15.7,13.5,15.7,13.5,15.7,13.5L15.7,13.5C15.7,13.5,15.7,13.5,15.7,13.5
	C15.7,13.5,15.7,13.5,15.7,13.5C15.7,13.5,15.7,13.5,15.7,13.5L15.7,13.5C15.7,13.5,15.7,13.5,15.7,13.5
	C15.7,13.5,15.7,13.5,15.7,13.5L15.7,13.5C15.7,13.5,15.7,13.5,15.7,13.5C15.7,13.5,15.7,13.5,15.7,13.5L15.7,13.5
	C15.7,13.5,15.7,13.5,15.7,13.5C15.7,13.5,15.7,13.5,15.7,13.5L15.7,13.5C15.7,13.5,15.7,13.5,15.7,13.5L15.7,13.5
	C15.7,13.5,15.7,13.5,15.7,13.5C15.7,13.5,15.7,13.5,15.7,13.5L15.7,13.5C15.7,13.5,15.7,13.5,15.7,13.5L15.7,13.5
	C15.7,13.5,15.7,13.5,15.7,13.5C15.7,13.5,15.7,13.5,15.7,13.5L15.7,13.5C15.7,13.5,15.7,13.5,15.7,13.5L15.7,13.5
	C15.7,13.5,15.7,13.5,15.7,13.5L15.7,13.5C15.7,13.5,15.7,13.5,15.7,13.5L15.7,13.5C15.7,13.5,15.7,13.5,15.7,13.5L15.7,13.5
	C15.7,13.5,15.7,13.5,15.7,13.5L15.7,13.5C15.7,13.5,15.7,13.5,15.7,13.5L15.7,13.5C15.7,13.5,15.7,13.5,15.7,13.5L15.7,13.5
	C15.7,13.5,15.7,13.5,15.7,13.5L15.7,13.5C15.7,13.5,15.7,13.5,15.7,13.5L15.7,13.5C15.7,13.5,15.7,13.5,15.7,13.5L15.7,13.5
	C15.7,13.5,15.7,13.5,15.7,13.5L15.7,13.5L15.7,13.5C15.7,13.5,15.7,13.5,15.7,13.5L15.7,13.5C15.7,13.5,15.7,13.5,15.7,13.5
	L15.7,13.5C15.7,13.5,15.7,13.5,15.7,13.5C15.7,13.5,15.7,13.5,15.7,13.5L15.7,13.5C15.7,13.5,15.7,13.5,15.7,13.5L15.7,13.5
	L15.7,13.5C15.7,13.5,15.7,13.5,15.7,13.5L15.7,13.5L15.7,13.5C15.7,13.5,15.7,13.5,15.7,13.5L15.7,13.5L15.7,13.5
	C15.7,13.5,15.7,13.5,15.7,13.5L15.7,13.5L15.7,13.5C15.7,13.5,15.7,13.5,15.7,13.5C15.7,13.5,15.7,13.5,15.7,13.5L15.7,13.5
	C15.7,13.5,15.7,13.5,15.7,13.5C15.7,13.5,15.7,13.5,15.7,13.5L15.7,13.5L15.7,13.5C15.7,13.5,15.7,13.5,15.7,13.5
	C15.7,13.5,15.7,13.5,15.7,13.5L15.7,13.5L15.7,13.5C15.7,13.5,15.7,13.5,15.7,13.5C15.7,13.5,15.7,13.5,15.7,13.5L15.7,13.5
	L15.7,13.5C15.7,13.5,15.7,13.5,15.7,13.5C15.7,13.5,15.7,13.5,15.7,13.5C15.7,13.5,15.7,13.5,15.7,13.5L15.7,13.5L15.7,13.5
	C15.7,13.5,15.7,13.5,15.7,13.5C15.7,13.5,15.7,13.5,15.7,13.5C15.7,13.5,15.7,13.5,15.7,13.5L15.7,13.5L15.7,13.5L15.7,13.5
	C15.7,13.5,15.7,13.5,15.7,13.5C15.7,13.5,15.7,13.5,15.7,13.5C15.7,13.5,15.7,13.5,15.7,13.5C15.7,13.5,15.7,13.5,15.7,13.5
	L15.7,13.5L15.7,13.5L15.7,13.5C15.7,13.5,15.7,13.5,15.7,13.5C15.7,13.5,15.7,13.5,15.7,13.5C15.7,13.5,15.7,13.5,15.7,13.5
	C15.7,13.5,15.7,13.5,15.7,13.5C15.7,13.5,15.7,13.5,15.7,13.5C15.7,13.5,15.7,13.5,15.7,13.5L15.7,13.5L15.7,13.5L15.7,13.5
	L15.7,13.5L15.7,13.5C15.7,13.5,15.7,13.5,15.7,13.5C15.7,13.5,15.7,13.5,15.7,13.5C15.7,13.5,15.7,13.5,15.7,13.5
	C15.7,13.5,15.7,13.5,15.7,13.5C15.7,13.5,15.7,13.5,15.7,13.5C15.7,13.5,15.7,13.5,15.7,13.5C15.7,13.5,15.7,13.5,15.7,13.5
	C15.7,13.5,15.7,13.5,15.7,13.5C15.7,13.5,15.7,13.5,15.7,13.5C15.7,13.5,15.7,13.5,15.7,13.5C15.7,13.5,15.7,13.5,15.7,13.5
	C15.7,13.5,15.7,13.5,15.7,13.5C15.7,13.5,15.7,13.5,15.7,13.5C15.7,13.5,15.7,13.5,15.7,13.5C15.7,13.5,15.7,13.5,15.7,13.5
	C15.7,13.5,15.7,13.5,15.7,13.5C15.7,13.5,15.7,13.5,15.7,13.5C15.7,13.5,15.7,13.5,15.7,13.5C15.7,13.5,15.7,13.5,15.7,13.5
	C15.7,13.5,15.7,13.5,15.7,13.5C15.7,13.5,15.7,13.5,15.7,13.5C15.7,13.5,15.7,13.5,15.7,13.5L15.7,13.5L15.7,13.5L15.7,13.5
	L15.7,13.5C15.7,13.5,15.7,13.5,15.7,13.5C15.7,13.5,15.7,13.5,15.7,13.5C15.7,13.5,15.7,13.5,15.7,13.5
	C15.7,13.5,15.7,13.5,15.7,13.5L15.7,13.5C15.7,13.5,15.7,13.5,15.7,13.5C15.7,13.5,15.7,13.5,15.7,13.5
	C15.7,13.5,15.7,13.5,15.7,13.5L15.7,13.5L15.7,13.5C15.7,13.5,15.7,13.5,15.7,13.5C15.7,13.5,15.7,13.5,15.7,13.5L15.7,13.5
	C15.7,13.5,15.7,13.5,15.7,13.5C15.7,13.5,15.7,13.5,15.7,13.5L15.7,13.5L15.7,13.5C15.7,13.5,15.7,13.5,15.7,13.5
	C15.7,13.5,15.7,13.5,15.7,13.5L15.7,13.5C15.7,13.5,15.7,13.5,15.7,13.5L15.7,13.5L15.7,13.5C15.7,13.5,15.7,13.5,15.7,13.5
	L15.7,13.5C15.7,13.5,15.7,13.5,15.7,13.5L15.7,13.5L15.7,13.5C15.7,13.5,15.7,13.5,15.7,13.5L15.7,13.5
	C15.7,13.5,15.7,13.5,15.7,13.5L15.7,13.5C15.7,13.5,15.7,13.5,15.7,13.5L15.7,13.5C15.7,13.5,15.7,13.5,15.7,13.5L15.7,13.5
	C15.7,13.5,15.7,13.5,15.7,13.5L15.7,13.5C15.7,13.5,15.7,13.5,15.7,13.5L15.7,13.5C15.7,13.5,15.7,13.5,15.7,13.5L15.7,13.5
	C15.7,13.5,15.7,13.5,15.7,13.5L15.7,13.5C15.7,13.5,15.7,13.5,15.7,13.5L15.7,13.5C15.7,13.5,15.7,13.5,15.7,13.5
	C15.7,13.5,15.7,13.5,15.7,13.5L15.7,13.5C15.7,13.5,15.7,13.5,15.7,13.5L15.7,13.5L15.7,13.5C15.7,13.5,15.7,13.5,15.7,13.5
	L15.7,13.5L15.7,13.5C15.7,13.5,15.7,13.5,15.7,13.5L15.7,13.5L15.7,13.5C15.7,13.5,15.7,13.5,15.7,13.5L15.7,13.5L15.7,13.5
	C15.7,13.5,15.7,13.5,15.7,13.5C15.7,13.5,15.7,13.5,15.7,13.5L15.7,13.5C15.7,13.5,15.7,13.5,15.7,13.5
	C15.7,13.5,15.7,13.5,15.7,13.5L15.7,13.5L15.7,13.5L15.7,13.5C15.7,13.5,15.7,13.5,15.7,13.5C15.7,13.5,15.7,13.5,15.7,13.5
	L15.7,13.5L15.7,13.5L15.7,13.5C15.7,13.5,15.7,13.5,15.7,13.5C15.7,13.5,15.7,13.5,15.7,13.5L15.7,13.5L15.7,13.5L15.7,13.5
	C15.7,13.5,15.7,13.5,15.7,13.5L15.7,13.5C15.7,13.5,15.7,13.5,15.7,13.5C15.7,13.5,15.7,13.5,15.7,13.5L15.7,13.5L15.7,13.5
	L15.7,13.5L15.7,13.5L15.7,13.5C15.7,13.5,15.7,13.5,15.7,13.5L15.7,13.5C15.7,13.5,15.7,13.5,15.7,13.5L15.7,13.5
	C15.7,13.5,15.7,13.5,15.7,13.5C15.7,13.5,15.7,13.5,15.7,13.5L15.7,13.5C15.7,13.5,15.7,13.5,15.7,13.5L15.7,13.5
	C15.7,13.5,15.7,13.5,15.7,13.5L15.7,13.5C15.7,13.5,15.7,13.5,15.7,13.5L15.7,13.5L15.7,13.5C15.7,13.5,15.7,13.5,15.7,13.5
	L15.7,13.5C15.7,13.5,15.7,13.5,15.7,13.5L15.7,13.5C15.7,13.5,15.7,13.5,15.7,13.5L15.7,13.5C15.7,13.5,15.7,13.5,15.7,13.5
	L15.7,13.5L15.7,13.5L15.7,13.5C15.7,13.5,15.7,13.5,15.7,13.5L15.7,13.5C15.7,13.5,15.7,13.5,15.7,13.5L15.7,13.5L15.7,13.5
	C15.7,13.5,15.7,13.5,15.7,13.5L15.7,13.5L15.7,13.5L15.7,13.5C15.7,13.5,15.7,13.5,15.7,13.5L15.7,13.5L15.7,13.5L15.7,13.5
	L15.7,13.5C15.7,13.5,15.7,13.5,15.7,13.5L15.7,13.5L15.7,13.5L15.7,13.5L15.7,13.5L15.7,13.5C15.7,13.5,15.7,13.5,15.7,13.5
	L15.7,13.5L15.7,13.5L15.7,13.5L15.7,13.5L15.7,13.5L15.7,13.5L15.7,13.5C15.7,13.5,15.7,13.5,15.7,13.5L15.7,13.5
	C15.7,13.5,15.7,13.5,15.7,13.5L15.7,13.5L15.7,13.5C15.7,13.5,15.7,13.5,15.7,13.5L15.7,13.5L15.7,13.5
	C15.7,13.5,15.7,13.5,15.7,13.5L15.7,13.5L15.7,13.5C15.7,13.5,15.7,13.5,15.7,13.5L15.7,13.5L15.7,13.5L15.7,13.5
	C15.7,13.5,15.7,13.5,15.7,13.5L15.7,13.5L15.7,13.5C15.7,13.5,15.7,13.5,15.7,13.5L15.7,13.5L15.7,13.5L15.7,13.5L15.7,13.5
	L15.7,13.5L15.7,13.5C15.7,13.5,15.7,13.5,15.7,13.5L15.7,13.5L15.7,13.5C15.7,13.5,15.7,13.5,15.7,13.5L15.7,13.5L15.7,13.5
	L15.7,13.5L15.7,13.5L15.7,13.5L15.7,13.5L15.7,13.5C15.7,13.5,15.7,13.5,15.7,13.5L15.7,13.5L15.7,13.5L15.7,13.5
	C15.7,13.5,15.7,13.5,15.7,13.5L15.7,13.5L15.7,13.5L15.7,13.5L15.7,13.5L15.7,13.5L15.7,13.5L15.7,13.5
	C15.7,13.5,15.7,13.5,15.7,13.5L15.7,13.5L15.7,13.5L15.7,13.5L15.7,13.5L15.7,13.5L15.7,13.5L15.7,13.5L15.7,13.5L15.7,13.5
	C15.7,13.5,15.7,13.5,15.7,13.5L15.7,13.5L15.7,13.5L15.7,13.5L15.7,13.5L15.7,13.5L15.7,13.5L15.7,13.5L15.7,13.5L15.7,13.5
	C15.7,13.5,15.7,13.5,15.7,13.5L15.7,13.5L15.7,13.5L15.7,13.5L15.7,13.5L15.7,13.5C15.7,13.5,15.7,13.5,15.7,13.5L15.7,13.5
	L15.7,13.5L15.7,13.5L15.7,13.5L15.7,13.5L15.7,13.5C15.7,13.5,15.7,13.5,15.7,13.5L15.7,13.5L15.7,13.5L15.7,13.5L15.7,13.5
	L15.7,13.5L15.7,13.5C15.7,13.5,15.7,13.5,15.7,13.5L15.7,13.5L15.7,13.5L15.7,13.5L15.7,13.5L15.7,13.5L15.7,13.5
	C15.7,13.5,15.7,13.5,15.7,13.5L15.7,13.5L15.7,13.5L15.7,13.5L15.7,13.5L15.7,13.5L15.7,13.5L15.7,13.5L15.7,13.5L15.7,13.5
	L15.7,13.5L15.7,13.5L15.7,13.5L15.7,13.5L15.7,13.5L15.7,13.5L15.7,13.5L15.7,13.5L15.7,13.5C15.7,13.5,15.7,13.5,15.7,13.5
	L15.7,13.5L15.7,13.5L15.7,13.5L15.7,13.5L15.7,13.5L15.7,13.5L15.7,13.5L15.7,13.5L15.7,13.5L15.7,13.5L15.7,13.5L15.7,13.5
	C15.7,13.5,15.7,13.5,15.7,13.5L15.7,13.5L15.7,13.5L15.7,13.5L15.7,13.5L15.7,13.5L15.7,13.5L15.7,13.5L15.7,13.5L15.7,13.5
	L15.7,13.5L15.7,13.5L15.7,13.5L15.7,13.5L15.7,13.5L15.7,13.5C15.7,13.5,15.7,13.5,15.7,13.5L15.7,13.5L15.7,13.5L15.7,13.5
	L15.7,13.5L15.7,13.5L15.7,13.5L15.7,13.5L15.7,13.5L15.7,13.5L15.7,13.5L15.7,13.5L15.7,13.5L15.7,13.5L15.7,13.5L15.7,13.5
	L15.7,13.5L15.7,13.5L15.7,13.5L15.7,13.5L15.7,13.5L15.7,13.5L15.7,13.5L15.7,13.5L15.7,13.5L15.7,13.5
	C15.7,13.5,15.7,13.5,15.7,13.5L15.7,13.5L15.7,13.5L15.7,13.5L15.7,13.5L15.7,13.5L15.7,13.5L15.7,13.5L15.7,13.5L15.7,13.5
	L15.7,13.5L15.7,13.5L15.7,13.5L15.7,13.5L15.7,13.5L15.7,13.5L15.7,13.5L15.7,13.5L15.7,13.5L15.7,13.5L15.7,13.5L15.7,13.5
	L15.7,13.5L15.7,13.5L15.7,13.5L15.7,13.5L15.7,13.5L15.7,13.5L15.7,13.5L15.7,13.5L15.7,13.5L15.7,13.5L15.7,13.5L15.7,13.5
	L15.7,13.5L15.7,13.5L15.7,13.5L15.7,13.5L15.7,13.5L15.7,13.5L15.7,13.5L15.7,13.5L15.7,13.5L15.7,13.5L15.7,13.5L15.7,13.5
	L15.7,13.5L15.7,13.5L15.7,13.5L15.7,13.5L15.7,13.5L15.7,13.5L15.7,13.5L15.7,13.5L15.7,13.5L15.7,13.5L15.7,13.5L15.7,13.5
	L15.7,13.5L15.7,13.5L15.7,13.5l-5,0h-5l0,0l0,0l0,0l0,0l0,0l0,0l0,0l0,0l0,0l0,0l0,0l0,0l0,0l0,0l0,0l0,0l0,0l0,0l0,0l0,0l0,0l0,0
	l0,0l0,0l0,0l0,0l0,0l0,0l0,0l0,0l0,0l0,0l0,0l0,0l0,0l0,0l0,0l0,0l0,0l0,0l0,0l0,0l0,0l0,0l0,0l0,0l0,0l0,0l0,0l0,0l0,0l0,0l0,0
	l0,0l0,0l0,0l0,0l0,0l0,0l0,0c0,0,0,0,0,0l0,0l0,0l0,0l0,0l0,0l0,0l0,0l0,0l0,0l0,0l0,0l0,0l0,0l0,0l0,0l0,0l0,0l0,0l0,0l0,0l0,0
	l0,0l0,0l0,0l0,0c0,0,0,0,0,0l0,0l0,0l0,0l0,0l0,0l0,0l0,0l0,0l0,0l0,0l0,0l0,0l0,0l0,0l0,0c0,0,0,0,0,0l0,0l0,0l0,0l0,0l0,0l0,0
	l0,0l0,0l0,0l0,0l0,0l0,0c0,0,0,0,0,0l0,0l0,0l0,0l0,0l0,0l0,0l0,0l0,0l0,0v0l0,0l0,0l0,0l0,0l0,0l0,0l0,0l0,0c0,0,0,0,0,0l0,0l0,0
	l0,0l0,0l0,0l0,0c0,0,0,0,0,0l0,0l0,0l0,0l0,0l0,0l0,0c0,0,0,0,0,0l0,0l0,0l0,0l0,0l0,0l0,0c0,0,0,0,0,0l0,0l0,0l0,0l0,0l0,0
	c0,0,0,0,0,0l0,0l0,0l0,0l0,0v0l0,0l0,0l0,0l0,0c0,0,0,0,0,0l0,0l0,0l0,0l0,0v0l0,0l0,0l0,0l0,0c0,0,0,0,0,0l0,0l0,0l0,0v0l0,0l0,0
	l0,0c0,0,0,0,0,0l0,0l0,0l0,0c0,0,0,0,0,0l0,0l0,0l0,0v0l0,0l0,0l0,0c0,0,0,0,0,0l0,0l0,0c0,0,0,0,0,0l0,0l0,0l0,0v0l0,0l0,0
	c0,0,0,0,0,0l0,0l0,0c0,0,0,0,0,0l0,0l0,0l0,0c0,0,0,0,0,0l0,0l0,0c0,0,0,0,0,0l0,0l0,0c0,0,0,0,0,0l0,0l0,0c0,0,0,0,0,0l0,0
	c0,0,0,0,0,0l0,0l0,0v0l0,0l0,0v0l0,0c0,0,0,0,0,0l0,0l0,0v0l0,0l0,0c0,0,0,0,0,0l0,0v0l0,0l0,0c0,0,0,0,0,0l0,0v0l0,0c0,0,0,0,0,0
	l0,0l0,0c0,0,0,0,0,0l0,0c0,0,0,0,0,0l0,0v0l0,0c0,0,0,0,0,0l0,0c0,0,0,0,0,0l0,0c0,0,0,0,0,0l0,0c0,0,0,0,0,0l0,0l0,0c0,0,0,0,0,0
	l0,0c0,0,0,0,0,0l0,0c0,0,0,0,0,0l0,0c0,0,0,0,0,0s0,0,0,0l0,0c0,0,0,0,0,0l0,0c0,0,0,0,0,0l0,0v0l0,0v0l0,0c0,0,0,0,0,0s0,0,0,0
	l0,0c0,0,0,0,0,0l0,0v0l0,0c0,0,0,0,0,0s0,0,0,0l0,0v0l0,0c0,0,0,0,0,0s0,0,0,0l0,0v0l0,0c0,0,0,0,0,0s0,0,0,0l0,0c0,0,0,0,0,0
	s0,0,0,0l0,0v0c0,0,0,0,0,0l0,0v0c0,0,0,0,0,0l0,0v0c0,0,0,0,0,0l0,0v0c0,0,0,0,0,0l0,0c0,0,0,0,0,0s0,0,0,0l0,0c0,0,0,0,0,0v0
	c0,0,0,0,0,0l0,0c0,0,0,0,0,0v0c0,0,0,0,0,0l0,0c0,0,0,0,0,0v0c0,0,0,0,0,0l0,0c0,0,0,0,0,0v0c0,0,0,0,0,0l0,0c0,0,0,0,0,0v0v0
	c0,0,0,0,0,0l0,0c0,0,0,0,0,0v0v0c0,0,0,0,0,0l0,0c0,0,0,0,0,0c0,0,0,0,0,0v0v0c0,0,0,0,0,0c0,0,0,0,0,0l0,0c0,0,0,0,0,0
	c0,0,0,0,0,0v0v0c0,0,0,0,0,0c0,0,0,0,0,0c0,0,0,0,0,0l0,0c0,0,0,0,0,0c0,0,0,0,0,0c0,0,0,0,0,0c0,0,0,0,0,0v0v0v0v0c0,0,0,0,0,0
	c0,0,0,0,0,0c0,0,0,0,0,0c0,0,0,0,0,0c0,0,0,0,0,0c0,0,0,0,0,0c0,0,0,0,0,0c0,0,0,0,0,0c0,0,0,0,0,0c0,0,0,0,0,0c0,0,0,0,0,0
	c0,0,0,0,0,0c0,0,0,0,0,0c0,0,0,0,0,0c0,0,0,0,0,0c0,0,0,0,0,0c0,0,0,0,0,0c0,0,0,0,0,0c0,0,0,0,0,0c0,0,0,0,0,0c0,0,0,0,0,0
	c0,0,0,0,0,0v0v0v0v0v0c0,0,0,0,0,0c0,0,0,0,0,0c0,0,0,0,0,0c0,0,0,0,0,0c0,0,0,0,0,0c0,0,0,0,0,0v0v0v0c0,0,0,0,0,0c0,0,0,0,0,0
	c0,0,0,0,0,0c0,0,0,0,0,0v0v0v0c0,0,0,0,0,0c0,0,0,0,0,0c0,0,0,0,0,0v0v0c0,0,0,0,0,0c0,0,0,0,0,0c0,0,0,0,0,0v0v0c0,0,0,0,0,0
	c0,0,0,0,0,0v0v0c0,0,0,0,0,0c0,0,0,0,0,0v0v0c0,0,0,0,0,0c0,0,0,0,0,0v0c0,0,0,0,0,0c0,0,0,0,0,0v0v0c0,0,0,0,0,0v0v0c0,0,0,0,0,0
	v0v0c0,0,0,0,0,0v0v0c0,0,0,0,0,0v0c0,0,0,0,0,0c0,0,0,0,0,0v0c0,0,0,0,0,0v0c0,0,0,0,0,0v0v0c0,0,0,0,0,0v0c0,0,0,0,0,0v0
	c0,0,0,0,0,0v0c0,0,0,0,0,0v0c0,0,0,0,0,0v0c0,0,0,0,0,0v0c0,0,0,0,0,0v0c0,0,0,0,0,0v0c0,0,0,0,0,0v0c0,0,0,0,0,0v0c0,0,0,0,0,0v0
	c0,0,0,0,0,0s0,0,0,0v0c0,0,0,0,0,0v0c0,0,0,0,0,0c0,0,0,0,0,0v0c0,0,0,0,0,0v0c0,0,0,0,0,0c0,0,0,0,0,0v0c0,0,0,0,0,0s0,0,0,0v0
	c0,0,0,0,0,0c0,0,0,0,0,0v0c0,0,0,0,0,0c0,0,0,0,0,0c0,0,0,0,0,0v0c0,0,0,0,0,0s0,0,0,0v0c0,0,0,0,0,0c0,0,0,0,0,0H15.7z M15.7,13.5
	c0,0.2,0,0.4,0,0.6c0,0.2-0.1,0.4-0.1,0.5c0,0.1-0.1,0.3-0.1,0.3c0,0,0,0.1,0,0.1c0,0,0,0,0,0c0,0,0,0,0,0c0,0,0-0.1,0-0.1
	c0-0.1,0.1-0.2,0.1-0.4c0-0.2,0.1-0.3,0.1-0.5c0-0.2,0-0.4,0-0.6h-10c0-0.2,0-0.4,0-0.6c0-0.2,0.1-0.4,0.1-0.5
	c0-0.1,0.1-0.3,0.1-0.3c0,0,0-0.1,0-0.1c0,0,0,0,0,0c0,0,0,0,0,0c0,0,0,0.1,0,0.1c0,0.1-0.1,0.2-0.1,0.4c0,0.2-0.1,0.3-0.1,0.5
	c0,0.2,0,0.4,0,0.6H15.7z M33.2,10.4l4.8,1.4l0,0l0,0L33.2,10.4z M29.9,6.4l0.7-5l0,0l0,0L29.9,6.4z M23.3,7.7l-5,0.6l0.8,7.2
	l6.4-3.3L23.3,7.7z M23.2,6.9l5-0.6l0-0.1l0-0.1L23.2,6.9z M20,7.2l4.9-0.8l0,0l0,0L20,7.2z M20.1,27.5l5,0.7l0,0l0,0L20.1,27.5z
	 M23.4,27.2l5,0.6l0,0l0,0L23.4,27.2z M23.9,20.7l-2.4-4.4l-2.5,1.3l-0.2,2.8L23.9,20.7z M28.7,19.2l4.4,2.3l3.6-6.9L29,14.2
	L28.7,19.2z M29.1,32.7L25,35.5l0,0L29.1,32.7z M32.2,31.9l-4.1,2.8l0,0l0,0L32.2,31.9z M32.2,18.8l4.3,2.5l0,0l0,0L32.2,18.8z
	 M31.7,18l1.9-4.6l0,0l0,0L31.7,18z M27.9,17.5l-3-4L10.6,24.1l17.8-1.7L27.9,17.5z M24,17.4l-5-0.1l-0.1,8.7l7.6-4.3L24,17.4z
	 M23.7,10.1v-5h-5.5l0.5,5.5L23.7,10.1z M23.7,10l-3-4l-0.3,0.2l-0.2,0.2L23.7,10z M29.4,8.4L27,12.7l0,0l0,0L29.4,8.4z M28.3,13.5
	l-4-3.1l0,0l0,0L28.3,13.5z M38,11.7c0.8-2.9,0-5.7-1.9-7.6c-1.7-1.7-3.9-2.4-5.6-2.6l-1.4,9.9c0.1,0,0.1,0,0.2,0c0,0,0.1,0,0.1,0
	c0,0,0,0-0.1-0.1c-0.1,0-0.2-0.1-0.3-0.2c-0.2-0.2-0.5-0.6-0.6-1.1c-0.1-0.5-0.1-0.9,0-1L38,11.7z M30.5,1.5
	c-3.4-0.5-6.8,0.4-9.5,1.8l4.5,8.9c1.3-0.7,2.6-0.9,3.6-0.8L30.5,1.5z M28.3,7.1c0-0.3-0.1-0.6-0.1-0.8l-9.9,1.2
	c0,0.2,0.1,0.4,0.1,0.7L28.3,7.1z M28.2,6.1c-0.5-2.8-2.6-4-3.8-4.5c-1.2-0.5-2.4-0.5-3.4-0.4c-0.9,0.1-2.1,0.4-3.3,1.1
	C16.5,3,14.5,5,15.1,8.1l9.8-1.8c0.2,1.1,0,2.1-0.5,3c-0.4,0.8-1,1.2-1.3,1.4c-0.6,0.4-1,0.4-1.1,0.4c-0.1,0-0.5,0-1.1-0.2
	c-0.5-0.2-2.2-1-2.5-3.2L28.2,6.1z M15.1,8c1,6,0.8,12.5,0.1,19l9.9,1.2c0.8-6.9,1.1-14.4-0.2-21.8L15.1,8z M15.2,26.9
	c-0.2,1.4,0.2,2.9,1,4c0.8,1,1.7,1.6,2.3,1.8c1.3,0.6,2.5,0.6,3.4,0.6c0.9-0.1,2.1-0.3,3.2-0.9c1.1-0.6,2.9-2,3.2-4.6l-9.9-1.2
	c0.2-1.9,1.6-2.8,2-3.1c0.5-0.3,0.8-0.3,0.9-0.3c0.1,0,0.6,0,1.2,0.3c0.4,0.2,1.1,0.5,1.7,1.4c0.7,0.9,1,2.1,0.8,3.3L15.2,26.9z
	 M28.3,27.8c0.3-2.3,0.4-4.5,0.6-6.8l-10-0.5c-0.1,2.1-0.3,4.2-0.5,6.3L28.3,27.8z M26.3,25.1c0.5-0.3,1.1-0.5,1.6-0.7
	c0.3-0.1,0.4-0.1,0.6-0.2c0.1,0,0.1,0,0,0l0.6-10c-1.7-0.1-3.3,0.3-4.4,0.7c-1.2,0.4-2.2,0.9-3,1.3L26.3,25.1z M24.3,16.9
	C21.4,22.4,21,29.7,25,35.5l8.2-5.7c-1.5-2.2-1.6-5.4-0.1-8.3L24.3,16.9z M25,35.5c1.3,1.9,3.4,2.4,4.2,2.5c1.1,0.2,2.1,0.1,3-0.1
	c0.8-0.2,2.2-0.6,3.3-1.7c0.6-0.6,1.4-1.7,1.7-3.2c0.2-1.6-0.3-3-1-3.9l-8.1,5.8c-0.5-0.7-1-1.8-0.8-3.2c0.2-1.3,0.9-2.2,1.3-2.6
	c0.4-0.4,0.8-0.6,1-0.7c0.2-0.1,0.4-0.1,0.4-0.2c0.1,0,0.3-0.1,0.7,0c0.1,0,1.5,0.2,2.5,1.7L25,35.5z M36.3,29.1
	c-1.4-2-1.4-5,0.2-7.7l-8.6-5.1c-3.1,5.3-4,12.5,0.1,18.5L36.3,29.1z M36.6,21.3c1.5-2.6,0.4-5-0.4-6.1c-0.8-1-1.7-1.6-2.5-1.9
	l-3.7,9.3c-0.5-0.2-1.1-0.6-1.6-1.2c-0.3-0.4-0.7-1-0.9-2c-0.2-1.1,0-2.1,0.6-3.1L36.6,21.3z M33.5,13.3c-2.1-0.8-4.2-1-6.1-0.8
	l0.9,10c0.7-0.1,1.2,0,1.5,0.2L33.5,13.3z M30.9,21.5c3-2.3,6-5.6,7.1-9.7L28.4,9c-0.4,1.4-1.6,3-3.5,4.4L30.9,21.5z M29,17.4
	c0-2.6-0.1-5.3-0.4-7.9l-10,1c0.2,2.3,0.3,4.5,0.3,6.8L29,17.4z M23.7,15.1c1.6,0,2.7-0.8,3-1c0.2-0.2,0.4-0.3,0.4-0.4
	c0,0,0.1-0.1,0.1-0.1c0,0,0,0,0,0l-7.1-7.1c-0.1,0.1,0.2-0.2,0.5-0.4c0.3-0.2,1.3-1,3-1V15.1z M26.8,14c0.2-0.2,0.5-0.3,0.7-0.5
	c0.3-0.2,0.5-0.3,0.7-0.4c0.2-0.1,0.2-0.1,0,0c-0.2,0-0.7,0-1.3-0.3L31.8,4C29,2.4,26,3.2,24.6,3.8c-1.6,0.6-3,1.6-3.9,2.2L26.8,14z
	 M27,12.8c-0.4-0.2-0.9-0.6-1.3-1.2c-0.4-0.6-0.5-1.2-0.6-1.6c-0.1-0.7,0.1-1.1,0-0.9c-0.1,0.1-0.2,0.4-0.4,0.7
	c-0.2,0.3-0.4,0.6-0.5,0.8l7.9,6.1c0.4-0.6,1.6-2.1,2.3-3.8c0.3-0.8,0.8-2.2,0.6-3.9c-0.2-2-1.3-3.9-3.3-5L27,12.8z M24.3,10.6
	c-0.7,1-1.7,1.9-2.8,2.5l5,8.7c2.3-1.3,4.3-3.2,5.8-5.2L24.3,10.6z M41.2,6.8l0-5l0,0h0V6.8z M36.9,9l2,4.6l1.2-0.5L41,12L36.9,9z
	 M33,16.2l-4.9-0.9l0,0L33,16.2z M34.9,26.4l3.6-3.5l0,0L34.9,26.4z M45.5,24.2l4.6,2l0,0l0,0L45.5,24.2z M42.8,22.8L38,21.4l0,0
	L42.8,22.8z M39.4,26.4l-0.8,4.9l0.1,0l0.1,0L39.4,26.4z M36.4,22.8l4.8-1.5l0,0l0,0L36.4,22.8z M36,18l4.7-1.7L31,17.5L36,18z
	 M38.5,21.3l2.7-4.2l0,0l0,0L38.5,21.3z M41.2,20.2l2.7-4.2l0,0l0,0L41.2,20.2z M38.7,15.3l-5,0.4l0,0l0,0L38.7,15.3z M41.7,9.4
	l2.1-4.6l0,0L41.7,9.4z M43.3,15.7l-5,0.4l0,0l0,0L43.3,15.7z M41.2,1.9c-3.7,0-6.5,1.8-8.3,4.2L41,12c0.1-0.1,0.1-0.1,0.1-0.1
	c0,0,0,0,0,0c0,0,0,0,0,0c0,0,0.1,0,0.2,0V1.9z M34.9,4.5c-2.9,1.3-4.4,3.7-5.3,5.6c-0.9,1.9-1.3,3.9-1.5,5.3l9.8,1.8
	c0.2-1.1,0.5-2.1,0.8-2.9c0.4-0.8,0.5-0.7,0.2-0.5L34.9,4.5z M28.1,15.3c-0.3,2-0.6,4.4-0.3,6.9c0.3,2.5,1.2,5.4,3.5,7.7l7.2-6.9
	c-0.3-0.3-0.6-0.9-0.8-2c-0.1-1.1-0.1-2.5,0.2-3.9L28.1,15.3z M31.3,29.9c6.2,6.5,15.8,3.1,18.8-3.7L41,22.1c-0.3,0.6-0.8,1-1.4,1.1
	c-0.3,0.1-0.5,0-0.6,0c-0.1,0-0.3-0.1-0.5-0.3L31.3,29.9z M50.1,26.2c0.7-1.7,1.2-3.8,1.5-5.9c0.3-2.1,0.3-4.6,0-6.9
	c-0.3-2.3-0.9-4.9-2.4-7.2c-1.6-2.5-4.3-4.4-8-4.4l0,10c0,0-0.1,0-0.3-0.1c-0.1-0.1-0.1-0.1,0,0c0.3,0.4,0.6,1.3,0.8,2.8
	c0.2,1.5,0.1,3.1,0,4.6c-0.2,1.6-0.5,2.6-0.7,3L50.1,26.2z M38,21.4c-0.1,0.2-0.1,0.5-0.2,0.6c0,0.1-0.1,0.2-0.1,0.2
	c0,0.1,0,0.1,0,0.1c0,0,0-0.1,0.1-0.1c0.1-0.1,0.2-0.2,0.5-0.3c0.2-0.1,0.5-0.3,0.9-0.3c0.4-0.1,0.7-0.1,1,0l-1.4,9.9
	c3.6,0.5,5.9-1.7,7-3.1c1.1-1.4,1.6-3,1.9-4L38,21.4z M40.2,21.5c0.5,0.1,0.9,0.3,1.1,0.4c0.2,0.1,0.2,0.2,0.2,0.2
	c0,0-0.1-0.1-0.2-0.3c-0.1-0.2-0.1-0.3-0.2-0.5l-9.6,2.9c0.3,1,0.9,2.4,1.8,3.7c0.9,1.2,2.5,3,5.2,3.4L40.2,21.5z M41.2,21.4
	c-0.2-0.7-0.3-1.7-0.2-3l-10-0.9c-0.2,2-0.1,4.4,0.6,6.8L41.2,21.4z M31.3,19.7c0.8,2.2,2.3,4.4,4.6,5.9l5.4-8.4
	c0,0-0.3-0.2-0.5-0.9L31.3,19.7z M35.8,25.5c1.5,1,3.2,1,3.9,1c0.9,0,1.8-0.2,2.7-0.5c0.4-0.2,0.9-0.4,1.4-0.7
	c0.5-0.3,1.2-0.9,1.9-1.8c0.7-1.1,1.2-2.8,0.5-4.6c-0.6-1.6-1.7-2.4-2.3-2.8l-5.4,8.4c-0.3-0.2-1.2-0.9-1.7-2.2
	c-0.6-1.6-0.1-3.1,0.4-4c0.5-0.8,1.1-1.2,1.3-1.3c0.2-0.2,0.4-0.2,0.5-0.2c0.1,0,0.2-0.1,0.3-0.1c0.1,0,0.3,0,0.5,0
	c0.2,0,0.8,0.2,1.4,0.6L35.8,25.5z M43.9,16c-0.1-0.1-0.1-0.1-0.1-0.1C43.8,15.9,43.8,15.9,43.9,16c-0.1-0.1-0.2-0.3-0.3-1.1
	l-10,0.9c0.3,2.9,1.3,6.4,4.9,8.7L43.9,16z M43.6,14.9C43.6,14.9,43.6,14.9,43.6,14.9C43.6,14.9,43.6,14.9,43.6,14.9
	C43.6,14.9,43.6,14.9,43.6,14.9c0-0.2,0-0.2,0-0.3c0-0.2,0-0.4,0-0.7c0-0.5,0.1-1,0.2-1.3c0-0.1,0.1-0.1,0-0.1
	c0,0.1-0.2,0.4-0.6,0.7c-0.4,0.4-1.1,0.8-2,0.9c-0.8,0.1-1.4-0.1-1.7-0.2l4.1-9.1c-1-0.5-2.2-0.8-3.6-0.6c-1.4,0.2-2.6,0.8-3.4,1.6
	C35.1,7.2,34.5,9,34.2,10c-0.6,2.2-0.7,4.6-0.6,5.8L43.6,14.9z M39.6,14c-0.9-0.4-1.3-0.9-1.5-1.2c-0.1-0.1-0.2-0.3-0.2-0.3
	c0-0.1-0.1-0.1-0.1-0.1c0,0,0,0.1,0.1,0.2c0,0.2,0.1,0.3,0.1,0.6c0.2,1,0.2,2.1,0.3,2.9l10-0.7c0-0.5-0.1-2.2-0.4-3.9
	c-0.1-0.8-0.4-1.8-0.8-2.8c-0.3-0.7-1.2-2.7-3.4-3.7L39.6,14z M38.3,16.1c0.2,2.1,0.1,3.8-0.3,5.3l9.6,2.9c1-3.2,0.9-6.4,0.7-9
	L38.3,16.1z M55,6.8l0-5l0,0h0V6.8z M50.7,9l2,4.6l1.2-0.5l0.8-1.1L50.7,9z M46.8,16.2l-4.9-0.9l0,0L46.8,16.2z M48.6,26.4l3.6-3.5
	l0,0L48.6,26.4z M59.3,24.2l4.6,2l0,0l0,0L59.3,24.2z M56.5,22.8l-4.8-1.4l0,0L56.5,22.8z M53.1,26.4l-0.8,4.9l0.1,0l0.1,0
	L53.1,26.4z M50.1,22.8l4.8-1.5l0,0l0,0L50.1,22.8z M49.7,18l4.7-1.7l-9.7,1.2L49.7,18z M52.3,21.3l2.7-4.2l0,0l0,0L52.3,21.3z
	 M55,20.2l2.7-4.2l0,0l0,0L55,20.2z M52.4,15.3l-5,0.4l0,0l0,0L52.4,15.3z M55.4,9.4l2.1-4.6l0,0L55.4,9.4z M57,15.7L52,16l0,0l0,0
	L57,15.7z M55,1.9c-3.7,0-6.5,1.8-8.3,4.2l8.1,5.9c0.1-0.1,0.1-0.1,0.1-0.1c0,0,0,0,0,0c0,0,0,0,0,0c0,0,0.1,0,0.2,0V1.9z M48.7,4.5
	c-2.9,1.3-4.4,3.7-5.3,5.6c-0.9,1.9-1.3,3.9-1.5,5.3l9.8,1.8c0.2-1.1,0.5-2.1,0.8-2.9c0.4-0.8,0.5-0.7,0.2-0.5L48.7,4.5z M41.8,15.3
	c-0.3,2-0.6,4.4-0.3,6.9c0.3,2.5,1.2,5.4,3.5,7.7l7.2-6.9c-0.3-0.3-0.6-0.9-0.8-2c-0.1-1.1-0.1-2.5,0.2-3.9L41.8,15.3z M45,29.9
	c6.2,6.5,15.8,3.1,18.8-3.7l-9.1-4.1c-0.3,0.6-0.8,1-1.4,1.1c-0.3,0.1-0.5,0-0.6,0c-0.1,0-0.3-0.1-0.5-0.3L45,29.9z M63.8,26.2
	c0.7-1.7,1.2-3.8,1.5-5.9c0.3-2.1,0.3-4.6,0-6.9c-0.3-2.3-0.9-4.9-2.4-7.2c-1.6-2.5-4.3-4.4-8-4.4l0,10c0,0-0.1,0-0.3-0.1
	c-0.1-0.1-0.1-0.1,0,0c0.3,0.4,0.6,1.3,0.8,2.8c0.2,1.5,0.1,3.1,0,4.6c-0.2,1.6-0.5,2.6-0.7,3L63.8,26.2z M51.7,21.4
	c-0.1,0.2-0.1,0.5-0.2,0.6c0,0.1-0.1,0.2-0.1,0.2c0,0.1,0,0.1,0,0.1c0,0,0-0.1,0.1-0.1c0.1-0.1,0.2-0.2,0.5-0.3
	c0.2-0.1,0.5-0.3,0.9-0.3c0.4-0.1,0.7-0.1,1,0l-1.4,9.9c3.6,0.5,5.9-1.7,7-3.1c1.1-1.4,1.6-3,1.9-4L51.7,21.4z M53.9,21.5
	c0.5,0.1,0.9,0.3,1.1,0.4c0.2,0.1,0.2,0.2,0.2,0.2c0,0-0.1-0.1-0.2-0.3c-0.1-0.2-0.1-0.3-0.2-0.5l-9.6,2.9c0.3,1,0.9,2.4,1.8,3.7
	c0.9,1.2,2.5,3,5.2,3.4L53.9,21.5z M54.9,21.4c-0.2-0.7-0.3-1.7-0.2-3l-10-0.9c-0.2,2-0.1,4.4,0.6,6.8L54.9,21.4z M45,19.7
	c0.8,2.2,2.3,4.4,4.6,5.9l5.4-8.4c0,0-0.3-0.2-0.5-0.9L45,19.7z M49.6,25.5c1.5,1,3.2,1,3.9,1c0.9,0,1.8-0.2,2.7-0.5
	c0.4-0.2,0.9-0.4,1.4-0.7c0.5-0.3,1.2-0.9,1.9-1.8c0.7-1.1,1.2-2.8,0.5-4.6c-0.6-1.6-1.7-2.4-2.3-2.8l-5.4,8.4
	c-0.3-0.2-1.2-0.9-1.7-2.2c-0.6-1.6-0.1-3.1,0.4-4c0.5-0.8,1.1-1.2,1.3-1.3c0.2-0.2,0.4-0.2,0.5-0.2c0.1,0,0.2-0.1,0.3-0.1
	c0.1,0,0.3,0,0.5,0c0.2,0,0.8,0.2,1.4,0.6L49.6,25.5z M57.6,16c-0.1-0.1-0.1-0.1-0.1-0.1C57.6,15.9,57.6,15.9,57.6,16
	c-0.1-0.1-0.2-0.3-0.3-1.1l-10,0.9c0.3,2.9,1.3,6.4,4.9,8.7L57.6,16z M57.4,14.9C57.4,14.9,57.4,14.9,57.4,14.9
	C57.4,14.9,57.4,14.9,57.4,14.9C57.4,14.9,57.4,14.9,57.4,14.9c0-0.2,0-0.2,0-0.3c0-0.2,0-0.4,0-0.7c0-0.5,0.1-1,0.2-1.3
	c0-0.1,0.1-0.1,0-0.1c0,0.1-0.2,0.4-0.6,0.7c-0.4,0.4-1.1,0.8-2,0.9c-0.8,0.1-1.4-0.1-1.7-0.2l4.1-9.1c-1-0.5-2.2-0.8-3.6-0.6
	c-1.4,0.2-2.6,0.8-3.4,1.6C48.9,7.2,48.3,9,48,10c-0.6,2.2-0.7,4.6-0.6,5.8L57.4,14.9z M53.3,14c-0.9-0.4-1.3-0.9-1.5-1.2
	c-0.1-0.1-0.2-0.3-0.2-0.3c0-0.1-0.1-0.1-0.1-0.1c0,0,0,0.1,0.1,0.2c0,0.2,0.1,0.3,0.1,0.6c0.2,1,0.2,2.1,0.3,2.9l10-0.7
	c0-0.5-0.1-2.2-0.4-3.9c-0.1-0.8-0.4-1.8-0.8-2.8c-0.3-0.7-1.2-2.7-3.4-3.7L53.3,14z M52,16.1c0.2,2.1,0.1,3.8-0.3,5.3l9.6,2.9
	c1-3.2,0.9-6.4,0.7-9L52,16.1z M68.5,14.9l-3.9-3.2l-0.1,0.1l-0.1,0.1L68.5,14.9z M64.3,18.9l-4.4-2.3l-7.6,14.5l14.4-7.8L64.3,18.9
	z M70,8.8l4.3,2.6l0,0L70,8.8z M66.9,8.6l-4.2-2.7l0,0.1l0,0.1L66.9,8.6z M63.9,13.5l-5-0.4l9.3,2.9L63.9,13.5z M64.6,7.4l-5-0.5
	l0,0l0,0L64.6,7.4z M61.3,7.7l-5-0.6l0,0l0,0L61.3,7.7z M60.3,26.8l-5,0.4l0,0L60.3,26.8z M63.5,26.6l5-0.2l0-0.1l0-0.1L63.5,26.6z
	 M63.4,21.2l-1-4.9l-3.9,0.8l-0.1,4L63.4,21.2z M67,19.7l4.9,1.1l2.9-12.3l-10.5,7L67,19.7z M66.8,31.8L62,33l0,0l0,0L66.8,31.8z
	 M70,31.5l-4.8,1.3l0,0l0,0L70,31.5z M71.5,15.3l4.7,1.8l0,0l0,0L71.5,15.3z M64.5,11.8c-0.5,0.6-1,1.2-1.5,1.7
	c-0.5,0.5-0.9,0.8-1.2,1l4.8,8.8c2.7-1.5,4.8-4,5.8-5.4L64.5,11.8z M68.7,21.2c1.7-3.3,3.6-6.6,5.6-9.8l-8.5-5.3
	c-2.1,3.4-4.1,6.9-5.9,10.5L68.7,21.2z M74.3,11.4c0.6-1,1.1-2.5,0.6-4.3c-0.5-1.7-1.6-2.6-2.3-3.1c-1.3-0.9-2.7-1-3.4-1.1
	c-0.9-0.1-1.9,0-2.9,0.3c-0.8,0.2-2.6,0.9-3.7,2.7l8.4,5.4c-0.8,1.3-2,1.6-2,1.6c-0.2,0.1-0.4,0.1-0.5,0.1c-0.1,0-0.2,0-0.4-0.1
	c-0.2,0-0.6-0.2-1.1-0.5c-0.5-0.3-1.4-1.1-1.9-2.6c-0.4-1.6,0.1-2.9,0.5-3.6L74.3,11.4z M62.6,6c-1,1.6-2,3.3-3,5.1l8.7,4.9
	c0.9-1.6,1.8-3.2,2.8-4.8L62.6,6z M68.9,13.9c0.2-2,0.4-4,0.6-6l-9.9-1c-0.2,1.9-0.5,4.1-0.6,6.2L68.9,13.9z M69.5,7.9
	c0.4-3.4-2.1-5.2-3.4-5.7c-1.2-0.5-2.5-0.6-3.4-0.6c-0.9,0.1-2.1,0.3-3.2,0.9c-1.1,0.6-2.9,2-3.2,4.5l9.9,1.2c-0.2,2-1.6,2.9-2,3.1
	c-0.5,0.3-0.8,0.3-0.9,0.3c-0.1,0-0.5,0-1.2-0.3c-0.4-0.2-1-0.5-1.6-1.3c-0.7-0.9-1-2-0.9-3.2L69.5,7.9z M56.4,7.1
	c-0.6,6.1-1.6,13.2-1.1,20l10-0.7c-0.4-5.8,0.4-11.8,1-18.3L56.4,7.1z M55.3,27.2c0.2,2.9,2.4,4.4,3.6,4.9c1.3,0.5,2.5,0.6,3.4,0.5
	c0.9-0.1,2.1-0.3,3.3-1c1.1-0.7,3-2.4,2.9-5.2l-10,0.5c-0.1-2.2,1.4-3.5,1.9-3.8c0.5-0.3,1-0.4,1.1-0.4c0.1,0,0.6,0,1.2,0.2
	c0.6,0.3,2.4,1.3,2.5,3.6L55.3,27.2z M68.5,26.1c-0.1-1.5-0.1-3.1-0.1-4.9l-10-0.2c0,1.8,0,3.8,0.1,5.9L68.5,26.1z M64.4,26.1
	c1.9-0.4,3.7-1.2,5.3-2.2l-5.5-8.3c-0.6,0.4-1.2,0.6-1.8,0.8L64.4,26.1z M62.1,18.5C61.1,23,60.7,28.1,62,33l9.7-2.5
	c-0.7-2.9-0.6-6.2,0.2-9.7L62.1,18.5z M62,33c0.7,2.6,2.7,3.7,3.9,4.1c1.2,0.4,2.4,0.5,3.3,0.4c0.9-0.1,2.1-0.4,3.3-1.1
	c1.2-0.8,3.3-2.9,2.4-6.2l-9.7,2.6c-0.3-1.1-0.2-2.3,0.4-3.2c0.5-0.9,1.1-1.3,1.4-1.6c0.6-0.4,1.1-0.5,1.2-0.5c0.1,0,0.5,0,1,0.1
	c0.5,0.2,2,0.9,2.5,2.8L62,33z M74.9,30.2c-1-4-0.4-8.7,1.3-13.2l-9.3-3.6c-2.1,5.6-3.4,12.6-1.7,19.2L74.9,30.2z M76.2,17
	c0.3-0.9,0.6-2.2,0.1-3.6C75.9,12,75,11,74.2,10.5c-1.4-1-2.9-1.1-3.6-1.1c-0.9,0-1.8,0.1-2.6,0.3c-0.4,0.1-0.9,0.3-1.4,0.5
	c-0.5,0.2-1.2,0.7-1.9,1.5l7.7,6.3c-0.5,0.7-1.1,1-1.3,1.1c-0.2,0.1-0.4,0.2-0.5,0.2c-0.1,0-0.2,0-0.3,0c-0.1,0-0.2,0-0.5-0.1
	c-0.2-0.1-0.7-0.2-1.2-0.6c-0.6-0.4-1.3-1.2-1.7-2.3c-0.4-1.2-0.2-2.2,0.1-2.8L76.2,17z M79.7,18.7l1.3,4.8l0,0l0,0L79.7,18.7z
	 M74.1,22.3l-5-0.4l-1.1,14.3l9.7-10.5L74.1,22.3z M77,7l-4.8-1.3l0,0L77,7z M73.9,6.8l4.8,1.3l0,0l0,0L73.9,6.8z M70.8,27.4l4.9,1
	l0.1-0.6l0-0.6L70.8,27.4z M70.9,27.9l-4,3l0,0l0,0L70.9,27.9z M74,27.5l-4.6-2.1l-0.1,0.3l-0.1,0.3L74,27.5z M78.6,21.5l-2.9-4.1
	l0,0l0,0L78.6,21.5z M80.2,20.6l-2-4.6l-0.1,0L78,16L80.2,20.6z M80.7,20.3l-1.3-4.8l2.5,9.7L80.7,20.3z M78.4,13.9
	c-3.3,0.9-5.9,2.9-7.9,5l7.3,6.8c1.1-1.2,2.2-1.9,3.2-2.1L78.4,13.9z M79.1,22.6c0.4-4.7,1.5-9.6,2.7-14.4l-9.7-2.6
	c-1.3,5-2.6,10.6-3.1,16.2L79.1,22.6z M81.9,8.3c0.3-1.1,0.3-2.5-0.3-3.7c-0.5-1.2-1.4-2-2.1-2.5C78.2,1.2,76.7,1,75.9,1
	c-1,0-2.1,0.1-3.2,0.5c-0.9,0.4-3,1.4-3.6,4l9.7,2.6c-0.5,2-2.1,2.6-2.3,2.7C76,10.9,75.7,11,75.5,11c-0.1,0-0.7,0-1.6-0.6
	c-0.5-0.3-1.1-0.9-1.6-1.9c-0.5-1-0.4-2.1-0.2-2.9L81.9,8.3z M69.1,5.4c-1.8,6.7-3.6,14.6-3.3,22.2l10-0.4c-0.2-6,1.2-12.7,2.9-19.2
	L69.1,5.4z M65.9,26.4c-0.4,2.1,0.5,3.7,1,4.4l8-6c0.4,0.5,1.1,1.8,0.8,3.6L65.9,26.4z M66.9,30.9c1.1,1.5,2.7,2,3.5,2.2
	c0.9,0.2,1.9,0.2,2.7,0.2c0.8-0.1,1.8-0.3,2.7-0.8c0.9-0.5,2.4-1.5,2.9-3.6l-9.6-2.8c0.5-1.6,1.5-2.2,1.9-2.5
	c0.4-0.2,0.8-0.3,0.9-0.3c0.1,0,0.4,0,0.8,0.1c0.3,0.1,1.3,0.3,2.1,1.4L66.9,30.9z M78.5,29.5c0.8-1.8,1.8-3.1,3-4l-5.9-8.1
	c-3,2.2-4.9,5.1-6.2,7.9L78.5,29.5z M81.4,25.6c0.3-0.2,0.6-0.4,0.9-0.5L78,16c-0.9,0.4-1.7,0.9-2.4,1.4L81.4,25.6z M82.2,25.1
	c0,0-0.1,0,0.3-0.1c0,0,0.2-0.1,0.3-0.1c0.1,0,0.2-0.1,0.4-0.2c0.1,0,0.3-0.2,0.6-0.4c0.1-0.1,0.4-0.3,0.6-0.5
	c0.2-0.2,0.8-0.8,1.1-1.7c0.4-1.2,0.6-2.9-0.5-4.5c-0.9-1.3-2.1-1.8-2.5-1.9c-0.9-0.3-1.7-0.3-1.7-0.3c-0.4,0-0.7,0.1-0.8,0.1
	c-0.2,0-0.4,0.1-0.4,0.1l2.3,9.7c0,0,0,0-0.2,0c0,0-0.3,0.1-0.7,0.1c-0.1,0-0.8,0-1.7-0.3c-0.4-0.2-1.6-0.6-2.5-1.9
	c-1.1-1.6-1-3.4-0.5-4.5c0.4-0.9,0.9-1.5,1.1-1.7c0.3-0.3,0.5-0.4,0.6-0.5c0.3-0.2,0.5-0.3,0.6-0.4c0.2-0.1,0.3-0.2,0.4-0.2
	c0.1,0,0.1-0.1,0.1,0c-0.1,0-0.1,0-0.3,0.1c-0.1,0-0.3,0.1-0.5,0.2L82.2,25.1z M82,25.1c1-0.3,2.8-0.9,4-2.9c1.4-2.5,0.6-5-0.5-6.3
	c-1-1.2-2.3-1.8-3.4-2.1c-1.1-0.3-2.5-0.3-3.8,0.1l2.8,9.6c-0.6,0.2-1.1,0.2-1.6,0c-0.4-0.1-1.2-0.4-1.8-1.2
	c-0.4-0.4-0.8-1.2-0.9-2.1c-0.2-1,0.1-2.1,0.6-2.9c0.5-0.8,1-1.2,1.4-1.4c0.4-0.2,0.6-0.3,0.7-0.3L82,25.1z M88,20.9l-4.9-0.7
	l-0.5,3.1l2.6,1.8L88,20.9z M89.2,6.8l-5-0.1l0,0l0,0L89.2,6.8z M86,7.1l5,0.1l0,0v0H86z M85,19.6L84,24.5l5.3,1.2l0.7-5.4L85,19.6z
	 M81.3,19.5l-4.7-1.6l-2.6,7.7l8-1.1L81.3,19.5z M82.5,6.9l-5,0.6l0,0L82.5,6.9z M79.2,7.2l5-0.6l0,0L79.2,7.2z M77.5,20.9l4.6,2
	l0,0l0,0L77.5,20.9z M79.9,21.7l-2-4.6l0,0L79.9,21.7z M84.7,21.7l4.9,0.7l0.5-3.6l-3.3-1.6L84.7,21.7z M83.4,29l-1.7,4.7l5.3,1.9
	l1.2-5.5L83.4,29z M79.2,28.7l-4.8-1.4L72.2,35l7.9-1.4L79.2,28.7z M80.7,25.1l-4.5-2.2l0,0L80.7,25.1z M77.6,24.9l-4.4-2.3l0,0l0,0
	L77.6,24.9z M75.7,30l4.9,1.2l0.1-0.2l0-0.2L75.7,30z M75.7,30.2l4.9,0.9l0.1-0.4v-0.5H75.7z M76.2,31l2.3-4.4l0,0l0,0L76.2,31z
	 M78.5,30.9l-2.4-4.4l0,0l0,0L78.5,30.9z M82.9,31.3l-3,4l1.3,1h1.7V31.3z M83,31.4l4.5-2.2l-0.4-0.7l-0.6-0.6L83,31.4z M86.1,31.1
	l4.9,1.2l0-0.1l0-0.1L86.1,31.1z M87.7,22.9L87,18l-3.6,0.5l-0.6,3.6L87.7,22.9z M88.9,21.5l3.5-3.6l-0.1-0.1l-0.1-0.1L88.9,21.5z
	 M93,21.6c0.7-4.9,1.2-9.9,1.2-14.8l-10-0.1c-0.1,4.5-0.5,9-1.1,13.5L93,21.6z M94.2,6.9c0.1-3.2-2.3-4.8-3.5-5.4
	C89.4,1,88.2,0.9,87.2,1c-0.9,0.1-2.1,0.3-3.3,1c-1.1,0.7-3,2.3-3,5.1h10c0,2.1-1.4,3.2-1.9,3.5C88.5,10.9,88.1,11,88,11
	c-0.1,0-0.6,0-1.2-0.2c-0.3-0.1-1-0.5-1.5-1.2c-0.6-0.8-1-1.8-1-2.9L94.2,6.9z M81,7c-0.1,3.9-0.4,7.9-0.9,11.9l9.9,1.3
	c0.6-4.3,0.9-8.7,1-13.1L81,7z M86.1,14.7c-1.9-0.4-3.7-0.4-5.5-0.2l1.4,9.9c0.7-0.1,1.4-0.1,2,0.1L86.1,14.7z M86,21.1
	c1.6-4.8,2-10,1.4-14.7l-9.9,1.2c0.4,3.5,0.1,7.1-0.9,10.3L86,21.1z M87.4,6.3c-0.3-2.9-2.5-4.2-3.7-4.7c-1.2-0.5-2.5-0.5-3.4-0.5
	c-0.9,0.1-2.1,0.3-3.3,1.1c-1.1,0.7-3.1,2.6-2.7,5.6l9.9-1.2c0.3,2.4-1.3,3.8-1.9,4.1c-0.6,0.4-1,0.4-1.1,0.4c-0.1,0-0.5,0-1.1-0.2
	c-0.6-0.2-2.3-1.2-2.6-3.4L87.4,6.3z M74.2,7.8c0.5,3.9,0.1,7.8-1.4,11.1l9.2,4c2.3-5.2,2.8-11,2.1-16.3L74.2,7.8z M72.9,18.9
	c-0.4,0.8-0.7,2-0.4,3.4c0.3,1.4,1.1,2.5,1.8,3.1c1.3,1.1,2.8,1.3,3.4,1.4c0.7,0.1,1.5,0.1,2,0c0.4,0,1.3-0.1,2.2-0.5l-4-9.2
	c0.4-0.2,0.8-0.3,0.8-0.3c0,0,0.1,0,0.1,0c0,0,0,0,0,0c0,0,0,0,0,0c0,0,0,0,0.1,0c0.1,0,0.3,0,0.5,0.1c0.2,0.1,0.8,0.3,1.3,0.8
	c0.6,0.5,1.3,1.4,1.5,2.6c0.2,1.2-0.1,2.1-0.3,2.6L72.9,18.9z M81.9,26.3c0.3-0.1,0.4-0.1,0.5-0.1c0,0,0.1,0,0.1,0l4.4-9
	c-2.9-1.4-6.1-1.3-9-0.1L81.9,26.3z M79.8,21c-0.3,2.3-0.8,4.6-1.3,6.9l9.8,2.2c0.6-2.5,1-5.1,1.4-7.6L79.8,21z M85.1,24.3
	c-2.3-0.8-4.6-0.9-6.7-0.5l1.7,9.9c0.7-0.1,1.2-0.1,1.5,0.1L85.1,24.3z M84,30c0.2-0.8,0.6-1.6,1.2-2.7l-8.9-4.5
	c-0.6,1.2-1.3,2.7-1.8,4.5L84,30z M85.2,27.3c0.5-1,0.8-2.5,0.4-4.1c-0.5-1.5-1.5-2.4-2.2-2.9c-1.3-0.9-2.8-1.1-3.5-1.1
	c-0.9,0-2,0.1-3,0.4c-0.8,0.3-2.7,1-3.7,3l8.9,4.6c-0.8,1.5-2,1.9-2.1,1.9c-0.3,0.1-0.5,0.1-0.6,0.1c-0.1,0-0.2,0-0.4-0.1
	c-0.2,0-0.6-0.2-1.1-0.5c-0.5-0.3-1.3-1.1-1.7-2.4c-0.4-1.4-0.1-2.6,0.3-3.3L85.2,27.3z M73.1,22.6c-0.8,1.6-1.9,4-2.3,6.5l9.9,1.5
	c0.1-0.9,0.6-2.1,1.4-3.7L73.1,22.6z M70.9,28.7c-0.2,0.8-0.2,1.4-0.1,1.8c0,0.2,0,0.3,0,0.3c0,0,0-0.1,0-0.1c0-0.1,0-0.2,0-0.4h10
	c0-0.2,0-0.4,0-0.5c0-0.1,0-0.2,0-0.2c0-0.1,0,0,0,0.1c0,0.3,0,0.8-0.1,1.5L70.9,28.7z M70.8,29.3c-0.6,3.1,1.4,5.3,3.2,6.2l4.5-8.9
	c0.5,0.2,1.2,0.7,1.7,1.6c0.5,0.9,0.7,2,0.5,3L70.8,29.3z M73.9,35.5c1.5,0.8,3,0.8,4,0.7c1.1-0.1,2.1-0.5,3-1l-5-8.7
	c0.3-0.2,0.5-0.2,0.8-0.3c0.3,0,0.9-0.1,1.7,0.4L73.9,35.5z M80.9,35.2c0,0,0,0-0.2,0.1c-0.2,0-0.4,0-0.6,0c-0.4-0.1-0.5-0.2-0.2,0
	l6.1-7.9c-1.1-0.9-2.7-1.7-4.5-2c-2-0.3-3.8,0.2-5.4,1.1L80.9,35.2z M82.9,36.3c0.1,0-0.2,0-0.5,0c-0.4,0-1.1-0.2-1.7-0.5
	c-0.6-0.3-1-0.6-1.1-0.7c-0.1-0.1-0.2-0.2-0.2-0.2l7.1-7.1c0,0,0,0,0,0c0,0,0,0,0,0c0,0-0.1-0.1-0.2-0.2c-0.1-0.1-0.5-0.5-1.1-0.8
	c-0.7-0.3-1.3-0.5-1.8-0.5c-0.2,0-0.3,0-0.4,0c0,0-0.1,0-0.1,0c0,0,0,0,0,0c0,0,0,0,0,0V36.3z M78.5,33.6c1,2,2.8,2.7,3.7,3
	c1,0.3,2,0.4,2.8,0.3c0.8-0.1,1.8-0.3,2.8-0.8c0.9-0.5,2.6-1.6,3.1-3.8l-9.7-2.4c0.4-1.8,1.7-2.5,2.1-2.7c0.5-0.2,0.8-0.3,0.9-0.3
	c0.1,0,0.4,0,0.8,0.1c0.3,0.1,1.6,0.5,2.4,2.1L78.5,33.6z M91,32.2c0.6-2.8,1.2-5.6,1.6-8.4l-9.9-1.6c-0.4,2.6-1,5.2-1.5,7.9
	L91,32.2z M88.4,27.9c1-0.1,2.6-0.6,3.9-1.8c0.7-0.7,1.7-2.1,1.7-4c0-2-1-3.3-1.8-4.1l-6.9,7.2c-0.4-0.4-1.3-1.5-1.3-3.1
	c0-1.7,0.9-2.7,1.3-3.2c0.5-0.5,0.9-0.6,1.1-0.7C86.7,18,86.9,18,87,18L88.4,27.9z M92.2,17.8c-0.5-0.5-1.1-0.8-1.4-1.1l-5.5,8.3
	c0.1,0.1,0.2,0.1,0.2,0.2c0.1,0,0.1,0.1,0.1,0L92.2,17.8z M102.2,6.3l5,0v0v0H102.2z M99,6.6l-5-0.1l0,0.1v0.1H99z M98.6,22.6
	l-4.7,1.6l9.7-1.3L98.6,22.6z M92.1,7.1l-4.7,1.6L87.4,9l0.2,0.3L92.1,7.1z M88.9,7.3L84,6.2l-0.1,0.6v0.6H88.9z M88.9,7.5h-5v0.2
	l0,0.2L88.9,7.5z M88.9,26.9l5,0.7l0-0.1l0-0.1L88.9,26.9z M92.1,26.6l-5-0.6l0,0.1l0,0.1L92.1,26.6z M92.6,15.5l4.6-2l-9.6,2
	L92.6,15.5z M98.1,32.8l5,0.6l0.1-0.8l-0.2-0.8L98.1,32.8z M99.5,33.5l0.2-5l-0.2,0l-0.2,0L99.5,33.5z M101.3,32.5l-5-0.3l-0.1,0.7
	l0.2,0.7L101.3,32.5z M107.2,6.3c0-3.1-2.3-4.7-3.6-5.2c-1.2-0.5-2.5-0.6-3.4-0.5c-0.9,0.1-2.1,0.3-3.3,1c-1.1,0.7-2.9,2.2-3,4.9
	l10,0.2c0,2.1-1.4,3.1-1.9,3.4c-0.5,0.3-0.9,0.4-1.1,0.4c-0.1,0-0.6,0-1.2-0.2c-0.3-0.1-1-0.5-1.5-1.1c-0.6-0.7-1-1.7-1-2.8H107.2z
	 M94,6.6c0,5.2-0.1,10.5-0.4,15.7l10,0.5c0.2-5.4,0.4-10.8,0.4-16.2H94z M103.4,21c-1.9-5.6-4.3-11.1-6.9-16.2l-8.9,4.5
	c2.4,4.8,4.6,9.7,6.3,14.8L103.4,21z M96.8,5.5C96,3.1,94,2.2,93.1,1.8c-1.1-0.4-2.2-0.4-3-0.4c-0.9,0.1-1.9,0.3-2.9,0.8
	c-0.9,0.4-2.6,1.6-3.1,3.9l9.7,2.4c-0.4,1.8-1.7,2.5-2,2.7c-0.4,0.2-0.7,0.3-0.9,0.3c-0.1,0-0.5,0-1-0.1c-0.4-0.1-1.9-0.8-2.5-2.6
	L96.8,5.5z M83.9,7.3C83.9,7.3,83.9,7.3,83.9,7.3C83.9,7.3,83.9,7.3,83.9,7.3C83.9,7.3,83.9,7.3,83.9,7.3
	C83.9,7.3,83.9,7.3,83.9,7.3C83.9,7.3,83.9,7.3,83.9,7.3C83.9,7.3,83.9,7.3,83.9,7.3C83.9,7.3,83.9,7.3,83.9,7.3
	C83.9,7.3,83.9,7.3,83.9,7.3C83.9,7.3,83.9,7.3,83.9,7.3C83.9,7.3,83.9,7.3,83.9,7.3C83.9,7.3,83.9,7.3,83.9,7.3
	C83.9,7.3,83.9,7.3,83.9,7.3C83.9,7.3,83.9,7.3,83.9,7.3C83.9,7.3,83.9,7.3,83.9,7.3C83.9,7.3,83.9,7.3,83.9,7.3
	C83.9,7.3,83.9,7.3,83.9,7.3C83.9,7.3,83.9,7.3,83.9,7.3C83.9,7.3,83.9,7.3,83.9,7.3C83.9,7.3,83.9,7.3,83.9,7.3
	C83.9,7.3,83.9,7.3,83.9,7.3C83.9,7.3,83.9,7.3,83.9,7.3C83.9,7.3,83.9,7.3,83.9,7.3C83.9,7.3,83.9,7.3,83.9,7.3
	C83.9,7.3,83.9,7.3,83.9,7.3C83.9,7.3,83.9,7.3,83.9,7.3C83.9,7.3,83.9,7.3,83.9,7.3C83.9,7.3,83.9,7.3,83.9,7.3
	C83.9,7.3,83.9,7.3,83.9,7.3C83.9,7.3,83.9,7.3,83.9,7.3C83.9,7.3,83.9,7.3,83.9,7.3C83.9,7.3,83.9,7.3,83.9,7.3
	C83.9,7.3,83.9,7.3,83.9,7.3C83.9,7.3,83.9,7.3,83.9,7.3C83.9,7.3,83.9,7.3,83.9,7.3C83.9,7.3,83.9,7.3,83.9,7.3
	C83.9,7.3,83.9,7.3,83.9,7.3C83.9,7.3,83.9,7.3,83.9,7.3C83.9,7.3,83.9,7.3,83.9,7.3C83.9,7.3,83.9,7.3,83.9,7.3
	C83.9,7.3,83.9,7.3,83.9,7.3C83.9,7.3,83.9,7.3,83.9,7.3C83.9,7.3,83.9,7.3,83.9,7.3C83.9,7.3,83.9,7.3,83.9,7.3
	C83.9,7.3,83.9,7.3,83.9,7.3C83.9,7.3,83.9,7.3,83.9,7.3C83.9,7.3,83.9,7.3,83.9,7.3C83.9,7.3,83.9,7.3,83.9,7.3
	C83.9,7.3,83.9,7.3,83.9,7.3C83.9,7.3,83.9,7.3,83.9,7.3C83.9,7.3,83.9,7.3,83.9,7.3C83.9,7.3,83.9,7.3,83.9,7.3
	C83.9,7.3,83.9,7.3,83.9,7.3C83.9,7.3,83.9,7.3,83.9,7.3C83.9,7.3,83.9,7.3,83.9,7.3C83.9,7.3,83.9,7.3,83.9,7.3
	C83.9,7.3,83.9,7.3,83.9,7.3C83.9,7.3,83.9,7.3,83.9,7.3C83.9,7.3,83.9,7.3,83.9,7.3C83.9,7.3,83.9,7.3,83.9,7.3
	C83.9,7.3,83.9,7.3,83.9,7.3C83.9,7.3,83.9,7.3,83.9,7.3C83.9,7.3,83.9,7.3,83.9,7.3C83.9,7.3,83.9,7.3,83.9,7.3
	C83.9,7.3,83.9,7.3,83.9,7.3C83.9,7.3,83.9,7.3,83.9,7.3C83.9,7.3,83.9,7.3,83.9,7.3C83.9,7.3,83.9,7.3,83.9,7.3
	C83.9,7.3,83.9,7.3,83.9,7.3C83.9,7.3,83.9,7.3,83.9,7.3C83.9,7.3,83.9,7.3,83.9,7.3C83.9,7.3,83.9,7.3,83.9,7.3
	C83.9,7.3,83.9,7.3,83.9,7.3C83.9,7.3,83.9,7.3,83.9,7.3C83.9,7.3,83.9,7.3,83.9,7.3C83.9,7.3,83.9,7.3,83.9,7.3
	C83.9,7.3,83.9,7.3,83.9,7.3C83.9,7.3,83.9,7.3,83.9,7.3C83.9,7.3,83.9,7.3,83.9,7.3C83.9,7.3,83.9,7.3,83.9,7.3
	C83.9,7.3,83.9,7.3,83.9,7.3C83.9,7.3,83.9,7.3,83.9,7.3C83.9,7.3,83.9,7.3,83.9,7.3C83.9,7.3,83.9,7.3,83.9,7.3
	C83.9,7.3,83.9,7.3,83.9,7.3C83.9,7.3,83.9,7.3,83.9,7.3C83.9,7.3,83.9,7.3,83.9,7.3C83.9,7.3,83.9,7.3,83.9,7.3
	C83.9,7.3,83.9,7.3,83.9,7.3C83.9,7.3,83.9,7.3,83.9,7.3C83.9,7.3,83.9,7.3,83.9,7.3C83.9,7.3,83.9,7.3,83.9,7.3
	C83.9,7.3,83.9,7.3,83.9,7.3C83.9,7.3,83.9,7.3,83.9,7.3C83.9,7.3,83.9,7.3,83.9,7.3C83.9,7.3,83.9,7.3,83.9,7.3
	C83.9,7.3,83.9,7.3,83.9,7.3C83.9,7.3,83.9,7.3,83.9,7.3C83.9,7.3,83.9,7.3,83.9,7.3C83.9,7.3,83.9,7.3,83.9,7.3
	C83.9,7.3,83.9,7.3,83.9,7.3C83.9,7.3,83.9,7.3,83.9,7.3C83.9,7.3,83.9,7.3,83.9,7.3C83.9,7.3,83.9,7.3,83.9,7.3
	C83.9,7.3,83.9,7.3,83.9,7.3C83.9,7.3,83.9,7.3,83.9,7.3C83.9,7.3,83.9,7.3,83.9,7.3C83.9,7.3,83.9,7.3,83.9,7.3
	C83.9,7.3,83.9,7.3,83.9,7.3C83.9,7.3,83.9,7.3,83.9,7.3C83.9,7.3,83.9,7.3,83.9,7.3C83.9,7.3,83.9,7.3,83.9,7.3
	C83.9,7.3,83.9,7.3,83.9,7.3C83.9,7.3,83.9,7.3,83.9,7.3C83.9,7.3,83.9,7.3,83.9,7.3C83.9,7.4,83.9,7.4,83.9,7.3
	C83.9,7.4,83.9,7.4,83.9,7.3C83.9,7.4,83.9,7.4,83.9,7.3C83.9,7.4,83.9,7.4,83.9,7.3C83.9,7.4,83.9,7.4,83.9,7.3
	C83.9,7.4,83.9,7.4,83.9,7.3C83.9,7.4,83.9,7.4,83.9,7.3C83.9,7.4,83.9,7.4,83.9,7.3C83.9,7.4,83.9,7.4,83.9,7.3
	C83.9,7.4,83.9,7.4,83.9,7.3C83.9,7.4,83.9,7.4,83.9,7.3C83.9,7.4,83.9,7.4,83.9,7.3C83.9,7.4,83.9,7.4,83.9,7.3
	C83.9,7.4,83.9,7.4,83.9,7.3C83.9,7.4,83.9,7.4,83.9,7.3C83.9,7.4,83.9,7.4,83.9,7.3C83.9,7.4,83.9,7.4,83.9,7.3
	C83.9,7.4,83.9,7.4,83.9,7.3C83.9,7.4,83.9,7.4,83.9,7.3C83.9,7.4,83.9,7.4,83.9,7.3C83.9,7.4,83.9,7.4,83.9,7.3
	C83.9,7.4,83.9,7.4,83.9,7.3C83.9,7.4,83.9,7.4,83.9,7.3C83.9,7.4,83.9,7.4,83.9,7.3C83.9,7.4,83.9,7.4,83.9,7.3
	C83.9,7.4,83.9,7.4,83.9,7.3C83.9,7.4,83.9,7.4,83.9,7.3C83.9,7.4,83.9,7.4,83.9,7.3C83.9,7.4,83.9,7.4,83.9,7.3
	C83.9,7.4,83.9,7.4,83.9,7.3C83.9,7.4,83.9,7.4,83.9,7.3C83.9,7.4,83.9,7.4,83.9,7.3C83.9,7.4,83.9,7.4,83.9,7.3
	C83.9,7.4,83.9,7.4,83.9,7.3C83.9,7.4,83.9,7.4,83.9,7.3C83.9,7.4,83.9,7.4,83.9,7.3C83.9,7.4,83.9,7.4,83.9,7.3
	C83.9,7.4,83.9,7.4,83.9,7.3C83.9,7.4,83.9,7.4,83.9,7.3C83.9,7.4,83.9,7.4,83.9,7.3C83.9,7.4,83.9,7.4,83.9,7.3
	C83.9,7.4,83.9,7.4,83.9,7.3C83.9,7.4,83.9,7.4,83.9,7.3C83.9,7.4,83.9,7.4,83.9,7.3C83.9,7.4,83.9,7.4,83.9,7.3
	C83.9,7.4,83.9,7.4,83.9,7.3C83.9,7.4,83.9,7.4,83.9,7.3C83.9,7.4,83.9,7.4,83.9,7.3C83.9,7.4,83.9,7.4,83.9,7.3
	C83.9,7.4,83.9,7.4,83.9,7.3C83.9,7.4,83.9,7.4,83.9,7.3C83.9,7.4,83.9,7.4,83.9,7.3C83.9,7.4,83.9,7.4,83.9,7.3
	C83.9,7.4,83.9,7.4,83.9,7.3C83.9,7.4,83.9,7.4,83.9,7.3C83.9,7.4,83.9,7.4,83.9,7.3C83.9,7.4,83.9,7.4,83.9,7.3
	C83.9,7.4,83.9,7.4,83.9,7.3C83.9,7.4,83.9,7.4,83.9,7.3C83.9,7.4,83.9,7.4,83.9,7.3C83.9,7.4,83.9,7.4,83.9,7.3
	C83.9,7.4,83.9,7.4,83.9,7.3C83.9,7.4,83.9,7.4,83.9,7.3C83.9,7.4,83.9,7.4,83.9,7.3C83.9,7.4,83.9,7.4,83.9,7.3
	C83.9,7.4,83.9,7.4,83.9,7.3C83.9,7.4,83.9,7.4,83.9,7.3C83.9,7.4,83.9,7.4,83.9,7.3C83.9,7.4,83.9,7.4,83.9,7.3
	C83.9,7.4,83.9,7.4,83.9,7.3C83.9,7.4,83.9,7.4,83.9,7.3C83.9,7.4,83.9,7.4,83.9,7.3C83.9,7.4,83.9,7.4,83.9,7.3
	C83.9,7.4,83.9,7.4,83.9,7.3C83.9,7.4,83.9,7.4,83.9,7.3C83.9,7.4,83.9,7.4,83.9,7.3C83.9,7.4,83.9,7.4,83.9,7.3
	C83.9,7.4,83.9,7.4,83.9,7.3C83.9,7.4,83.9,7.4,83.9,7.3C83.9,7.4,83.9,7.4,83.9,7.3C83.9,7.4,83.9,7.4,83.9,7.3
	C83.9,7.4,83.9,7.4,83.9,7.3C83.9,7.4,83.9,7.4,83.9,7.3C83.9,7.4,83.9,7.4,83.9,7.3C83.9,7.4,83.9,7.4,83.9,7.3
	C83.9,7.4,83.9,7.4,83.9,7.3C83.9,7.4,83.9,7.4,83.9,7.3C83.9,7.4,83.9,7.4,83.9,7.3C83.9,7.4,83.9,7.4,83.9,7.3
	C83.9,7.4,83.9,7.4,83.9,7.3C83.9,7.4,83.9,7.4,83.9,7.3C83.9,7.4,83.9,7.4,83.9,7.3C83.9,7.4,83.9,7.4,83.9,7.3
	C83.9,7.4,83.9,7.4,83.9,7.3C83.9,7.4,83.9,7.4,83.9,7.3C83.9,7.4,83.9,7.4,83.9,7.3C83.9,7.4,83.9,7.4,83.9,7.3
	C83.9,7.4,83.9,7.4,83.9,7.3C83.9,7.4,83.9,7.4,83.9,7.3C83.9,7.4,83.9,7.4,83.9,7.3C83.9,7.4,83.9,7.4,83.9,7.3
	C83.9,7.4,83.9,7.4,83.9,7.3C83.9,7.4,83.9,7.4,83.9,7.3C83.9,7.4,83.9,7.4,83.9,7.3C83.9,7.4,83.9,7.4,83.9,7.3
	C83.9,7.4,83.9,7.4,83.9,7.3C83.9,7.4,83.9,7.4,83.9,7.3C83.9,7.4,83.9,7.4,83.9,7.3C83.9,7.4,83.9,7.4,83.9,7.3
	C83.9,7.4,83.9,7.4,83.9,7.3C83.9,7.4,83.9,7.4,83.9,7.3C83.9,7.4,83.9,7.4,83.9,7.3C83.9,7.4,83.9,7.4,83.9,7.3
	C83.9,7.4,83.9,7.4,83.9,7.3C83.9,7.4,83.9,7.4,83.9,7.3C83.9,7.4,83.9,7.4,83.9,7.3C83.9,7.4,83.9,7.4,83.9,7.3
	C83.9,7.4,83.9,7.4,83.9,7.3C83.9,7.4,83.9,7.4,83.9,7.3C83.9,7.4,83.9,7.4,83.9,7.3C83.9,7.4,83.9,7.4,83.9,7.3
	C83.9,7.4,83.9,7.4,83.9,7.3C83.9,7.4,83.9,7.4,83.9,7.3C83.9,7.4,83.9,7.4,83.9,7.3C83.9,7.4,83.9,7.4,83.9,7.3
	C83.9,7.4,83.9,7.4,83.9,7.3C83.9,7.4,83.9,7.4,83.9,7.3C83.9,7.4,83.9,7.4,83.9,7.3C83.9,7.4,83.9,7.4,83.9,7.3
	C83.9,7.4,83.9,7.4,83.9,7.3C83.9,7.4,83.9,7.4,83.9,7.3C83.9,7.4,83.9,7.4,83.9,7.3C83.9,7.4,83.9,7.4,83.9,7.3
	C83.9,7.4,83.9,7.4,83.9,7.3C83.9,7.4,83.9,7.4,83.9,7.3C83.9,7.4,83.9,7.4,83.9,7.3C83.9,7.4,83.9,7.4,83.9,7.3
	C83.9,7.4,83.9,7.4,83.9,7.3C83.9,7.4,83.9,7.4,83.9,7.3C83.9,7.4,83.9,7.4,83.9,7.3C83.9,7.4,83.9,7.4,83.9,7.3
	C83.9,7.4,83.9,7.4,83.9,7.3C83.9,7.4,83.9,7.4,83.9,7.3C83.9,7.4,83.9,7.4,83.9,7.3C83.9,7.4,83.9,7.4,83.9,7.3
	C83.9,7.4,83.9,7.4,83.9,7.3C83.9,7.4,83.9,7.4,83.9,7.3C83.9,7.4,83.9,7.4,83.9,7.3C83.9,7.4,83.9,7.4,83.9,7.3
	C83.9,7.4,83.9,7.4,83.9,7.3C83.9,7.4,83.9,7.4,83.9,7.3C83.9,7.4,83.9,7.4,83.9,7.3C83.9,7.4,83.9,7.4,83.9,7.3
	C83.9,7.4,83.9,7.4,83.9,7.3C83.9,7.4,83.9,7.4,83.9,7.3C83.9,7.4,83.9,7.4,83.9,7.3C83.9,7.4,83.9,7.4,83.9,7.3
	C83.9,7.4,83.9,7.4,83.9,7.3C83.9,7.4,83.9,7.4,83.9,7.3C83.9,7.4,83.9,7.4,83.9,7.3C83.9,7.4,83.9,7.4,83.9,7.3
	C83.9,7.4,83.9,7.4,83.9,7.3C83.9,7.4,83.9,7.4,83.9,7.3C83.9,7.4,83.9,7.4,83.9,7.3C83.9,7.4,83.9,7.4,83.9,7.3
	C83.9,7.4,83.9,7.4,83.9,7.3C83.9,7.4,83.9,7.4,83.9,7.3C83.9,7.4,83.9,7.4,83.9,7.3C83.9,7.4,83.9,7.4,83.9,7.3
	C83.9,7.4,83.9,7.4,83.9,7.3C83.9,7.4,83.9,7.4,83.9,7.3C83.9,7.4,83.9,7.4,83.9,7.3C83.9,7.4,83.9,7.4,83.9,7.3
	C83.9,7.4,83.9,7.4,83.9,7.3C83.9,7.4,83.9,7.4,83.9,7.3C83.9,7.4,83.9,7.4,83.9,7.3C83.9,7.4,83.9,7.4,83.9,7.3
	C83.9,7.4,83.9,7.4,83.9,7.3C83.9,7.4,83.9,7.4,83.9,7.3C83.9,7.4,83.9,7.4,83.9,7.3C83.9,7.4,83.9,7.4,83.9,7.3
	C83.9,7.4,83.9,7.4,83.9,7.3C83.9,7.4,83.9,7.4,83.9,7.3C83.9,7.4,83.9,7.4,83.9,7.3C83.9,7.4,83.9,7.4,83.9,7.3
	C83.9,7.4,83.9,7.4,83.9,7.3C83.9,7.4,83.9,7.4,83.9,7.3C83.9,7.4,83.9,7.4,83.9,7.3C83.9,7.4,83.9,7.4,83.9,7.3
	C83.9,7.4,83.9,7.4,83.9,7.3C83.9,7.4,83.9,7.4,83.9,7.3C83.9,7.4,83.9,7.4,83.9,7.3C83.9,7.4,83.9,7.4,83.9,7.3
	C83.9,7.4,83.9,7.4,83.9,7.3C83.9,7.4,83.9,7.4,83.9,7.3C83.9,7.4,83.9,7.4,83.9,7.3C83.9,7.4,83.9,7.4,83.9,7.3
	C83.9,7.4,83.9,7.4,83.9,7.3C83.9,7.4,83.9,7.4,83.9,7.3C83.9,7.4,83.9,7.4,83.9,7.3C83.9,7.4,83.9,7.4,83.9,7.3
	C83.9,7.4,83.9,7.4,83.9,7.3C83.9,7.4,83.9,7.4,83.9,7.3C83.9,7.4,83.9,7.4,83.9,7.3C83.9,7.4,83.9,7.4,83.9,7.3
	C83.9,7.4,83.9,7.4,83.9,7.3C83.9,7.4,83.9,7.4,83.9,7.3C83.9,7.4,83.9,7.4,83.9,7.3C83.9,7.4,83.9,7.4,83.9,7.3
	C83.9,7.4,83.9,7.4,83.9,7.3C83.9,7.4,83.9,7.4,83.9,7.3C83.9,7.4,83.9,7.4,83.9,7.3C83.9,7.4,83.9,7.4,83.9,7.3
	C83.9,7.4,83.9,7.4,83.9,7.3C83.9,7.4,83.9,7.4,83.9,7.3C83.9,7.4,83.9,7.4,83.9,7.3C83.9,7.4,83.9,7.4,83.9,7.3
	C83.9,7.4,83.9,7.4,83.9,7.3C83.9,7.4,83.9,7.4,83.9,7.3C83.9,7.4,83.9,7.4,83.9,7.3C83.9,7.4,83.9,7.4,83.9,7.3
	C83.9,7.4,83.9,7.4,83.9,7.3C83.9,7.4,83.9,7.4,83.9,7.3C83.9,7.4,83.9,7.4,83.9,7.3C83.9,7.4,83.9,7.4,83.9,7.3
	C83.9,7.4,83.9,7.4,83.9,7.3C83.9,7.4,83.9,7.4,83.9,7.3C83.9,7.4,83.9,7.4,83.9,7.3C83.9,7.4,83.9,7.4,83.9,7.3
	C83.9,7.4,83.9,7.4,83.9,7.3C83.9,7.4,83.9,7.4,83.9,7.3C83.9,7.4,83.9,7.4,83.9,7.3C83.9,7.4,83.9,7.4,83.9,7.3
	C83.9,7.4,83.9,7.4,83.9,7.3C83.9,7.4,83.9,7.4,83.9,7.3C83.9,7.4,83.9,7.4,83.9,7.3C83.9,7.4,83.9,7.4,83.9,7.3
	C83.9,7.4,83.9,7.4,83.9,7.3C83.9,7.4,83.9,7.4,83.9,7.3C83.9,7.4,83.9,7.4,83.9,7.3C83.9,7.4,83.9,7.4,83.9,7.3
	C83.9,7.4,83.9,7.4,83.9,7.3C83.9,7.4,83.9,7.4,83.9,7.3C83.9,7.4,83.9,7.4,83.9,7.3C83.9,7.4,83.9,7.4,83.9,7.3
	C83.9,7.4,83.9,7.4,83.9,7.3C83.9,7.4,83.9,7.4,83.9,7.3C83.9,7.4,83.9,7.4,83.9,7.3C83.9,7.4,83.9,7.4,83.9,7.3
	C83.9,7.4,83.9,7.4,83.9,7.3C83.9,7.4,83.9,7.4,83.9,7.3C83.9,7.4,83.9,7.4,83.9,7.3C83.9,7.4,83.9,7.4,83.9,7.3
	C83.9,7.4,83.9,7.4,83.9,7.3C83.9,7.4,83.9,7.4,83.9,7.3C83.9,7.4,83.9,7.4,83.9,7.3C83.9,7.4,83.9,7.4,83.9,7.3
	C83.9,7.4,83.9,7.4,83.9,7.3C83.9,7.4,83.9,7.4,83.9,7.3C83.9,7.4,83.9,7.4,83.9,7.3C83.9,7.4,83.9,7.4,83.9,7.3
	C83.9,7.4,83.9,7.4,83.9,7.3C83.9,7.4,83.9,7.4,83.9,7.3C83.9,7.4,83.9,7.4,83.9,7.3C83.9,7.4,83.9,7.4,83.9,7.3
	C83.9,7.4,83.9,7.4,83.9,7.3C83.9,7.4,83.9,7.4,83.9,7.3C83.9,7.4,83.9,7.4,83.9,7.3C83.9,7.4,83.9,7.4,83.9,7.3
	C83.9,7.4,83.9,7.4,83.9,7.3C83.9,7.4,83.9,7.4,83.9,7.3C83.9,7.4,83.9,7.4,83.9,7.3C83.9,7.4,83.9,7.4,83.9,7.3
	C83.9,7.4,83.9,7.4,83.9,7.3C83.9,7.4,83.9,7.4,83.9,7.3C83.9,7.4,83.9,7.4,83.9,7.3C83.9,7.4,83.9,7.4,83.9,7.3
	C83.9,7.4,83.9,7.4,83.9,7.3C83.9,7.4,83.9,7.4,83.9,7.3C83.9,7.4,83.9,7.4,83.9,7.3C83.9,7.4,83.9,7.4,83.9,7.3
	C83.9,7.4,83.9,7.4,83.9,7.3C83.9,7.4,83.9,7.4,83.9,7.3C83.9,7.4,83.9,7.4,83.9,7.3C83.9,7.4,83.9,7.4,83.9,7.3
	C83.9,7.4,83.9,7.4,83.9,7.3C83.9,7.4,83.9,7.4,83.9,7.3C83.9,7.4,83.9,7.4,83.9,7.3C83.9,7.4,83.9,7.4,83.9,7.3
	C83.9,7.4,83.9,7.4,83.9,7.3C83.9,7.4,83.9,7.4,83.9,7.3C83.9,7.4,83.9,7.4,83.9,7.3C83.9,7.4,83.9,7.4,83.9,7.3
	C83.9,7.4,83.9,7.4,83.9,7.3C83.9,7.4,83.9,7.4,83.9,7.3C83.9,7.4,83.9,7.4,83.9,7.3C83.9,7.4,83.9,7.4,83.9,7.3
	C83.9,7.4,83.9,7.4,83.9,7.3C83.9,7.4,83.9,7.4,83.9,7.3C83.9,7.4,83.9,7.4,83.9,7.3C83.9,7.4,83.9,7.4,83.9,7.3
	C83.9,7.4,83.9,7.4,83.9,7.3C83.9,7.4,83.9,7.4,83.9,7.3C83.9,7.4,83.9,7.4,83.9,7.3C83.9,7.4,83.9,7.4,83.9,7.3
	C83.9,7.4,83.9,7.4,83.9,7.3C83.9,7.4,83.9,7.4,83.9,7.3C83.9,7.4,83.9,7.4,83.9,7.3C83.9,7.4,83.9,7.4,83.9,7.3
	C83.9,7.4,83.9,7.4,83.9,7.3C83.9,7.4,83.9,7.4,83.9,7.3C83.9,7.4,83.9,7.4,83.9,7.3C83.9,7.4,83.9,7.4,83.9,7.3
	C83.9,7.4,83.9,7.4,83.9,7.3C83.9,7.4,83.9,7.4,83.9,7.3C83.9,7.4,83.9,7.4,83.9,7.3C83.9,7.4,83.9,7.4,83.9,7.3
	C83.9,7.4,83.9,7.4,83.9,7.3C83.9,7.4,83.9,7.4,83.9,7.3C83.9,7.4,83.9,7.4,83.9,7.3C83.9,7.4,83.9,7.4,83.9,7.3
	C83.9,7.4,83.9,7.4,83.9,7.3C83.9,7.4,83.9,7.4,83.9,7.3C83.9,7.4,83.9,7.4,83.9,7.3C83.9,7.4,83.9,7.4,83.9,7.3
	C83.9,7.4,83.9,7.4,83.9,7.3C83.9,7.4,83.9,7.4,83.9,7.3C83.9,7.4,83.9,7.4,83.9,7.3C83.9,7.4,83.9,7.4,83.9,7.3
	C83.9,7.4,83.9,7.4,83.9,7.3C83.9,7.4,83.9,7.4,83.9,7.3C83.9,7.4,83.9,7.4,83.9,7.3C83.9,7.4,83.9,7.4,83.9,7.3
	C83.9,7.4,83.9,7.4,83.9,7.3C83.9,7.4,83.9,7.4,83.9,7.3C83.9,7.4,83.9,7.4,83.9,7.3C83.9,7.4,83.9,7.4,83.9,7.3
	C83.9,7.4,83.9,7.4,83.9,7.3C83.9,7.4,83.9,7.4,83.9,7.3C83.9,7.4,83.9,7.4,83.9,7.3C83.9,7.4,83.9,7.4,83.9,7.3
	C83.9,7.4,83.9,7.4,83.9,7.3C83.9,7.4,83.9,7.4,83.9,7.3C83.9,7.4,83.9,7.4,83.9,7.3C83.9,7.4,83.9,7.4,83.9,7.3
	C83.9,7.4,83.9,7.4,83.9,7.3C83.9,7.4,83.9,7.4,83.9,7.3C83.9,7.4,83.9,7.4,83.9,7.3C83.9,7.4,83.9,7.4,83.9,7.3
	C83.9,7.4,83.9,7.4,83.9,7.3C83.9,7.4,83.9,7.4,83.9,7.3C83.9,7.4,83.9,7.4,83.9,7.3C83.9,7.4,83.9,7.4,83.9,7.3
	C83.9,7.4,83.9,7.4,83.9,7.3C83.9,7.4,83.9,7.4,83.9,7.3C83.9,7.4,83.9,7.4,83.9,7.3C83.9,7.4,83.9,7.4,83.9,7.3
	C83.9,7.4,83.9,7.4,83.9,7.3C83.9,7.4,83.9,7.4,83.9,7.3C83.9,7.4,83.9,7.4,83.9,7.3C83.9,7.4,83.9,7.4,83.9,7.3
	C83.9,7.4,83.9,7.4,83.9,7.3C83.9,7.4,83.9,7.4,83.9,7.3C83.9,7.4,83.9,7.4,83.9,7.3C83.9,7.4,83.9,7.4,83.9,7.3
	C83.9,7.4,83.9,7.4,83.9,7.3C83.9,7.4,83.9,7.4,83.9,7.3C83.9,7.4,83.9,7.4,83.9,7.3C83.9,7.4,83.9,7.4,83.9,7.3
	C83.9,7.4,83.9,7.4,83.9,7.3C83.9,7.4,83.9,7.4,83.9,7.3C83.9,7.4,83.9,7.4,83.9,7.3C83.9,7.4,83.9,7.4,83.9,7.3
	C83.9,7.4,83.9,7.4,83.9,7.3C83.9,7.4,83.9,7.4,83.9,7.3C83.9,7.4,83.9,7.4,83.9,7.3C83.9,7.4,83.9,7.4,83.9,7.3
	C83.9,7.4,83.9,7.4,83.9,7.3C83.9,7.4,83.9,7.4,83.9,7.3C83.9,7.4,83.9,7.4,83.9,7.3C83.9,7.4,83.9,7.4,83.9,7.3
	C83.9,7.4,83.9,7.4,83.9,7.3C83.9,7.4,83.9,7.4,83.9,7.3C83.9,7.4,83.9,7.4,83.9,7.3C83.9,7.4,83.9,7.4,83.9,7.3
	C83.9,7.4,83.9,7.4,83.9,7.3C83.9,7.4,83.9,7.4,83.9,7.3C83.9,7.4,83.9,7.4,83.9,7.3C83.9,7.4,83.9,7.4,83.9,7.3
	C83.9,7.4,83.9,7.4,83.9,7.3C83.9,7.4,83.9,7.4,83.9,7.3C83.9,7.4,83.9,7.4,83.9,7.3C83.9,7.4,83.9,7.4,83.9,7.3
	C83.9,7.4,83.9,7.4,83.9,7.3C83.9,7.4,83.9,7.4,83.9,7.3C83.9,7.4,83.9,7.4,83.9,7.3C83.9,7.4,83.9,7.4,83.9,7.3
	C83.9,7.4,83.9,7.4,83.9,7.3l10,0.1c0,0,0,0,0,0c0,0,0,0,0,0s0,0,0,0c0,0,0,0,0,0c0,0,0,0,0,0c0,0,0,0,0,0c0,0,0,0,0,0c0,0,0,0,0,0
	s0,0,0,0c0,0,0,0,0,0s0,0,0,0c0,0,0,0,0,0s0,0,0,0c0,0,0,0,0,0s0,0,0,0c0,0,0,0,0,0c0,0,0,0,0,0c0,0,0,0,0,0c0,0,0,0,0,0
	c0,0,0,0,0,0s0,0,0,0c0,0,0,0,0,0s0,0,0,0c0,0,0,0,0,0s0,0,0,0c0,0,0,0,0,0s0,0,0,0c0,0,0,0,0,0s0,0,0,0c0,0,0,0,0,0c0,0,0,0,0,0
	c0,0,0,0,0,0c0,0,0,0,0,0c0,0,0,0,0,0s0,0,0,0c0,0,0,0,0,0s0,0,0,0c0,0,0,0,0,0s0,0,0,0c0,0,0,0,0,0s0,0,0,0c0,0,0,0,0,0
	c0,0,0,0,0,0c0,0,0,0,0,0c0,0,0,0,0,0c0,0,0,0,0,0s0,0,0,0c0,0,0,0,0,0s0,0,0,0c0,0,0,0,0,0s0,0,0,0c0,0,0,0,0,0s0,0,0,0
	c0,0,0,0,0,0s0,0,0,0c0,0,0,0,0,0c0,0,0,0,0,0c0,0,0,0,0,0s0,0,0,0c0,0,0,0,0,0s0,0,0,0c0,0,0,0,0,0s0,0,0,0c0,0,0,0,0,0s0,0,0,0
	c0,0,0,0,0,0s0,0,0,0c0,0,0,0,0,0c0,0,0,0,0,0c0,0,0,0,0,0c0,0,0,0,0,0c0,0,0,0,0,0s0,0,0,0c0,0,0,0,0,0s0,0,0,0c0,0,0,0,0,0
	s0,0,0,0c0,0,0,0,0,0s0,0,0,0c0,0,0,0,0,0c0,0,0,0,0,0c0,0,0,0,0,0c0,0,0,0,0,0c0,0,0,0,0,0s0,0,0,0c0,0,0,0,0,0s0,0,0,0
	c0,0,0,0,0,0s0,0,0,0c0,0,0,0,0,0s0,0,0,0c0,0,0,0,0,0s0,0,0,0c0,0,0,0,0,0c0,0,0,0,0,0c0,0,0,0,0,0c0,0,0,0,0,0c0,0,0,0,0,0
	s0,0,0,0c0,0,0,0,0,0s0,0,0,0c0,0,0,0,0,0s0,0,0,0c0,0,0,0,0,0s0,0,0,0c0,0,0,0,0,0c0,0,0,0,0,0c0,0,0,0,0,0c0,0,0,0,0,0
	c0,0,0,0,0,0s0,0,0,0c0,0,0,0,0,0s0,0,0,0c0,0,0,0,0,0s0,0,0,0c0,0,0,0,0,0s0,0,0,0c0,0,0,0,0,0s0,0,0,0c0,0,0,0,0,0c0,0,0,0,0,0
	c0,0,0,0,0,0s0,0,0,0c0,0,0,0,0,0s0,0,0,0c0,0,0,0,0,0s0,0,0,0c0,0,0,0,0,0s0,0,0,0c0,0,0,0,0,0s0,0,0,0c0,0,0,0,0,0c0,0,0,0,0,0
	c0,0,0,0,0,0c0,0,0,0,0,0c0,0,0,0,0,0s0,0,0,0c0,0,0,0,0,0s0,0,0,0c0,0,0,0,0,0s0,0,0,0c0,0,0,0,0,0s0,0,0,0c0,0,0,0,0,0
	c0,0,0,0,0,0c0,0,0,0,0,0c0,0,0,0,0,0c0,0,0,0,0,0s0,0,0,0c0,0,0,0,0,0s0,0,0,0c0,0,0,0,0,0s0,0,0,0c0,0,0,0,0,0s0,0,0,0
	c0,0,0,0,0,0s0,0,0,0c0,0,0,0,0,0c0,0,0,0,0,0c0,0,0,0,0,0c0,0,0,0,0,0c0,0,0,0,0,0s0,0,0,0c0,0,0,0,0,0s0,0,0,0c0,0,0,0,0,0
	s0,0,0,0c0,0,0,0,0,0s0,0,0,0c0,0,0,0,0,0c0,0,0,0,0,0c0,0,0,0,0,0c0,0,0,0,0,0c0,0,0,0,0,0s0,0,0,0c0,0,0,0,0,0s0,0,0,0
	c0,0,0,0,0,0s0,0,0,0c0,0,0,0,0,0s0,0,0,0c0,0,0,0,0,0s0,0,0,0c0,0,0,0,0,0c0,0,0,0,0,0c0,0,0,0,0,0c0,0,0,0,0,0c0,0,0,0,0,0
	s0,0,0,0c0,0,0,0,0,0s0,0,0,0c0,0,0,0,0,0s0,0,0,0c0,0,0,0,0,0s0,0,0,0c0,0,0,0,0,0c0,0,0,0,0,0c0,0,0,0,0,0c0,0,0,0,0,0
	c0,0,0,0,0,0s0,0,0,0c0,0,0,0,0,0s0,0,0,0c0,0,0,0,0,0s0,0,0,0c0,0,0,0,0,0s0,0,0,0c0,0,0,0,0,0s0,0,0,0c0,0,0,0,0,0c0,0,0,0,0,0
	c0,0,0,0,0,0s0,0,0,0c0,0,0,0,0,0s0,0,0,0c0,0,0,0,0,0s0,0,0,0c0,0,0,0,0,0s0,0,0,0c0,0,0,0,0,0s0,0,0,0c0,0,0,0,0,0c0,0,0,0,0,0
	c0,0,0,0,0,0c0,0,0,0,0,0c0,0,0,0,0,0s0,0,0,0c0,0,0,0,0,0s0,0,0,0c0,0,0,0,0,0s0,0,0,0c0,0,0,0,0,0s0,0,0,0c0,0,0,0,0,0
	c0,0,0,0,0,0c0,0,0,0,0,0c0,0,0,0,0,0c0,0,0,0,0,0s0,0,0,0c0,0,0,0,0,0s0,0,0,0c0,0,0,0,0,0s0,0,0,0c0,0,0,0,0,0s0,0,0,0
	c0,0,0,0,0,0s0,0,0,0c0,0,0,0,0,0c0,0,0,0,0,0c0,0,0,0,0,0c0,0,0,0,0,0c0,0,0,0,0,0s0,0,0,0c0,0,0,0,0,0s0,0,0,0c0,0,0,0,0,0
	s0,0,0,0c0,0,0,0,0,0s0,0,0,0c0,0,0,0,0,0c0,0,0,0,0,0c0,0,0,0,0,0c0,0,0,0,0,0c0,0,0,0,0,0s0,0,0,0c0,0,0,0,0,0s0,0,0,0
	c0,0,0,0,0,0s0,0,0,0c0,0,0,0,0,0s0,0,0,0c0,0,0,0,0,0s0,0,0,0c0,0,0,0,0,0c0,0,0,0,0,0c0,0,0,0,0,0s0,0,0,0c0,0,0,0,0,0s0,0,0,0
	c0,0,0,0,0,0s0,0,0,0c0,0,0,0,0,0s0,0,0,0c0,0,0,0,0,0s0,0,0,0c0,0,0,0,0,0c0,0,0,0,0,0c0,0,0,0,0,0c0,0,0,0,0,0c0,0,0,0,0,0
	s0,0,0,0c0,0,0,0,0,0s0,0,0,0c0,0,0,0,0,0s0,0,0,0c0,0,0,0,0,0s0,0,0,0c0,0,0,0,0,0c0,0,0,0,0,0c0,0,0,0,0,0c0,0,0,0,0,0
	c0,0,0,0,0,0s0,0,0,0c0,0,0,0,0,0s0,0,0,0c0,0,0,0,0,0s0,0,0,0c0,0,0,0,0,0s0,0,0,0c0,0,0,0,0,0s0,0,0,0c0,0,0,0,0,0c0,0,0,0,0,0
	c0,0,0,0,0,0c0,0,0,0,0,0c0,0,0,0,0,0s0,0,0,0c0,0,0,0,0,0s0,0,0,0c0,0,0,0,0,0s0,0,0,0c0,0,0,0,0,0s0,0,0,0c0,0,0,0,0,0
	c0,0,0,0,0,0c0,0,0,0,0,0c0,0,0,0,0,0c0,0,0,0,0,0s0,0,0,0c0,0,0,0,0,0s0,0,0,0c0,0,0,0,0,0s0,0,0,0c0,0,0,0,0,0s0,0,0,0
	c0,0,0,0,0,0s0,0,0,0c0,0,0,0,0,0c0,0,0,0,0,0c0,0,0,0,0,0c0,0,0,0,0,0c0,0,0,0,0,0s0,0,0,0c0,0,0,0,0,0s0,0,0,0c0,0,0,0,0,0
	s0,0,0,0c0,0,0,0,0,0s0,0,0,0c0,0,0,0,0,0c0,0,0,0,0,0c0,0,0,0,0,0c0,0,0,0,0,0c0,0,0,0,0,0s0,0,0,0c0,0,0,0,0,0s0,0,0,0
	c0,0,0,0,0,0s0,0,0,0c0,0,0,0,0,0s0,0,0,0c0,0,0,0,0,0s0,0,0,0c0,0,0,0,0,0c0,0,0,0,0,0c0,0,0,0,0,0s0,0,0,0c0,0,0,0,0,0s0,0,0,0
	c0,0,0,0,0,0s0,0,0,0c0,0,0,0,0,0s0,0,0,0c0,0,0,0,0,0s0,0,0,0c0,0,0,0,0,0c0,0,0,0,0,0c0,0,0,0,0,0c0,0,0,0,0,0c0,0,0,0,0,0
	s0,0,0,0c0,0,0,0,0,0s0,0,0,0c0,0,0,0,0,0s0,0,0,0c0,0,0,0,0,0s0,0,0,0c0,0,0,0,0,0c0,0,0,0,0,0c0,0,0,0,0,0c0,0,0,0,0,0
	c0,0,0,0,0,0s0,0,0,0c0,0,0,0,0,0s0,0,0,0c0,0,0,0,0,0s0,0,0,0c0,0,0,0,0,0s0,0,0,0c0,0,0,0,0,0s0,0,0,0c0,0,0,0,0,0c0,0,0,0,0,0
	c0,0,0,0,0,0c0,0,0,0,0,0c0,0,0,0,0,0s0,0,0,0c0,0,0,0,0,0s0,0,0,0c0,0,0,0,0,0s0,0,0,0c0,0,0,0,0,0s0,0,0,0c0,0,0,0,0,0
	c0,0,0,0,0,0c0,0,0,0,0,0c0,0,0,0,0,0c0,0,0,0,0,0s0,0,0,0c0,0,0,0,0,0s0,0,0,0c0,0,0,0,0,0s0,0,0,0c0,0,0,0,0,0s0,0,0,0
	c0,0,0,0,0,0s0,0,0,0c0,0,0,0,0,0c0,0,0,0,0,0c0,0,0,0,0,0s0,0,0,0c0,0,0,0,0,0s0,0,0,0c0,0,0,0,0,0s0,0,0,0c0,0,0,0,0,0s0,0,0,0
	c0,0,0,0,0,0s0,0,0,0c0,0,0,0,0,0c0,0,0,0,0,0c0,0,0,0,0,0c0,0,0,0,0,0c0,0,0,0,0,0s0,0,0,0c0,0,0,0,0,0s0,0,0,0c0,0,0,0,0,0
	s0,0,0,0c0,0,0,0,0,0s0,0,0,0c0,0,0,0,0,0s0,0,0,0c0,0,0,0,0,0c0,0,0,0,0,0c0,0,0,0,0,0s0,0,0,0c0,0,0,0,0,0s0,0,0,0c0,0,0,0,0,0
	s0,0,0,0c0,0,0,0,0,0s0,0,0,0c0,0,0,0,0,0s0,0,0,0c0,0,0,0,0,0c0,0,0,0,0,0c0,0,0,0,0,0c0,0,0,0,0,0c0,0,0,0,0,0s0,0,0,0
	c0,0,0,0,0,0s0,0,0,0c0,0,0,0,0,0s0,0,0,0c0,0,0,0,0,0s0,0,0,0c0,0,0,0,0,0c0,0,0,0,0,0c0,0,0,0,0,0c0,0,0,0,0,0c0,0,0,0,0,0
	s0,0,0,0c0,0,0,0,0,0s0,0,0,0c0,0,0,0,0,0s0,0,0,0c0,0,0,0,0,0s0,0,0,0c0,0,0,0,0,0s0,0,0,0c0,0,0,0,0,0c0,0,0,0,0,0c0,0,0,0,0,0
	c0,0,0,0,0,0c0,0,0,0,0,0s0,0,0,0c0,0,0,0,0,0s0,0,0,0c0,0,0,0,0,0s0,0,0,0c0,0,0,0,0,0s0,0,0,0c0,0,0,0,0,0c0,0,0,0,0,0
	c0,0,0,0,0,0c0,0,0,0,0,0c0,0,0,0,0,0s0,0,0,0c0,0,0,0,0,0s0,0,0,0c0,0,0,0,0,0H83.9z M83.9,7.4C83.9,7.4,83.9,7.4,83.9,7.4
	C83.9,7.4,83.9,7.4,83.9,7.4C83.9,7.4,83.9,7.4,83.9,7.4C83.9,7.4,83.9,7.4,83.9,7.4C83.9,7.4,83.9,7.4,83.9,7.4
	C83.9,7.4,83.9,7.4,83.9,7.4C83.9,7.4,83.9,7.4,83.9,7.4C83.9,7.4,83.9,7.4,83.9,7.4C83.9,7.4,83.9,7.4,83.9,7.4
	C83.9,7.4,83.9,7.4,83.9,7.4C83.9,7.4,83.9,7.4,83.9,7.4C83.9,7.4,83.9,7.4,83.9,7.4C83.9,7.4,83.9,7.4,83.9,7.4
	C83.9,7.4,83.9,7.4,83.9,7.4C83.9,7.4,83.9,7.4,83.9,7.4C83.9,7.4,83.9,7.4,83.9,7.4C83.9,7.4,83.9,7.4,83.9,7.4
	C83.9,7.4,83.9,7.4,83.9,7.4C83.9,7.4,83.9,7.4,83.9,7.4C83.9,7.4,83.9,7.4,83.9,7.4C83.9,7.4,83.9,7.4,83.9,7.4
	C83.9,7.4,83.9,7.4,83.9,7.4C83.9,7.4,83.9,7.4,83.9,7.4C83.9,7.4,83.9,7.4,83.9,7.4C83.9,7.4,83.9,7.4,83.9,7.4
	C83.9,7.4,83.9,7.4,83.9,7.4C83.9,7.4,83.9,7.4,83.9,7.4C83.9,7.4,83.9,7.4,83.9,7.4C83.9,7.4,83.9,7.4,83.9,7.4
	C83.9,7.4,83.9,7.4,83.9,7.4C83.9,7.4,83.9,7.4,83.9,7.4C83.9,7.4,83.9,7.4,83.9,7.4C83.9,7.4,83.9,7.4,83.9,7.4
	C83.9,7.4,83.9,7.4,83.9,7.4C83.9,7.4,83.9,7.4,83.9,7.4C83.9,7.4,83.9,7.4,83.9,7.4C83.9,7.4,83.9,7.4,83.9,7.4
	C83.9,7.4,83.9,7.4,83.9,7.4C83.9,7.4,83.9,7.4,83.9,7.4C83.9,7.4,83.9,7.4,83.9,7.4C83.9,7.4,83.9,7.4,83.9,7.4
	C83.9,7.4,83.9,7.4,83.9,7.4C83.9,7.4,83.9,7.4,83.9,7.4C83.9,7.4,83.9,7.4,83.9,7.4C83.9,7.4,83.9,7.4,83.9,7.4
	C83.9,7.4,83.9,7.4,83.9,7.4C83.9,7.4,83.9,7.4,83.9,7.4C83.9,7.4,83.9,7.4,83.9,7.4C83.9,7.4,83.9,7.4,83.9,7.4
	C83.9,7.4,83.9,7.4,83.9,7.4C83.9,7.4,83.9,7.4,83.9,7.4C83.9,7.4,83.9,7.4,83.9,7.4C83.9,7.4,83.9,7.4,83.9,7.4
	C83.9,7.4,83.9,7.4,83.9,7.4C83.9,7.4,83.9,7.4,83.9,7.4C83.9,7.4,83.9,7.4,83.9,7.4C83.9,7.4,83.9,7.4,83.9,7.4
	C83.9,7.4,83.9,7.4,83.9,7.4C83.9,7.4,83.9,7.4,83.9,7.4C83.9,7.4,83.9,7.4,83.9,7.4C83.9,7.4,83.9,7.4,83.9,7.4
	C83.9,7.4,83.9,7.4,83.9,7.4C83.9,7.4,83.9,7.4,83.9,7.4C83.9,7.4,83.9,7.4,83.9,7.4C83.9,7.4,83.9,7.4,83.9,7.4
	C83.9,7.4,83.9,7.4,83.9,7.4C83.9,7.4,83.9,7.4,83.9,7.4C83.9,7.4,83.9,7.4,83.9,7.4C83.9,7.4,83.9,7.4,83.9,7.4
	C83.9,7.4,83.9,7.4,83.9,7.4C83.9,7.4,83.9,7.4,83.9,7.4C83.9,7.4,83.9,7.4,83.9,7.4C83.9,7.4,83.9,7.4,83.9,7.4
	C83.9,7.4,83.9,7.4,83.9,7.4C83.9,7.4,83.9,7.4,83.9,7.4C83.9,7.4,83.9,7.4,83.9,7.4C83.9,7.4,83.9,7.4,83.9,7.4
	C83.9,7.4,83.9,7.4,83.9,7.4C83.9,7.4,83.9,7.4,83.9,7.4C83.9,7.4,83.9,7.4,83.9,7.4C83.9,7.4,83.9,7.4,83.9,7.4
	C83.9,7.4,83.9,7.4,83.9,7.4C83.9,7.4,83.9,7.4,83.9,7.4C83.9,7.4,83.9,7.4,83.9,7.4C83.9,7.4,83.9,7.4,83.9,7.4
	C83.9,7.4,83.9,7.4,83.9,7.4C83.9,7.4,83.9,7.4,83.9,7.4C83.9,7.4,83.9,7.4,83.9,7.4C83.9,7.4,83.9,7.4,83.9,7.4
	C83.9,7.4,83.9,7.4,83.9,7.4C83.9,7.4,83.9,7.4,83.9,7.4C83.9,7.4,83.9,7.4,83.9,7.4C83.9,7.4,83.9,7.4,83.9,7.4
	C83.9,7.4,83.9,7.4,83.9,7.4C83.9,7.4,83.9,7.4,83.9,7.4C83.9,7.4,83.9,7.4,83.9,7.4C83.9,7.4,83.9,7.4,83.9,7.4
	C83.9,7.4,83.9,7.4,83.9,7.4C83.9,7.4,83.9,7.4,83.9,7.4C83.9,7.4,83.9,7.4,83.9,7.4C83.9,7.4,83.9,7.4,83.9,7.4
	C83.9,7.4,83.9,7.4,83.9,7.4C83.9,7.4,83.9,7.4,83.9,7.4C83.9,7.4,83.9,7.4,83.9,7.4C83.9,7.4,83.9,7.4,83.9,7.4
	C83.9,7.4,83.9,7.4,83.9,7.4C83.9,7.4,83.9,7.4,83.9,7.4C83.9,7.4,83.9,7.4,83.9,7.4C83.9,7.4,83.9,7.4,83.9,7.4
	C83.9,7.4,83.9,7.4,83.9,7.4C83.9,7.4,83.9,7.4,83.9,7.4C83.9,7.4,83.9,7.4,83.9,7.4C83.9,7.4,83.9,7.4,83.9,7.4
	C83.9,7.4,83.9,7.4,83.9,7.4C83.9,7.4,83.9,7.4,83.9,7.4C83.9,7.4,83.9,7.4,83.9,7.4C83.9,7.4,83.9,7.4,83.9,7.4
	C83.9,7.4,83.9,7.4,83.9,7.4C83.9,7.4,83.9,7.4,83.9,7.4C83.9,7.4,83.9,7.4,83.9,7.4C83.9,7.4,83.9,7.4,83.9,7.4
	C83.9,7.4,83.9,7.4,83.9,7.4C83.9,7.4,83.9,7.4,83.9,7.4C83.9,7.4,83.9,7.4,83.9,7.4C83.9,7.4,83.9,7.4,83.9,7.4
	C83.9,7.4,83.9,7.4,83.9,7.4C83.9,7.4,83.9,7.4,83.9,7.4C83.9,7.4,83.9,7.4,83.9,7.4C83.9,7.4,83.9,7.4,83.9,7.4
	C83.9,7.4,83.9,7.4,83.9,7.4C83.9,7.4,83.9,7.4,83.9,7.4C83.9,7.4,83.9,7.4,83.9,7.4C83.9,7.4,83.9,7.4,83.9,7.4
	C83.9,7.4,83.9,7.4,83.9,7.4C83.9,7.4,83.9,7.4,83.9,7.4C83.9,7.4,83.9,7.4,83.9,7.4C83.9,7.4,83.9,7.4,83.9,7.4
	C83.9,7.4,83.9,7.4,83.9,7.4C83.9,7.4,83.9,7.4,83.9,7.4C83.9,7.4,83.9,7.4,83.9,7.4C83.9,7.4,83.9,7.4,83.9,7.4
	C83.9,7.4,83.9,7.4,83.9,7.4C83.9,7.4,83.9,7.4,83.9,7.4C83.9,7.4,83.9,7.4,83.9,7.4C83.9,7.4,83.9,7.4,83.9,7.4
	C83.9,7.4,83.9,7.4,83.9,7.4C83.9,7.4,83.9,7.4,83.9,7.4C83.9,7.4,83.9,7.4,83.9,7.4C83.9,7.4,83.9,7.4,83.9,7.4
	C83.9,7.4,83.9,7.4,83.9,7.4C83.9,7.4,83.9,7.4,83.9,7.4C83.9,7.4,83.9,7.4,83.9,7.4C83.9,7.4,83.9,7.4,83.9,7.4
	C83.9,7.4,83.9,7.4,83.9,7.4C83.9,7.4,83.9,7.4,83.9,7.4C83.9,7.4,83.9,7.4,83.9,7.4C83.9,7.4,83.9,7.4,83.9,7.4
	C83.9,7.4,83.9,7.4,83.9,7.4C83.9,7.4,83.9,7.4,83.9,7.4C83.9,7.4,83.9,7.4,83.9,7.4C83.9,7.4,83.9,7.4,83.9,7.4
	C83.9,7.4,83.9,7.4,83.9,7.4C83.9,7.4,83.9,7.4,83.9,7.4C83.9,7.4,83.9,7.4,83.9,7.4C83.9,7.4,83.9,7.4,83.9,7.4
	C83.9,7.5,83.9,7.5,83.9,7.4C83.9,7.5,83.9,7.5,83.9,7.4C83.9,7.5,83.9,7.5,83.9,7.4C83.9,7.5,83.9,7.5,83.9,7.4
	C83.9,7.5,83.9,7.5,83.9,7.4C83.9,7.5,83.9,7.5,83.9,7.4C83.9,7.5,83.9,7.5,83.9,7.4C83.9,7.5,83.9,7.5,83.9,7.4
	C83.9,7.5,83.9,7.5,83.9,7.4C83.9,7.5,83.9,7.5,83.9,7.4C83.9,7.5,83.9,7.5,83.9,7.4C83.9,7.5,83.9,7.5,83.9,7.4
	C83.9,7.5,83.9,7.5,83.9,7.4C83.9,7.5,83.9,7.5,83.9,7.4C83.9,7.5,83.9,7.5,83.9,7.4C83.9,7.5,83.9,7.5,83.9,7.4
	C83.9,7.5,83.9,7.5,83.9,7.4C83.9,7.5,83.9,7.5,83.9,7.4C83.9,7.5,83.9,7.5,83.9,7.4C83.9,7.5,83.9,7.5,83.9,7.4
	C83.9,7.5,83.9,7.5,83.9,7.4C83.9,7.5,83.9,7.5,83.9,7.4C83.9,7.5,83.9,7.5,83.9,7.4C83.9,7.5,83.9,7.5,83.9,7.4
	C83.9,7.5,83.9,7.5,83.9,7.4C83.9,7.5,83.9,7.5,83.9,7.4C83.9,7.5,83.9,7.5,83.9,7.4C83.9,7.5,83.9,7.5,83.9,7.4
	C83.9,7.5,83.9,7.5,83.9,7.4C83.9,7.5,83.9,7.5,83.9,7.4C83.9,7.5,83.9,7.5,83.9,7.4C83.9,7.5,83.9,7.5,83.9,7.4
	C83.9,7.5,83.9,7.5,83.9,7.4C83.9,7.5,83.9,7.5,83.9,7.4C83.9,7.5,83.9,7.5,83.9,7.4C83.9,7.5,83.9,7.5,83.9,7.4
	C83.9,7.5,83.9,7.5,83.9,7.4C83.9,7.5,83.9,7.5,83.9,7.4C83.9,7.5,83.9,7.5,83.9,7.4C83.9,7.5,83.9,7.5,83.9,7.4
	C83.9,7.5,83.9,7.5,83.9,7.4C83.9,7.5,83.9,7.5,83.9,7.4C83.9,7.5,83.9,7.5,83.9,7.4C83.9,7.5,83.9,7.5,83.9,7.4
	C83.9,7.5,83.9,7.5,83.9,7.4C83.9,7.5,83.9,7.5,83.9,7.4C83.9,7.5,83.9,7.5,83.9,7.4C83.9,7.5,83.9,7.5,83.9,7.4
	C83.9,7.5,83.9,7.5,83.9,7.4C83.9,7.5,83.9,7.5,83.9,7.4C83.9,7.5,83.9,7.5,83.9,7.4C83.9,7.5,83.9,7.5,83.9,7.4
	C83.9,7.5,83.9,7.5,83.9,7.4C83.9,7.5,83.9,7.5,83.9,7.4C83.9,7.5,83.9,7.5,83.9,7.4C83.9,7.5,83.9,7.5,83.9,7.4
	C83.9,7.5,83.9,7.5,83.9,7.4C83.9,7.5,83.9,7.5,83.9,7.4C83.9,7.5,83.9,7.5,83.9,7.4C83.9,7.5,83.9,7.5,83.9,7.4
	C83.9,7.5,83.9,7.5,83.9,7.4C83.9,7.5,83.9,7.5,83.9,7.4C83.9,7.5,83.9,7.5,83.9,7.4C83.9,7.5,83.9,7.5,83.9,7.4
	C83.9,7.5,83.9,7.5,83.9,7.4C83.9,7.5,83.9,7.5,83.9,7.4C83.9,7.5,83.9,7.5,83.9,7.4C83.9,7.5,83.9,7.5,83.9,7.4
	C83.9,7.5,83.9,7.5,83.9,7.4C83.9,7.5,83.9,7.5,83.9,7.4C83.9,7.5,83.9,7.5,83.9,7.4C83.9,7.5,83.9,7.5,83.9,7.4
	C83.9,7.5,83.9,7.5,83.9,7.4C83.9,7.5,83.9,7.5,83.9,7.4C83.9,7.5,83.9,7.5,83.9,7.4C83.9,7.5,83.9,7.5,83.9,7.4
	C83.9,7.5,83.9,7.5,83.9,7.4C83.9,7.5,83.9,7.5,83.9,7.4C83.9,7.5,83.9,7.5,83.9,7.4C83.9,7.5,83.9,7.5,83.9,7.4
	C83.9,7.5,83.9,7.5,83.9,7.4C83.9,7.5,83.9,7.5,83.9,7.4C83.9,7.5,83.9,7.5,83.9,7.4C83.9,7.5,83.9,7.5,83.9,7.4
	C83.9,7.5,83.9,7.5,83.9,7.4C83.9,7.5,83.9,7.5,83.9,7.4C83.9,7.5,83.9,7.5,83.9,7.4C83.9,7.5,83.9,7.5,83.9,7.4
	C83.9,7.5,83.9,7.5,83.9,7.4C83.9,7.5,83.9,7.5,83.9,7.4C83.9,7.5,83.9,7.5,83.9,7.4C83.9,7.5,83.9,7.5,83.9,7.4
	C83.9,7.5,83.9,7.5,83.9,7.4C83.9,7.5,83.9,7.5,83.9,7.4C83.9,7.5,83.9,7.5,83.9,7.4C83.9,7.5,83.9,7.5,83.9,7.4
	C83.9,7.5,83.9,7.5,83.9,7.4C83.9,7.5,83.9,7.5,83.9,7.4C83.9,7.5,83.9,7.5,83.9,7.4C83.9,7.5,83.9,7.5,83.9,7.4
	C83.9,7.5,83.9,7.5,83.9,7.4C83.9,7.5,83.9,7.5,83.9,7.4C83.9,7.5,83.9,7.5,83.9,7.4C83.9,7.5,83.9,7.5,83.9,7.4
	C83.9,7.5,83.9,7.5,83.9,7.4C83.9,7.5,83.9,7.5,83.9,7.4C83.9,7.5,83.9,7.5,83.9,7.4C83.9,7.5,83.9,7.5,83.9,7.4
	C83.9,7.5,83.9,7.5,83.9,7.4C83.9,7.5,83.9,7.5,83.9,7.4C83.9,7.5,83.9,7.5,83.9,7.4C83.9,7.5,83.9,7.5,83.9,7.4
	C83.9,7.5,83.9,7.5,83.9,7.4C83.9,7.5,83.9,7.5,83.9,7.4C83.9,7.5,83.9,7.5,83.9,7.4C83.9,7.5,83.9,7.5,83.9,7.4
	C83.9,7.5,83.9,7.5,83.9,7.4C83.9,7.5,83.9,7.5,83.9,7.4C83.9,7.5,83.9,7.5,83.9,7.4C83.9,7.5,83.9,7.5,83.9,7.4
	C83.9,7.5,83.9,7.5,83.9,7.4C83.9,7.5,83.9,7.5,83.9,7.4C83.9,7.5,83.9,7.5,83.9,7.4C83.9,7.5,83.9,7.5,83.9,7.4
	C83.9,7.5,83.9,7.5,83.9,7.4C83.9,7.5,83.9,7.5,83.9,7.4C83.9,7.5,83.9,7.5,83.9,7.4C83.9,7.5,83.9,7.5,83.9,7.4
	C83.9,7.5,83.9,7.5,83.9,7.4C83.9,7.5,83.9,7.5,83.9,7.4C83.9,7.5,83.9,7.5,83.9,7.4C83.9,7.5,83.9,7.5,83.9,7.4
	C83.9,7.5,83.9,7.5,83.9,7.4C83.9,7.5,83.9,7.5,83.9,7.4C83.9,7.5,83.9,7.5,83.9,7.4C83.9,7.5,83.9,7.5,83.9,7.4
	C83.9,7.5,83.9,7.5,83.9,7.4C83.9,7.5,83.9,7.5,83.9,7.4C83.9,7.5,83.9,7.5,83.9,7.4C83.9,7.5,83.9,7.5,83.9,7.4
	C83.9,7.5,83.9,7.5,83.9,7.4C83.9,7.5,83.9,7.5,83.9,7.4C83.9,7.5,83.9,7.5,83.9,7.4C83.9,7.5,83.9,7.5,83.9,7.4
	C83.9,7.5,83.9,7.5,83.9,7.4C83.9,7.5,83.9,7.5,83.9,7.4C83.9,7.5,83.9,7.5,83.9,7.4C83.9,7.5,83.9,7.5,83.9,7.4
	C83.9,7.5,83.9,7.5,83.9,7.4C83.9,7.5,83.9,7.5,83.9,7.4C83.9,7.5,83.9,7.5,83.9,7.4C83.9,7.5,83.9,7.5,83.9,7.4
	C83.9,7.5,83.9,7.5,83.9,7.4C83.9,7.5,83.9,7.5,83.9,7.4C83.9,7.5,83.9,7.5,83.9,7.4C83.9,7.5,83.9,7.5,83.9,7.4
	C83.9,7.5,83.9,7.5,83.9,7.4C83.9,7.5,83.9,7.5,83.9,7.4C83.9,7.5,83.9,7.5,83.9,7.4C83.9,7.5,83.9,7.5,83.9,7.4
	C83.9,7.5,83.9,7.5,83.9,7.4C83.9,7.5,83.9,7.5,83.9,7.4C83.9,7.5,83.9,7.5,83.9,7.4C83.9,7.5,83.9,7.5,83.9,7.4
	C83.9,7.5,83.9,7.5,83.9,7.4C83.9,7.5,83.9,7.5,83.9,7.4C83.9,7.5,83.9,7.5,83.9,7.4C83.9,7.5,83.9,7.5,83.9,7.4
	C83.9,7.5,83.9,7.5,83.9,7.4C83.9,7.5,83.9,7.5,83.9,7.4C83.9,7.5,83.9,7.5,83.9,7.4C83.9,7.5,83.9,7.5,83.9,7.4
	C83.9,7.5,83.9,7.5,83.9,7.4C83.9,7.5,83.9,7.5,83.9,7.4C83.9,7.5,83.9,7.5,83.9,7.4C83.9,7.5,83.9,7.5,83.9,7.4
	C83.9,7.5,83.9,7.5,83.9,7.4C83.9,7.5,83.9,7.5,83.9,7.4C83.9,7.5,83.9,7.5,83.9,7.4C83.9,7.5,83.9,7.5,83.9,7.4
	C83.9,7.5,83.9,7.5,83.9,7.4C83.9,7.5,83.9,7.5,83.9,7.4C83.9,7.5,83.9,7.5,83.9,7.4C83.9,7.5,83.9,7.5,83.9,7.4
	C83.9,7.5,83.9,7.5,83.9,7.4C83.9,7.5,83.9,7.5,83.9,7.4C83.9,7.5,83.9,7.5,83.9,7.4C83.9,7.5,83.9,7.5,83.9,7.4
	C83.9,7.5,83.9,7.5,83.9,7.4C83.9,7.5,83.9,7.5,83.9,7.4C83.9,7.5,83.9,7.5,83.9,7.4C83.9,7.5,83.9,7.5,83.9,7.4
	C83.9,7.5,83.9,7.5,83.9,7.4C83.9,7.5,83.9,7.5,83.9,7.4C83.9,7.5,83.9,7.5,83.9,7.4C83.9,7.5,83.9,7.5,83.9,7.4
	C83.9,7.5,83.9,7.5,83.9,7.4C83.9,7.5,83.9,7.5,83.9,7.4C83.9,7.5,83.9,7.5,83.9,7.4C83.9,7.5,83.9,7.5,83.9,7.4
	C83.9,7.5,83.9,7.5,83.9,7.4C83.9,7.5,83.9,7.5,83.9,7.4C83.9,7.5,83.9,7.5,83.9,7.4C83.9,7.5,83.9,7.5,83.9,7.4
	C83.9,7.5,83.9,7.5,83.9,7.4C83.9,7.5,83.9,7.5,83.9,7.4C83.9,7.5,83.9,7.5,83.9,7.4C83.9,7.5,83.9,7.5,83.9,7.4
	C83.9,7.5,83.9,7.5,83.9,7.4C83.9,7.5,83.9,7.5,83.9,7.4C83.9,7.5,83.9,7.5,83.9,7.4C83.9,7.5,83.9,7.5,83.9,7.4
	C83.9,7.5,83.9,7.5,83.9,7.4C83.9,7.5,83.9,7.5,83.9,7.4C83.9,7.5,83.9,7.5,83.9,7.4C83.9,7.5,83.9,7.5,83.9,7.4
	C83.9,7.5,83.9,7.5,83.9,7.4C83.9,7.5,83.9,7.5,83.9,7.4C83.9,7.5,83.9,7.5,83.9,7.4C83.9,7.5,83.9,7.5,83.9,7.4
	C83.9,7.5,83.9,7.5,83.9,7.4C83.9,7.5,83.9,7.5,83.9,7.4C83.9,7.5,83.9,7.5,83.9,7.4C83.9,7.5,83.9,7.5,83.9,7.4
	C83.9,7.5,83.9,7.5,83.9,7.4C83.9,7.5,83.9,7.5,83.9,7.4C83.9,7.5,83.9,7.5,83.9,7.4C83.9,7.5,83.9,7.5,83.9,7.4
	C83.9,7.5,83.9,7.5,83.9,7.4C83.9,7.5,83.9,7.5,83.9,7.4C83.9,7.5,83.9,7.5,83.9,7.4C83.9,7.5,83.9,7.5,83.9,7.4
	C83.9,7.5,83.9,7.5,83.9,7.4C83.9,7.5,83.9,7.5,83.9,7.4C83.9,7.5,83.9,7.5,83.9,7.4C83.9,7.5,83.9,7.5,83.9,7.4
	C83.9,7.5,83.9,7.5,83.9,7.4C83.9,7.5,83.9,7.5,83.9,7.4C83.9,7.5,83.9,7.5,83.9,7.4C83.9,7.5,83.9,7.5,83.9,7.4
	C83.9,7.5,83.9,7.5,83.9,7.4C83.9,7.5,83.9,7.5,83.9,7.4C83.9,7.5,83.9,7.5,83.9,7.4C83.9,7.5,83.9,7.5,83.9,7.4
	C83.9,7.5,83.9,7.5,83.9,7.4C83.9,7.5,83.9,7.5,83.9,7.4C83.9,7.5,83.9,7.5,83.9,7.4C83.9,7.5,83.9,7.5,83.9,7.4
	C83.9,7.5,83.9,7.5,83.9,7.4C83.9,7.5,83.9,7.5,83.9,7.4C83.9,7.5,83.9,7.5,83.9,7.4C83.9,7.5,83.9,7.5,83.9,7.4
	C83.9,7.5,83.9,7.5,83.9,7.4C83.9,7.5,83.9,7.5,83.9,7.4C83.9,7.5,83.9,7.5,83.9,7.4C83.9,7.5,83.9,7.5,83.9,7.4
	C83.9,7.5,83.9,7.5,83.9,7.4C83.9,7.5,83.9,7.5,83.9,7.4C83.9,7.5,83.9,7.5,83.9,7.4C83.9,7.5,83.9,7.5,83.9,7.4
	C83.9,7.5,83.9,7.5,83.9,7.4C83.9,7.5,83.9,7.5,83.9,7.4C83.9,7.5,83.9,7.5,83.9,7.4C83.9,7.5,83.9,7.5,83.9,7.4
	C83.9,7.5,83.9,7.5,83.9,7.4C83.9,7.5,83.9,7.5,83.9,7.4C83.9,7.5,83.9,7.5,83.9,7.4C83.9,7.5,83.9,7.5,83.9,7.4
	C83.9,7.5,83.9,7.5,83.9,7.4C83.9,7.5,83.9,7.5,83.9,7.4C83.9,7.5,83.9,7.5,83.9,7.4C83.9,7.5,83.9,7.5,83.9,7.4
	C83.9,7.5,83.9,7.5,83.9,7.4C83.9,7.5,83.9,7.5,83.9,7.4C83.9,7.5,83.9,7.5,83.9,7.4C83.9,7.5,83.9,7.5,83.9,7.4
	C83.9,7.5,83.9,7.5,83.9,7.4C83.9,7.5,83.9,7.5,83.9,7.4C83.9,7.5,83.9,7.5,83.9,7.4C83.9,7.5,83.9,7.5,83.9,7.4
	C83.9,7.5,83.9,7.5,83.9,7.4C83.9,7.5,83.9,7.5,83.9,7.4C83.9,7.5,83.9,7.5,83.9,7.4C83.9,7.5,83.9,7.5,83.9,7.4
	C83.9,7.5,83.9,7.5,83.9,7.4C83.9,7.5,83.9,7.5,83.9,7.4c0,0.1,0,0.1,0,0.1c0,0,0,0,0,0c0,0,0,0,0,0c0,0,0,0,0,0c0,0,0,0,0,0
	c0,0,0,0,0,0c0,0,0,0,0,0c0,0,0,0,0,0c0,0,0,0,0,0c0,0,0,0,0,0c0,0,0,0,0,0c0,0,0,0,0,0s0,0,0,0s0,0,0,0s0,0,0,0s0,0,0,0
	c0,0,0,0,0,0c0,0,0,0,0,0c0,0,0,0,0,0c0,0,0,0,0,0c0,0,0,0,0,0c0,0,0,0,0,0c0,0,0,0,0,0c0,0,0,0,0,0s0,0,0,0s0,0,0,0c0,0,0,0,0,0
	s0,0,0,0s0,0,0,0s0,0,0,0c0,0,0,0,0,0c0,0,0,0,0,0c0,0,0,0,0,0c0,0,0,0,0,0c0,0,0,0,0,0c0,0,0,0,0,0c0,0,0,0,0,0c0,0,0,0,0,0
	c0,0,0,0,0,0c0,0,0,0,0,0c0,0,0,0,0,0c0,0,0,0,0,0c0,0,0,0,0,0c0,0,0,0,0,0s0,0,0,0s0,0,0,0c0,0,0,0,0,0c0,0,0,0,0,0c0,0,0,0,0,0
	c0,0,0,0,0,0c0,0,0,0,0,0c0,0,0,0,0,0c0,0,0,0,0,0c0,0,0,0,0,0c0,0,0,0,0,0c0,0,0,0,0,0s0,0,0,0c0,0,0,0,0,0c0,0,0,0,0,0
	c0,0,0,0,0,0c0,0,0,0,0,0h10c0,0,0,0,0,0c0,0,0,0,0,0c0,0,0,0,0,0c0,0,0,0,0,0c0,0,0,0,0,0s0,0,0,0c0,0,0,0,0,0c0,0,0,0,0,0
	c0,0,0,0,0,0c0,0,0,0,0,0c0,0,0,0,0,0c0,0,0,0,0,0c0,0,0,0,0,0c0,0,0,0,0,0c0,0,0,0,0,0c0,0,0,0,0,0s0,0,0,0s0,0,0,0c0,0,0,0,0,0
	c0,0,0,0,0,0c0,0,0,0,0,0c0,0,0,0,0,0c0,0,0,0,0,0c0,0,0,0,0,0c0,0,0,0,0,0c0,0,0,0,0,0c0,0,0,0,0,0c0,0,0,0,0,0c0,0,0,0,0,0
	c0,0,0,0,0,0c0,0,0,0,0,0c0,0,0,0,0,0s0,0,0,0s0,0,0,0s0,0,0,0c0,0,0,0,0,0s0,0,0,0s0,0,0,0c0,0,0,0,0,0c0,0,0,0,0,0c0,0,0,0,0,0
	c0,0,0,0,0,0c0,0,0,0,0,0c0,0,0,0,0,0c0,0,0,0,0,0c0,0,0,0,0,0s0,0,0,0s0,0,0,0s0,0,0,0s0,0,0,0c0,0,0,0,0,0c0,0,0,0,0,0
	c0,0,0,0,0,0c0,0,0,0,0,0c0,0,0,0,0,0c0,0,0,0,0,0c0,0,0,0,0,0c0,0,0,0,0,0c0,0,0,0,0,0c0,0,0,0,0,0c0,0,0,0,0,0c0,0,0,0,0,0
	c0,0,0,0,0,0c0,0,0,0,0,0c0,0,0,0,0,0c0,0,0,0,0,0c0,0,0,0,0,0s0,0,0,0s0,0,0,0c0,0,0,0,0,0c0,0,0,0,0,0c0,0,0,0,0,0c0,0,0,0,0,0
	s0,0,0,0s0,0,0,0s0,0,0,0c0,0,0,0,0,0c0,0,0,0,0,0c0,0,0,0,0,0c0,0,0,0,0,0c0,0,0,0,0,0s0,0,0,0s0,0,0,0s0,0,0,0c0,0,0,0,0,0
	c0,0,0,0,0,0c0,0,0,0,0,0c0,0,0,0,0,0s0,0,0,0s0,0,0,0c0,0,0,0,0,0c0,0,0,0,0,0c0,0,0,0,0,0c0,0,0,0,0,0s0,0,0,0c0,0,0,0,0,0
	c0,0,0,0,0,0c0,0,0,0,0,0c0,0,0,0,0,0c0,0,0,0,0,0c0,0,0,0,0,0c0,0,0,0,0,0c0,0,0,0,0,0c0,0,0,0,0,0c0,0,0,0,0,0c0,0,0,0,0,0
	c0,0,0,0,0,0c0,0,0,0,0,0c0,0,0,0,0,0c0,0,0,0,0,0c0,0,0,0,0,0s0,0,0,0c0,0,0,0,0,0c0,0,0,0,0,0c0,0,0,0,0,0c0,0,0,0,0,0
	c0,0,0,0,0,0c0,0,0,0,0,0c0,0,0,0,0,0c0,0,0,0,0,0c0,0,0,0,0,0s0,0,0,0c0,0,0,0,0,0c0,0,0,0,0,0c0,0,0,0,0,0s0,0,0,0c0,0,0,0,0,0
	s0,0,0,0c0,0,0,0,0,0c0,0,0,0,0,0s0,0,0,0s0,0,0,0c0,0,0,0,0,0c0,0,0,0,0,0s0,0,0,0c0,0,0,0,0,0s0,0,0,0c0,0,0,0,0,0c0,0,0,0,0,0
	c0,0,0,0,0,0s0,0,0,0c0,0,0,0,0,0c0,0,0,0,0,0s0,0,0,0c0,0,0,0,0,0c0,0,0,0,0,0c0,0,0,0,0,0s0,0,0,0c0,0,0,0,0,0c0,0,0,0,0,0
	c0,0,0,0,0,0s0,0,0,0s0,0,0,0c0,0,0,0,0,0c0,0,0,0,0,0c0,0,0,0,0,0s0,0,0,0c0,0,0,0,0,0c0,0,0,0,0,0c0,0,0,0,0,0c0,0,0,0,0,0
	c0,0,0,0,0,0c0,0,0,0,0,0c0,0,0,0,0,0c0,0,0,0,0,0c0,0,0,0,0,0c0,0,0,0,0,0c0,0,0,0,0,0c0,0,0,0,0,0c0,0,0,0,0,0c0,0,0,0,0,0
	c0,0,0,0,0,0c0,0,0,0,0,0c0,0,0,0,0,0c0,0,0,0,0,0c0,0,0,0,0,0c0,0,0,0,0,0s0,0,0,0c0,0,0,0,0,0c0,0,0,0,0,0c0,0,0,0,0,0s0,0,0,0
	s0,0,0,0c0,0,0,0,0,0c0,0,0,0,0,0c0,0,0,0,0,0c0,0,0,0,0,0c0,0,0,0,0,0c0,0,0,0,0,0c0,0,0,0,0,0c0,0,0,0,0,0s0,0,0,0s0,0,0,0
	c0,0,0,0,0,0c0,0,0,0,0,0s0,0,0,0c0,0,0,0,0,0s0,0,0,0s0,0,0,0c0,0,0,0,0,0c0,0,0,0,0,0s0,0,0,0c0,0,0,0,0,0c0,0,0,0,0,0s0,0,0,0
	s0,0,0,0c0,0,0,0,0,0s0,0,0,0s0,0,0,0c0,0,0,0,0,0s0,0,0,0c0,0,0,0,0,0c0,0,0,0,0,0s0,0,0,0s0,0,0,0c0,0,0,0,0,0s0,0,0,0s0,0,0,0
	c0,0,0,0,0,0c0,0,0,0,0,0s0,0,0,0c0,0,0,0,0,0c0,0,0,0,0,0c0,0,0,0,0,0c0,0,0,0,0,0c0,0,0,0,0,0s0,0,0,0c0,0,0,0,0,0s0,0,0,0
	s0,0,0,0c0,0,0,0,0,0c0,0,0,0,0,0c0,0,0,0,0,0c0,0,0,0,0,0c0,0,0,0,0,0c0,0,0,0,0,0c0,0,0,0,0,0c0,0,0,0,0,0c0,0,0,0,0,0
	c0,0,0,0,0,0c0,0,0,0,0,0c0,0,0,0,0,0c0,0,0,0,0,0c0,0,0,0,0,0c0,0,0,0,0,0c0,0,0,0,0,0c0,0,0,0,0,0c0,0,0,0,0,0c0,0,0,0,0,0
	c0,0,0,0,0,0c0,0,0,0,0,0c0,0,0,0,0,0c0,0,0,0,0,0s0,0,0,0s0,0,0,0c0,0,0,0,0,0s0,0,0,0c0,0,0,0,0,0s0,0,0,0s0,0,0,0c0,0,0,0,0,0
	c0,0,0,0,0,0c0,0,0,0,0,0c0,0,0,0,0,0s0,0,0,0c0,0,0,0,0,0s0,0,0,0s0,0,0,0c0,0,0,0,0,0s0,0,0,0c0,0,0,0,0,0s0,0,0,0c0,0,0,0,0,0
	c0,0,0,0,0,0s0,0,0,0c0,0,0,0,0,0c0,0,0,0,0,0s0,0,0,0c0,0,0,0,0,0s0,0,0,0s0,0,0,0c0,0,0,0,0,0s0,0,0,0c0,0,0,0,0,0s0,0,0,0
	s0,0,0,0c0,0,0,0,0,0s0,0,0,0c0,0,0,0,0,0s0,0,0,0s0,0,0,0c0,0,0,0,0,0s0,0,0,0c0,0,0,0,0,0c0,0,0,0,0,0c0,0,0,0,0,0s0,0,0,0
	s0,0,0,0c0,0,0,0,0,0s0,0,0,0c0,0,0,0,0,0s0,0,0,0s0,0,0,0c0,0,0,0,0,0s0,0,0,0c0,0,0,0,0,0c0,0,0,0,0,0s0,0,0,0c0,0,0,0,0,0
	s0,0,0,0c0,0,0,0,0,0c0,0,0,0,0,0c0,0,0,0,0,0s0,0,0,0s0,0,0,0c0,0,0,0,0,0c0,0,0,0,0,0c0,0,0,0,0,0c0,0,0,0,0,0c0,0,0,0,0,0
	s0,0,0,0s0,0,0,0c0,0,0,0,0,0s0,0,0,0c0,0,0,0,0,0s0,0,0,0c0,0,0,0,0,0c0,0,0,0,0,0c0,0,0,0,0,0c0,0,0,0,0,0c0,0,0,0,0,0
	c0,0,0,0,0,0c0,0,0,0,0,0c0,0,0,0,0,0c0,0,0,0,0,0c0,0,0,0,0,0c0,0,0,0,0,0c0,0,0,0,0,0c0,0,0,0,0,0c0,0,0,0,0,0c0,0,0,0,0,0
	c0,0,0,0,0,0c0,0,0,0,0,0c0,0,0,0,0,0c0,0,0,0,0,0c0,0,0,0,0,0c0,0,0,0,0,0c0,0,0,0,0,0c0,0,0,0,0,0c0,0,0,0,0,0c0,0,0,0,0,0
	c0,0,0,0,0,0c0,0,0,0,0,0c0,0,0,0,0,0c0,0,0,0,0,0c0,0,0,0,0,0c0,0,0,0,0,0c0,0,0,0,0,0c0,0,0,0,0,0c0,0,0,0,0,0c0,0,0,0,0,0
	s0,0,0,0c0,0,0,0,0,0s0,0,0,0s0,0,0,0c0,0,0,0,0,0c0,0,0,0,0,0c0,0,0,0,0,0s0,0,0,0c0,0,0,0,0,0s0,0,0,0c0,0,0,0,0,0s0,0,0,0
	c0,0,0,0,0,0c0,0,0,0,0,0c0,0,0,0,0,0c0,0,0,0,0,0s0,0,0,0s0,0,0,0c0,0,0,0,0,0c0,0,0,0,0,0s0,0,0,0c0,0,0,0,0,0c0,0,0,0,0,0
	c0,0,0,0,0,0s0,0,0,0c0,0,0,0,0,0s0,0,0,0c0,0,0,0,0,0c0,0,0,0,0,0c0,0,0,0,0,0c0,0,0,0,0,0c0,0,0,0,0,0s0,0,0,0s0,0,0,0s0,0,0,0
	s0,0,0,0s0,0,0,0s0,0,0,0c0,0,0,0,0,0s0,0,0,0c0,0,0,0,0,0s0,0,0,0c0,0,0,0,0,0c0,0,0,0,0,0c0,0,0,0,0,0s0,0,0,0c0,0,0,0,0,0
	s0,0,0,0c0,0,0,0,0,0c0,0,0,0,0,0c0,0,0,0,0,0s0,0,0,0c0,0,0,0,0,0c0,0,0,0,0,0s0,0,0,0s0,0,0,0s0,0,0,0s0,0,0,0s0,0,0,0s0,0,0,0
	s0,0,0,0s0,0,0,0s0,0,0,0c0,0,0,0,0,0s0,0,0,0c0,0,0,0,0,0s0,0,0,0c0,0,0,0,0,0s0,0,0,0c0,0,0,0,0,0s0,0,0,0c0,0,0,0,0,0s0,0,0,0
	c0,0,0,0,0,0s0,0,0,0c0,0,0,0,0,0s0,0,0,0c0,0,0,0,0,0s0,0,0,0c0,0,0,0,0,0s0,0,0,0c0,0,0,0,0,0s0,0,0,0c0,0,0,0,0,0s0,0,0,0
	c0,0,0,0,0,0s0,0,0,0c0,0,0,0,0,0s0,0,0,0c0,0,0,0,0,0s0,0,0,0s0,0,0,0c0,0,0,0,0,0s0,0,0,0s0,0,0,0s0,0,0,0s0,0,0,0s0,0,0,0
	s0,0,0,0s0,0,0,0s0,0,0,0c0,0,0,0,0,0s0,0,0,0s0,0,0,0s0,0,0,0s0,0,0,0s0,0,0,0s0,0,0,0c0,0,0,0,0,0s0,0,0,0s0,0,0,0c0,0,0,0,0,0
	s0,0,0,0s0,0,0,0s0,0,0,0s0,0,0,0s0,0,0,0s0,0,0,0s0,0,0,0s0,0,0,0c0,0,0,0,0,0s0,0,0,0s0,0,0,0c0,0,0,0,0,0s0,0,0,0s0,0,0,0
	s0,0,0,0s0,0,0,0c0,0,0,0,0,0s0,0,0,0c0,0,0,0,0,0c0,0,0,0,0,0s0,0,0,0c0,0,0,0,0,0s0,0,0,0s0,0,0,0c0,0,0,0,0,0s0,0,0,0
	c0,0,0,0,0,0s0,0,0,0c0,0,0,0,0,0s0,0,0,0c0,0,0,0,0,0c0,0,0,0,0,0c0,0,0,0,0,0s0,0,0,0c0,0,0,0,0,0s0,0,0,0c0,0,0,0,0,0s0,0,0,0
	c0,0,0,0,0,0H83.9z M83.9,8c0.5,6.2,0.7,12.4,0,18.3l9.9,1.1c0.8-6.8,0.6-13.7,0-20.3L83.9,8z M83.9,26.2c-0.2,1.4,0.2,2.9,1,4
	c0.8,1,1.7,1.6,2.3,1.8c1.3,0.6,2.5,0.6,3.4,0.6c0.9-0.1,2.1-0.3,3.2-0.9c1.1-0.6,2.9-2,3.2-4.7l-10-0.9c0.2-2,1.6-3,2-3.2
	c0.5-0.3,0.8-0.3,0.9-0.3c0.1,0,0.5,0,1.2,0.3c0.4,0.2,1.1,0.5,1.7,1.4c0.7,0.9,1,2.1,0.8,3.3L83.9,26.2z M97,27.2
	c0.5-4,0.6-7.9,0.5-11.8l-10,0.2c0.1,3.6,0,7.1-0.4,10.4L97,27.2z M88,17.4c2.3,5.4,4.1,10.8,5.3,16.3l9.8-2
	c-1.3-6.4-3.4-12.5-5.8-18.3L88,17.4z M93.1,32.2c-0.2,1.4,0.2,2.7,1,3.8c0.7,1,1.6,1.5,2.3,1.8c1.2,0.6,2.5,0.7,3.3,0.6l-0.4-10
	c0.1,0,0.6,0,1.3,0.3c0.4,0.2,1.1,0.6,1.6,1.4c0.6,0.9,0.9,2,0.8,3.1L93.1,32.2z M99.4,38.5c1.2,0,2.5-0.2,3.8-0.8
	c1-0.5,3.9-2.6,3.1-6.3l-9.8,2.2c-0.3-1.3,0-2.6,0.6-3.5c0.5-0.8,1.1-1.2,1.4-1.3c0.5-0.3,0.9-0.3,1.2-0.3L99.4,38.5z M106.3,32.8
	c0.6-8.8,0.9-17.7,0.9-26.5l-10,0c0,8.6-0.3,17.3-0.9,25.9L106.3,32.8z"/>
<path class="st0" d="M14.8,14.9c2.5-0.5,4.8-1.6,4-4c-0.9-2.6-4.5-4.5-7.1-4c-0.4,0.1-0.8,0.2-1.1,0.4c0-0.1,0-0.3,0-0.4
	c-0.1-1.2-3.3-1-3.2,0.3c0.3,5.4,0.2,10.9-0.2,16.3c-0.1,1.1,3.1,1,3.2-0.3c0.2-2.5,0.3-5.1,0.4-7.6c2.6,0.9,4.9,2.7,5.9,5.4
	c1.3,3.6-0.5,5.8-4,5.3c1.8-1.5,2.8-3.6,2.4-6.2c-0.2-1.3-3.4-0.9-3.2,0.3c0.4,2-0.3,3.9-1.9,5.2c-0.5,0.4-1,0.7-1.6,1
	c-0.2,0.1-1.3,0.5-0.6,0.3c-2.1,0.6-0.5,2.1,1,1.6c0.5-0.1,1-0.4,1.6-0.6c3.9,1,9.2,1.1,9.9-3.8C20.9,19.9,18.1,16.7,14.8,14.9z
	 M10.7,13.3c-0.1-2.2,0.7-5.4,3.5-3.5c1.2,0.8,2,2.1,0.7,3c-1,0.7-3,0.7-4.2,0.7c0,0,0,0,0,0C10.7,13.4,10.7,13.4,10.7,13.3z
	 M33.2,10.4c0.7-2.4-1.2-3.7-3.4-4c-2.2-0.3-4.5,0.2-6.5,1.3c0-0.3-0.1-0.5-0.1-0.8C23,5.7,19.8,6,20,7.2c1.1,6.7,0.9,13.7,0.1,20.4
	c-0.1,1.1,3.1,1,3.2-0.3c0.2-2.2,0.4-4.4,0.5-6.5c1.3-0.7,3.3-1.6,4.8-1.5c-2.2,4.2-2.3,9.4,0.4,13.4c0.7,1,3.8,0.3,3.1-0.8
	c-2.7-4-2.3-9.1,0.1-13.1c0.2-0.4-0.2-0.7-0.5-0.8c-1.2-0.5-2.5-0.6-3.8-0.5C30.4,15.6,32.4,13.1,33.2,10.4z M24,17.4
	c0-2.4-0.1-4.9-0.3-7.3c0,0,0.1,0,0.1-0.1c1.3-1,3.9-2.6,5.7-1.6c1.9,1-0.3,4.1-1.1,5.2C27.2,15,25.7,16.4,24,17.4z M41.2,6.8
	c-1.9,0-3.3,0.9-4.3,2.2c-2.6,1.1-3.5,4.6-3.9,7.1c-0.6,3.4-0.7,7.6,1.9,10.3c3.3,3.4,8.8,1.9,10.6-2.2C47.4,20.1,48.1,6.9,41.2,6.8
	z M42.8,22.8c-0.5,1.5-1.5,3.9-3.4,3.6c-1.6-0.3-2.6-2.2-3-3.6c-0.5-1.6-0.5-3.3-0.4-4.9c0.5,1.4,1.4,2.6,2.6,3.4
	c0.9,0.6,4-0.3,2.7-1.1c-1.8-1.1-2.4-2.8-2.6-4.9c-0.1-1.5,0.1-7.2,3-5.9c1.3,0.6,1.5,5,1.6,6.2C43.5,18,43.5,20.5,42.8,22.8z
	 M55,6.8c-1.9,0-3.3,0.9-4.3,2.2c-2.6,1.1-3.5,4.6-3.9,7.1c-0.6,3.4-0.7,7.6,1.9,10.3c3.3,3.4,8.8,1.9,10.6-2.2
	C61.1,20.1,61.8,6.9,55,6.8z M56.5,22.8c-0.5,1.5-1.5,3.9-3.4,3.6c-1.6-0.3-2.6-2.2-3-3.6c-0.5-1.6-0.5-3.3-0.4-4.9
	c0.5,1.4,1.4,2.6,2.6,3.4c0.9,0.6,4-0.3,2.7-1.1c-1.8-1.1-2.4-2.8-2.6-4.9c-0.1-1.5,0.1-7.2,3-5.9c1.3,0.6,1.5,5,1.6,6.2
	C57.2,18,57.2,20.5,56.5,22.8z M68.5,14.9c-1.1,1.4-2.5,3.1-4.2,4.1c1.8-3.4,3.7-6.8,5.8-10.1c0.6-1-2.5-1.2-3.2-0.2
	c-1,1.6-2,3.3-2.9,4.9c0.2-2,0.4-4.1,0.6-6.1c0.1-1.1-3.1-1-3.2,0.3c-0.7,6.3-1.5,12.8-1.1,19.2c0.1,1.2,3.3,1,3.2-0.3
	c-0.2-1.8-0.2-3.6-0.1-5.4c1.3-0.3,2.5-0.8,3.6-1.5c-0.9,4-1.2,8.2-0.2,12.1c0.3,1.2,3.5,0.8,3.2-0.3c-1.4-5.3-0.4-11.2,1.5-16.2
	C72,14,69,14.2,68.5,14.9z M79.7,18.7c-2.2,0.6-4,1.9-5.6,3.6C74.5,17.1,75.7,11.8,77,7c0.4-1.3-2.8-1.3-3.2-0.2
	c-1.8,6.5-3.4,13.9-3.1,20.7c0,0.1,0,0.3,0.1,0.4c0.6,0.8,2.8,0.5,3.1-0.4c1.1-2.3,2.5-4.4,4.6-5.9c0.5-0.4,1.1-0.7,1.6-1
	c0.3-0.1,1-0.4,0.5-0.2C82.8,19.8,81.2,18.2,79.7,18.7z M88,20.9c0.7-4.7,1.1-9.4,1.2-14.2c0-1.2-3.2-1-3.2,0.3
	c-0.1,4.2-0.4,8.3-1,12.5c-1.2-0.3-2.5-0.3-3.8-0.1c1.4-4,1.7-8.4,1.2-12.5c-0.2-1.2-3.4-0.9-3.2,0.3c0.6,4.6,0.1,9.4-1.7,13.7
	c-0.5,1.1,2,1,2.5,0.8c1.7-0.7,3.3-0.7,4.8,0c-0.4,2.4-0.8,4.9-1.3,7.3c-1.3-0.5-2.7-0.5-4.1-0.3c0.4-1.3,0.9-2.5,1.5-3.6
	c0.6-1.1-2.6-1.3-3.2-0.2c-0.8,1.6-1.6,3.3-1.8,5.1c0,0.1,0,0.2,0,0.3c-0.1,0.3,0.1,0.6,0.5,0.8c0.7,0.4,1.7,0.2,2.3-0.2
	c1.6-0.9,3-0.6,4.4,0.5c0,0,0,0,0.1,0c0.4,0.8,2.9,0.7,3.1-0.3c0.6-2.7,1.1-5.4,1.6-8.2c1-0.1,1.9-0.7,1.2-1.4
	C88.6,21.3,88.3,21.1,88,20.9z M102.2,6.3c0-1.2-3.2-1-3.2,0.3c0,5.3-0.1,10.6-0.4,16c-1.8-5.3-4.1-10.5-6.6-15.5
	c-0.3-1-2.9-0.8-3.2,0.2c0,0,0,0.1,0,0.1c0,0,0,0.1,0,0.1c0.5,6.4,0.7,12.9,0,19.3c-0.2,1.1,3.1,1,3.2-0.3c0.4-3.7,0.5-7.4,0.5-11.1
	c2.4,5.6,4.4,11.4,5.6,17.3c-0.1,0.5,0.7,0.8,1.4,0.8c0.9,0,2-0.4,1.8-1C101.9,23.8,102.2,15,102.2,6.3z"/>
</svg>
