<?xml version="1.0" encoding="utf-8"?>
<!-- Generator: Adobe Illustrator 25.2.0, SVG Export Plug-In . SVG Version: 6.00 Build 0)  -->
<svg version="1.1" id="Layer_1" xmlns="http://www.w3.org/2000/svg" xmlns:xlink="http://www.w3.org/1999/xlink" x="0px" y="0px"
	 viewBox="0 0 115 45" style="enable-background:new 0 0 115 45;" xml:space="preserve">
<style type="text/css">
	.st0{fill:#00C868;}
</style>
<path d="M18.1,11.6l5,0.2l0,0l0,0L18.1,11.6z M14.9,11.9l-5-0.6l0,0l0,0L14.9,11.9z M12,25.7L7.2,27L12,43.9L16.8,27L12,25.7z
	 M8.8,11.6l5-0.7l0,0l0,0L8.8,11.6z M5.6,11.9l5-0.3l0,0l0,0L5.6,11.9z M5.1,37.7l5,0.5l0,0l0,0L5.1,37.7z M8.3,37.5l-5-0.5l0,0.1
	l0,0.1L8.3,37.5z M9,26.8l4.8-1.4L4,26.6L9,26.8z M10.3,31.3l4.8-1.5l0,0L10.3,31.3z M13.5,31.2l-4.8-1.6l0,0l0,0L13.5,31.2z
	 M15,26.5l5-0.2l-9.8-1.2L15,26.5z M15.5,37.7l-5,0.3l0,0l0,0L15.5,37.7z M18.8,37.5l-5,0.3l0,0l0,0L18.8,37.5z M23.1,11.7
	c0.1-3.1-2.1-4.8-3.5-5.4c-1.3-0.6-2.6-0.6-3.5-0.5c-0.9,0.1-2.1,0.4-3.2,1c-1,0.6-2.7,2-3.1,4.5l9.9,1.2c-0.2,1.9-1.5,2.8-1.9,3
	c-0.4,0.3-0.8,0.3-0.9,0.3c-0.1,0-0.6,0.1-1.3-0.3c-0.4-0.2-1-0.5-1.6-1.3c-0.6-0.8-1-1.8-0.9-2.8L23.1,11.7z M9.9,11.3
	c-0.5,4.3-1.5,8.6-2.8,13l9.6,2.7c1.3-4.7,2.5-9.6,3.1-14.6L9.9,11.3z M16.8,24.3c-1.3-4.5-2.4-9-3-13.4l-9.9,1.4
	c0.7,5.1,1.9,10,3.3,14.8L16.8,24.3z M13.8,10.8c-0.4-2.8-2.5-4.1-3.7-4.6C8.8,5.8,7.6,5.7,6.7,5.8C5.8,5.9,4.5,6.2,3.4,6.9
	c-1.2,0.7-3,2.5-2.8,5.3l10-0.7c0.2,2.2-1.3,3.5-1.9,3.9c-0.6,0.4-1,0.4-1.1,0.4c-0.1,0-0.5,0-1.1-0.2c-0.6-0.2-2.2-1.1-2.5-3.3
	L13.8,10.8z M0.6,12.2c0.6,8.2,0.2,16.6-0.5,25.1l10,0.9c0.8-8.7,1.2-17.7,0.5-26.7L0.6,12.2z M0.1,37.2c-0.1,1.4,0.3,2.8,1.1,3.9
	c0.7,1,1.7,1.5,2.3,1.8c1.3,0.6,2.5,0.6,3.4,0.6c0.9-0.1,2.1-0.3,3.2-0.9c1.1-0.6,2.9-2.1,3.1-4.8l-10-0.7c0.1-2.1,1.6-3,2-3.3
	c0.5-0.3,0.8-0.3,1-0.3c0.1,0,0.6,0,1.2,0.3c0.4,0.2,1.1,0.5,1.6,1.3c0.7,0.9,1,2,0.9,3.2L0.1,37.2z M13.3,37.9
	c0.3-3.6,0.6-7.2,0.7-10.9L4,26.6C3.9,30.1,3.6,33.5,3.3,37L13.3,37.9z M4.2,28.3c0.5,1.5,0.9,3,1.4,4.5l9.6-2.9
	c-0.5-1.5-0.9-2.9-1.3-4.4L4.2,28.3z M5.6,32.7c0.6,2.1,2.2,3.2,3.3,3.7c1.1,0.5,2.2,0.7,3.1,0.6c0.9,0,2-0.2,3.1-0.7
	c1.1-0.5,2.6-1.6,3.2-3.7l-9.6-2.9c0.5-1.5,1.6-2.2,2-2.4c0.5-0.2,0.9-0.3,1.1-0.3c0.2,0,0.6,0,1.1,0.3c0.5,0.2,1.6,0.9,2.1,2.5
	L5.6,32.7z M18.3,32.8c0.5-1.6,1-3.3,1.5-4.9l-9.6-2.7c-0.4,1.5-0.9,3.1-1.4,4.5L18.3,32.8z M10,26.7c0.1,3.8,0.3,7.6,0.6,11.4
	l10-0.6c-0.2-3.7-0.4-7.4-0.6-11.1L10,26.7z M10.6,38.1c0.2,2.9,2.4,4.4,3.7,4.9c1.3,0.5,2.5,0.6,3.4,0.5c0.9-0.1,2.2-0.3,3.3-1
	c1.1-0.7,3-2.4,2.8-5.4l-10,0.7c-0.2-2.3,1.4-3.6,1.9-3.9c0.6-0.3,1-0.4,1.1-0.4c0.1,0,0.6,0,1.2,0.2c0.6,0.3,2.4,1.3,2.5,3.6
	L10.6,38.1z M23.8,37.1c-0.6-8.6-0.9-17-0.7-25.4l-10-0.3c-0.3,8.9,0.1,17.7,0.7,26.4L23.8,37.1z M33.6,33l4.6-2.1l0,0L33.6,33z
	 M31.2,27.2L30,22.3l-5.4,1.3l1.9,5.2L31.2,27.2z M31.6,27l1,4.9l0.4-0.1l0.4-0.1L31.6,27z M31.7,23.8L30,19.1l0,0l0,0L31.7,23.8z
	 M30.2,24.3l-4.8,1.5l1.5,4.7l4.7-1.4L30.2,24.3z M27.7,12.7l-5,0.5l0,0l0,0L27.7,12.7z M26.2,11.9l-0.4,5l0.3,0l0.3,0L26.2,11.9z
	 M24.3,12.8l-4.9-1l0,0.1l0,0.1L24.3,12.8z M20.3,26.4v5h3.4l1.3-3.1L20.3,26.4z M19.8,26.5l0.7,5l0.1,0l0.1,0L19.8,26.5z M19,29.4
	l4.5,2.1l1.1-2.4l-1.3-2.3L19,29.4z M17,33.3l4.4,2.4l0,0l0,0L17,33.3z M20.2,33.5l-4.4-2.4l0,0.1l0,0.1L20.2,33.5z M22.3,29.3
	l-0.8-4.9l-2.6,0.4l-1.1,2.4L22.3,29.3z M28.2,28.1l4.7-1.8l-1.6-4.2l-4.4,1.1L28.2,28.1z M30.5,33.8L26,35.8l0,0l0,0L30.5,33.8z
	 M23.8,25.9L19.1,24l-3.3,8.4l8.9-1.6L23.8,25.9z M25.7,20.1l4.9-1.2L26.2,0.8l-5.2,17.9L25.7,20.1z M27.2,25.1l1.2,4.9l5.3-1.2
	l-1.7-5.1L27.2,25.1z M38.2,30.9c-0.8-1.8-1.6-3.7-2.3-5.5l-9.4,3.4c0.8,2.1,1.6,4.2,2.5,6.2L38.2,30.9z M32.5,32
	c0.1,0,0.2-0.1,0.3-0.1c0.1,0,0.1,0,0.2-0.1c0,0,0.1,0,0.1,0c0,0,0,0,0,0c0,0,0,0,0,0c0,0,0,0-0.1,0c-0.1,0-0.2,0.1-0.4,0.1l-2-9.8
	c-0.4,0.1-0.8,0.2-0.9,0.2c0,0,0,0,0,0c0,0,0,0,0,0c0,0,0,0,0,0c0,0,0.1,0,0.3-0.1L32.5,32z M33.4,31.7c2.2-0.8,3.1-2.6,3.5-3.5
	c0.4-1,0.6-2.1,0.7-3c0-0.8,0-2.2-0.8-3.6c-0.4-0.8-1.3-1.8-2.7-2.4c-1.5-0.6-3-0.5-4.1-0.1l3.4,9.4c-0.8,0.3-2,0.4-3.3-0.1
	c-1.2-0.5-1.9-1.4-2.1-1.9c-0.3-0.5-0.4-0.9-0.4-1.1c0-0.2,0-0.4,0-0.4c0-0.1,0-0.3,0.1-0.6c0-0.1,0.6-1.3,2.2-2L33.4,31.7z
	 M29.9,19.1c-0.6,0.2-0.8,0.3-1.1,0.4l2.8,9.6c0.7-0.2,1.4-0.5,1.8-0.6L29.9,19.1z M35,22.8c-1.1-3.5-1.9-7.1-2.3-10.7l-9.9,1.1
	c0.5,4.3,1.5,8.5,2.7,12.5L35,22.8z M32.7,12.2c-0.3-2.7-2.2-4.2-3.5-4.7C28,7,26.8,6.9,26,7l0.4,10c0,0-0.5,0-1.1-0.2
	c-0.4-0.2-0.9-0.5-1.4-1.1c-0.6-0.7-1-1.5-1-2.4L32.7,12.2z M26.5,7c-1.1-0.1-2.3,0.1-3.4,0.5C22.2,7.8,20,9,19.4,11.7l9.8,2.1
	c-0.2,1.1-0.8,1.8-1.3,2.3c-0.5,0.4-0.9,0.6-1.1,0.7c-0.4,0.2-0.8,0.2-1,0.2L26.5,7z M19.3,11.9c-0.7,4.4-2,8.5-3.7,12.6l9.2,3.8
	c1.9-4.7,3.4-9.6,4.3-14.7L19.3,11.9z M20.3,21.4c-0.7,0-1.3,0.1-1.5,0.2l2,9.8c0,0,0,0-0.1,0c-0.1,0-0.2,0-0.4,0V21.4z M19.1,21.5
	c-2.1,0.3-3.3,1.6-3.9,2.4c-0.6,0.9-1,1.8-1.1,2.5c-0.2,0.8-0.3,1.6-0.2,2.4c0,0.8,0.2,1.9,0.9,3.1l8.6-5.1c0.4,0.7,0.5,1.4,0.5,1.5
	c0,0.2,0,0.4-0.1,0.6c0,0.1-0.1,0.5-0.4,0.9c-0.3,0.4-1.2,1.4-2.8,1.6L19.1,21.5z M14.4,27.3c-0.6,1.3-1.2,2.5-1.8,3.7l8.8,4.7
	c0.8-1.4,1.4-2.8,2-4.1L14.4,27.3z M12.6,30.9c-0.5,1-0.9,2.5-0.5,4.1c0.5,1.6,1.5,2.5,2.2,3c1.3,0.9,2.8,1.1,3.5,1.1
	c0.9,0.1,2,0,3-0.4c0.8-0.3,2.7-1,3.7-3l-8.9-4.6c0.8-1.5,2-1.9,2.1-1.9c0.3-0.1,0.5-0.1,0.6-0.1c0.1,0,0.2,0,0.4,0.1
	c0.2,0,0.6,0.2,1.1,0.5c0.5,0.3,1.4,1.1,1.8,2.5c0.4,1.4,0,2.7-0.3,3.4L12.6,30.9z M24.6,35.9c0.8-1.5,1.5-3,2.2-4.4l-9.1-4.2
	c-0.7,1.4-1.3,2.7-1.9,3.9L24.6,35.9z M23.1,34.3c2.1-0.3,4.2-0.8,6.4-1.3l-2.5-9.7c-1.7,0.5-3.6,0.8-5.5,1.1L23.1,34.3z M23.5,29.8
	c0.8,2,1.6,4,2.5,6l9.1-4.1c-0.8-1.8-1.5-3.5-2.2-5.4L23.5,29.8z M26,35.8c1.1,2.4,3.3,3.1,4.3,3.3c1.2,0.2,2.3,0.2,3.2,0
	c0.9-0.2,2.2-0.6,3.4-1.7c0.6-0.6,1.3-1.5,1.7-2.8c0.3-1.3,0.1-2.6-0.3-3.7l-9.1,4.1c-0.3-0.8-0.5-1.8-0.2-2.8
	c0.3-1,0.8-1.7,1.2-2.1c0.7-0.7,1.4-0.8,1.4-0.8c0.2,0,0.5-0.1,0.9,0c0.3,0.1,1.9,0.4,2.7,2.3L26,35.8z M28.4,27.7
	c0.8-2,1.5-4.1,2.1-6.2l-9.6-2.8c-0.5,1.8-1.1,3.6-1.8,5.3L28.4,27.7z M20.9,21.3c0.4,1.8,1,3.6,1.5,5.4l9.5-3.1
	c-0.5-1.6-1-3.1-1.3-4.7L20.9,21.3z M26,20.3c-1.1,0.3-2.1,0.5-3.2,0.7l1.8,9.8c1.2-0.2,2.4-0.5,3.7-0.8L26,20.3z M45.3,12.3l5,0
	l0,0v0H45.3z M42,12.6l-5-0.1l0,0.1v0.1H42z M41.7,28.6l-4.7,1.6l9.7-1.3L41.7,28.6z M35.1,13.1l-4.7,1.6l0.1,0.3l0.2,0.3L35.1,13.1
	z M31.9,13.3l-4.9-1.2l-0.1,0.6v0.6H31.9z M31.9,13.5h-5v0.2l0,0.2L31.9,13.5z M31.9,32.9l5,0.7l0-0.1l0-0.1L31.9,32.9z M35.1,32.6
	l-5-0.6l0,0.1l0,0.1L35.1,32.6z M35.6,21.5l4.6-2l-9.6,2L35.6,21.5z M41.2,38.8l5,0.6l0.1-0.8l-0.2-0.8L41.2,38.8z M42.6,39.5l0.2-5
	l-0.2,0l-0.2,0L42.6,39.5z M44.4,38.5l-5-0.3l-0.1,0.7l0.2,0.7L44.4,38.5z M50.3,12.3c0-3.1-2.3-4.7-3.6-5.2
	c-1.2-0.5-2.5-0.6-3.4-0.5c-0.9,0.1-2.1,0.3-3.3,1c-1.1,0.7-2.9,2.2-3,4.9l10,0.2c0,2.1-1.4,3.1-1.9,3.4c-0.5,0.3-0.9,0.4-1.1,0.4
	c-0.1,0-0.6,0-1.2-0.2c-0.3-0.1-1-0.5-1.5-1.1c-0.6-0.7-1-1.7-1-2.8H50.3z M37,12.6c0,5.2-0.1,10.5-0.4,15.7l10,0.5
	C46.9,23.4,47,18,47,12.6H37z M46.4,27c-1.9-5.6-4.3-11.1-6.9-16.2l-8.9,4.5c2.4,4.8,4.6,9.7,6.3,14.8L46.4,27z M39.8,11.5
	c-0.8-2.3-2.7-3.3-3.7-3.6c-1.1-0.4-2.2-0.4-3-0.4c-0.9,0.1-1.9,0.3-2.9,0.8c-0.9,0.4-2.6,1.6-3.1,3.9l9.7,2.4
	c-0.4,1.8-1.7,2.5-2,2.7c-0.4,0.2-0.7,0.3-0.9,0.3c-0.1,0-0.5,0-1-0.1c-0.4-0.1-1.9-0.8-2.5-2.6L39.8,11.5z M26.9,13.3
	C26.9,13.3,26.9,13.3,26.9,13.3C26.9,13.3,26.9,13.3,26.9,13.3L26.9,13.3C26.9,13.3,26.9,13.3,26.9,13.3
	C26.9,13.3,26.9,13.3,26.9,13.3C26.9,13.3,26.9,13.3,26.9,13.3L26.9,13.3C26.9,13.3,26.9,13.3,26.9,13.3
	C26.9,13.3,26.9,13.3,26.9,13.3C26.9,13.3,26.9,13.3,26.9,13.3L26.9,13.3C26.9,13.3,26.9,13.3,26.9,13.3
	C26.9,13.3,26.9,13.3,26.9,13.3C26.9,13.3,26.9,13.3,26.9,13.3L26.9,13.3C26.9,13.3,26.9,13.3,26.9,13.3
	C26.9,13.3,26.9,13.3,26.9,13.3C26.9,13.3,26.9,13.3,26.9,13.3L26.9,13.3C26.9,13.3,26.9,13.3,26.9,13.3
	C26.9,13.3,26.9,13.3,26.9,13.3C26.9,13.3,26.9,13.3,26.9,13.3L26.9,13.3C26.9,13.3,26.9,13.3,26.9,13.3
	C26.9,13.3,26.9,13.3,26.9,13.3C26.9,13.3,26.9,13.3,26.9,13.3L26.9,13.3C26.9,13.3,26.9,13.3,26.9,13.3
	C26.9,13.3,26.9,13.3,26.9,13.3C26.9,13.3,26.9,13.3,26.9,13.3L26.9,13.3C26.9,13.3,26.9,13.3,26.9,13.3
	C26.9,13.3,26.9,13.3,26.9,13.3C26.9,13.3,26.9,13.3,26.9,13.3C26.9,13.3,26.9,13.3,26.9,13.3L26.9,13.3
	C26.9,13.3,26.9,13.3,26.9,13.3C26.9,13.3,26.9,13.3,26.9,13.3C26.9,13.3,26.9,13.3,26.9,13.3L26.9,13.3
	C26.9,13.3,26.9,13.3,26.9,13.3C26.9,13.3,26.9,13.3,26.9,13.3C26.9,13.3,26.9,13.3,26.9,13.3L26.9,13.3
	C26.9,13.3,26.9,13.3,26.9,13.3C26.9,13.3,26.9,13.3,26.9,13.3C26.9,13.3,26.9,13.3,26.9,13.3L26.9,13.3
	C26.9,13.3,26.9,13.3,26.9,13.3C26.9,13.3,26.9,13.3,26.9,13.3C26.9,13.3,26.9,13.3,26.9,13.3L26.9,13.3
	C26.9,13.3,26.9,13.3,26.9,13.3C26.9,13.3,26.9,13.3,26.9,13.3C26.9,13.3,26.9,13.3,26.9,13.3L26.9,13.3
	C26.9,13.3,26.9,13.3,26.9,13.3C26.9,13.3,26.9,13.3,26.9,13.3C26.9,13.3,26.9,13.3,26.9,13.3L26.9,13.3
	C26.9,13.3,26.9,13.3,26.9,13.3C26.9,13.3,26.9,13.3,26.9,13.3C26.9,13.3,26.9,13.3,26.9,13.3L26.9,13.3
	C26.9,13.3,26.9,13.3,26.9,13.3C26.9,13.3,26.9,13.3,26.9,13.3C26.9,13.3,26.9,13.3,26.9,13.3C26.9,13.3,26.9,13.3,26.9,13.3
	L26.9,13.3C26.9,13.3,26.9,13.3,26.9,13.3C26.9,13.3,26.9,13.3,26.9,13.3C26.9,13.3,26.9,13.3,26.9,13.3L26.9,13.3
	C26.9,13.3,26.9,13.3,26.9,13.3C26.9,13.3,26.9,13.3,26.9,13.3C26.9,13.3,26.9,13.3,26.9,13.3L26.9,13.3
	C26.9,13.3,26.9,13.3,26.9,13.3C26.9,13.3,26.9,13.3,26.9,13.3C26.9,13.3,26.9,13.3,26.9,13.3L26.9,13.3
	C26.9,13.3,26.9,13.3,26.9,13.3C26.9,13.3,26.9,13.3,26.9,13.3C26.9,13.3,26.9,13.3,26.9,13.3L26.9,13.3
	C26.9,13.3,26.9,13.3,26.9,13.3C26.9,13.3,26.9,13.3,26.9,13.3C26.9,13.3,26.9,13.3,26.9,13.3L26.9,13.3
	C26.9,13.3,26.9,13.3,26.9,13.3C26.9,13.3,26.9,13.3,26.9,13.3C26.9,13.3,26.9,13.3,26.9,13.3L26.9,13.3
	C26.9,13.3,26.9,13.3,26.9,13.3C26.9,13.3,26.9,13.3,26.9,13.3C26.9,13.3,26.9,13.3,26.9,13.3C26.9,13.3,26.9,13.3,26.9,13.3
	L26.9,13.3C26.9,13.3,26.9,13.3,26.9,13.3C26.9,13.3,26.9,13.3,26.9,13.3C26.9,13.3,26.9,13.3,26.9,13.3L26.9,13.3
	C26.9,13.3,26.9,13.3,26.9,13.3C26.9,13.3,26.9,13.3,26.9,13.3C26.9,13.3,26.9,13.3,26.9,13.3L26.9,13.3
	C26.9,13.3,26.9,13.3,26.9,13.3C26.9,13.3,26.9,13.3,26.9,13.3C26.9,13.3,26.9,13.3,26.9,13.3L26.9,13.3
	C26.9,13.3,26.9,13.3,26.9,13.3C26.9,13.3,26.9,13.3,26.9,13.3C26.9,13.3,26.9,13.3,26.9,13.3L26.9,13.3
	C26.9,13.4,26.9,13.4,26.9,13.3C26.9,13.4,26.9,13.4,26.9,13.3C26.9,13.4,26.9,13.4,26.9,13.3L26.9,13.3
	C26.9,13.4,26.9,13.4,26.9,13.3C26.9,13.4,26.9,13.4,26.9,13.3C26.9,13.4,26.9,13.4,26.9,13.3L26.9,13.3
	C26.9,13.4,26.9,13.4,26.9,13.3C26.9,13.4,26.9,13.4,26.9,13.3C26.9,13.4,26.9,13.4,26.9,13.3L26.9,13.3
	C26.9,13.4,26.9,13.4,26.9,13.3C26.9,13.4,26.9,13.4,26.9,13.3C26.9,13.4,26.9,13.4,26.9,13.3C26.9,13.4,26.9,13.4,26.9,13.3
	L26.9,13.3C26.9,13.4,26.9,13.4,26.9,13.3C26.9,13.4,26.9,13.4,26.9,13.3C26.9,13.4,26.9,13.4,26.9,13.3L26.9,13.3
	C26.9,13.4,26.9,13.4,26.9,13.3C26.9,13.4,26.9,13.4,26.9,13.3C26.9,13.4,26.9,13.4,26.9,13.3L26.9,13.3
	C26.9,13.4,26.9,13.4,26.9,13.3C26.9,13.4,26.9,13.4,26.9,13.3C26.9,13.4,26.9,13.4,26.9,13.3L26.9,13.3
	C26.9,13.4,26.9,13.4,26.9,13.3C26.9,13.4,26.9,13.4,26.9,13.3C26.9,13.4,26.9,13.4,26.9,13.3L26.9,13.3
	C26.9,13.4,26.9,13.4,26.9,13.3C26.9,13.4,26.9,13.4,26.9,13.3C26.9,13.4,26.9,13.4,26.9,13.3L26.9,13.3
	C26.9,13.4,26.9,13.4,26.9,13.3C26.9,13.4,26.9,13.4,26.9,13.3C26.9,13.4,26.9,13.4,26.9,13.3L26.9,13.3
	C26.9,13.4,26.9,13.4,26.9,13.3C26.9,13.4,26.9,13.4,26.9,13.3C26.9,13.4,26.9,13.4,26.9,13.3L26.9,13.3
	C26.9,13.4,26.9,13.4,26.9,13.3C26.9,13.4,26.9,13.4,26.9,13.3C26.9,13.4,26.9,13.4,26.9,13.3C26.9,13.4,26.9,13.4,26.9,13.3
	L26.9,13.3C26.9,13.4,26.9,13.4,26.9,13.3C26.9,13.4,26.9,13.4,26.9,13.3C26.9,13.4,26.9,13.4,26.9,13.3L26.9,13.3
	C26.9,13.4,26.9,13.4,26.9,13.3C26.9,13.4,26.9,13.4,26.9,13.3C26.9,13.4,26.9,13.4,26.9,13.3L26.9,13.3
	C26.9,13.4,26.9,13.4,26.9,13.3C26.9,13.4,26.9,13.4,26.9,13.3C26.9,13.4,26.9,13.4,26.9,13.3L26.9,13.3
	C26.9,13.4,26.9,13.4,26.9,13.3C26.9,13.4,26.9,13.4,26.9,13.3C26.9,13.4,26.9,13.4,26.9,13.3L26.9,13.3
	C26.9,13.4,26.9,13.4,26.9,13.3C26.9,13.4,26.9,13.4,26.9,13.3C26.9,13.4,26.9,13.4,26.9,13.3L26.9,13.3
	C26.9,13.4,26.9,13.4,26.9,13.3C26.9,13.4,26.9,13.4,26.9,13.3C26.9,13.4,26.9,13.4,26.9,13.3L26.9,13.3
	C26.9,13.4,26.9,13.4,26.9,13.3C26.9,13.4,26.9,13.4,26.9,13.3C26.9,13.4,26.9,13.4,26.9,13.3L26.9,13.3
	C26.9,13.4,26.9,13.4,26.9,13.3C26.9,13.4,26.9,13.4,26.9,13.3C26.9,13.4,26.9,13.4,26.9,13.3C26.9,13.4,26.9,13.4,26.9,13.3
	L26.9,13.3C26.9,13.4,26.9,13.4,26.9,13.3C26.9,13.4,26.9,13.4,26.9,13.3C26.9,13.4,26.9,13.4,26.9,13.3L26.9,13.3
	C26.9,13.4,26.9,13.4,26.9,13.3C26.9,13.4,26.9,13.4,26.9,13.3C26.9,13.4,26.9,13.4,26.9,13.3L26.9,13.3
	C26.9,13.4,26.9,13.4,26.9,13.3C26.9,13.4,26.9,13.4,26.9,13.3C26.9,13.4,26.9,13.4,26.9,13.3L26.9,13.3
	C26.9,13.4,26.9,13.4,26.9,13.3C26.9,13.4,26.9,13.4,26.9,13.3C26.9,13.4,26.9,13.4,26.9,13.3L26.9,13.3
	C26.9,13.4,26.9,13.4,26.9,13.3C26.9,13.4,26.9,13.4,26.9,13.3C26.9,13.4,26.9,13.4,26.9,13.3L26.9,13.3
	C26.9,13.4,26.9,13.4,26.9,13.3C26.9,13.4,26.9,13.4,26.9,13.3C26.9,13.4,26.9,13.4,26.9,13.3L26.9,13.3
	C26.9,13.4,26.9,13.4,26.9,13.3C26.9,13.4,26.9,13.4,26.9,13.3C26.9,13.4,26.9,13.4,26.9,13.3L26.9,13.3
	C26.9,13.4,26.9,13.4,26.9,13.3C26.9,13.4,26.9,13.4,26.9,13.3C26.9,13.4,26.9,13.4,26.9,13.3C26.9,13.4,26.9,13.4,26.9,13.3
	L26.9,13.3C26.9,13.4,26.9,13.4,26.9,13.3C26.9,13.4,26.9,13.4,26.9,13.3C26.9,13.4,26.9,13.4,26.9,13.3L26.9,13.3
	C26.9,13.4,26.9,13.4,26.9,13.3C26.9,13.4,26.9,13.4,26.9,13.3C26.9,13.4,26.9,13.4,26.9,13.3L26.9,13.3
	C26.9,13.4,26.9,13.4,26.9,13.3C26.9,13.4,26.9,13.4,26.9,13.3C26.9,13.4,26.9,13.4,26.9,13.3L26.9,13.3
	C26.9,13.4,26.9,13.4,26.9,13.3C26.9,13.4,26.9,13.4,26.9,13.3C26.9,13.4,26.9,13.4,26.9,13.3L26.9,13.3
	C26.9,13.4,26.9,13.4,26.9,13.3C26.9,13.4,26.9,13.4,26.9,13.3C26.9,13.4,26.9,13.4,26.9,13.3L26.9,13.3
	C26.9,13.4,26.9,13.4,26.9,13.3C26.9,13.4,26.9,13.4,26.9,13.3C26.9,13.4,26.9,13.4,26.9,13.3L26.9,13.3
	C26.9,13.4,26.9,13.4,26.9,13.3C26.9,13.4,26.9,13.4,26.9,13.3C26.9,13.4,26.9,13.4,26.9,13.3C26.9,13.4,26.9,13.4,26.9,13.3
	L26.9,13.3C26.9,13.4,26.9,13.4,26.9,13.3C26.9,13.4,26.9,13.4,26.9,13.3C26.9,13.4,26.9,13.4,26.9,13.3L26.9,13.3
	C26.9,13.4,26.9,13.4,26.9,13.3C26.9,13.4,26.9,13.4,26.9,13.3C26.9,13.4,26.9,13.4,26.9,13.3L26.9,13.3
	C26.9,13.4,26.9,13.4,26.9,13.3C26.9,13.4,26.9,13.4,26.9,13.3C26.9,13.4,26.9,13.4,26.9,13.3L26.9,13.3
	C26.9,13.4,26.9,13.4,26.9,13.3C26.9,13.4,26.9,13.4,26.9,13.3C26.9,13.4,26.9,13.4,26.9,13.3L26.9,13.3
	C26.9,13.4,26.9,13.4,26.9,13.3C26.9,13.4,26.9,13.4,26.9,13.3C26.9,13.4,26.9,13.4,26.9,13.3L26.9,13.3
	C26.9,13.4,26.9,13.4,26.9,13.3C26.9,13.4,26.9,13.4,26.9,13.3C26.9,13.4,26.9,13.4,26.9,13.3L26.9,13.3
	C26.9,13.4,26.9,13.4,26.9,13.3C26.9,13.4,26.9,13.4,26.9,13.3C26.9,13.4,26.9,13.4,26.9,13.3L26.9,13.3
	C26.9,13.4,26.9,13.4,26.9,13.3C26.9,13.4,26.9,13.4,26.9,13.3C26.9,13.4,26.9,13.4,26.9,13.3C26.9,13.4,26.9,13.4,26.9,13.3
	L26.9,13.3C26.9,13.4,26.9,13.4,26.9,13.3C26.9,13.4,26.9,13.4,26.9,13.3C26.9,13.4,26.9,13.4,26.9,13.3L26.9,13.3
	C26.9,13.4,26.9,13.4,26.9,13.3C26.9,13.4,26.9,13.4,26.9,13.3C26.9,13.4,26.9,13.4,26.9,13.3L26.9,13.3
	C26.9,13.4,26.9,13.4,26.9,13.3C26.9,13.4,26.9,13.4,26.9,13.3C26.9,13.4,26.9,13.4,26.9,13.3L26.9,13.3
	C26.9,13.4,26.9,13.4,26.9,13.3C26.9,13.4,26.9,13.4,26.9,13.3C26.9,13.4,26.9,13.4,26.9,13.3L26.9,13.3
	C26.9,13.4,26.9,13.4,26.9,13.3C26.9,13.4,26.9,13.4,26.9,13.3C26.9,13.4,26.9,13.4,26.9,13.3L26.9,13.3
	C26.9,13.4,26.9,13.4,26.9,13.3C26.9,13.4,26.9,13.4,26.9,13.3C26.9,13.4,26.9,13.4,26.9,13.3L26.9,13.3
	C26.9,13.4,26.9,13.4,26.9,13.3C26.9,13.4,26.9,13.4,26.9,13.3C26.9,13.4,26.9,13.4,26.9,13.3L26.9,13.3
	C26.9,13.4,26.9,13.4,26.9,13.3C26.9,13.4,26.9,13.4,26.9,13.3C26.9,13.4,26.9,13.4,26.9,13.3C26.9,13.4,26.9,13.4,26.9,13.3
	L26.9,13.3C26.9,13.4,26.9,13.4,26.9,13.3C26.9,13.4,26.9,13.4,26.9,13.3C26.9,13.4,26.9,13.4,26.9,13.3L26.9,13.3
	C26.9,13.4,26.9,13.4,26.9,13.3C26.9,13.4,26.9,13.4,26.9,13.3C26.9,13.4,26.9,13.4,26.9,13.3L26.9,13.3
	C26.9,13.4,26.9,13.4,26.9,13.3C26.9,13.4,26.9,13.4,26.9,13.3C26.9,13.4,26.9,13.4,26.9,13.3L26.9,13.3
	C26.9,13.4,26.9,13.4,26.9,13.3C26.9,13.4,26.9,13.4,26.9,13.3C26.9,13.4,26.9,13.4,26.9,13.3L26.9,13.3
	C26.9,13.4,26.9,13.4,26.9,13.3C26.9,13.4,26.9,13.4,26.9,13.3C26.9,13.4,26.9,13.4,26.9,13.3L26.9,13.3
	C26.9,13.4,26.9,13.4,26.9,13.3C26.9,13.4,26.9,13.4,26.9,13.3C26.9,13.4,26.9,13.4,26.9,13.3L26.9,13.3
	C26.9,13.4,26.9,13.4,26.9,13.3C26.9,13.4,26.9,13.4,26.9,13.3C26.9,13.4,26.9,13.4,26.9,13.3L26.9,13.3
	C26.9,13.4,26.9,13.4,26.9,13.3C26.9,13.4,26.9,13.4,26.9,13.3C26.9,13.4,26.9,13.4,26.9,13.3C26.9,13.4,26.9,13.4,26.9,13.3
	L26.9,13.3C26.9,13.4,26.9,13.4,26.9,13.3C26.9,13.4,26.9,13.4,26.9,13.3C26.9,13.4,26.9,13.4,26.9,13.3L26.9,13.3
	C26.9,13.4,26.9,13.4,26.9,13.3C26.9,13.4,26.9,13.4,26.9,13.3C26.9,13.4,26.9,13.4,26.9,13.3L26.9,13.3
	C26.9,13.4,26.9,13.4,26.9,13.3C26.9,13.4,26.9,13.4,26.9,13.3C26.9,13.4,26.9,13.4,26.9,13.3L26.9,13.3
	C26.9,13.4,26.9,13.4,26.9,13.3C26.9,13.4,26.9,13.4,26.9,13.3C26.9,13.4,26.9,13.4,26.9,13.3L26.9,13.3
	C26.9,13.4,26.9,13.4,26.9,13.3C26.9,13.4,26.9,13.4,26.9,13.3C26.9,13.4,26.9,13.4,26.9,13.3L26.9,13.3
	C26.9,13.4,26.9,13.4,26.9,13.3C26.9,13.4,26.9,13.4,26.9,13.3C26.9,13.4,26.9,13.4,26.9,13.3L26.9,13.3
	C26.9,13.4,26.9,13.4,26.9,13.3C26.9,13.4,26.9,13.4,26.9,13.3C26.9,13.4,26.9,13.4,26.9,13.3C26.9,13.4,26.9,13.4,26.9,13.3
	L26.9,13.3C26.9,13.4,26.9,13.4,26.9,13.3C26.9,13.4,26.9,13.4,26.9,13.3C26.9,13.4,26.9,13.4,26.9,13.3L26.9,13.3
	C26.9,13.4,26.9,13.4,26.9,13.3C26.9,13.4,26.9,13.4,26.9,13.3C26.9,13.4,26.9,13.4,26.9,13.3L26.9,13.3
	C26.9,13.4,26.9,13.4,26.9,13.3C26.9,13.4,26.9,13.4,26.9,13.3C26.9,13.4,26.9,13.4,26.9,13.3L26.9,13.3
	C26.9,13.4,26.9,13.4,26.9,13.3C26.9,13.4,26.9,13.4,26.9,13.3C26.9,13.4,26.9,13.4,26.9,13.3L26.9,13.3
	C26.9,13.4,26.9,13.4,26.9,13.3C26.9,13.4,26.9,13.4,26.9,13.3C26.9,13.4,26.9,13.4,26.9,13.3L26.9,13.3
	C26.9,13.4,26.9,13.4,26.9,13.3C26.9,13.4,26.9,13.4,26.9,13.3C26.9,13.4,26.9,13.4,26.9,13.3L26.9,13.3
	C26.9,13.4,26.9,13.4,26.9,13.3C26.9,13.4,26.9,13.4,26.9,13.3C26.9,13.4,26.9,13.4,26.9,13.3L26.9,13.3
	C26.9,13.4,26.9,13.4,26.9,13.3C26.9,13.4,26.9,13.4,26.9,13.3C26.9,13.4,26.9,13.4,26.9,13.3C26.9,13.4,26.9,13.4,26.9,13.3
	L26.9,13.3C26.9,13.4,26.9,13.4,26.9,13.3C26.9,13.4,26.9,13.4,26.9,13.3C26.9,13.4,26.9,13.4,26.9,13.3L26.9,13.3
	C26.9,13.4,26.9,13.4,26.9,13.3C26.9,13.4,26.9,13.4,26.9,13.3C26.9,13.4,26.9,13.4,26.9,13.3L26.9,13.3
	C26.9,13.4,26.9,13.4,26.9,13.3C26.9,13.4,26.9,13.4,26.9,13.3C26.9,13.4,26.9,13.4,26.9,13.3L26.9,13.3
	C26.9,13.4,26.9,13.4,26.9,13.3C26.9,13.4,26.9,13.4,26.9,13.3C26.9,13.4,26.9,13.4,26.9,13.3L26.9,13.3
	C26.9,13.4,26.9,13.4,26.9,13.3C26.9,13.4,26.9,13.4,26.9,13.3C26.9,13.4,26.9,13.4,26.9,13.3L26.9,13.3
	C26.9,13.4,26.9,13.4,26.9,13.3C26.9,13.4,26.9,13.4,26.9,13.3C26.9,13.4,26.9,13.4,26.9,13.3L26.9,13.3
	C26.9,13.4,26.9,13.4,26.9,13.3C26.9,13.4,26.9,13.4,26.9,13.3C26.9,13.4,26.9,13.4,26.9,13.3L26.9,13.3
	C26.9,13.4,26.9,13.4,26.9,13.3C26.9,13.4,26.9,13.4,26.9,13.3C26.9,13.4,26.9,13.4,26.9,13.3C26.9,13.4,26.9,13.4,26.9,13.3
	L26.9,13.3C26.9,13.4,26.9,13.4,26.9,13.3C26.9,13.4,26.9,13.4,26.9,13.3C26.9,13.4,26.9,13.4,26.9,13.3L26.9,13.3
	C26.9,13.4,26.9,13.4,26.9,13.3C26.9,13.4,26.9,13.4,26.9,13.3C26.9,13.4,26.9,13.4,26.9,13.3L26.9,13.3
	C26.9,13.4,26.9,13.4,26.9,13.3C26.9,13.4,26.9,13.4,26.9,13.3C26.9,13.4,26.9,13.4,26.9,13.3L26.9,13.3
	C26.9,13.4,26.9,13.4,26.9,13.3C26.9,13.4,26.9,13.4,26.9,13.3C26.9,13.4,26.9,13.4,26.9,13.3L26.9,13.3
	C26.9,13.4,26.9,13.4,26.9,13.3C26.9,13.4,26.9,13.4,26.9,13.3C26.9,13.4,26.9,13.4,26.9,13.3L26.9,13.3
	C26.9,13.4,26.9,13.4,26.9,13.3C26.9,13.4,26.9,13.4,26.9,13.3C26.9,13.4,26.9,13.4,26.9,13.3L26.9,13.3
	C26.9,13.4,26.9,13.4,26.9,13.3C26.9,13.4,26.9,13.4,26.9,13.3C26.9,13.4,26.9,13.4,26.9,13.3L26.9,13.3
	C26.9,13.4,26.9,13.4,26.9,13.3C26.9,13.4,26.9,13.4,26.9,13.3C26.9,13.4,26.9,13.4,26.9,13.3C26.9,13.4,26.9,13.4,26.9,13.3
	L26.9,13.3C26.9,13.4,26.9,13.4,26.9,13.3C26.9,13.4,26.9,13.4,26.9,13.3C26.9,13.4,26.9,13.4,26.9,13.3L26.9,13.3
	C26.9,13.4,26.9,13.4,26.9,13.3C26.9,13.4,26.9,13.4,26.9,13.3C26.9,13.4,26.9,13.4,26.9,13.3L26.9,13.3
	C26.9,13.4,26.9,13.4,26.9,13.3C26.9,13.4,26.9,13.4,26.9,13.3C26.9,13.4,26.9,13.4,26.9,13.3L26.9,13.3
	C26.9,13.4,26.9,13.4,26.9,13.3C26.9,13.4,26.9,13.4,26.9,13.3C26.9,13.4,26.9,13.4,26.9,13.3L26.9,13.3
	C26.9,13.4,26.9,13.4,26.9,13.3C26.9,13.4,26.9,13.4,26.9,13.3C26.9,13.4,26.9,13.4,26.9,13.3L26.9,13.3
	C26.9,13.4,26.9,13.4,26.9,13.3C26.9,13.4,26.9,13.4,26.9,13.3C26.9,13.4,26.9,13.4,26.9,13.3L26.9,13.3
	C26.9,13.4,26.9,13.4,26.9,13.3C26.9,13.4,26.9,13.4,26.9,13.3l10,0.1c0,0,0,0,0,0c0,0,0,0,0,0v0c0,0,0,0,0,0s0,0,0,0c0,0,0,0,0,0v0
	c0,0,0,0,0,0s0,0,0,0c0,0,0,0,0,0v0c0,0,0,0,0,0c0,0,0,0,0,0c0,0,0,0,0,0v0c0,0,0,0,0,0c0,0,0,0,0,0c0,0,0,0,0,0v0c0,0,0,0,0,0
	c0,0,0,0,0,0s0,0,0,0v0c0,0,0,0,0,0c0,0,0,0,0,0s0,0,0,0v0c0,0,0,0,0,0c0,0,0,0,0,0s0,0,0,0c0,0,0,0,0,0v0c0,0,0,0,0,0s0,0,0,0
	c0,0,0,0,0,0v0c0,0,0,0,0,0s0,0,0,0c0,0,0,0,0,0v0c0,0,0,0,0,0s0,0,0,0c0,0,0,0,0,0v0c0,0,0,0,0,0c0,0,0,0,0,0c0,0,0,0,0,0v0
	c0,0,0,0,0,0c0,0,0,0,0,0c0,0,0,0,0,0v0c0,0,0,0,0,0c0,0,0,0,0,0c0,0,0,0,0,0v0c0,0,0,0,0,0c0,0,0,0,0,0c0,0,0,0,0,0v0c0,0,0,0,0,0
	c0,0,0,0,0,0c0,0,0,0,0,0c0,0,0,0,0,0v0c0,0,0,0,0,0c0,0,0,0,0,0c0,0,0,0,0,0v0c0,0,0,0,0,0c0,0,0,0,0,0c0,0,0,0,0,0v0c0,0,0,0,0,0
	c0,0,0,0,0,0c0,0,0,0,0,0v0c0,0,0,0,0,0c0,0,0,0,0,0c0,0,0,0,0,0v0c0,0,0,0,0,0c0,0,0,0,0,0c0,0,0,0,0,0v0c0,0,0,0,0,0c0,0,0,0,0,0
	s0,0,0,0v0c0,0,0,0,0,0c0,0,0,0,0,0s0,0,0,0v0c0,0,0,0,0,0c0,0,0,0,0,0s0,0,0,0c0,0,0,0,0,0v0c0,0,0,0,0,0s0,0,0,0c0,0,0,0,0,0v0
	c0,0,0,0,0,0s0,0,0,0c0,0,0,0,0,0v0c0,0,0,0,0,0c0,0,0,0,0,0c0,0,0,0,0,0v0c0,0,0,0,0,0c0,0,0,0,0,0c0,0,0,0,0,0v0c0,0,0,0,0,0
	c0,0,0,0,0,0s0,0,0,0v0c0,0,0,0,0,0c0,0,0,0,0,0s0,0,0,0v0c0,0,0,0,0,0c0,0,0,0,0,0s0,0,0,0v0c0,0,0,0,0,0c0,0,0,0,0,0s0,0,0,0
	c0,0,0,0,0,0v0c0,0,0,0,0,0s0,0,0,0c0,0,0,0,0,0v0c0,0,0,0,0,0s0,0,0,0c0,0,0,0,0,0v0c0,0,0,0,0,0c0,0,0,0,0,0c0,0,0,0,0,0v0
	c0,0,0,0,0,0c0,0,0,0,0,0c0,0,0,0,0,0v0c0,0,0,0,0,0c0,0,0,0,0,0s0,0,0,0v0c0,0,0,0,0,0c0,0,0,0,0,0s0,0,0,0v0c0,0,0,0,0,0
	c0,0,0,0,0,0s0,0,0,0c0,0,0,0,0,0v0c0,0,0,0,0,0s0,0,0,0c0,0,0,0,0,0v0c0,0,0,0,0,0s0,0,0,0c0,0,0,0,0,0v0c0,0,0,0,0,0s0,0,0,0
	c0,0,0,0,0,0v0c0,0,0,0,0,0c0,0,0,0,0,0c0,0,0,0,0,0v0c0,0,0,0,0,0c0,0,0,0,0,0c0,0,0,0,0,0v0c0,0,0,0,0,0c0,0,0,0,0,0c0,0,0,0,0,0
	v0c0,0,0,0,0,0c0,0,0,0,0,0c0,0,0,0,0,0v0c0,0,0,0,0,0c0,0,0,0,0,0c0,0,0,0,0,0c0,0,0,0,0,0v0c0,0,0,0,0,0c0,0,0,0,0,0c0,0,0,0,0,0
	v0c0,0,0,0,0,0c0,0,0,0,0,0c0,0,0,0,0,0v0c0,0,0,0,0,0c0,0,0,0,0,0c0,0,0,0,0,0v0c0,0,0,0,0,0c0,0,0,0,0,0c0,0,0,0,0,0v0
	c0,0,0,0,0,0c0,0,0,0,0,0c0,0,0,0,0,0v0c0,0,0,0,0,0c0,0,0,0,0,0s0,0,0,0v0c0,0,0,0,0,0c0,0,0,0,0,0s0,0,0,0v0c0,0,0,0,0,0
	c0,0,0,0,0,0s0,0,0,0c0,0,0,0,0,0v0c0,0,0,0,0,0s0,0,0,0c0,0,0,0,0,0v0c0,0,0,0,0,0s0,0,0,0c0,0,0,0,0,0v0c0,0,0,0,0,0c0,0,0,0,0,0
	c0,0,0,0,0,0v0c0,0,0,0,0,0c0,0,0,0,0,0c0,0,0,0,0,0v0c0,0,0,0,0,0c0,0,0,0,0,0s0,0,0,0v0c0,0,0,0,0,0c0,0,0,0,0,0s0,0,0,0v0
	c0,0,0,0,0,0c0,0,0,0,0,0s0,0,0,0v0c0,0,0,0,0,0c0,0,0,0,0,0s0,0,0,0c0,0,0,0,0,0v0c0,0,0,0,0,0s0,0,0,0c0,0,0,0,0,0v0c0,0,0,0,0,0
	s0,0,0,0c0,0,0,0,0,0v0c0,0,0,0,0,0c0,0,0,0,0,0c0,0,0,0,0,0v0c0,0,0,0,0,0c0,0,0,0,0,0c0,0,0,0,0,0v0c0,0,0,0,0,0c0,0,0,0,0,0
	s0,0,0,0v0c0,0,0,0,0,0c0,0,0,0,0,0s0,0,0,0v0c0,0,0,0,0,0c0,0,0,0,0,0s0,0,0,0c0,0,0,0,0,0v0c0,0,0,0,0,0s0,0,0,0c0,0,0,0,0,0v0
	c0,0,0,0,0,0s0,0,0,0c0,0,0,0,0,0v0c0,0,0,0,0,0s0,0,0,0c0,0,0,0,0,0v0c0,0,0,0,0,0c0,0,0,0,0,0c0,0,0,0,0,0v0c0,0,0,0,0,0
	c0,0,0,0,0,0c0,0,0,0,0,0v0c0,0,0,0,0,0c0,0,0,0,0,0c0,0,0,0,0,0v0c0,0,0,0,0,0c0,0,0,0,0,0c0,0,0,0,0,0v0c0,0,0,0,0,0c0,0,0,0,0,0
	c0,0,0,0,0,0c0,0,0,0,0,0v0c0,0,0,0,0,0c0,0,0,0,0,0c0,0,0,0,0,0v0c0,0,0,0,0,0c0,0,0,0,0,0c0,0,0,0,0,0v0c0,0,0,0,0,0c0,0,0,0,0,0
	c0,0,0,0,0,0v0c0,0,0,0,0,0c0,0,0,0,0,0c0,0,0,0,0,0v0c0,0,0,0,0,0c0,0,0,0,0,0c0,0,0,0,0,0v0c0,0,0,0,0,0c0,0,0,0,0,0s0,0,0,0v0
	c0,0,0,0,0,0c0,0,0,0,0,0s0,0,0,0v0c0,0,0,0,0,0c0,0,0,0,0,0s0,0,0,0c0,0,0,0,0,0v0c0,0,0,0,0,0s0,0,0,0c0,0,0,0,0,0v0c0,0,0,0,0,0
	s0,0,0,0c0,0,0,0,0,0v0c0,0,0,0,0,0c0,0,0,0,0,0c0,0,0,0,0,0v0c0,0,0,0,0,0c0,0,0,0,0,0c0,0,0,0,0,0v0c0,0,0,0,0,0c0,0,0,0,0,0
	c0,0,0,0,0,0v0c0,0,0,0,0,0c0,0,0,0,0,0s0,0,0,0v0c0,0,0,0,0,0c0,0,0,0,0,0s0,0,0,0v0c0,0,0,0,0,0c0,0,0,0,0,0s0,0,0,0c0,0,0,0,0,0
	v0c0,0,0,0,0,0s0,0,0,0c0,0,0,0,0,0v0c0,0,0,0,0,0s0,0,0,0c0,0,0,0,0,0v0c0,0,0,0,0,0c0,0,0,0,0,0c0,0,0,0,0,0v0c0,0,0,0,0,0
	c0,0,0,0,0,0c0,0,0,0,0,0v0c0,0,0,0,0,0c0,0,0,0,0,0s0,0,0,0v0c0,0,0,0,0,0c0,0,0,0,0,0s0,0,0,0v0c0,0,0,0,0,0c0,0,0,0,0,0s0,0,0,0
	v0c0,0,0,0,0,0c0,0,0,0,0,0s0,0,0,0c0,0,0,0,0,0v0c0,0,0,0,0,0s0,0,0,0c0,0,0,0,0,0v0c0,0,0,0,0,0s0,0,0,0c0,0,0,0,0,0v0
	c0,0,0,0,0,0c0,0,0,0,0,0c0,0,0,0,0,0v0c0,0,0,0,0,0c0,0,0,0,0,0c0,0,0,0,0,0v0c0,0,0,0,0,0c0,0,0,0,0,0c0,0,0,0,0,0v0c0,0,0,0,0,0
	c0,0,0,0,0,0c0,0,0,0,0,0v0c0,0,0,0,0,0c0,0,0,0,0,0c0,0,0,0,0,0c0,0,0,0,0,0v0c0,0,0,0,0,0c0,0,0,0,0,0c0,0,0,0,0,0v0c0,0,0,0,0,0
	c0,0,0,0,0,0c0,0,0,0,0,0v0c0,0,0,0,0,0c0,0,0,0,0,0c0,0,0,0,0,0v0c0,0,0,0,0,0c0,0,0,0,0,0c0,0,0,0,0,0v0c0,0,0,0,0,0c0,0,0,0,0,0
	c0,0,0,0,0,0v0c0,0,0,0,0,0c0,0,0,0,0,0s0,0,0,0v0c0,0,0,0,0,0c0,0,0,0,0,0s0,0,0,0v0c0,0,0,0,0,0c0,0,0,0,0,0s0,0,0,0c0,0,0,0,0,0
	v0c0,0,0,0,0,0s0,0,0,0c0,0,0,0,0,0v0c0,0,0,0,0,0s0,0,0,0c0,0,0,0,0,0v0c0,0,0,0,0,0c0,0,0,0,0,0c0,0,0,0,0,0v0c0,0,0,0,0,0
	c0,0,0,0,0,0c0,0,0,0,0,0v0c0,0,0,0,0,0c0,0,0,0,0,0c0,0,0,0,0,0v0c0,0,0,0,0,0c0,0,0,0,0,0s0,0,0,0v0c0,0,0,0,0,0c0,0,0,0,0,0
	s0,0,0,0v0c0,0,0,0,0,0c0,0,0,0,0,0H26.9z M26.9,13.4C26.9,13.4,26.9,13.4,26.9,13.4C26.9,13.4,26.9,13.4,26.9,13.4L26.9,13.4
	C26.9,13.4,26.9,13.4,26.9,13.4C26.9,13.4,26.9,13.4,26.9,13.4C26.9,13.4,26.9,13.4,26.9,13.4L26.9,13.4
	C26.9,13.4,26.9,13.4,26.9,13.4C26.9,13.4,26.9,13.4,26.9,13.4C26.9,13.4,26.9,13.4,26.9,13.4L26.9,13.4
	C26.9,13.4,26.9,13.4,26.9,13.4C26.9,13.4,26.9,13.4,26.9,13.4C26.9,13.4,26.9,13.4,26.9,13.4L26.9,13.4
	C26.9,13.4,26.9,13.4,26.9,13.4C26.9,13.4,26.9,13.4,26.9,13.4C26.9,13.4,26.9,13.4,26.9,13.4L26.9,13.4
	C26.9,13.4,26.9,13.4,26.9,13.4C26.9,13.4,26.9,13.4,26.9,13.4C26.9,13.4,26.9,13.4,26.9,13.4L26.9,13.4
	C26.9,13.4,26.9,13.4,26.9,13.4C26.9,13.4,26.9,13.4,26.9,13.4C26.9,13.4,26.9,13.4,26.9,13.4L26.9,13.4
	C26.9,13.4,26.9,13.4,26.9,13.4C26.9,13.4,26.9,13.4,26.9,13.4C26.9,13.4,26.9,13.4,26.9,13.4C26.9,13.4,26.9,13.4,26.9,13.4
	L26.9,13.4C26.9,13.4,26.9,13.4,26.9,13.4C26.9,13.4,26.9,13.4,26.9,13.4C26.9,13.4,26.9,13.4,26.9,13.4L26.9,13.4
	C26.9,13.4,26.9,13.4,26.9,13.4C26.9,13.4,26.9,13.4,26.9,13.4C26.9,13.4,26.9,13.4,26.9,13.4L26.9,13.4
	C26.9,13.4,26.9,13.4,26.9,13.4C26.9,13.4,26.9,13.4,26.9,13.4C26.9,13.4,26.9,13.4,26.9,13.4C26.9,13.4,26.9,13.4,26.9,13.4
	L26.9,13.4C26.9,13.4,26.9,13.4,26.9,13.4C26.9,13.4,26.9,13.4,26.9,13.4C26.9,13.4,26.9,13.4,26.9,13.4L26.9,13.4
	C26.9,13.4,26.9,13.4,26.9,13.4C26.9,13.4,26.9,13.4,26.9,13.4C26.9,13.4,26.9,13.4,26.9,13.4L26.9,13.4
	C26.9,13.4,26.9,13.4,26.9,13.4C26.9,13.4,26.9,13.4,26.9,13.4C26.9,13.4,26.9,13.4,26.9,13.4C26.9,13.4,26.9,13.4,26.9,13.4
	L26.9,13.4C26.9,13.4,26.9,13.4,26.9,13.4C26.9,13.4,26.9,13.4,26.9,13.4C26.9,13.4,26.9,13.4,26.9,13.4
	C26.9,13.4,26.9,13.4,26.9,13.4L26.9,13.4C26.9,13.4,26.9,13.4,26.9,13.4C26.9,13.4,26.9,13.4,26.9,13.4
	C26.9,13.4,26.9,13.4,26.9,13.4L26.9,13.4C26.9,13.4,26.9,13.4,26.9,13.4C26.9,13.4,26.9,13.4,26.9,13.4
	C26.9,13.4,26.9,13.4,26.9,13.4C26.9,13.4,26.9,13.4,26.9,13.4L26.9,13.4C26.9,13.4,26.9,13.4,26.9,13.4
	C26.9,13.4,26.9,13.4,26.9,13.4C26.9,13.4,26.9,13.4,26.9,13.4C26.9,13.4,26.9,13.4,26.9,13.4L26.9,13.4
	C26.9,13.4,26.9,13.4,26.9,13.4C26.9,13.4,26.9,13.4,26.9,13.4C26.9,13.4,26.9,13.4,26.9,13.4C26.9,13.4,26.9,13.4,26.9,13.4
	L26.9,13.4C26.9,13.4,26.9,13.4,26.9,13.4C26.9,13.4,26.9,13.4,26.9,13.4C26.9,13.4,26.9,13.4,26.9,13.4
	C26.9,13.4,26.9,13.4,26.9,13.4L26.9,13.4C26.9,13.4,26.9,13.4,26.9,13.4C26.9,13.4,26.9,13.4,26.9,13.4
	C26.9,13.4,26.9,13.4,26.9,13.4C26.9,13.4,26.9,13.4,26.9,13.4L26.9,13.4C26.9,13.4,26.9,13.4,26.9,13.4
	C26.9,13.4,26.9,13.4,26.9,13.4C26.9,13.4,26.9,13.4,26.9,13.4C26.9,13.4,26.9,13.4,26.9,13.4C26.9,13.4,26.9,13.4,26.9,13.4
	L26.9,13.4C26.9,13.4,26.9,13.4,26.9,13.4C26.9,13.4,26.9,13.4,26.9,13.4C26.9,13.4,26.9,13.4,26.9,13.4
	C26.9,13.4,26.9,13.4,26.9,13.4L26.9,13.4C26.9,13.4,26.9,13.4,26.9,13.4C26.9,13.4,26.9,13.4,26.9,13.4
	C26.9,13.4,26.9,13.4,26.9,13.4C26.9,13.4,26.9,13.4,26.9,13.4C26.9,13.4,26.9,13.4,26.9,13.4L26.9,13.4
	C26.9,13.4,26.9,13.4,26.9,13.4C26.9,13.4,26.9,13.4,26.9,13.4C26.9,13.4,26.9,13.4,26.9,13.4C26.9,13.4,26.9,13.4,26.9,13.4
	C26.9,13.4,26.9,13.4,26.9,13.4C26.9,13.4,26.9,13.4,26.9,13.4L26.9,13.4C26.9,13.4,26.9,13.4,26.9,13.4
	C26.9,13.4,26.9,13.4,26.9,13.4C26.9,13.4,26.9,13.4,26.9,13.4C26.9,13.4,26.9,13.4,26.9,13.4C26.9,13.4,26.9,13.4,26.9,13.4
	L26.9,13.4C26.9,13.4,26.9,13.4,26.9,13.4C26.9,13.4,26.9,13.4,26.9,13.4C26.9,13.4,26.9,13.4,26.9,13.4
	C26.9,13.4,26.9,13.4,26.9,13.4C26.9,13.4,26.9,13.4,26.9,13.4C26.9,13.4,26.9,13.4,26.9,13.4C26.9,13.4,26.9,13.4,26.9,13.4
	L26.9,13.4C26.9,13.4,26.9,13.4,26.9,13.4C26.9,13.4,26.9,13.4,26.9,13.4C26.9,13.4,26.9,13.4,26.9,13.4
	C26.9,13.4,26.9,13.4,26.9,13.4C26.9,13.4,26.9,13.4,26.9,13.4C26.9,13.4,26.9,13.4,26.9,13.4C26.9,13.4,26.9,13.4,26.9,13.4
	L26.9,13.4C26.9,13.4,26.9,13.4,26.9,13.4C26.9,13.4,26.9,13.4,26.9,13.4C26.9,13.4,26.9,13.4,26.9,13.4
	C26.9,13.4,26.9,13.4,26.9,13.4C26.9,13.4,26.9,13.4,26.9,13.4C26.9,13.4,26.9,13.4,26.9,13.4C26.9,13.4,26.9,13.4,26.9,13.4
	C26.9,13.4,26.9,13.4,26.9,13.4L26.9,13.4C26.9,13.4,26.9,13.4,26.9,13.4C26.9,13.4,26.9,13.4,26.9,13.4
	C26.9,13.4,26.9,13.4,26.9,13.4C26.9,13.4,26.9,13.4,26.9,13.4C26.9,13.4,26.9,13.4,26.9,13.4C26.9,13.4,26.9,13.4,26.9,13.4
	C26.9,13.4,26.9,13.4,26.9,13.4C26.9,13.4,26.9,13.4,26.9,13.4C26.9,13.4,26.9,13.4,26.9,13.4C26.9,13.4,26.9,13.4,26.9,13.4
	C26.9,13.4,26.9,13.4,26.9,13.4L26.9,13.4C26.9,13.4,26.9,13.4,26.9,13.4C26.9,13.4,26.9,13.4,26.9,13.4
	C26.9,13.4,26.9,13.4,26.9,13.4C26.9,13.4,26.9,13.4,26.9,13.4C26.9,13.4,26.9,13.4,26.9,13.4C26.9,13.4,26.9,13.4,26.9,13.4
	C26.9,13.5,26.9,13.5,26.9,13.4C26.9,13.5,26.9,13.5,26.9,13.4C26.9,13.5,26.9,13.5,26.9,13.4C26.9,13.5,26.9,13.5,26.9,13.4
	C26.9,13.5,26.9,13.5,26.9,13.4C26.9,13.5,26.9,13.5,26.9,13.4C26.9,13.5,26.9,13.5,26.9,13.4C26.9,13.5,26.9,13.5,26.9,13.4
	C26.9,13.5,26.9,13.5,26.9,13.4C26.9,13.5,26.9,13.5,26.9,13.4C26.9,13.5,26.9,13.5,26.9,13.4C26.9,13.5,26.9,13.5,26.9,13.4
	L26.9,13.4C26.9,13.5,26.9,13.5,26.9,13.4C26.9,13.5,26.9,13.5,26.9,13.4C26.9,13.5,26.9,13.5,26.9,13.4
	C26.9,13.5,26.9,13.5,26.9,13.4C26.9,13.5,26.9,13.5,26.9,13.4C26.9,13.5,26.9,13.5,26.9,13.4C26.9,13.5,26.9,13.5,26.9,13.4
	C26.9,13.5,26.9,13.5,26.9,13.4C26.9,13.5,26.9,13.5,26.9,13.4C26.9,13.5,26.9,13.5,26.9,13.4C26.9,13.5,26.9,13.5,26.9,13.4
	C26.9,13.5,26.9,13.5,26.9,13.4C26.9,13.5,26.9,13.5,26.9,13.4C26.9,13.5,26.9,13.5,26.9,13.4C26.9,13.5,26.9,13.5,26.9,13.4
	C26.9,13.5,26.9,13.5,26.9,13.4C26.9,13.5,26.9,13.5,26.9,13.4C26.9,13.5,26.9,13.5,26.9,13.4C26.9,13.5,26.9,13.5,26.9,13.4
	C26.9,13.5,26.9,13.5,26.9,13.4C26.9,13.5,26.9,13.5,26.9,13.4C26.9,13.5,26.9,13.5,26.9,13.4C26.9,13.5,26.9,13.5,26.9,13.4
	C26.9,13.5,26.9,13.5,26.9,13.4C26.9,13.5,26.9,13.5,26.9,13.4C26.9,13.5,26.9,13.5,26.9,13.4C26.9,13.5,26.9,13.5,26.9,13.4
	C26.9,13.5,26.9,13.5,26.9,13.4C26.9,13.5,26.9,13.5,26.9,13.4C26.9,13.5,26.9,13.5,26.9,13.4C26.9,13.5,26.9,13.5,26.9,13.4
	C26.9,13.5,26.9,13.5,26.9,13.4C26.9,13.5,26.9,13.5,26.9,13.4C26.9,13.5,26.9,13.5,26.9,13.4C26.9,13.5,26.9,13.5,26.9,13.4
	C26.9,13.5,26.9,13.5,26.9,13.4C26.9,13.5,26.9,13.5,26.9,13.4C26.9,13.5,26.9,13.5,26.9,13.4C26.9,13.5,26.9,13.5,26.9,13.4
	C26.9,13.5,26.9,13.5,26.9,13.4C26.9,13.5,26.9,13.5,26.9,13.4C26.9,13.5,26.9,13.5,26.9,13.4C26.9,13.5,26.9,13.5,26.9,13.4
	C26.9,13.5,26.9,13.5,26.9,13.4C26.9,13.5,26.9,13.5,26.9,13.4C26.9,13.5,26.9,13.5,26.9,13.4C26.9,13.5,26.9,13.5,26.9,13.4
	C26.9,13.5,26.9,13.5,26.9,13.4C26.9,13.5,26.9,13.5,26.9,13.4C26.9,13.5,26.9,13.5,26.9,13.4C26.9,13.5,26.9,13.5,26.9,13.4
	C26.9,13.5,26.9,13.5,26.9,13.4C26.9,13.5,26.9,13.5,26.9,13.4C26.9,13.5,26.9,13.5,26.9,13.4C26.9,13.5,26.9,13.5,26.9,13.4
	C26.9,13.5,26.9,13.5,26.9,13.4C26.9,13.5,26.9,13.5,26.9,13.4C26.9,13.5,26.9,13.5,26.9,13.4C26.9,13.5,26.9,13.5,26.9,13.4
	C26.9,13.5,26.9,13.5,26.9,13.4C26.9,13.5,26.9,13.5,26.9,13.4C26.9,13.5,26.9,13.5,26.9,13.4C26.9,13.5,26.9,13.5,26.9,13.4
	C26.9,13.5,26.9,13.5,26.9,13.4C26.9,13.5,26.9,13.5,26.9,13.4C26.9,13.5,26.9,13.5,26.9,13.4C26.9,13.5,26.9,13.5,26.9,13.4
	C26.9,13.5,26.9,13.5,26.9,13.4C26.9,13.5,26.9,13.5,26.9,13.4C26.9,13.5,26.9,13.5,26.9,13.4C26.9,13.5,26.9,13.5,26.9,13.4
	C26.9,13.5,26.9,13.5,26.9,13.4C26.9,13.5,26.9,13.5,26.9,13.4C26.9,13.5,26.9,13.5,26.9,13.4C26.9,13.5,26.9,13.5,26.9,13.4
	C26.9,13.5,26.9,13.5,26.9,13.4C26.9,13.5,26.9,13.5,26.9,13.4C26.9,13.5,26.9,13.5,26.9,13.4C26.9,13.5,26.9,13.5,26.9,13.4
	C26.9,13.5,26.9,13.5,26.9,13.4C26.9,13.5,26.9,13.5,26.9,13.4C26.9,13.5,26.9,13.5,26.9,13.4C26.9,13.5,26.9,13.5,26.9,13.4
	C26.9,13.5,26.9,13.5,26.9,13.4C26.9,13.5,26.9,13.5,26.9,13.4C26.9,13.5,26.9,13.5,26.9,13.4C26.9,13.5,26.9,13.5,26.9,13.4
	C26.9,13.5,26.9,13.5,26.9,13.4C26.9,13.5,26.9,13.5,26.9,13.4C26.9,13.5,26.9,13.5,26.9,13.4C26.9,13.5,26.9,13.5,26.9,13.4
	C26.9,13.5,26.9,13.5,26.9,13.4C26.9,13.5,26.9,13.5,26.9,13.4C26.9,13.5,26.9,13.5,26.9,13.4C26.9,13.5,26.9,13.5,26.9,13.4
	C26.9,13.5,26.9,13.5,26.9,13.4C26.9,13.5,26.9,13.5,26.9,13.4C26.9,13.5,26.9,13.5,26.9,13.4C26.9,13.5,26.9,13.5,26.9,13.4
	C26.9,13.5,26.9,13.5,26.9,13.4C26.9,13.5,26.9,13.5,26.9,13.4C26.9,13.5,26.9,13.5,26.9,13.4C26.9,13.5,26.9,13.5,26.9,13.4
	C26.9,13.5,26.9,13.5,26.9,13.4C26.9,13.5,26.9,13.5,26.9,13.4C26.9,13.5,26.9,13.5,26.9,13.4C26.9,13.5,26.9,13.5,26.9,13.4
	C26.9,13.5,26.9,13.5,26.9,13.4C26.9,13.5,26.9,13.5,26.9,13.4C26.9,13.5,26.9,13.5,26.9,13.4C26.9,13.5,26.9,13.5,26.9,13.4
	C26.9,13.5,26.9,13.5,26.9,13.4C26.9,13.5,26.9,13.5,26.9,13.4C26.9,13.5,26.9,13.5,26.9,13.4C26.9,13.5,26.9,13.5,26.9,13.4
	C26.9,13.5,26.9,13.5,26.9,13.4C26.9,13.5,26.9,13.5,26.9,13.4C26.9,13.5,26.9,13.5,26.9,13.4C26.9,13.5,26.9,13.5,26.9,13.4
	C26.9,13.5,26.9,13.5,26.9,13.4C26.9,13.5,26.9,13.5,26.9,13.4C26.9,13.5,26.9,13.5,26.9,13.4C26.9,13.5,26.9,13.5,26.9,13.4
	C26.9,13.5,26.9,13.5,26.9,13.4C26.9,13.5,26.9,13.5,26.9,13.4C26.9,13.5,26.9,13.5,26.9,13.4C26.9,13.5,26.9,13.5,26.9,13.4
	C26.9,13.5,26.9,13.5,26.9,13.4C26.9,13.5,26.9,13.5,26.9,13.4C26.9,13.5,26.9,13.5,26.9,13.4C26.9,13.5,26.9,13.5,26.9,13.4
	C26.9,13.5,26.9,13.5,26.9,13.4C26.9,13.5,26.9,13.5,26.9,13.4C26.9,13.5,26.9,13.5,26.9,13.4C26.9,13.5,26.9,13.5,26.9,13.4
	C26.9,13.5,26.9,13.5,26.9,13.4C26.9,13.5,26.9,13.5,26.9,13.4C26.9,13.5,26.9,13.5,26.9,13.4C26.9,13.5,26.9,13.5,26.9,13.4
	C26.9,13.5,26.9,13.5,26.9,13.4C26.9,13.5,26.9,13.5,26.9,13.4C26.9,13.5,26.9,13.5,26.9,13.4C26.9,13.5,26.9,13.5,26.9,13.4
	C26.9,13.5,26.9,13.5,26.9,13.4C26.9,13.5,26.9,13.5,26.9,13.4C26.9,13.5,26.9,13.5,26.9,13.4C26.9,13.5,26.9,13.5,26.9,13.4
	C26.9,13.5,26.9,13.5,26.9,13.4C26.9,13.5,26.9,13.5,26.9,13.4C26.9,13.5,26.9,13.5,26.9,13.4C26.9,13.5,26.9,13.5,26.9,13.4
	C26.9,13.5,26.9,13.5,26.9,13.4C26.9,13.5,26.9,13.5,26.9,13.4C26.9,13.5,26.9,13.5,26.9,13.4C26.9,13.5,26.9,13.5,26.9,13.4
	C26.9,13.5,26.9,13.5,26.9,13.4C26.9,13.5,26.9,13.5,26.9,13.4C26.9,13.5,26.9,13.5,26.9,13.4C26.9,13.5,26.9,13.5,26.9,13.4
	C26.9,13.5,26.9,13.5,26.9,13.4C26.9,13.5,26.9,13.5,26.9,13.4C26.9,13.5,26.9,13.5,26.9,13.4C26.9,13.5,26.9,13.5,26.9,13.4
	C26.9,13.5,26.9,13.5,26.9,13.4C26.9,13.5,26.9,13.5,26.9,13.4C26.9,13.5,26.9,13.5,26.9,13.4C26.9,13.5,26.9,13.5,26.9,13.4
	C26.9,13.5,26.9,13.5,26.9,13.4C26.9,13.5,26.9,13.5,26.9,13.4C26.9,13.5,26.9,13.5,26.9,13.4C26.9,13.5,26.9,13.5,26.9,13.4
	C26.9,13.5,26.9,13.5,26.9,13.4C26.9,13.5,26.9,13.5,26.9,13.4C26.9,13.5,26.9,13.5,26.9,13.4C26.9,13.5,26.9,13.5,26.9,13.4
	C26.9,13.5,26.9,13.5,26.9,13.4C26.9,13.5,26.9,13.5,26.9,13.4C26.9,13.5,26.9,13.5,26.9,13.4C26.9,13.5,26.9,13.5,26.9,13.4
	C26.9,13.5,26.9,13.5,26.9,13.4C26.9,13.5,26.9,13.5,26.9,13.4C26.9,13.5,26.9,13.5,26.9,13.4C26.9,13.5,26.9,13.5,26.9,13.4
	C26.9,13.5,26.9,13.5,26.9,13.4C26.9,13.5,26.9,13.5,26.9,13.4C26.9,13.5,26.9,13.5,26.9,13.4C26.9,13.5,26.9,13.5,26.9,13.4
	C26.9,13.5,26.9,13.5,26.9,13.4C26.9,13.5,26.9,13.5,26.9,13.4C26.9,13.5,26.9,13.5,26.9,13.4C26.9,13.5,26.9,13.5,26.9,13.4
	C26.9,13.5,26.9,13.5,26.9,13.4C26.9,13.5,26.9,13.5,26.9,13.4C26.9,13.5,26.9,13.5,26.9,13.4C26.9,13.5,26.9,13.5,26.9,13.4
	C26.9,13.5,26.9,13.5,26.9,13.4C26.9,13.5,26.9,13.5,26.9,13.4C26.9,13.5,26.9,13.5,26.9,13.4C26.9,13.5,26.9,13.5,26.9,13.4
	C26.9,13.5,26.9,13.5,26.9,13.4C26.9,13.5,26.9,13.5,26.9,13.4C26.9,13.5,26.9,13.5,26.9,13.4C26.9,13.5,26.9,13.5,26.9,13.4
	C26.9,13.5,26.9,13.5,26.9,13.4C26.9,13.5,26.9,13.5,26.9,13.4C26.9,13.5,26.9,13.5,26.9,13.4C26.9,13.5,26.9,13.5,26.9,13.4
	C26.9,13.5,26.9,13.5,26.9,13.4C26.9,13.5,26.9,13.5,26.9,13.4C26.9,13.5,26.9,13.5,26.9,13.4C26.9,13.5,26.9,13.5,26.9,13.4
	C26.9,13.5,26.9,13.5,26.9,13.4C26.9,13.5,26.9,13.5,26.9,13.4C26.9,13.5,26.9,13.5,26.9,13.4C26.9,13.5,26.9,13.5,26.9,13.4
	C26.9,13.5,26.9,13.5,26.9,13.4C26.9,13.5,26.9,13.5,26.9,13.4C26.9,13.5,26.9,13.5,26.9,13.4C26.9,13.5,26.9,13.5,26.9,13.4
	C26.9,13.5,26.9,13.5,26.9,13.4C26.9,13.5,26.9,13.5,26.9,13.4C26.9,13.5,26.9,13.5,26.9,13.4C26.9,13.5,26.9,13.5,26.9,13.4
	C26.9,13.5,26.9,13.5,26.9,13.4C26.9,13.5,26.9,13.5,26.9,13.4C26.9,13.5,26.9,13.5,26.9,13.4C26.9,13.5,26.9,13.5,26.9,13.4
	C26.9,13.5,26.9,13.5,26.9,13.4C26.9,13.5,26.9,13.5,26.9,13.4C26.9,13.5,26.9,13.5,26.9,13.4C26.9,13.5,26.9,13.5,26.9,13.4
	C26.9,13.5,26.9,13.5,26.9,13.4C26.9,13.5,26.9,13.5,26.9,13.4C26.9,13.5,26.9,13.5,26.9,13.4C26.9,13.5,26.9,13.5,26.9,13.4
	C26.9,13.5,26.9,13.5,26.9,13.4C26.9,13.5,26.9,13.5,26.9,13.4C26.9,13.5,26.9,13.5,26.9,13.4C26.9,13.5,26.9,13.5,26.9,13.4
	C26.9,13.5,26.9,13.5,26.9,13.4C26.9,13.5,26.9,13.5,26.9,13.4C26.9,13.5,26.9,13.5,26.9,13.4C26.9,13.5,26.9,13.5,26.9,13.4
	C26.9,13.5,26.9,13.5,26.9,13.4C26.9,13.5,26.9,13.5,26.9,13.4C26.9,13.5,26.9,13.5,26.9,13.4C26.9,13.5,26.9,13.5,26.9,13.4
	C26.9,13.5,26.9,13.5,26.9,13.4C26.9,13.5,26.9,13.5,26.9,13.4C26.9,13.5,26.9,13.5,26.9,13.4C26.9,13.5,26.9,13.5,26.9,13.4
	C26.9,13.5,26.9,13.5,26.9,13.4C26.9,13.5,26.9,13.5,26.9,13.4C26.9,13.5,26.9,13.5,26.9,13.4C26.9,13.5,26.9,13.5,26.9,13.4
	C26.9,13.5,26.9,13.5,26.9,13.4C26.9,13.5,26.9,13.5,26.9,13.4C26.9,13.5,26.9,13.5,26.9,13.4C26.9,13.5,26.9,13.5,26.9,13.4
	C26.9,13.5,26.9,13.5,26.9,13.4C26.9,13.5,26.9,13.5,26.9,13.4C26.9,13.5,26.9,13.5,26.9,13.4C26.9,13.5,26.9,13.5,26.9,13.4
	C26.9,13.5,26.9,13.5,26.9,13.4C26.9,13.5,26.9,13.5,26.9,13.4C26.9,13.5,26.9,13.5,26.9,13.4C26.9,13.5,26.9,13.5,26.9,13.4
	C26.9,13.5,26.9,13.5,26.9,13.4C26.9,13.5,26.9,13.5,26.9,13.4C26.9,13.5,26.9,13.5,26.9,13.4C26.9,13.5,26.9,13.5,26.9,13.4
	C26.9,13.5,26.9,13.5,26.9,13.4C26.9,13.5,26.9,13.5,26.9,13.4c0,0.1,0,0.1,0,0.1c0,0,0,0,0,0s0,0,0,0c0,0,0,0,0,0s0,0,0,0
	c0,0,0,0,0,0s0,0,0,0s0,0,0,0s0,0,0,0s0,0,0,0c0,0,0,0,0,0c0,0,0,0,0,0c0,0,0,0,0,0s0,0,0,0c0,0,0,0,0,0s0,0,0,0c0,0,0,0,0,0
	s0,0,0,0s0,0,0,0s0,0,0,0c0,0,0,0,0,0s0,0,0,0s0,0,0,0c0,0,0,0,0,0c0,0,0,0,0,0c0,0,0,0,0,0s0,0,0,0c0,0,0,0,0,0s0,0,0,0
	c0,0,0,0,0,0s0,0,0,0c0,0,0,0,0,0s0,0,0,0s0,0,0,0c0,0,0,0,0,0s0,0,0,0s0,0,0,0c0,0,0,0,0,0s0,0,0,0s0,0,0,0s0,0,0,0s0,0,0,0
	c0,0,0,0,0,0s0,0,0,0c0,0,0,0,0,0c0,0,0,0,0,0c0,0,0,0,0,0c0,0,0,0,0,0c0,0,0,0,0,0s0,0,0,0c0,0,0,0,0,0s0,0,0,0c0,0,0,0,0,0
	s0,0,0,0c0,0,0,0,0,0s0,0,0,0c0,0,0,0,0,0s0,0,0,0c0,0,0,0,0,0s0,0,0,0c0,0,0,0,0,0h10c0,0,0,0,0,0c0,0,0,0,0,0s0,0,0,0c0,0,0,0,0,0
	s0,0,0,0c0,0,0,0,0,0s0,0,0,0c0,0,0,0,0,0s0,0,0,0c0,0,0,0,0,0s0,0,0,0c0,0,0,0,0,0s0,0,0,0c0,0,0,0,0,0c0,0,0,0,0,0c0,0,0,0,0,0
	c0,0,0,0,0,0c0,0,0,0,0,0s0,0,0,0c0,0,0,0,0,0s0,0,0,0s0,0,0,0s0,0,0,0s0,0,0,0c0,0,0,0,0,0s0,0,0,0s0,0,0,0c0,0,0,0,0,0s0,0,0,0
	s0,0,0,0c0,0,0,0,0,0s0,0,0,0c0,0,0,0,0,0s0,0,0,0c0,0,0,0,0,0s0,0,0,0c0,0,0,0,0,0c0,0,0,0,0,0c0,0,0,0,0,0s0,0,0,0s0,0,0,0
	c0,0,0,0,0,0s0,0,0,0s0,0,0,0s0,0,0,0c0,0,0,0,0,0s0,0,0,0c0,0,0,0,0,0s0,0,0,0c0,0,0,0,0,0c0,0,0,0,0,0c0,0,0,0,0,0s0,0,0,0
	s0,0,0,0s0,0,0,0s0,0,0,0c0,0,0,0,0,0s0,0,0,0c0,0,0,0,0,0s0,0,0,0c0,0,0,0,0,0s0,0,0,0s0,0,0,0s0,0,0,0s0,0,0,0s0,0,0,0s0,0,0,0
	c0,0,0,0,0,0s0,0,0,0c0,0,0,0,0,0s0,0,0,0s0,0,0,0s0,0,0,0s0,0,0,0c0,0,0,0,0,0s0,0,0,0s0,0,0,0s0,0,0,0s0,0,0,0c0,0,0,0,0,0
	s0,0,0,0c0,0,0,0,0,0s0,0,0,0s0,0,0,0s0,0,0,0s0,0,0,0c0,0,0,0,0,0s0,0,0,0c0,0,0,0,0,0s0,0,0,0s0,0,0,0s0,0,0,0s0,0,0,0
	c0,0,0,0,0,0s0,0,0,0c0,0,0,0,0,0s0,0,0,0s0,0,0,0s0,0,0,0s0,0,0,0c0,0,0,0,0,0s0,0,0,0s0,0,0,0s0,0,0,0s0,0,0,0c0,0,0,0,0,0
	s0,0,0,0c0,0,0,0,0,0c0,0,0,0,0,0s0,0,0,0c0,0,0,0,0,0s0,0,0,0c0,0,0,0,0,0s0,0,0,0c0,0,0,0,0,0c0,0,0,0,0,0s0,0,0,0c0,0,0,0,0,0
	s0,0,0,0c0,0,0,0,0,0c0,0,0,0,0,0s0,0,0,0c0,0,0,0,0,0s0,0,0,0s0,0,0,0c0,0,0,0,0,0s0,0,0,0c0,0,0,0,0,0c0,0,0,0,0,0s0,0,0,0
	c0,0,0,0,0,0s0,0,0,0s0,0,0,0s0,0,0,0s0,0,0,0c0,0,0,0,0,0s0,0,0,0s0,0,0,0s0,0,0,0s0,0,0,0c0,0,0,0,0,0s0,0,0,0c0,0,0,0,0,0
	c0,0,0,0,0,0s0,0,0,0c0,0,0,0,0,0s0,0,0,0s0,0,0,0c0,0,0,0,0,0s0,0,0,0s0,0,0,0c0,0,0,0,0,0s0,0,0,0c0,0,0,0,0,0s0,0,0,0s0,0,0,0
	c0,0,0,0,0,0s0,0,0,0c0,0,0,0,0,0c0,0,0,0,0,0s0,0,0,0s0,0,0,0s0,0,0,0c0,0,0,0,0,0c0,0,0,0,0,0s0,0,0,0s0,0,0,0c0,0,0,0,0,0
	s0,0,0,0s0,0,0,0c0,0,0,0,0,0s0,0,0,0c0,0,0,0,0,0s0,0,0,0c0,0,0,0,0,0c0,0,0,0,0,0c0,0,0,0,0,0s0,0,0,0c0,0,0,0,0,0s0,0,0,0
	c0,0,0,0,0,0c0,0,0,0,0,0c0,0,0,0,0,0s0,0,0,0c0,0,0,0,0,0s0,0,0,0c0,0,0,0,0,0s0,0,0,0c0,0,0,0,0,0s0,0,0,0c0,0,0,0,0,0s0,0,0,0
	s0,0,0,0s0,0,0,0s0,0,0,0c0,0,0,0,0,0s0,0,0,0c0,0,0,0,0,0c0,0,0,0,0,0s0,0,0,0c0,0,0,0,0,0c0,0,0,0,0,0c0,0,0,0,0,0s0,0,0,0
	c0,0,0,0,0,0c0,0,0,0,0,0s0,0,0,0c0,0,0,0,0,0s0,0,0,0s0,0,0,0c0,0,0,0,0,0s0,0,0,0c0,0,0,0,0,0c0,0,0,0,0,0s0,0,0,0c0,0,0,0,0,0
	c0,0,0,0,0,0s0,0,0,0c0,0,0,0,0,0c0,0,0,0,0,0s0,0,0,0c0,0,0,0,0,0c0,0,0,0,0,0s0,0,0,0c0,0,0,0,0,0c0,0,0,0,0,0s0,0,0,0
	c0,0,0,0,0,0c0,0,0,0,0,0s0,0,0,0s0,0,0,0c0,0,0,0,0,0s0,0,0,0s0,0,0,0c0,0,0,0,0,0c0,0,0,0,0,0s0,0,0,0c0,0,0,0,0,0c0,0,0,0,0,0
	c0,0,0,0,0,0c0,0,0,0,0,0s0,0,0,0c0,0,0,0,0,0c0,0,0,0,0,0s0,0,0,0s0,0,0,0c0,0,0,0,0,0c0,0,0,0,0,0s0,0,0,0s0,0,0,0c0,0,0,0,0,0
	c0,0,0,0,0,0c0,0,0,0,0,0c0,0,0,0,0,0s0,0,0,0c0,0,0,0,0,0c0,0,0,0,0,0c0,0,0,0,0,0s0,0,0,0c0,0,0,0,0,0c0,0,0,0,0,0c0,0,0,0,0,0
	c0,0,0,0,0,0s0,0,0,0s0,0,0,0s0,0,0,0c0,0,0,0,0,0c0,0,0,0,0,0c0,0,0,0,0,0c0,0,0,0,0,0s0,0,0,0s0,0,0,0c0,0,0,0,0,0c0,0,0,0,0,0
	c0,0,0,0,0,0c0,0,0,0,0,0s0,0,0,0s0,0,0,0s0,0,0,0c0,0,0,0,0,0c0,0,0,0,0,0c0,0,0,0,0,0c0,0,0,0,0,0c0,0,0,0,0,0c0,0,0,0,0,0
	c0,0,0,0,0,0s0,0,0,0s0,0,0,0s0,0,0,0c0,0,0,0,0,0c0,0,0,0,0,0c0,0,0,0,0,0c0,0,0,0,0,0c0,0,0,0,0,0c0,0,0,0,0,0c0,0,0,0,0,0
	c0,0,0,0,0,0s0,0,0,0s0,0,0,0c0,0,0,0,0,0s0,0,0,0s0,0,0,0c0,0,0,0,0,0c0,0,0,0,0,0c0,0,0,0,0,0c0,0,0,0,0,0c0,0,0,0,0,0
	c0,0,0,0,0,0c0,0,0,0,0,0c0,0,0,0,0,0c0,0,0,0,0,0c0,0,0,0,0,0c0,0,0,0,0,0c0,0,0,0,0,0c0,0,0,0,0,0c0,0,0,0,0,0c0,0,0,0,0,0
	c0,0,0,0,0,0c0,0,0,0,0,0c0,0,0,0,0,0c0,0,0,0,0,0c0,0,0,0,0,0c0,0,0,0,0,0c0,0,0,0,0,0c0,0,0,0,0,0c0,0,0,0,0,0c0,0,0,0,0,0
	c0,0,0,0,0,0c0,0,0,0,0,0c0,0,0,0,0,0c0,0,0,0,0,0c0,0,0,0,0,0c0,0,0,0,0,0c0,0,0,0,0,0v0c0,0,0,0,0,0c0,0,0,0,0,0c0,0,0,0,0,0
	c0,0,0,0,0,0c0,0,0,0,0,0c0,0,0,0,0,0c0,0,0,0,0,0c0,0,0,0,0,0c0,0,0,0,0,0s0,0,0,0c0,0,0,0,0,0s0,0,0,0s0,0,0,0c0,0,0,0,0,0
	c0,0,0,0,0,0c0,0,0,0,0,0c0,0,0,0,0,0c0,0,0,0,0,0v0c0,0,0,0,0,0c0,0,0,0,0,0c0,0,0,0,0,0c0,0,0,0,0,0c0,0,0,0,0,0c0,0,0,0,0,0
	s0,0,0,0s0,0,0,0c0,0,0,0,0,0c0,0,0,0,0,0c0,0,0,0,0,0v0c0,0,0,0,0,0c0,0,0,0,0,0c0,0,0,0,0,0s0,0,0,0c0,0,0,0,0,0s0,0,0,0
	c0,0,0,0,0,0c0,0,0,0,0,0v0c0,0,0,0,0,0c0,0,0,0,0,0c0,0,0,0,0,0c0,0,0,0,0,0s0,0,0,0c0,0,0,0,0,0c0,0,0,0,0,0v0c0,0,0,0,0,0
	c0,0,0,0,0,0c0,0,0,0,0,0s0,0,0,0s0,0,0,0c0,0,0,0,0,0c0,0,0,0,0,0v0c0,0,0,0,0,0c0,0,0,0,0,0c0,0,0,0,0,0s0,0,0,0c0,0,0,0,0,0v0
	c0,0,0,0,0,0c0,0,0,0,0,0c0,0,0,0,0,0c0,0,0,0,0,0c0,0,0,0,0,0c0,0,0,0,0,0v0c0,0,0,0,0,0c0,0,0,0,0,0s0,0,0,0c0,0,0,0,0,0
	c0,0,0,0,0,0v0c0,0,0,0,0,0c0,0,0,0,0,0c0,0,0,0,0,0c0,0,0,0,0,0v0c0,0,0,0,0,0c0,0,0,0,0,0c0,0,0,0,0,0s0,0,0,0c0,0,0,0,0,0v0
	c0,0,0,0,0,0c0,0,0,0,0,0c0,0,0,0,0,0c0,0,0,0,0,0v0c0,0,0,0,0,0c0,0,0,0,0,0s0,0,0,0c0,0,0,0,0,0v0c0,0,0,0,0,0c0,0,0,0,0,0
	s0,0,0,0c0,0,0,0,0,0v0c0,0,0,0,0,0c0,0,0,0,0,0s0,0,0,0c0,0,0,0,0,0v0c0,0,0,0,0,0c0,0,0,0,0,0c0,0,0,0,0,0c0,0,0,0,0,0v0
	c0,0,0,0,0,0c0,0,0,0,0,0s0,0,0,0v0c0,0,0,0,0,0c0,0,0,0,0,0s0,0,0,0c0,0,0,0,0,0v0c0,0,0,0,0,0c0,0,0,0,0,0s0,0,0,0c0,0,0,0,0,0v0
	c0,0,0,0,0,0s0,0,0,0c0,0,0,0,0,0v0c0,0,0,0,0,0c0,0,0,0,0,0c0,0,0,0,0,0v0c0,0,0,0,0,0c0,0,0,0,0,0c0,0,0,0,0,0c0,0,0,0,0,0v0
	c0,0,0,0,0,0c0,0,0,0,0,0c0,0,0,0,0,0v0c0,0,0,0,0,0c0,0,0,0,0,0s0,0,0,0v0c0,0,0,0,0,0c0,0,0,0,0,0s0,0,0,0c0,0,0,0,0,0v0
	c0,0,0,0,0,0s0,0,0,0c0,0,0,0,0,0v0c0,0,0,0,0,0s0,0,0,0c0,0,0,0,0,0v0c0,0,0,0,0,0c0,0,0,0,0,0c0,0,0,0,0,0v0c0,0,0,0,0,0
	c0,0,0,0,0,0s0,0,0,0v0c0,0,0,0,0,0c0,0,0,0,0,0s0,0,0,0v0c0,0,0,0,0,0c0,0,0,0,0,0s0,0,0,0v0c0,0,0,0,0,0c0,0,0,0,0,0H26.9z M27,14
	c0.5,6.2,0.7,12.4,0,18.3l9.9,1.1c0.8-6.8,0.6-13.7,0-20.3L27,14z M27,32.2c-0.2,1.4,0.2,2.9,1,4c0.8,1,1.7,1.6,2.3,1.8
	c1.3,0.6,2.5,0.6,3.4,0.6c0.9-0.1,2.1-0.3,3.2-0.9c1.1-0.6,2.9-2,3.2-4.7l-10-0.9c0.2-2,1.6-3,2-3.2c0.5-0.3,0.8-0.3,0.9-0.3
	c0.1,0,0.5,0,1.2,0.3c0.4,0.2,1.1,0.5,1.7,1.4c0.7,0.9,1,2.1,0.8,3.3L27,32.2z M40.1,33.2c0.5-4,0.6-7.9,0.5-11.8l-10,0.2
	c0.1,3.6,0,7.1-0.4,10.4L40.1,33.2z M31,23.4c2.3,5.4,4.1,10.8,5.3,16.3l9.8-2c-1.3-6.4-3.4-12.5-5.8-18.3L31,23.4z M36.2,38.2
	c-0.2,1.4,0.2,2.7,1,3.8c0.7,1,1.6,1.5,2.3,1.8c1.2,0.6,2.5,0.7,3.3,0.6l-0.4-10c0.1,0,0.6,0,1.3,0.3c0.4,0.2,1.1,0.6,1.6,1.4
	c0.7,0.9,1,2,0.8,3.1L36.2,38.2z M42.4,44.5c1.2,0,2.5-0.2,3.8-0.8c1-0.5,3.9-2.6,3.1-6.3l-9.8,2.2c-0.3-1.3,0-2.6,0.6-3.5
	c0.5-0.8,1.1-1.2,1.4-1.3c0.5-0.3,0.9-0.3,1.2-0.3L42.4,44.5z M49.4,38.8c0.6-8.8,0.9-17.7,0.9-26.5l-10,0c0,8.6-0.3,17.3-0.9,25.9
	L49.4,38.8z M51.4,13.8l5,0.3l0,0l0,0L51.4,13.8z M51,22.7l1.2,4.9l3.6-0.9l0.2-3.7L51,22.7z M49.1,23.1l-5-0.3l-0.4,6.4L50,28
	L49.1,23.1z M49.2,16.8l5-0.1l0-0.1l0-0.1L49.2,16.8z M46,17.1l5-0.1l0-0.1l0-0.1L46,17.1z M45.9,23.6l1.2,4.9l3.6-0.9l0.2-3.7
	L45.9,23.6z M45.7,26.8l5,0.5l0.4-4.4l-4.4-0.9L45.7,26.8z M45,33.3l-5-0.6l0,0l0,0L45,33.3z M48.2,33l-5-0.6l0,0L48.2,33z
	 M48.9,26.4l-1.1-4.9l-3.6,0.8l-0.3,3.7L48.9,26.4z M50.9,25.9l5,0.2l0.2-6.5L49.7,21L50.9,25.9z M50.5,38l5,0.1l0,0l0,0L50.5,38z
	 M53.7,37.8l-5-0.1l0,0L53.7,37.8z M54.6,13.6l-5-0.4l0,0.1l0,0.1L54.6,13.6z M46.4,13.5c-0.2,3-0.3,6-0.4,8.9l10,0.4
	c0.1-2.9,0.2-5.8,0.4-8.7L46.4,13.5z M49.8,17.8c-0.6,0.1-1.1,0.3-1.6,0.4L50,28c0.8-0.1,1.5-0.3,2.1-0.5L49.8,17.8z M54.1,23.4
	c0.1-2.2,0.2-4.5,0.1-6.7l-10,0.3c0.1,1.9,0,3.9-0.1,5.8L54.1,23.4z M54.2,16.6c-0.2-3-2.4-4.5-3.6-5c-1.2-0.5-2.5-0.6-3.4-0.5
	c-0.9,0.1-2.1,0.3-3.3,1c-1.1,0.7-3,2.4-2.9,5.3l10-0.5c0.1,2.3-1.4,3.5-2,3.8C48.4,21,48,21,47.9,21c-0.1,0-0.5,0-1.2-0.2
	c-0.6-0.2-2.4-1.3-2.6-3.7L54.2,16.6z M41,17.2c0.1,2,0,4-0.1,6.1l10,0.6C51,21.6,51,19.3,51,17L41,17.2z M44.7,18.7
	c-2.3,0.6-3.4,2.3-3.9,3.1c-0.5,1-0.8,2-0.8,2.9c-0.1,0.9,0,2,0.4,3.2c0.5,1.2,1.7,3.1,4.2,3.7l2.1-9.8c2,0.4,2.8,1.9,3,2.6
	c0.2,0.6,0.2,1.1,0.2,1.2c0,0.2-0.1,0.5-0.3,0.8c-0.1,0.3-0.9,1.5-2.6,2L44.7,18.7z M40.7,26.3c-0.2,2.1-0.4,4.3-0.7,6.4l9.9,1.1
	c0.2-2.2,0.5-4.4,0.7-6.6L40.7,26.3z M40,32.7c-0.4,3.4,2.1,5.2,3.4,5.7c1.2,0.5,2.5,0.6,3.4,0.6c0.9-0.1,2.1-0.3,3.2-0.9
	c1.1-0.6,2.9-2,3.2-4.5l-9.9-1.2c0.2-2,1.6-2.9,2-3.1c0.5-0.3,0.8-0.3,0.9-0.3c0.1,0,0.5,0,1.2,0.3c0.4,0.2,1,0.5,1.6,1.3
	c0.7,0.9,1,2,0.9,3.2L40,32.7z M53.2,33.6c0.3-2.3,0.5-4.6,0.7-6.9l-10-0.8c-0.2,2.1-0.4,4.3-0.7,6.5L53.2,33.6z M50,31.2
	c0.3-0.1,0.7-0.2,1-0.2c0.3-0.1,0.6-0.1,1-0.2L49.7,21c-0.3,0.1-0.7,0.2-1,0.2c-0.3,0.1-0.6,0.1-1,0.2L50,31.2z M45.9,25.7
	c-0.2,4.1-0.3,8.1-0.4,12.2l10,0.2c0.1-4,0.2-8,0.4-12L45.9,25.7z M45.5,37.9c-0.1,3.2,2.3,4.8,3.5,5.4c1.2,0.5,2.5,0.6,3.4,0.5
	c0.9-0.1,2.1-0.3,3.3-1c1.1-0.6,3-2.2,3-5l-10-0.2c0.1-2.1,1.5-3.2,2-3.5c0.5-0.3,0.9-0.3,1-0.3c0.1,0,0.5,0,1.2,0.2
	c0.3,0.1,1,0.5,1.5,1.2c0.6,0.8,1,1.8,1,2.9L45.5,37.9z M58.7,37.9c0.2-8.1,0.4-16.1,0.9-24l-10-0.5c-0.4,8.1-0.7,16.2-0.9,24.3
	L58.7,37.9z M59.6,14c0.3-3.3-2.1-5-3.4-5.6c-1.3-0.6-2.5-0.6-3.4-0.6c-0.9,0.1-2.1,0.3-3.2,0.9c-1.1,0.6-2.9,2.1-3.1,4.9l10,0.5
	c-0.1,2.1-1.5,3.1-2,3.4c-0.5,0.3-0.9,0.3-1,0.3c-0.1,0-0.6,0-1.3-0.3c-0.4-0.2-1-0.5-1.6-1.3c-0.7-0.9-1-1.9-0.9-3L59.6,14z
	 M69.5,33l4.6-2.1l0,0L69.5,33z M67.1,27.2l-1.2-4.9l-5.4,1.3l1.9,5.2L67.1,27.2z M67.5,27l1,4.9l0.4-0.1l0.4-0.1L67.5,27z
	 M67.5,23.8l-1.7-4.7l0,0l0,0L67.5,23.8z M66.1,24.3l-4.8,1.5l1.5,4.7l4.7-1.4L66.1,24.3z M63.6,12.7l-5,0.5l0,0l0,0L63.6,12.7z
	 M62,11.9l-0.4,5l0.3,0l0.3,0L62,11.9z M60.1,12.8l-4.9-1l0,0.1l0,0.1L60.1,12.8z M56.1,26.4v5h3.4l1.3-3.1L56.1,26.4z M55.6,26.5
	l0.7,5l0.1,0l0.1,0L55.6,26.5z M54.8,29.4l4.5,2.1l1.1-2.4l-1.3-2.3L54.8,29.4z M52.9,33.3l4.4,2.4l0,0l0,0L52.9,33.3z M56,33.5
	l-4.4-2.4l0,0.1l0,0.1L56,33.5z M58.1,29.3l-0.8-4.9l-2.6,0.4l-1.1,2.4L58.1,29.3z M64,28.1l4.7-1.8l-1.6-4.2l-4.4,1.1L64,28.1z
	 M66.4,33.8l-4.6,2.1l0,0l0,0L66.4,33.8z M59.6,25.9L55,24l-3.3,8.4l8.9-1.6L59.6,25.9z M61.6,20.1l4.9-1.2L62,0.8l-5.2,17.9
	L61.6,20.1z M63,25.1l1.2,4.9l5.3-1.2l-1.7-5.1L63,25.1z M74,30.9c-0.8-1.8-1.6-3.7-2.3-5.5l-9.4,3.4c0.8,2.1,1.6,4.2,2.5,6.2
	L74,30.9z M68.3,32c0.1,0,0.2-0.1,0.3-0.1c0.1,0,0.1,0,0.2-0.1c0,0,0.1,0,0.1,0c0,0,0,0,0,0c0,0,0,0,0,0c0,0,0,0-0.1,0
	c-0.1,0-0.2,0.1-0.4,0.1l-2-9.8c-0.4,0.1-0.8,0.2-0.9,0.2c0,0,0,0,0,0c0,0,0,0,0,0c0,0,0,0,0,0c0,0,0.1,0,0.3-0.1L68.3,32z
	 M69.2,31.7c2.2-0.8,3.1-2.6,3.5-3.5c0.4-1,0.6-2.1,0.7-3c0-0.8,0-2.2-0.8-3.6c-0.4-0.8-1.3-1.8-2.7-2.4c-1.5-0.6-3-0.5-4.1-0.1
	l3.4,9.4c-0.8,0.3-2,0.4-3.3-0.1c-1.2-0.5-1.9-1.4-2.1-1.9c-0.3-0.5-0.4-0.9-0.4-1.1c0-0.2,0-0.4,0-0.4c0-0.1,0-0.3,0.1-0.6
	c0-0.1,0.6-1.3,2.2-2L69.2,31.7z M65.8,19.1c-0.6,0.2-0.8,0.3-1.1,0.4l2.8,9.6c0.7-0.2,1.4-0.5,1.8-0.6L65.8,19.1z M70.9,22.8
	c-1.1-3.5-1.9-7.1-2.3-10.7l-9.9,1.1c0.5,4.3,1.5,8.5,2.7,12.5L70.9,22.8z M68.5,12.2c-0.3-2.7-2.2-4.2-3.5-4.7
	C63.8,7,62.6,6.9,61.8,7l0.4,10c0,0-0.5,0-1.1-0.2c-0.4-0.2-0.9-0.5-1.4-1.1c-0.6-0.7-1-1.5-1-2.4L68.5,12.2z M62.4,7
	C61.3,6.9,60.1,7,59,7.5C58,7.8,55.8,9,55.2,11.7l9.8,2.1c-0.2,1.1-0.8,1.8-1.3,2.3c-0.5,0.4-0.9,0.6-1.1,0.7
	c-0.4,0.2-0.8,0.2-1,0.2L62.4,7z M55.2,11.9c-0.7,4.4-2,8.5-3.7,12.6l9.2,3.8c1.9-4.7,3.4-9.6,4.3-14.7L55.2,11.9z M56.1,21.4
	c-0.7,0-1.3,0.1-1.5,0.2l2,9.8c0,0,0,0-0.1,0c-0.1,0-0.2,0-0.4,0V21.4z M54.9,21.5c-2.1,0.3-3.3,1.6-3.9,2.4c-0.6,0.9-1,1.8-1.1,2.5
	c-0.2,0.8-0.3,1.6-0.2,2.4c0,0.8,0.2,1.9,0.9,3.1l8.6-5.1c0.4,0.7,0.5,1.4,0.5,1.5c0,0.2,0,0.4-0.1,0.6c0,0.1-0.1,0.5-0.4,0.9
	c-0.3,0.4-1.2,1.4-2.8,1.6L54.9,21.5z M50.3,27.3c-0.6,1.3-1.2,2.5-1.8,3.7l8.8,4.7c0.8-1.4,1.4-2.8,2-4.1L50.3,27.3z M48.5,30.9
	c-0.5,1-0.9,2.5-0.5,4.1c0.5,1.6,1.5,2.5,2.2,3c1.3,0.9,2.8,1.1,3.5,1.1c0.9,0.1,2,0,3-0.4c0.8-0.3,2.7-1,3.7-3l-8.9-4.6
	c0.8-1.5,2-1.9,2.1-1.9c0.3-0.1,0.5-0.1,0.6-0.1c0.1,0,0.2,0,0.4,0.1c0.2,0,0.6,0.2,1.1,0.5c0.5,0.3,1.4,1.1,1.8,2.5
	c0.4,1.4,0,2.7-0.3,3.4L48.5,30.9z M60.4,35.9c0.8-1.5,1.5-3,2.2-4.4l-9.1-4.2c-0.7,1.4-1.3,2.7-1.9,3.9L60.4,35.9z M58.9,34.3
	c2.1-0.3,4.2-0.8,6.4-1.3l-2.5-9.7c-1.7,0.5-3.6,0.8-5.5,1.1L58.9,34.3z M59.4,29.8c0.8,2,1.6,4,2.5,6l9.1-4.1
	c-0.8-1.8-1.5-3.5-2.2-5.4L59.4,29.8z M61.8,35.8c1.1,2.4,3.3,3.1,4.3,3.3c1.2,0.2,2.3,0.2,3.2,0c0.9-0.2,2.2-0.6,3.4-1.7
	c0.6-0.6,1.3-1.5,1.7-2.8c0.3-1.3,0.1-2.6-0.3-3.7l-9.1,4.1c-0.3-0.8-0.5-1.8-0.2-2.8c0.3-1,0.8-1.7,1.2-2.1
	c0.7-0.7,1.4-0.8,1.4-0.8c0.2,0,0.5-0.1,0.9,0c0.3,0.1,1.9,0.4,2.7,2.3L61.8,35.8z M64.2,27.7c0.8-2,1.5-4.1,2.1-6.2l-9.6-2.8
	c-0.5,1.8-1.1,3.6-1.8,5.3L64.2,27.7z M56.7,21.3c0.4,1.8,1,3.6,1.5,5.4l9.5-3.1c-0.5-1.6-1-3.1-1.3-4.7L56.7,21.3z M61.9,20.3
	c-1.1,0.3-2.1,0.5-3.2,0.7l1.8,9.8c1.2-0.2,2.4-0.5,3.7-0.8L61.9,20.3z M79.5,12.3v-5h0l0,0L79.5,12.3z M67.2,14.1l-2-4.6l0,0
	L67.2,14.1z M67.1,17.3l-2-4.6l0,0L67.1,17.3z M70,16.4l5,0.3l0.4-6.8l-6.6,1.6L70,16.4z M69.4,33.5l-5,0l0,0v0H69.4z M73.2,15.9
	l-0.5-5l-4.2,0.5l-0.3,4.2L73.2,15.9z M78.9,15.6v5H79l0.1,0L78.9,15.6z M79.5,7.3c-3.8,0-9.5,0.1-14.3,2.1l4,9.2
	c2.7-1.2,6.2-1.3,10.4-1.3L79.5,7.3z M65.2,9.5c-2.1,0.9-2.9,2.6-3.3,3.5c-0.4,1-0.6,2-0.6,3c0,0.8,0,2.2,0.8,3.6
	c0.4,0.8,1.3,1.9,2.8,2.4c1.6,0.6,3.1,0.3,4.2-0.1l-4-9.2c0.8-0.3,2-0.6,3.4-0.1c1.3,0.5,2,1.4,2.3,2c0.3,0.5,0.4,1,0.4,1.2
	c0,0.2,0,0.4,0,0.4c0,0.1,0,0.3-0.1,0.6c0,0.1-0.5,1.3-2,1.9L65.2,9.5z M69.1,21.9c0.6-0.2,1.3-0.5,2-0.7l-2.4-9.7
	c-1.2,0.3-2.4,0.7-3.7,1.2L69.1,21.9z M65,16c-0.4,5.8-0.6,11.6-0.6,17.4l10,0.1c0-5.6,0.2-11.2,0.6-16.9L65,16z M64.4,33.5
	c0,3.1,2.3,4.7,3.5,5.2c1.3,0.5,2.5,0.6,3.4,0.5c0.9-0.1,2.1-0.3,3.3-1c1.1-0.7,3-2.3,3-5.1h-10c0-2.2,1.5-3.3,2-3.6
	c0.5-0.3,0.9-0.3,1-0.4c0.1,0,0.6,0,1.2,0.2c0.3,0.1,1,0.5,1.5,1.1c0.6,0.7,1,1.7,1,2.8H64.4z M77.6,33.2c0-5.7,0.2-11.4,0.6-17.1
	l-10-0.6c-0.4,5.9-0.6,11.8-0.6,17.7H77.6z M73.7,20.8c1.7-0.2,3.4-0.2,5.2-0.2v-10c-1.8,0-4,0-6.3,0.3L73.7,20.8z M79,20.6
	c2.6-0.1,4.2-1.7,4.8-2.7c0.7-1.1,1.1-2.2,1.2-3.1c0.1-0.9,0.2-2.2-0.2-3.5c-0.4-1.3-1.9-3.9-5.3-3.9v10c-1.2,0-2.3-0.5-3.1-1.2
	c-0.7-0.7-1-1.4-1.1-1.7c-0.2-0.7-0.2-1.1-0.1-1.2c0-0.1,0.1-0.4,0.4-0.9c0.3-0.4,1.3-1.6,3.2-1.7L79,20.6z M87.2,12.3v-5h0l0,0
	L87.2,12.3z M74.8,14.1l-2-4.6l0,0L74.8,14.1z M74.8,17.3l-2-4.6l0,0L74.8,17.3z M77.6,16.4l5,0.3L83,9.9l-6.6,1.6L77.6,16.4z
	 M77,33.5l-5,0l0,0v0H77z M80.8,15.9l-0.5-5l-4.2,0.5l-0.3,4.2L80.8,15.9z M86.6,15.6v5h0.1l0.1,0L86.6,15.6z M87.1,7.3
	c-3.8,0-9.5,0.1-14.3,2.1l4,9.2c2.7-1.2,6.2-1.3,10.4-1.3L87.1,7.3z M72.8,9.5c-2.1,0.9-2.9,2.6-3.3,3.5c-0.4,1-0.6,2-0.6,3
	c0,0.8,0,2.2,0.8,3.6c0.4,0.8,1.3,1.9,2.8,2.4c1.6,0.6,3.1,0.3,4.2-0.1l-4-9.2c0.8-0.3,2-0.6,3.4-0.1c1.3,0.5,2,1.4,2.3,2
	c0.3,0.5,0.4,1,0.4,1.2c0,0.2,0,0.4,0,0.4c0,0.1,0,0.3-0.1,0.6c0,0.1-0.5,1.3-2,1.9L72.8,9.5z M76.7,21.9c0.6-0.2,1.3-0.5,2-0.7
	l-2.4-9.7c-1.2,0.3-2.4,0.7-3.7,1.2L76.7,21.9z M72.6,16C72.2,21.9,72,27.7,72,33.5l10,0.1c0-5.6,0.2-11.2,0.6-16.9L72.6,16z
	 M72,33.5c0,3.1,2.3,4.7,3.5,5.2c1.3,0.5,2.5,0.6,3.4,0.5c0.9-0.1,2.1-0.3,3.3-1c1.1-0.7,3-2.3,3-5.1h-10c0-2.2,1.5-3.3,2-3.6
	c0.5-0.3,0.9-0.3,1-0.4c0.1,0,0.6,0,1.2,0.2c0.3,0.1,1,0.5,1.5,1.1c0.6,0.7,1,1.7,1,2.8H72z M85.2,33.2c0-5.7,0.2-11.4,0.6-17.1
	l-10-0.6c-0.4,5.9-0.6,11.8-0.6,17.7H85.2z M81.4,20.8c1.7-0.2,3.4-0.2,5.2-0.2v-10c-1.8,0-4,0-6.3,0.3L81.4,20.8z M86.7,20.6
	c2.6-0.1,4.2-1.7,4.8-2.7c0.7-1.1,1.1-2.2,1.2-3.1c0.1-0.9,0.2-2.2-0.2-3.5c-0.4-1.3-1.9-3.9-5.3-3.9v10c-1.2,0-2.3-0.5-3.1-1.2
	c-0.7-0.7-1-1.4-1.1-1.7c-0.2-0.7-0.2-1.1-0.1-1.2c0-0.1,0.1-0.4,0.4-0.9c0.3-0.4,1.3-1.6,3.2-1.7L86.7,20.6z M98.2,33l4.6-2.1l0,0
	L98.2,33z M95.8,27.2l-1.2-4.9l-5.4,1.3l1.9,5.2L95.8,27.2z M96.2,27l1,4.9l0.4-0.1l0.4-0.1L96.2,27z M96.3,23.8l-1.7-4.7l0,0l0,0
	L96.3,23.8z M94.8,24.3l-4.8,1.5l1.5,4.7l4.7-1.4L94.8,24.3z M92.3,12.7l-5,0.5l0,0l0,0L92.3,12.7z M90.8,11.9l-0.4,5l0.3,0l0.3,0
	L90.8,11.9z M88.9,12.8l-4.9-1l0,0.1l0,0.1L88.9,12.8z M84.9,26.4v5h3.4l1.3-3.1L84.9,26.4z M84.4,26.5l0.7,5l0.1,0l0.1,0L84.4,26.5
	z M83.6,29.4l4.5,2.1l1.1-2.4l-1.3-2.3L83.6,29.4z M81.6,33.3l4.4,2.4l0,0l0,0L81.6,33.3z M84.8,33.5l-4.4-2.4l0,0.1l0,0.1
	L84.8,33.5z M86.9,29.3L86,24.4l-2.6,0.4l-1.1,2.4L86.9,29.3z M92.8,28.1l4.7-1.8l-1.6-4.2l-4.4,1.1L92.8,28.1z M95.1,33.8l-4.6,2.1
	l0,0l0,0L95.1,33.8z M88.4,25.9L83.7,24l-3.3,8.4l8.9-1.6L88.4,25.9z M90.3,20.1l4.9-1.2L90.8,0.8l-5.2,17.9L90.3,20.1z M91.8,25.1
	l1.2,4.9l5.3-1.2l-1.7-5.1L91.8,25.1z M102.8,30.9c-0.8-1.8-1.6-3.7-2.3-5.5l-9.4,3.4c0.8,2.1,1.6,4.2,2.5,6.2L102.8,30.9z M97.1,32
	c0.1,0,0.2-0.1,0.3-0.1c0.1,0,0.1,0,0.2-0.1c0,0,0.1,0,0.1,0c0,0,0,0,0,0c0,0,0,0,0,0c0,0,0,0-0.1,0c-0.1,0-0.2,0.1-0.4,0.1l-2-9.8
	c-0.4,0.1-0.8,0.2-0.9,0.2c0,0,0,0,0,0c0,0,0,0,0,0c0,0,0,0,0,0c0,0,0.1,0,0.3-0.1L97.1,32z M98,31.7c2.2-0.8,3.1-2.6,3.5-3.5
	c0.4-1,0.6-2.1,0.7-3c0-0.8,0-2.2-0.8-3.6c-0.4-0.8-1.3-1.8-2.7-2.4c-1.5-0.6-3-0.5-4.1-0.1l3.4,9.4c-0.8,0.3-2,0.4-3.3-0.1
	c-1.2-0.5-1.9-1.4-2.1-1.9c-0.3-0.5-0.4-0.9-0.4-1.1c0-0.2,0-0.4,0-0.4c0-0.1,0-0.3,0.1-0.6c0-0.1,0.6-1.3,2.2-2L98,31.7z
	 M94.5,19.1c-0.6,0.2-0.8,0.3-1.1,0.4l2.8,9.6c0.7-0.2,1.4-0.5,1.8-0.6L94.5,19.1z M99.6,22.8c-1.1-3.5-1.9-7.1-2.3-10.7l-9.9,1.1
	c0.5,4.3,1.5,8.5,2.7,12.5L99.6,22.8z M97.3,12.2c-0.3-2.7-2.2-4.2-3.5-4.7C92.6,7,91.4,6.9,90.6,7l0.4,10c0,0-0.5,0-1.1-0.2
	c-0.4-0.2-0.9-0.5-1.4-1.1c-0.6-0.7-1-1.5-1-2.4L97.3,12.2z M91.1,7c-1.1-0.1-2.3,0.1-3.4,0.5C86.8,7.8,84.6,9,84,11.7l9.8,2.1
	c-0.2,1.1-0.8,1.8-1.3,2.3c-0.5,0.4-0.9,0.6-1.1,0.7c-0.4,0.2-0.8,0.2-1,0.2L91.1,7z M83.9,11.9c-0.7,4.4-2,8.5-3.7,12.6l9.2,3.8
	c1.9-4.7,3.4-9.6,4.3-14.7L83.9,11.9z M84.9,21.4c-0.7,0-1.3,0.1-1.5,0.2l2,9.8c0,0,0,0-0.1,0c-0.1,0-0.2,0-0.4,0V21.4z M83.7,21.5
	c-2.1,0.3-3.3,1.6-3.9,2.4c-0.6,0.9-1,1.8-1.1,2.5c-0.2,0.8-0.3,1.6-0.2,2.4c0,0.8,0.2,1.9,0.9,3.1l8.6-5.1c0.4,0.7,0.5,1.4,0.5,1.5
	c0,0.2,0,0.4-0.1,0.6c0,0.1-0.1,0.5-0.4,0.9c-0.3,0.4-1.2,1.4-2.8,1.6L83.7,21.5z M79,27.3c-0.6,1.3-1.2,2.5-1.8,3.7l8.8,4.7
	c0.8-1.4,1.4-2.8,2-4.1L79,27.3z M77.2,30.9c-0.5,1-0.9,2.5-0.5,4.1c0.5,1.6,1.5,2.5,2.2,3c1.3,0.9,2.8,1.1,3.5,1.1
	c0.9,0.1,2,0,3-0.4c0.8-0.3,2.7-1,3.7-3l-8.9-4.6c0.8-1.5,2-1.9,2.1-1.9c0.3-0.1,0.5-0.1,0.6-0.1c0.1,0,0.2,0,0.4,0.1
	c0.2,0,0.6,0.2,1.1,0.5c0.5,0.3,1.4,1.1,1.8,2.5c0.4,1.4,0.1,2.7-0.3,3.4L77.2,30.9z M89.2,35.9c0.8-1.5,1.5-3,2.2-4.4l-9.1-4.2
	c-0.7,1.4-1.3,2.7-1.9,3.9L89.2,35.9z M87.7,34.3c2.1-0.3,4.2-0.8,6.4-1.3l-2.5-9.7c-1.7,0.5-3.6,0.8-5.5,1.1L87.7,34.3z M88.1,29.8
	c0.8,2,1.6,4,2.5,6l9.1-4.1c-0.8-1.8-1.5-3.5-2.2-5.4L88.1,29.8z M90.6,35.8c1.1,2.4,3.3,3.1,4.3,3.3c1.2,0.2,2.3,0.2,3.2,0
	c0.9-0.2,2.2-0.6,3.4-1.7c0.6-0.6,1.3-1.5,1.7-2.8c0.3-1.3,0.1-2.6-0.3-3.7l-9.1,4.1c-0.3-0.8-0.5-1.8-0.2-2.8
	c0.3-1,0.8-1.7,1.2-2.1c0.7-0.7,1.4-0.8,1.4-0.8c0.2,0,0.5-0.1,0.9,0c0.3,0.1,1.9,0.4,2.7,2.3L90.6,35.8z M93,27.7
	c0.8-2,1.5-4.1,2.1-6.2l-9.6-2.8c-0.5,1.8-1.1,3.6-1.8,5.3L93,27.7z M85.5,21.3c0.4,1.8,1,3.6,1.5,5.4l9.5-3.1
	c-0.5-1.6-1-3.1-1.3-4.7L85.5,21.3z M90.6,20.3c-1.1,0.3-2.1,0.5-3.2,0.7l1.8,9.8c1.2-0.2,2.4-0.5,3.7-0.8L90.6,20.3z M109.9,12.3
	l5,0v0v0H109.9z M106.6,12.6l-5-0.1l0,0.1v0.1H106.6z M106.3,28.6l-4.7,1.6l9.7-1.3L106.3,28.6z M99.7,13.1L95,14.7l0.1,0.3l0.2,0.3
	L99.7,13.1z M96.5,13.3l-4.9-1.2l-0.1,0.6v0.6H96.5z M96.5,13.5h-5v0.2l0,0.2L96.5,13.5z M96.5,32.9l5,0.7l0-0.1l0-0.1L96.5,32.9z
	 M99.7,32.6l-5-0.6l0,0.1l0,0.1L99.7,32.6z M100.2,21.5l4.6-2l-9.6,2L100.2,21.5z M105.8,38.8l5,0.6l0.1-0.8l-0.2-0.8L105.8,38.8z
	 M107.2,39.5l0.2-5l-0.2,0l-0.2,0L107.2,39.5z M109,38.5l-5-0.3l-0.1,0.7l0.2,0.7L109,38.5z M114.9,12.3c0-3.1-2.3-4.7-3.6-5.2
	c-1.2-0.5-2.5-0.6-3.4-0.5c-0.9,0.1-2.1,0.3-3.3,1c-1.1,0.7-2.9,2.2-3,4.9l10,0.2c0,2.1-1.4,3.1-1.9,3.4c-0.5,0.3-0.9,0.4-1.1,0.4
	c-0.1,0-0.6,0-1.2-0.2c-0.3-0.1-1-0.5-1.5-1.1c-0.6-0.7-1-1.7-1-2.8H114.9z M101.6,12.6c0,5.2-0.1,10.5-0.4,15.7l10,0.5
	c0.2-5.4,0.4-10.8,0.4-16.2H101.6z M111,27c-1.9-5.6-4.3-11.1-6.9-16.2l-8.9,4.5c2.4,4.8,4.6,9.7,6.3,14.8L111,27z M104.4,11.5
	c-0.8-2.3-2.7-3.3-3.7-3.6c-1.1-0.4-2.2-0.4-3-0.4c-0.9,0.1-1.9,0.3-2.9,0.8c-0.9,0.4-2.6,1.6-3.1,3.9l9.7,2.4
	c-0.4,1.8-1.7,2.5-2,2.7c-0.4,0.2-0.7,0.3-0.9,0.3c-0.1,0-0.5,0-1-0.1c-0.4-0.1-1.9-0.8-2.5-2.6L104.4,11.5z M91.5,13.3
	C91.5,13.3,91.5,13.3,91.5,13.3C91.5,13.3,91.5,13.3,91.5,13.3L91.5,13.3C91.5,13.3,91.5,13.3,91.5,13.3
	C91.5,13.3,91.5,13.3,91.5,13.3C91.5,13.3,91.5,13.3,91.5,13.3L91.5,13.3C91.5,13.3,91.5,13.3,91.5,13.3
	C91.5,13.3,91.5,13.3,91.5,13.3C91.5,13.3,91.5,13.3,91.5,13.3L91.5,13.3C91.5,13.3,91.5,13.3,91.5,13.3
	C91.5,13.3,91.5,13.3,91.5,13.3C91.5,13.3,91.5,13.3,91.5,13.3L91.5,13.3C91.5,13.3,91.5,13.3,91.5,13.3
	C91.5,13.3,91.5,13.3,91.5,13.3C91.5,13.3,91.5,13.3,91.5,13.3L91.5,13.3C91.5,13.3,91.5,13.3,91.5,13.3
	C91.5,13.3,91.5,13.3,91.5,13.3C91.5,13.3,91.5,13.3,91.5,13.3L91.5,13.3C91.5,13.3,91.5,13.3,91.5,13.3
	C91.5,13.3,91.5,13.3,91.5,13.3C91.5,13.3,91.5,13.3,91.5,13.3L91.5,13.3C91.5,13.3,91.5,13.3,91.5,13.3
	C91.5,13.3,91.5,13.3,91.5,13.3C91.5,13.3,91.5,13.3,91.5,13.3L91.5,13.3C91.5,13.3,91.5,13.3,91.5,13.3
	C91.5,13.3,91.5,13.3,91.5,13.3C91.5,13.3,91.5,13.3,91.5,13.3C91.5,13.3,91.5,13.3,91.5,13.3L91.5,13.3
	C91.5,13.3,91.5,13.3,91.5,13.3C91.5,13.3,91.5,13.3,91.5,13.3C91.5,13.3,91.5,13.3,91.5,13.3L91.5,13.3
	C91.5,13.3,91.5,13.3,91.5,13.3C91.5,13.3,91.5,13.3,91.5,13.3C91.5,13.3,91.5,13.3,91.5,13.3L91.5,13.3
	C91.5,13.3,91.5,13.3,91.5,13.3C91.5,13.3,91.5,13.3,91.5,13.3C91.5,13.3,91.5,13.3,91.5,13.3L91.5,13.3
	C91.5,13.3,91.5,13.3,91.5,13.3C91.5,13.3,91.5,13.3,91.5,13.3C91.5,13.3,91.5,13.3,91.5,13.3L91.5,13.3
	C91.5,13.3,91.5,13.3,91.5,13.3C91.5,13.3,91.5,13.3,91.5,13.3C91.5,13.3,91.5,13.3,91.5,13.3L91.5,13.3
	C91.5,13.3,91.5,13.3,91.5,13.3C91.5,13.3,91.5,13.3,91.5,13.3C91.5,13.3,91.5,13.3,91.5,13.3L91.5,13.3
	C91.5,13.3,91.5,13.3,91.5,13.3C91.5,13.3,91.5,13.3,91.5,13.3C91.5,13.3,91.5,13.3,91.5,13.3L91.5,13.3
	C91.5,13.3,91.5,13.3,91.5,13.3C91.5,13.3,91.5,13.3,91.5,13.3C91.5,13.3,91.5,13.3,91.5,13.3C91.5,13.3,91.5,13.3,91.5,13.3
	L91.5,13.3C91.5,13.3,91.5,13.3,91.5,13.3C91.5,13.3,91.5,13.3,91.5,13.3C91.5,13.3,91.5,13.3,91.5,13.3L91.5,13.3
	C91.5,13.3,91.5,13.3,91.5,13.3C91.5,13.3,91.5,13.3,91.5,13.3C91.5,13.3,91.5,13.3,91.5,13.3L91.5,13.3
	C91.5,13.3,91.5,13.3,91.5,13.3C91.5,13.3,91.5,13.3,91.5,13.3C91.5,13.3,91.5,13.3,91.5,13.3L91.5,13.3
	C91.5,13.3,91.5,13.3,91.5,13.3C91.5,13.3,91.5,13.3,91.5,13.3C91.5,13.3,91.5,13.3,91.5,13.3L91.5,13.3
	C91.5,13.3,91.5,13.3,91.5,13.3C91.5,13.3,91.5,13.3,91.5,13.3C91.5,13.3,91.5,13.3,91.5,13.3L91.5,13.3
	C91.5,13.3,91.5,13.3,91.5,13.3C91.5,13.3,91.5,13.3,91.5,13.3C91.5,13.3,91.5,13.3,91.5,13.3L91.5,13.3
	C91.5,13.3,91.5,13.3,91.5,13.3C91.5,13.3,91.5,13.3,91.5,13.3C91.5,13.3,91.5,13.3,91.5,13.3C91.5,13.3,91.5,13.3,91.5,13.3
	L91.5,13.3C91.5,13.3,91.5,13.3,91.5,13.3C91.5,13.3,91.5,13.3,91.5,13.3C91.5,13.3,91.5,13.3,91.5,13.3L91.5,13.3
	C91.5,13.3,91.5,13.3,91.5,13.3C91.5,13.3,91.5,13.3,91.5,13.3C91.5,13.3,91.5,13.3,91.5,13.3L91.5,13.3
	C91.5,13.3,91.5,13.3,91.5,13.3C91.5,13.3,91.5,13.3,91.5,13.3C91.5,13.3,91.5,13.3,91.5,13.3L91.5,13.3
	C91.5,13.3,91.5,13.3,91.5,13.3C91.5,13.3,91.5,13.3,91.5,13.3C91.5,13.3,91.5,13.3,91.5,13.3L91.5,13.3
	C91.5,13.4,91.5,13.4,91.5,13.3C91.5,13.4,91.5,13.4,91.5,13.3C91.5,13.4,91.5,13.4,91.5,13.3L91.5,13.3
	C91.5,13.4,91.5,13.4,91.5,13.3C91.5,13.4,91.5,13.4,91.5,13.3C91.5,13.4,91.5,13.4,91.5,13.3L91.5,13.3
	C91.5,13.4,91.5,13.4,91.5,13.3C91.5,13.4,91.5,13.4,91.5,13.3C91.5,13.4,91.5,13.4,91.5,13.3L91.5,13.3
	C91.5,13.4,91.5,13.4,91.5,13.3C91.5,13.4,91.5,13.4,91.5,13.3C91.5,13.4,91.5,13.4,91.5,13.3C91.5,13.4,91.5,13.4,91.5,13.3
	L91.5,13.3C91.5,13.4,91.5,13.4,91.5,13.3C91.5,13.4,91.5,13.4,91.5,13.3C91.5,13.4,91.5,13.4,91.5,13.3L91.5,13.3
	C91.5,13.4,91.5,13.4,91.5,13.3C91.5,13.4,91.5,13.4,91.5,13.3C91.5,13.4,91.5,13.4,91.5,13.3L91.5,13.3
	C91.5,13.4,91.5,13.4,91.5,13.3C91.5,13.4,91.5,13.4,91.5,13.3C91.5,13.4,91.5,13.4,91.5,13.3L91.5,13.3
	C91.5,13.4,91.5,13.4,91.5,13.3C91.5,13.4,91.5,13.4,91.5,13.3C91.5,13.4,91.5,13.4,91.5,13.3L91.5,13.3
	C91.5,13.4,91.5,13.4,91.5,13.3C91.5,13.4,91.5,13.4,91.5,13.3C91.5,13.4,91.5,13.4,91.5,13.3L91.5,13.3
	C91.5,13.4,91.5,13.4,91.5,13.3C91.5,13.4,91.5,13.4,91.5,13.3C91.5,13.4,91.5,13.4,91.5,13.3L91.5,13.3
	C91.5,13.4,91.5,13.4,91.5,13.3C91.5,13.4,91.5,13.4,91.5,13.3C91.5,13.4,91.5,13.4,91.5,13.3L91.5,13.3
	C91.5,13.4,91.5,13.4,91.5,13.3C91.5,13.4,91.5,13.4,91.5,13.3C91.5,13.4,91.5,13.4,91.5,13.3C91.5,13.4,91.5,13.4,91.5,13.3
	L91.5,13.3C91.5,13.4,91.5,13.4,91.5,13.3C91.5,13.4,91.5,13.4,91.5,13.3C91.5,13.4,91.5,13.4,91.5,13.3L91.5,13.3
	C91.5,13.4,91.5,13.4,91.5,13.3C91.5,13.4,91.5,13.4,91.5,13.3C91.5,13.4,91.5,13.4,91.5,13.3L91.5,13.3
	C91.5,13.4,91.5,13.4,91.5,13.3C91.5,13.4,91.5,13.4,91.5,13.3C91.5,13.4,91.5,13.4,91.5,13.3L91.5,13.3
	C91.5,13.4,91.5,13.4,91.5,13.3C91.5,13.4,91.5,13.4,91.5,13.3C91.5,13.4,91.5,13.4,91.5,13.3L91.5,13.3
	C91.5,13.4,91.5,13.4,91.5,13.3C91.5,13.4,91.5,13.4,91.5,13.3C91.5,13.4,91.5,13.4,91.5,13.3L91.5,13.3
	C91.5,13.4,91.5,13.4,91.5,13.3C91.5,13.4,91.5,13.4,91.5,13.3C91.5,13.4,91.5,13.4,91.5,13.3L91.5,13.3
	C91.5,13.4,91.5,13.4,91.5,13.3C91.5,13.4,91.5,13.4,91.5,13.3C91.5,13.4,91.5,13.4,91.5,13.3L91.5,13.3
	C91.5,13.4,91.5,13.4,91.5,13.3C91.5,13.4,91.5,13.4,91.5,13.3C91.5,13.4,91.5,13.4,91.5,13.3C91.5,13.4,91.5,13.4,91.5,13.3
	L91.5,13.3C91.5,13.4,91.5,13.4,91.5,13.3C91.5,13.4,91.5,13.4,91.5,13.3C91.5,13.4,91.5,13.4,91.5,13.3L91.5,13.3
	C91.5,13.4,91.5,13.4,91.5,13.3C91.5,13.4,91.5,13.4,91.5,13.3C91.5,13.4,91.5,13.4,91.5,13.3L91.5,13.3
	C91.5,13.4,91.5,13.4,91.5,13.3C91.5,13.4,91.5,13.4,91.5,13.3C91.5,13.4,91.5,13.4,91.5,13.3L91.5,13.3
	C91.5,13.4,91.5,13.4,91.5,13.3C91.5,13.4,91.5,13.4,91.5,13.3C91.5,13.4,91.5,13.4,91.5,13.3L91.5,13.3
	C91.5,13.4,91.5,13.4,91.5,13.3C91.5,13.4,91.5,13.4,91.5,13.3C91.5,13.4,91.5,13.4,91.5,13.3L91.5,13.3
	C91.5,13.4,91.5,13.4,91.5,13.3C91.5,13.4,91.5,13.4,91.5,13.3C91.5,13.4,91.5,13.4,91.5,13.3L91.5,13.3
	C91.5,13.4,91.5,13.4,91.5,13.3C91.5,13.4,91.5,13.4,91.5,13.3C91.5,13.4,91.5,13.4,91.5,13.3L91.5,13.3
	C91.5,13.4,91.5,13.4,91.5,13.3C91.5,13.4,91.5,13.4,91.5,13.3C91.5,13.4,91.5,13.4,91.5,13.3C91.5,13.4,91.5,13.4,91.5,13.3
	L91.5,13.3C91.5,13.4,91.5,13.4,91.5,13.3C91.5,13.4,91.5,13.4,91.5,13.3C91.5,13.4,91.5,13.4,91.5,13.3L91.5,13.3
	C91.5,13.4,91.5,13.4,91.5,13.3C91.5,13.4,91.5,13.4,91.5,13.3C91.5,13.4,91.5,13.4,91.5,13.3L91.5,13.3
	C91.5,13.4,91.5,13.4,91.5,13.3C91.5,13.4,91.5,13.4,91.5,13.3C91.5,13.4,91.5,13.4,91.5,13.3L91.5,13.3
	C91.5,13.4,91.5,13.4,91.5,13.3C91.5,13.4,91.5,13.4,91.5,13.3C91.5,13.4,91.5,13.4,91.5,13.3L91.5,13.3
	C91.5,13.4,91.5,13.4,91.5,13.3C91.5,13.4,91.5,13.4,91.5,13.3C91.5,13.4,91.5,13.4,91.5,13.3L91.5,13.3
	C91.5,13.4,91.5,13.4,91.5,13.3C91.5,13.4,91.5,13.4,91.5,13.3C91.5,13.4,91.5,13.4,91.5,13.3L91.5,13.3
	C91.5,13.4,91.5,13.4,91.5,13.3C91.5,13.4,91.5,13.4,91.5,13.3C91.5,13.4,91.5,13.4,91.5,13.3C91.5,13.4,91.5,13.4,91.5,13.3
	L91.5,13.3C91.5,13.4,91.5,13.4,91.5,13.3C91.5,13.4,91.5,13.4,91.5,13.3C91.5,13.4,91.5,13.4,91.5,13.3L91.5,13.3
	C91.5,13.4,91.5,13.4,91.5,13.3C91.5,13.4,91.5,13.4,91.5,13.3C91.5,13.4,91.5,13.4,91.5,13.3L91.5,13.3
	C91.5,13.4,91.5,13.4,91.5,13.3C91.5,13.4,91.5,13.4,91.5,13.3C91.5,13.4,91.5,13.4,91.5,13.3L91.5,13.3
	C91.5,13.4,91.5,13.4,91.5,13.3C91.5,13.4,91.5,13.4,91.5,13.3C91.5,13.4,91.5,13.4,91.5,13.3L91.5,13.3
	C91.5,13.4,91.5,13.4,91.5,13.3C91.5,13.4,91.5,13.4,91.5,13.3C91.5,13.4,91.5,13.4,91.5,13.3L91.5,13.3
	C91.5,13.4,91.5,13.4,91.5,13.3C91.5,13.4,91.5,13.4,91.5,13.3C91.5,13.4,91.5,13.4,91.5,13.3L91.5,13.3
	C91.5,13.4,91.5,13.4,91.5,13.3C91.5,13.4,91.5,13.4,91.5,13.3C91.5,13.4,91.5,13.4,91.5,13.3L91.5,13.3
	C91.5,13.4,91.5,13.4,91.5,13.3C91.5,13.4,91.5,13.4,91.5,13.3C91.5,13.4,91.5,13.4,91.5,13.3C91.5,13.4,91.5,13.4,91.5,13.3
	L91.5,13.3C91.5,13.4,91.5,13.4,91.5,13.3C91.5,13.4,91.5,13.4,91.5,13.3C91.5,13.4,91.5,13.4,91.5,13.3L91.5,13.3
	C91.5,13.4,91.5,13.4,91.5,13.3C91.5,13.4,91.5,13.4,91.5,13.3C91.5,13.4,91.5,13.4,91.5,13.3L91.5,13.3
	C91.5,13.4,91.5,13.4,91.5,13.3C91.5,13.4,91.5,13.4,91.5,13.3C91.5,13.4,91.5,13.4,91.5,13.3L91.5,13.3
	C91.5,13.4,91.5,13.4,91.5,13.3C91.5,13.4,91.5,13.4,91.5,13.3C91.5,13.4,91.5,13.4,91.5,13.3L91.5,13.3
	C91.5,13.4,91.5,13.4,91.5,13.3C91.5,13.4,91.5,13.4,91.5,13.3C91.5,13.4,91.5,13.4,91.5,13.3L91.5,13.3
	C91.5,13.4,91.5,13.4,91.5,13.3C91.5,13.4,91.5,13.4,91.5,13.3C91.5,13.4,91.5,13.4,91.5,13.3L91.5,13.3
	C91.5,13.4,91.5,13.4,91.5,13.3C91.5,13.4,91.5,13.4,91.5,13.3C91.5,13.4,91.5,13.4,91.5,13.3L91.5,13.3
	C91.5,13.4,91.5,13.4,91.5,13.3C91.5,13.4,91.5,13.4,91.5,13.3C91.5,13.4,91.5,13.4,91.5,13.3C91.5,13.4,91.5,13.4,91.5,13.3
	L91.5,13.3C91.5,13.4,91.5,13.4,91.5,13.3C91.5,13.4,91.5,13.4,91.5,13.3C91.5,13.4,91.5,13.4,91.5,13.3L91.5,13.3
	C91.5,13.4,91.5,13.4,91.5,13.3C91.5,13.4,91.5,13.4,91.5,13.3C91.5,13.4,91.5,13.4,91.5,13.3L91.5,13.3
	C91.5,13.4,91.5,13.4,91.5,13.3C91.5,13.4,91.5,13.4,91.5,13.3C91.5,13.4,91.5,13.4,91.5,13.3L91.5,13.3
	C91.5,13.4,91.5,13.4,91.5,13.3C91.5,13.4,91.5,13.4,91.5,13.3C91.5,13.4,91.5,13.4,91.5,13.3L91.5,13.3
	C91.5,13.4,91.5,13.4,91.5,13.3C91.5,13.4,91.5,13.4,91.5,13.3C91.5,13.4,91.5,13.4,91.5,13.3L91.5,13.3
	C91.5,13.4,91.5,13.4,91.5,13.3C91.5,13.4,91.5,13.4,91.5,13.3C91.5,13.4,91.5,13.4,91.5,13.3L91.5,13.3
	C91.5,13.4,91.5,13.4,91.5,13.3C91.5,13.4,91.5,13.4,91.5,13.3C91.5,13.4,91.5,13.4,91.5,13.3L91.5,13.3
	C91.5,13.4,91.5,13.4,91.5,13.3C91.5,13.4,91.5,13.4,91.5,13.3C91.5,13.4,91.5,13.4,91.5,13.3C91.5,13.4,91.5,13.4,91.5,13.3
	L91.5,13.3C91.5,13.4,91.5,13.4,91.5,13.3C91.5,13.4,91.5,13.4,91.5,13.3C91.5,13.4,91.5,13.4,91.5,13.3L91.5,13.3
	C91.5,13.4,91.5,13.4,91.5,13.3C91.5,13.4,91.5,13.4,91.5,13.3C91.5,13.4,91.5,13.4,91.5,13.3L91.5,13.3
	C91.5,13.4,91.5,13.4,91.5,13.3C91.5,13.4,91.5,13.4,91.5,13.3C91.5,13.4,91.5,13.4,91.5,13.3L91.5,13.3
	C91.5,13.4,91.5,13.4,91.5,13.3C91.5,13.4,91.5,13.4,91.5,13.3C91.5,13.4,91.5,13.4,91.5,13.3L91.5,13.3
	C91.5,13.4,91.5,13.4,91.5,13.3C91.5,13.4,91.5,13.4,91.5,13.3C91.5,13.4,91.5,13.4,91.5,13.3L91.5,13.3
	C91.5,13.4,91.5,13.4,91.5,13.3C91.5,13.4,91.5,13.4,91.5,13.3C91.5,13.4,91.5,13.4,91.5,13.3L91.5,13.3
	C91.5,13.4,91.5,13.4,91.5,13.3C91.5,13.4,91.5,13.4,91.5,13.3C91.5,13.4,91.5,13.4,91.5,13.3C91.5,13.4,91.5,13.4,91.5,13.3
	L91.5,13.3C91.5,13.4,91.5,13.4,91.5,13.3C91.5,13.4,91.5,13.4,91.5,13.3C91.5,13.4,91.5,13.4,91.5,13.3L91.5,13.3
	C91.5,13.4,91.5,13.4,91.5,13.3C91.5,13.4,91.5,13.4,91.5,13.3C91.5,13.4,91.5,13.4,91.5,13.3L91.5,13.3
	C91.5,13.4,91.5,13.4,91.5,13.3C91.5,13.4,91.5,13.4,91.5,13.3C91.5,13.4,91.5,13.4,91.5,13.3L91.5,13.3
	C91.5,13.4,91.5,13.4,91.5,13.3C91.5,13.4,91.5,13.4,91.5,13.3C91.5,13.4,91.5,13.4,91.5,13.3L91.5,13.3
	C91.5,13.4,91.5,13.4,91.5,13.3C91.5,13.4,91.5,13.4,91.5,13.3C91.5,13.4,91.5,13.4,91.5,13.3L91.5,13.3
	C91.5,13.4,91.5,13.4,91.5,13.3C91.5,13.4,91.5,13.4,91.5,13.3C91.5,13.4,91.5,13.4,91.5,13.3L91.5,13.3
	C91.5,13.4,91.5,13.4,91.5,13.3C91.5,13.4,91.5,13.4,91.5,13.3C91.5,13.4,91.5,13.4,91.5,13.3L91.5,13.3
	C91.5,13.4,91.5,13.4,91.5,13.3C91.5,13.4,91.5,13.4,91.5,13.3C91.5,13.4,91.5,13.4,91.5,13.3C91.5,13.4,91.5,13.4,91.5,13.3
	L91.5,13.3C91.5,13.4,91.5,13.4,91.5,13.3C91.5,13.4,91.5,13.4,91.5,13.3C91.5,13.4,91.5,13.4,91.5,13.3L91.5,13.3
	C91.5,13.4,91.5,13.4,91.5,13.3C91.5,13.4,91.5,13.4,91.5,13.3C91.5,13.4,91.5,13.4,91.5,13.3L91.5,13.3
	C91.5,13.4,91.5,13.4,91.5,13.3C91.5,13.4,91.5,13.4,91.5,13.3C91.5,13.4,91.5,13.4,91.5,13.3L91.5,13.3
	C91.5,13.4,91.5,13.4,91.5,13.3C91.5,13.4,91.5,13.4,91.5,13.3C91.5,13.4,91.5,13.4,91.5,13.3L91.5,13.3
	C91.5,13.4,91.5,13.4,91.5,13.3C91.5,13.4,91.5,13.4,91.5,13.3C91.5,13.4,91.5,13.4,91.5,13.3L91.5,13.3
	C91.5,13.4,91.5,13.4,91.5,13.3C91.5,13.4,91.5,13.4,91.5,13.3C91.5,13.4,91.5,13.4,91.5,13.3L91.5,13.3
	C91.5,13.4,91.5,13.4,91.5,13.3C91.5,13.4,91.5,13.4,91.5,13.3C91.5,13.4,91.5,13.4,91.5,13.3L91.5,13.3
	C91.5,13.4,91.5,13.4,91.5,13.3C91.5,13.4,91.5,13.4,91.5,13.3C91.5,13.4,91.5,13.4,91.5,13.3C91.5,13.4,91.5,13.4,91.5,13.3
	L91.5,13.3C91.5,13.4,91.5,13.4,91.5,13.3C91.5,13.4,91.5,13.4,91.5,13.3C91.5,13.4,91.5,13.4,91.5,13.3L91.5,13.3
	C91.5,13.4,91.5,13.4,91.5,13.3C91.5,13.4,91.5,13.4,91.5,13.3C91.5,13.4,91.5,13.4,91.5,13.3L91.5,13.3
	C91.5,13.4,91.5,13.4,91.5,13.3C91.5,13.4,91.5,13.4,91.5,13.3C91.5,13.4,91.5,13.4,91.5,13.3L91.5,13.3
	C91.5,13.4,91.5,13.4,91.5,13.3C91.5,13.4,91.5,13.4,91.5,13.3C91.5,13.4,91.5,13.4,91.5,13.3L91.5,13.3
	C91.5,13.4,91.5,13.4,91.5,13.3C91.5,13.4,91.5,13.4,91.5,13.3C91.5,13.4,91.5,13.4,91.5,13.3L91.5,13.3
	C91.5,13.4,91.5,13.4,91.5,13.3C91.5,13.4,91.5,13.4,91.5,13.3C91.5,13.4,91.5,13.4,91.5,13.3L91.5,13.3
	C91.5,13.4,91.5,13.4,91.5,13.3C91.5,13.4,91.5,13.4,91.5,13.3C91.5,13.4,91.5,13.4,91.5,13.3L91.5,13.3
	C91.5,13.4,91.5,13.4,91.5,13.3C91.5,13.4,91.5,13.4,91.5,13.3C91.5,13.4,91.5,13.4,91.5,13.3C91.5,13.4,91.5,13.4,91.5,13.3
	L91.5,13.3C91.5,13.4,91.5,13.4,91.5,13.3C91.5,13.4,91.5,13.4,91.5,13.3C91.5,13.4,91.5,13.4,91.5,13.3L91.5,13.3
	C91.5,13.4,91.5,13.4,91.5,13.3C91.5,13.4,91.5,13.4,91.5,13.3C91.5,13.4,91.5,13.4,91.5,13.3L91.5,13.3
	C91.5,13.4,91.5,13.4,91.5,13.3C91.5,13.4,91.5,13.4,91.5,13.3C91.5,13.4,91.5,13.4,91.5,13.3L91.5,13.3
	C91.5,13.4,91.5,13.4,91.5,13.3C91.5,13.4,91.5,13.4,91.5,13.3C91.5,13.4,91.5,13.4,91.5,13.3L91.5,13.3
	C91.5,13.4,91.5,13.4,91.5,13.3C91.5,13.4,91.5,13.4,91.5,13.3C91.5,13.4,91.5,13.4,91.5,13.3L91.5,13.3
	C91.5,13.4,91.5,13.4,91.5,13.3C91.5,13.4,91.5,13.4,91.5,13.3C91.5,13.4,91.5,13.4,91.5,13.3L91.5,13.3
	C91.5,13.4,91.5,13.4,91.5,13.3C91.5,13.4,91.5,13.4,91.5,13.3l10,0.1c0,0,0,0,0,0c0,0,0,0,0,0v0c0,0,0,0,0,0s0,0,0,0c0,0,0,0,0,0v0
	c0,0,0,0,0,0s0,0,0,0c0,0,0,0,0,0v0c0,0,0,0,0,0c0,0,0,0,0,0c0,0,0,0,0,0v0c0,0,0,0,0,0c0,0,0,0,0,0c0,0,0,0,0,0v0c0,0,0,0,0,0
	c0,0,0,0,0,0s0,0,0,0v0c0,0,0,0,0,0c0,0,0,0,0,0s0,0,0,0v0c0,0,0,0,0,0c0,0,0,0,0,0s0,0,0,0c0,0,0,0,0,0v0c0,0,0,0,0,0s0,0,0,0
	c0,0,0,0,0,0v0c0,0,0,0,0,0s0,0,0,0c0,0,0,0,0,0v0c0,0,0,0,0,0s0,0,0,0c0,0,0,0,0,0v0c0,0,0,0,0,0c0,0,0,0,0,0c0,0,0,0,0,0v0
	c0,0,0,0,0,0c0,0,0,0,0,0c0,0,0,0,0,0v0c0,0,0,0,0,0c0,0,0,0,0,0c0,0,0,0,0,0v0c0,0,0,0,0,0c0,0,0,0,0,0c0,0,0,0,0,0v0c0,0,0,0,0,0
	c0,0,0,0,0,0c0,0,0,0,0,0c0,0,0,0,0,0v0c0,0,0,0,0,0c0,0,0,0,0,0c0,0,0,0,0,0v0c0,0,0,0,0,0c0,0,0,0,0,0c0,0,0,0,0,0v0c0,0,0,0,0,0
	c0,0,0,0,0,0c0,0,0,0,0,0v0c0,0,0,0,0,0c0,0,0,0,0,0c0,0,0,0,0,0v0c0,0,0,0,0,0c0,0,0,0,0,0c0,0,0,0,0,0v0c0,0,0,0,0,0c0,0,0,0,0,0
	s0,0,0,0v0c0,0,0,0,0,0c0,0,0,0,0,0s0,0,0,0v0c0,0,0,0,0,0c0,0,0,0,0,0s0,0,0,0c0,0,0,0,0,0v0c0,0,0,0,0,0s0,0,0,0c0,0,0,0,0,0v0
	c0,0,0,0,0,0s0,0,0,0c0,0,0,0,0,0v0c0,0,0,0,0,0c0,0,0,0,0,0c0,0,0,0,0,0v0c0,0,0,0,0,0c0,0,0,0,0,0c0,0,0,0,0,0v0c0,0,0,0,0,0
	c0,0,0,0,0,0s0,0,0,0v0c0,0,0,0,0,0c0,0,0,0,0,0s0,0,0,0v0c0,0,0,0,0,0c0,0,0,0,0,0s0,0,0,0v0c0,0,0,0,0,0c0,0,0,0,0,0s0,0,0,0
	c0,0,0,0,0,0v0c0,0,0,0,0,0s0,0,0,0c0,0,0,0,0,0v0c0,0,0,0,0,0s0,0,0,0c0,0,0,0,0,0v0c0,0,0,0,0,0c0,0,0,0,0,0c0,0,0,0,0,0v0
	c0,0,0,0,0,0c0,0,0,0,0,0c0,0,0,0,0,0v0c0,0,0,0,0,0c0,0,0,0,0,0s0,0,0,0v0c0,0,0,0,0,0c0,0,0,0,0,0s0,0,0,0v0c0,0,0,0,0,0
	c0,0,0,0,0,0s0,0,0,0c0,0,0,0,0,0v0c0,0,0,0,0,0s0,0,0,0c0,0,0,0,0,0v0c0,0,0,0,0,0s0,0,0,0c0,0,0,0,0,0v0c0,0,0,0,0,0s0,0,0,0
	c0,0,0,0,0,0v0c0,0,0,0,0,0c0,0,0,0,0,0c0,0,0,0,0,0v0c0,0,0,0,0,0c0,0,0,0,0,0c0,0,0,0,0,0v0c0,0,0,0,0,0c0,0,0,0,0,0c0,0,0,0,0,0
	v0c0,0,0,0,0,0c0,0,0,0,0,0c0,0,0,0,0,0v0c0,0,0,0,0,0c0,0,0,0,0,0c0,0,0,0,0,0c0,0,0,0,0,0v0c0,0,0,0,0,0c0,0,0,0,0,0c0,0,0,0,0,0
	v0c0,0,0,0,0,0c0,0,0,0,0,0c0,0,0,0,0,0v0c0,0,0,0,0,0c0,0,0,0,0,0c0,0,0,0,0,0v0c0,0,0,0,0,0c0,0,0,0,0,0c0,0,0,0,0,0v0
	c0,0,0,0,0,0c0,0,0,0,0,0c0,0,0,0,0,0v0c0,0,0,0,0,0c0,0,0,0,0,0s0,0,0,0v0c0,0,0,0,0,0c0,0,0,0,0,0s0,0,0,0v0c0,0,0,0,0,0
	c0,0,0,0,0,0s0,0,0,0c0,0,0,0,0,0v0c0,0,0,0,0,0s0,0,0,0c0,0,0,0,0,0v0c0,0,0,0,0,0s0,0,0,0c0,0,0,0,0,0v0c0,0,0,0,0,0c0,0,0,0,0,0
	c0,0,0,0,0,0v0c0,0,0,0,0,0c0,0,0,0,0,0c0,0,0,0,0,0v0c0,0,0,0,0,0c0,0,0,0,0,0s0,0,0,0v0c0,0,0,0,0,0c0,0,0,0,0,0s0,0,0,0v0
	c0,0,0,0,0,0c0,0,0,0,0,0s0,0,0,0v0c0,0,0,0,0,0c0,0,0,0,0,0s0,0,0,0c0,0,0,0,0,0v0c0,0,0,0,0,0s0,0,0,0c0,0,0,0,0,0v0c0,0,0,0,0,0
	s0,0,0,0c0,0,0,0,0,0v0c0,0,0,0,0,0c0,0,0,0,0,0c0,0,0,0,0,0v0c0,0,0,0,0,0c0,0,0,0,0,0c0,0,0,0,0,0v0c0,0,0,0,0,0c0,0,0,0,0,0
	s0,0,0,0v0c0,0,0,0,0,0c0,0,0,0,0,0s0,0,0,0v0c0,0,0,0,0,0c0,0,0,0,0,0s0,0,0,0c0,0,0,0,0,0v0c0,0,0,0,0,0s0,0,0,0c0,0,0,0,0,0v0
	c0,0,0,0,0,0s0,0,0,0c0,0,0,0,0,0v0c0,0,0,0,0,0s0,0,0,0c0,0,0,0,0,0v0c0,0,0,0,0,0c0,0,0,0,0,0c0,0,0,0,0,0v0c0,0,0,0,0,0
	c0,0,0,0,0,0c0,0,0,0,0,0v0c0,0,0,0,0,0c0,0,0,0,0,0c0,0,0,0,0,0v0c0,0,0,0,0,0c0,0,0,0,0,0c0,0,0,0,0,0v0c0,0,0,0,0,0c0,0,0,0,0,0
	c0,0,0,0,0,0c0,0,0,0,0,0v0c0,0,0,0,0,0c0,0,0,0,0,0c0,0,0,0,0,0v0c0,0,0,0,0,0c0,0,0,0,0,0c0,0,0,0,0,0v0c0,0,0,0,0,0c0,0,0,0,0,0
	c0,0,0,0,0,0v0c0,0,0,0,0,0c0,0,0,0,0,0c0,0,0,0,0,0v0c0,0,0,0,0,0c0,0,0,0,0,0c0,0,0,0,0,0v0c0,0,0,0,0,0c0,0,0,0,0,0s0,0,0,0v0
	c0,0,0,0,0,0c0,0,0,0,0,0s0,0,0,0v0c0,0,0,0,0,0c0,0,0,0,0,0s0,0,0,0c0,0,0,0,0,0v0c0,0,0,0,0,0s0,0,0,0c0,0,0,0,0,0v0c0,0,0,0,0,0
	s0,0,0,0c0,0,0,0,0,0v0c0,0,0,0,0,0c0,0,0,0,0,0c0,0,0,0,0,0v0c0,0,0,0,0,0c0,0,0,0,0,0c0,0,0,0,0,0v0c0,0,0,0,0,0c0,0,0,0,0,0
	c0,0,0,0,0,0v0c0,0,0,0,0,0c0,0,0,0,0,0s0,0,0,0v0c0,0,0,0,0,0c0,0,0,0,0,0s0,0,0,0v0c0,0,0,0,0,0c0,0,0,0,0,0s0,0,0,0c0,0,0,0,0,0
	v0c0,0,0,0,0,0s0,0,0,0c0,0,0,0,0,0v0c0,0,0,0,0,0s0,0,0,0c0,0,0,0,0,0v0c0,0,0,0,0,0c0,0,0,0,0,0c0,0,0,0,0,0v0c0,0,0,0,0,0
	c0,0,0,0,0,0c0,0,0,0,0,0v0c0,0,0,0,0,0c0,0,0,0,0,0s0,0,0,0v0c0,0,0,0,0,0c0,0,0,0,0,0s0,0,0,0v0c0,0,0,0,0,0c0,0,0,0,0,0s0,0,0,0
	v0c0,0,0,0,0,0c0,0,0,0,0,0s0,0,0,0c0,0,0,0,0,0v0c0,0,0,0,0,0s0,0,0,0c0,0,0,0,0,0v0c0,0,0,0,0,0s0,0,0,0c0,0,0,0,0,0v0
	c0,0,0,0,0,0c0,0,0,0,0,0c0,0,0,0,0,0v0c0,0,0,0,0,0c0,0,0,0,0,0c0,0,0,0,0,0v0c0,0,0,0,0,0c0,0,0,0,0,0c0,0,0,0,0,0v0c0,0,0,0,0,0
	c0,0,0,0,0,0c0,0,0,0,0,0v0c0,0,0,0,0,0c0,0,0,0,0,0c0,0,0,0,0,0c0,0,0,0,0,0v0c0,0,0,0,0,0c0,0,0,0,0,0c0,0,0,0,0,0v0c0,0,0,0,0,0
	c0,0,0,0,0,0c0,0,0,0,0,0v0c0,0,0,0,0,0c0,0,0,0,0,0c0,0,0,0,0,0v0c0,0,0,0,0,0c0,0,0,0,0,0c0,0,0,0,0,0v0c0,0,0,0,0,0c0,0,0,0,0,0
	c0,0,0,0,0,0v0c0,0,0,0,0,0c0,0,0,0,0,0s0,0,0,0v0c0,0,0,0,0,0c0,0,0,0,0,0s0,0,0,0v0c0,0,0,0,0,0c0,0,0,0,0,0s0,0,0,0c0,0,0,0,0,0
	v0c0,0,0,0,0,0s0,0,0,0c0,0,0,0,0,0v0c0,0,0,0,0,0s0,0,0,0c0,0,0,0,0,0v0c0,0,0,0,0,0c0,0,0,0,0,0c0,0,0,0,0,0v0c0,0,0,0,0,0
	c0,0,0,0,0,0c0,0,0,0,0,0v0c0,0,0,0,0,0c0,0,0,0,0,0c0,0,0,0,0,0v0c0,0,0,0,0,0c0,0,0,0,0,0s0,0,0,0v0c0,0,0,0,0,0c0,0,0,0,0,0
	s0,0,0,0v0c0,0,0,0,0,0c0,0,0,0,0,0H91.5z M91.5,13.4C91.5,13.4,91.5,13.4,91.5,13.4C91.5,13.4,91.5,13.4,91.5,13.4L91.5,13.4
	C91.5,13.4,91.5,13.4,91.5,13.4C91.5,13.4,91.5,13.4,91.5,13.4C91.5,13.4,91.5,13.4,91.5,13.4L91.5,13.4
	C91.5,13.4,91.5,13.4,91.5,13.4C91.5,13.4,91.5,13.4,91.5,13.4C91.5,13.4,91.5,13.4,91.5,13.4L91.5,13.4
	C91.5,13.4,91.5,13.4,91.5,13.4C91.5,13.4,91.5,13.4,91.5,13.4C91.5,13.4,91.5,13.4,91.5,13.4L91.5,13.4
	C91.5,13.4,91.5,13.4,91.5,13.4C91.5,13.4,91.5,13.4,91.5,13.4C91.5,13.4,91.5,13.4,91.5,13.4L91.5,13.4
	C91.5,13.4,91.5,13.4,91.5,13.4C91.5,13.4,91.5,13.4,91.5,13.4C91.5,13.4,91.5,13.4,91.5,13.4L91.5,13.4
	C91.5,13.4,91.5,13.4,91.5,13.4C91.5,13.4,91.5,13.4,91.5,13.4C91.5,13.4,91.5,13.4,91.5,13.4L91.5,13.4
	C91.5,13.4,91.5,13.4,91.5,13.4C91.5,13.4,91.5,13.4,91.5,13.4C91.5,13.4,91.5,13.4,91.5,13.4C91.5,13.4,91.5,13.4,91.5,13.4
	L91.5,13.4C91.5,13.4,91.5,13.4,91.5,13.4C91.5,13.4,91.5,13.4,91.5,13.4C91.5,13.4,91.5,13.4,91.5,13.4L91.5,13.4
	C91.5,13.4,91.5,13.4,91.5,13.4C91.5,13.4,91.5,13.4,91.5,13.4C91.5,13.4,91.5,13.4,91.5,13.4L91.5,13.4
	C91.5,13.4,91.5,13.4,91.5,13.4C91.5,13.4,91.5,13.4,91.5,13.4C91.5,13.4,91.5,13.4,91.5,13.4C91.5,13.4,91.5,13.4,91.5,13.4
	L91.5,13.4C91.5,13.4,91.5,13.4,91.5,13.4C91.5,13.4,91.5,13.4,91.5,13.4C91.5,13.4,91.5,13.4,91.5,13.4L91.5,13.4
	C91.5,13.4,91.5,13.4,91.5,13.4C91.5,13.4,91.5,13.4,91.5,13.4C91.5,13.4,91.5,13.4,91.5,13.4L91.5,13.4
	C91.5,13.4,91.5,13.4,91.5,13.4C91.5,13.4,91.5,13.4,91.5,13.4C91.5,13.4,91.5,13.4,91.5,13.4C91.5,13.4,91.5,13.4,91.5,13.4
	L91.5,13.4C91.5,13.4,91.5,13.4,91.5,13.4C91.5,13.4,91.5,13.4,91.5,13.4C91.5,13.4,91.5,13.4,91.5,13.4
	C91.5,13.4,91.5,13.4,91.5,13.4L91.5,13.4C91.5,13.4,91.5,13.4,91.5,13.4C91.5,13.4,91.5,13.4,91.5,13.4
	C91.5,13.4,91.5,13.4,91.5,13.4L91.5,13.4C91.5,13.4,91.5,13.4,91.5,13.4C91.5,13.4,91.5,13.4,91.5,13.4
	C91.5,13.4,91.5,13.4,91.5,13.4C91.5,13.4,91.5,13.4,91.5,13.4L91.5,13.4C91.5,13.4,91.5,13.4,91.5,13.4
	C91.5,13.4,91.5,13.4,91.5,13.4C91.5,13.4,91.5,13.4,91.5,13.4C91.5,13.4,91.5,13.4,91.5,13.4L91.5,13.4
	C91.5,13.4,91.5,13.4,91.5,13.4C91.5,13.4,91.5,13.4,91.5,13.4C91.5,13.4,91.5,13.4,91.5,13.4C91.5,13.4,91.5,13.4,91.5,13.4
	L91.5,13.4C91.5,13.4,91.5,13.4,91.5,13.4C91.5,13.4,91.5,13.4,91.5,13.4C91.5,13.4,91.5,13.4,91.5,13.4
	C91.5,13.4,91.5,13.4,91.5,13.4L91.5,13.4C91.5,13.4,91.5,13.4,91.5,13.4C91.5,13.4,91.5,13.4,91.5,13.4
	C91.5,13.4,91.5,13.4,91.5,13.4C91.5,13.4,91.5,13.4,91.5,13.4L91.5,13.4C91.5,13.4,91.5,13.4,91.5,13.4
	C91.5,13.4,91.5,13.4,91.5,13.4C91.5,13.4,91.5,13.4,91.5,13.4C91.5,13.4,91.5,13.4,91.5,13.4C91.5,13.4,91.5,13.4,91.5,13.4
	L91.5,13.4C91.5,13.4,91.5,13.4,91.5,13.4C91.5,13.4,91.5,13.4,91.5,13.4C91.5,13.4,91.5,13.4,91.5,13.4
	C91.5,13.4,91.5,13.4,91.5,13.4L91.5,13.4C91.5,13.4,91.5,13.4,91.5,13.4C91.5,13.4,91.5,13.4,91.5,13.4
	C91.5,13.4,91.5,13.4,91.5,13.4C91.5,13.4,91.5,13.4,91.5,13.4C91.5,13.4,91.5,13.4,91.5,13.4L91.5,13.4
	C91.5,13.4,91.5,13.4,91.5,13.4C91.5,13.4,91.5,13.4,91.5,13.4C91.5,13.4,91.5,13.4,91.5,13.4C91.5,13.4,91.5,13.4,91.5,13.4
	C91.5,13.4,91.5,13.4,91.5,13.4C91.5,13.4,91.5,13.4,91.5,13.4L91.5,13.4C91.5,13.4,91.5,13.4,91.5,13.4
	C91.5,13.4,91.5,13.4,91.5,13.4C91.5,13.4,91.5,13.4,91.5,13.4C91.5,13.4,91.5,13.4,91.5,13.4C91.5,13.4,91.5,13.4,91.5,13.4
	L91.5,13.4C91.5,13.4,91.5,13.4,91.5,13.4C91.5,13.4,91.5,13.4,91.5,13.4C91.5,13.4,91.5,13.4,91.5,13.4
	C91.5,13.4,91.5,13.4,91.5,13.4C91.5,13.4,91.5,13.4,91.5,13.4C91.5,13.4,91.5,13.4,91.5,13.4C91.5,13.4,91.5,13.4,91.5,13.4
	L91.5,13.4C91.5,13.4,91.5,13.4,91.5,13.4C91.5,13.4,91.5,13.4,91.5,13.4C91.5,13.4,91.5,13.4,91.5,13.4
	C91.5,13.4,91.5,13.4,91.5,13.4C91.5,13.4,91.5,13.4,91.5,13.4C91.5,13.4,91.5,13.4,91.5,13.4C91.5,13.4,91.5,13.4,91.5,13.4
	L91.5,13.4C91.5,13.4,91.5,13.4,91.5,13.4C91.5,13.4,91.5,13.4,91.5,13.4C91.5,13.4,91.5,13.4,91.5,13.4
	C91.5,13.4,91.5,13.4,91.5,13.4C91.5,13.4,91.5,13.4,91.5,13.4C91.5,13.4,91.5,13.4,91.5,13.4C91.5,13.4,91.5,13.4,91.5,13.4
	C91.5,13.4,91.5,13.4,91.5,13.4L91.5,13.4C91.5,13.4,91.5,13.4,91.5,13.4C91.5,13.4,91.5,13.4,91.5,13.4
	C91.5,13.4,91.5,13.4,91.5,13.4C91.5,13.4,91.5,13.4,91.5,13.4C91.5,13.4,91.5,13.4,91.5,13.4C91.5,13.4,91.5,13.4,91.5,13.4
	C91.5,13.4,91.5,13.4,91.5,13.4C91.5,13.4,91.5,13.4,91.5,13.4C91.5,13.4,91.5,13.4,91.5,13.4C91.5,13.4,91.5,13.4,91.5,13.4
	C91.5,13.4,91.5,13.4,91.5,13.4L91.5,13.4C91.5,13.4,91.5,13.4,91.5,13.4C91.5,13.4,91.5,13.4,91.5,13.4
	C91.5,13.4,91.5,13.4,91.5,13.4C91.5,13.4,91.5,13.4,91.5,13.4C91.5,13.4,91.5,13.4,91.5,13.4C91.5,13.4,91.5,13.4,91.5,13.4
	C91.5,13.5,91.5,13.5,91.5,13.4C91.5,13.5,91.5,13.5,91.5,13.4C91.5,13.5,91.5,13.5,91.5,13.4C91.5,13.5,91.5,13.5,91.5,13.4
	C91.5,13.5,91.5,13.5,91.5,13.4C91.5,13.5,91.5,13.5,91.5,13.4C91.5,13.5,91.5,13.5,91.5,13.4C91.5,13.5,91.5,13.5,91.5,13.4
	C91.5,13.5,91.5,13.5,91.5,13.4C91.5,13.5,91.5,13.5,91.5,13.4C91.5,13.5,91.5,13.5,91.5,13.4C91.5,13.5,91.5,13.5,91.5,13.4
	L91.5,13.4C91.5,13.5,91.5,13.5,91.5,13.4C91.5,13.5,91.5,13.5,91.5,13.4C91.5,13.5,91.5,13.5,91.5,13.4
	C91.5,13.5,91.5,13.5,91.5,13.4C91.5,13.5,91.5,13.5,91.5,13.4C91.5,13.5,91.5,13.5,91.5,13.4C91.5,13.5,91.5,13.5,91.5,13.4
	C91.5,13.5,91.5,13.5,91.5,13.4C91.5,13.5,91.5,13.5,91.5,13.4C91.5,13.5,91.5,13.5,91.5,13.4C91.5,13.5,91.5,13.5,91.5,13.4
	C91.5,13.5,91.5,13.5,91.5,13.4C91.5,13.5,91.5,13.5,91.5,13.4C91.5,13.5,91.5,13.5,91.5,13.4C91.5,13.5,91.5,13.5,91.5,13.4
	C91.5,13.5,91.5,13.5,91.5,13.4C91.5,13.5,91.5,13.5,91.5,13.4C91.5,13.5,91.5,13.5,91.5,13.4C91.5,13.5,91.5,13.5,91.5,13.4
	C91.5,13.5,91.5,13.5,91.5,13.4C91.5,13.5,91.5,13.5,91.5,13.4C91.5,13.5,91.5,13.5,91.5,13.4C91.5,13.5,91.5,13.5,91.5,13.4
	C91.5,13.5,91.5,13.5,91.5,13.4C91.5,13.5,91.5,13.5,91.5,13.4C91.5,13.5,91.5,13.5,91.5,13.4C91.5,13.5,91.5,13.5,91.5,13.4
	C91.5,13.5,91.5,13.5,91.5,13.4C91.5,13.5,91.5,13.5,91.5,13.4C91.5,13.5,91.5,13.5,91.5,13.4C91.5,13.5,91.5,13.5,91.5,13.4
	C91.5,13.5,91.5,13.5,91.5,13.4C91.5,13.5,91.5,13.5,91.5,13.4C91.5,13.5,91.5,13.5,91.5,13.4C91.5,13.5,91.5,13.5,91.5,13.4
	C91.5,13.5,91.5,13.5,91.5,13.4C91.5,13.5,91.5,13.5,91.5,13.4C91.5,13.5,91.5,13.5,91.5,13.4C91.5,13.5,91.5,13.5,91.5,13.4
	C91.5,13.5,91.5,13.5,91.5,13.4C91.5,13.5,91.5,13.5,91.5,13.4C91.5,13.5,91.5,13.5,91.5,13.4C91.5,13.5,91.5,13.5,91.5,13.4
	C91.5,13.5,91.5,13.5,91.5,13.4C91.5,13.5,91.5,13.5,91.5,13.4C91.5,13.5,91.5,13.5,91.5,13.4C91.5,13.5,91.5,13.5,91.5,13.4
	C91.5,13.5,91.5,13.5,91.5,13.4C91.5,13.5,91.5,13.5,91.5,13.4C91.5,13.5,91.5,13.5,91.5,13.4C91.5,13.5,91.5,13.5,91.5,13.4
	C91.5,13.5,91.5,13.5,91.5,13.4C91.5,13.5,91.5,13.5,91.5,13.4C91.5,13.5,91.5,13.5,91.5,13.4C91.5,13.5,91.5,13.5,91.5,13.4
	C91.5,13.5,91.5,13.5,91.5,13.4C91.5,13.5,91.5,13.5,91.5,13.4C91.5,13.5,91.5,13.5,91.5,13.4C91.5,13.5,91.5,13.5,91.5,13.4
	C91.5,13.5,91.5,13.5,91.5,13.4C91.5,13.5,91.5,13.5,91.5,13.4C91.5,13.5,91.5,13.5,91.5,13.4C91.5,13.5,91.5,13.5,91.5,13.4
	C91.5,13.5,91.5,13.5,91.5,13.4C91.5,13.5,91.5,13.5,91.5,13.4C91.5,13.5,91.5,13.5,91.5,13.4C91.5,13.5,91.5,13.5,91.5,13.4
	C91.5,13.5,91.5,13.5,91.5,13.4C91.5,13.5,91.5,13.5,91.5,13.4C91.5,13.5,91.5,13.5,91.5,13.4C91.5,13.5,91.5,13.5,91.5,13.4
	C91.5,13.5,91.5,13.5,91.5,13.4C91.5,13.5,91.5,13.5,91.5,13.4C91.5,13.5,91.5,13.5,91.5,13.4C91.5,13.5,91.5,13.5,91.5,13.4
	C91.5,13.5,91.5,13.5,91.5,13.4C91.5,13.5,91.5,13.5,91.5,13.4C91.5,13.5,91.5,13.5,91.5,13.4C91.5,13.5,91.5,13.5,91.5,13.4
	C91.5,13.5,91.5,13.5,91.5,13.4C91.5,13.5,91.5,13.5,91.5,13.4C91.5,13.5,91.5,13.5,91.5,13.4C91.5,13.5,91.5,13.5,91.5,13.4
	C91.5,13.5,91.5,13.5,91.5,13.4C91.5,13.5,91.5,13.5,91.5,13.4C91.5,13.5,91.5,13.5,91.5,13.4C91.5,13.5,91.5,13.5,91.5,13.4
	C91.5,13.5,91.5,13.5,91.5,13.4C91.5,13.5,91.5,13.5,91.5,13.4C91.5,13.5,91.5,13.5,91.5,13.4C91.5,13.5,91.5,13.5,91.5,13.4
	C91.5,13.5,91.5,13.5,91.5,13.4C91.5,13.5,91.5,13.5,91.5,13.4C91.5,13.5,91.5,13.5,91.5,13.4C91.5,13.5,91.5,13.5,91.5,13.4
	C91.5,13.5,91.5,13.5,91.5,13.4C91.5,13.5,91.5,13.5,91.5,13.4C91.5,13.5,91.5,13.5,91.5,13.4C91.5,13.5,91.5,13.5,91.5,13.4
	C91.5,13.5,91.5,13.5,91.5,13.4C91.5,13.5,91.5,13.5,91.5,13.4C91.5,13.5,91.5,13.5,91.5,13.4C91.5,13.5,91.5,13.5,91.5,13.4
	C91.5,13.5,91.5,13.5,91.5,13.4C91.5,13.5,91.5,13.5,91.5,13.4C91.5,13.5,91.5,13.5,91.5,13.4C91.5,13.5,91.5,13.5,91.5,13.4
	C91.5,13.5,91.5,13.5,91.5,13.4C91.5,13.5,91.5,13.5,91.5,13.4C91.5,13.5,91.5,13.5,91.5,13.4C91.5,13.5,91.5,13.5,91.5,13.4
	C91.5,13.5,91.5,13.5,91.5,13.4C91.5,13.5,91.5,13.5,91.5,13.4C91.5,13.5,91.5,13.5,91.5,13.4C91.5,13.5,91.5,13.5,91.5,13.4
	C91.5,13.5,91.5,13.5,91.5,13.4C91.5,13.5,91.5,13.5,91.5,13.4C91.5,13.5,91.5,13.5,91.5,13.4C91.5,13.5,91.5,13.5,91.5,13.4
	C91.5,13.5,91.5,13.5,91.5,13.4C91.5,13.5,91.5,13.5,91.5,13.4C91.5,13.5,91.5,13.5,91.5,13.4C91.5,13.5,91.5,13.5,91.5,13.4
	C91.5,13.5,91.5,13.5,91.5,13.4C91.5,13.5,91.5,13.5,91.5,13.4C91.5,13.5,91.5,13.5,91.5,13.4C91.5,13.5,91.5,13.5,91.5,13.4
	C91.5,13.5,91.5,13.5,91.5,13.4C91.5,13.5,91.5,13.5,91.5,13.4C91.5,13.5,91.5,13.5,91.5,13.4C91.5,13.5,91.5,13.5,91.5,13.4
	C91.5,13.5,91.5,13.5,91.5,13.4C91.5,13.5,91.5,13.5,91.5,13.4C91.5,13.5,91.5,13.5,91.5,13.4C91.5,13.5,91.5,13.5,91.5,13.4
	C91.5,13.5,91.5,13.5,91.5,13.4C91.5,13.5,91.5,13.5,91.5,13.4C91.5,13.5,91.5,13.5,91.5,13.4C91.5,13.5,91.5,13.5,91.5,13.4
	C91.5,13.5,91.5,13.5,91.5,13.4C91.5,13.5,91.5,13.5,91.5,13.4C91.5,13.5,91.5,13.5,91.5,13.4C91.5,13.5,91.5,13.5,91.5,13.4
	C91.5,13.5,91.5,13.5,91.5,13.4C91.5,13.5,91.5,13.5,91.5,13.4C91.5,13.5,91.5,13.5,91.5,13.4C91.5,13.5,91.5,13.5,91.5,13.4
	C91.5,13.5,91.5,13.5,91.5,13.4C91.5,13.5,91.5,13.5,91.5,13.4C91.5,13.5,91.5,13.5,91.5,13.4C91.5,13.5,91.5,13.5,91.5,13.4
	C91.5,13.5,91.5,13.5,91.5,13.4C91.5,13.5,91.5,13.5,91.5,13.4C91.5,13.5,91.5,13.5,91.5,13.4C91.5,13.5,91.5,13.5,91.5,13.4
	C91.5,13.5,91.5,13.5,91.5,13.4C91.5,13.5,91.5,13.5,91.5,13.4C91.5,13.5,91.5,13.5,91.5,13.4C91.5,13.5,91.5,13.5,91.5,13.4
	C91.5,13.5,91.5,13.5,91.5,13.4C91.5,13.5,91.5,13.5,91.5,13.4C91.5,13.5,91.5,13.5,91.5,13.4C91.5,13.5,91.5,13.5,91.5,13.4
	C91.5,13.5,91.5,13.5,91.5,13.4C91.5,13.5,91.5,13.5,91.5,13.4C91.5,13.5,91.5,13.5,91.5,13.4C91.5,13.5,91.5,13.5,91.5,13.4
	C91.5,13.5,91.5,13.5,91.5,13.4C91.5,13.5,91.5,13.5,91.5,13.4C91.5,13.5,91.5,13.5,91.5,13.4C91.5,13.5,91.5,13.5,91.5,13.4
	C91.5,13.5,91.5,13.5,91.5,13.4C91.5,13.5,91.5,13.5,91.5,13.4C91.5,13.5,91.5,13.5,91.5,13.4C91.5,13.5,91.5,13.5,91.5,13.4
	C91.5,13.5,91.5,13.5,91.5,13.4C91.5,13.5,91.5,13.5,91.5,13.4C91.5,13.5,91.5,13.5,91.5,13.4C91.5,13.5,91.5,13.5,91.5,13.4
	C91.5,13.5,91.5,13.5,91.5,13.4C91.5,13.5,91.5,13.5,91.5,13.4C91.5,13.5,91.5,13.5,91.5,13.4C91.5,13.5,91.5,13.5,91.5,13.4
	C91.5,13.5,91.5,13.5,91.5,13.4C91.5,13.5,91.5,13.5,91.5,13.4C91.5,13.5,91.5,13.5,91.5,13.4C91.5,13.5,91.5,13.5,91.5,13.4
	C91.5,13.5,91.5,13.5,91.5,13.4C91.5,13.5,91.5,13.5,91.5,13.4C91.5,13.5,91.5,13.5,91.5,13.4C91.5,13.5,91.5,13.5,91.5,13.4
	C91.5,13.5,91.5,13.5,91.5,13.4C91.5,13.5,91.5,13.5,91.5,13.4C91.5,13.5,91.5,13.5,91.5,13.4C91.5,13.5,91.5,13.5,91.5,13.4
	C91.5,13.5,91.5,13.5,91.5,13.4C91.5,13.5,91.5,13.5,91.5,13.4C91.5,13.5,91.5,13.5,91.5,13.4C91.5,13.5,91.5,13.5,91.5,13.4
	C91.5,13.5,91.5,13.5,91.5,13.4C91.5,13.5,91.5,13.5,91.5,13.4C91.5,13.5,91.5,13.5,91.5,13.4C91.5,13.5,91.5,13.5,91.5,13.4
	C91.5,13.5,91.5,13.5,91.5,13.4C91.5,13.5,91.5,13.5,91.5,13.4C91.5,13.5,91.5,13.5,91.5,13.4C91.5,13.5,91.5,13.5,91.5,13.4
	C91.5,13.5,91.5,13.5,91.5,13.4C91.5,13.5,91.5,13.5,91.5,13.4C91.5,13.5,91.5,13.5,91.5,13.4C91.5,13.5,91.5,13.5,91.5,13.4
	C91.5,13.5,91.5,13.5,91.5,13.4C91.5,13.5,91.5,13.5,91.5,13.4C91.5,13.5,91.5,13.5,91.5,13.4C91.5,13.5,91.5,13.5,91.5,13.4
	C91.5,13.5,91.5,13.5,91.5,13.4C91.5,13.5,91.5,13.5,91.5,13.4C91.5,13.5,91.5,13.5,91.5,13.4C91.5,13.5,91.5,13.5,91.5,13.4
	C91.5,13.5,91.5,13.5,91.5,13.4C91.5,13.5,91.5,13.5,91.5,13.4C91.5,13.5,91.5,13.5,91.5,13.4C91.5,13.5,91.5,13.5,91.5,13.4
	C91.5,13.5,91.5,13.5,91.5,13.4C91.5,13.5,91.5,13.5,91.5,13.4C91.5,13.5,91.5,13.5,91.5,13.4C91.5,13.5,91.5,13.5,91.5,13.4
	C91.5,13.5,91.5,13.5,91.5,13.4C91.5,13.5,91.5,13.5,91.5,13.4C91.5,13.5,91.5,13.5,91.5,13.4C91.5,13.5,91.5,13.5,91.5,13.4
	C91.5,13.5,91.5,13.5,91.5,13.4C91.5,13.5,91.5,13.5,91.5,13.4C91.5,13.5,91.5,13.5,91.5,13.4C91.5,13.5,91.5,13.5,91.5,13.4
	C91.5,13.5,91.5,13.5,91.5,13.4C91.5,13.5,91.5,13.5,91.5,13.4C91.5,13.5,91.5,13.5,91.5,13.4C91.5,13.5,91.5,13.5,91.5,13.4
	C91.5,13.5,91.5,13.5,91.5,13.4C91.5,13.5,91.5,13.5,91.5,13.4C91.5,13.5,91.5,13.5,91.5,13.4C91.5,13.5,91.5,13.5,91.5,13.4
	C91.5,13.5,91.5,13.5,91.5,13.4C91.5,13.5,91.5,13.5,91.5,13.4C91.5,13.5,91.5,13.5,91.5,13.4C91.5,13.5,91.5,13.5,91.5,13.4
	C91.5,13.5,91.5,13.5,91.5,13.4C91.5,13.5,91.5,13.5,91.5,13.4C91.5,13.5,91.5,13.5,91.5,13.4C91.5,13.5,91.5,13.5,91.5,13.4
	C91.5,13.5,91.5,13.5,91.5,13.4C91.5,13.5,91.5,13.5,91.5,13.4C91.5,13.5,91.5,13.5,91.5,13.4C91.5,13.5,91.5,13.5,91.5,13.4
	C91.5,13.5,91.5,13.5,91.5,13.4C91.5,13.5,91.5,13.5,91.5,13.4C91.5,13.5,91.5,13.5,91.5,13.4C91.5,13.5,91.5,13.5,91.5,13.4
	C91.5,13.5,91.5,13.5,91.5,13.4C91.5,13.5,91.5,13.5,91.5,13.4C91.5,13.5,91.5,13.5,91.5,13.4C91.5,13.5,91.5,13.5,91.5,13.4
	C91.5,13.5,91.5,13.5,91.5,13.4C91.5,13.5,91.5,13.5,91.5,13.4C91.5,13.5,91.5,13.5,91.5,13.4C91.5,13.5,91.5,13.5,91.5,13.4
	C91.5,13.5,91.5,13.5,91.5,13.4C91.5,13.5,91.5,13.5,91.5,13.4C91.5,13.5,91.5,13.5,91.5,13.4C91.5,13.5,91.5,13.5,91.5,13.4
	C91.5,13.5,91.5,13.5,91.5,13.4C91.5,13.5,91.5,13.5,91.5,13.4c0,0.1,0,0.1,0,0.1c0,0,0,0,0,0s0,0,0,0c0,0,0,0,0,0s0,0,0,0
	c0,0,0,0,0,0s0,0,0,0s0,0,0,0s0,0,0,0s0,0,0,0c0,0,0,0,0,0c0,0,0,0,0,0c0,0,0,0,0,0s0,0,0,0c0,0,0,0,0,0s0,0,0,0c0,0,0,0,0,0
	s0,0,0,0s0,0,0,0s0,0,0,0c0,0,0,0,0,0s0,0,0,0s0,0,0,0c0,0,0,0,0,0c0,0,0,0,0,0c0,0,0,0,0,0s0,0,0,0c0,0,0,0,0,0s0,0,0,0
	c0,0,0,0,0,0s0,0,0,0c0,0,0,0,0,0s0,0,0,0s0,0,0,0c0,0,0,0,0,0s0,0,0,0s0,0,0,0c0,0,0,0,0,0s0,0,0,0s0,0,0,0s0,0,0,0s0,0,0,0
	c0,0,0,0,0,0s0,0,0,0c0,0,0,0,0,0c0,0,0,0,0,0c0,0,0,0,0,0c0,0,0,0,0,0c0,0,0,0,0,0s0,0,0,0c0,0,0,0,0,0s0,0,0,0c0,0,0,0,0,0
	s0,0,0,0c0,0,0,0,0,0s0,0,0,0c0,0,0,0,0,0s0,0,0,0c0,0,0,0,0,0s0,0,0,0c0,0,0,0,0,0h10c0,0,0,0,0,0c0,0,0,0,0,0s0,0,0,0c0,0,0,0,0,0
	s0,0,0,0c0,0,0,0,0,0s0,0,0,0c0,0,0,0,0,0s0,0,0,0c0,0,0,0,0,0s0,0,0,0c0,0,0,0,0,0s0,0,0,0c0,0,0,0,0,0c0,0,0,0,0,0c0,0,0,0,0,0
	c0,0,0,0,0,0c0,0,0,0,0,0s0,0,0,0c0,0,0,0,0,0s0,0,0,0s0,0,0,0s0,0,0,0s0,0,0,0c0,0,0,0,0,0s0,0,0,0s0,0,0,0c0,0,0,0,0,0s0,0,0,0
	s0,0,0,0c0,0,0,0,0,0s0,0,0,0c0,0,0,0,0,0s0,0,0,0c0,0,0,0,0,0s0,0,0,0c0,0,0,0,0,0c0,0,0,0,0,0c0,0,0,0,0,0s0,0,0,0s0,0,0,0
	c0,0,0,0,0,0s0,0,0,0s0,0,0,0s0,0,0,0c0,0,0,0,0,0s0,0,0,0c0,0,0,0,0,0s0,0,0,0c0,0,0,0,0,0c0,0,0,0,0,0c0,0,0,0,0,0s0,0,0,0
	s0,0,0,0s0,0,0,0s0,0,0,0c0,0,0,0,0,0s0,0,0,0c0,0,0,0,0,0s0,0,0,0c0,0,0,0,0,0s0,0,0,0s0,0,0,0s0,0,0,0s0,0,0,0s0,0,0,0s0,0,0,0
	c0,0,0,0,0,0s0,0,0,0c0,0,0,0,0,0s0,0,0,0s0,0,0,0s0,0,0,0s0,0,0,0c0,0,0,0,0,0s0,0,0,0s0,0,0,0s0,0,0,0s0,0,0,0c0,0,0,0,0,0
	s0,0,0,0c0,0,0,0,0,0s0,0,0,0s0,0,0,0s0,0,0,0s0,0,0,0c0,0,0,0,0,0s0,0,0,0c0,0,0,0,0,0s0,0,0,0s0,0,0,0s0,0,0,0s0,0,0,0
	c0,0,0,0,0,0s0,0,0,0c0,0,0,0,0,0s0,0,0,0s0,0,0,0s0,0,0,0s0,0,0,0c0,0,0,0,0,0s0,0,0,0s0,0,0,0s0,0,0,0s0,0,0,0c0,0,0,0,0,0
	s0,0,0,0c0,0,0,0,0,0c0,0,0,0,0,0s0,0,0,0c0,0,0,0,0,0s0,0,0,0c0,0,0,0,0,0s0,0,0,0c0,0,0,0,0,0c0,0,0,0,0,0s0,0,0,0c0,0,0,0,0,0
	s0,0,0,0c0,0,0,0,0,0c0,0,0,0,0,0s0,0,0,0c0,0,0,0,0,0s0,0,0,0s0,0,0,0c0,0,0,0,0,0s0,0,0,0c0,0,0,0,0,0c0,0,0,0,0,0s0,0,0,0
	c0,0,0,0,0,0s0,0,0,0s0,0,0,0s0,0,0,0s0,0,0,0c0,0,0,0,0,0s0,0,0,0s0,0,0,0s0,0,0,0s0,0,0,0c0,0,0,0,0,0s0,0,0,0c0,0,0,0,0,0
	c0,0,0,0,0,0s0,0,0,0c0,0,0,0,0,0s0,0,0,0s0,0,0,0c0,0,0,0,0,0s0,0,0,0s0,0,0,0c0,0,0,0,0,0s0,0,0,0c0,0,0,0,0,0s0,0,0,0s0,0,0,0
	c0,0,0,0,0,0s0,0,0,0c0,0,0,0,0,0c0,0,0,0,0,0s0,0,0,0s0,0,0,0s0,0,0,0c0,0,0,0,0,0c0,0,0,0,0,0s0,0,0,0s0,0,0,0c0,0,0,0,0,0
	s0,0,0,0s0,0,0,0c0,0,0,0,0,0s0,0,0,0c0,0,0,0,0,0s0,0,0,0c0,0,0,0,0,0c0,0,0,0,0,0c0,0,0,0,0,0s0,0,0,0c0,0,0,0,0,0s0,0,0,0
	c0,0,0,0,0,0c0,0,0,0,0,0c0,0,0,0,0,0s0,0,0,0c0,0,0,0,0,0s0,0,0,0c0,0,0,0,0,0s0,0,0,0c0,0,0,0,0,0s0,0,0,0c0,0,0,0,0,0s0,0,0,0
	s0,0,0,0s0,0,0,0s0,0,0,0c0,0,0,0,0,0s0,0,0,0c0,0,0,0,0,0c0,0,0,0,0,0s0,0,0,0c0,0,0,0,0,0c0,0,0,0,0,0c0,0,0,0,0,0s0,0,0,0
	c0,0,0,0,0,0c0,0,0,0,0,0s0,0,0,0c0,0,0,0,0,0s0,0,0,0s0,0,0,0c0,0,0,0,0,0s0,0,0,0c0,0,0,0,0,0c0,0,0,0,0,0s0,0,0,0c0,0,0,0,0,0
	c0,0,0,0,0,0s0,0,0,0c0,0,0,0,0,0c0,0,0,0,0,0s0,0,0,0c0,0,0,0,0,0c0,0,0,0,0,0s0,0,0,0c0,0,0,0,0,0c0,0,0,0,0,0s0,0,0,0
	c0,0,0,0,0,0c0,0,0,0,0,0s0,0,0,0s0,0,0,0c0,0,0,0,0,0s0,0,0,0s0,0,0,0c0,0,0,0,0,0c0,0,0,0,0,0s0,0,0,0c0,0,0,0,0,0c0,0,0,0,0,0
	c0,0,0,0,0,0c0,0,0,0,0,0s0,0,0,0c0,0,0,0,0,0c0,0,0,0,0,0s0,0,0,0s0,0,0,0c0,0,0,0,0,0c0,0,0,0,0,0s0,0,0,0s0,0,0,0c0,0,0,0,0,0
	c0,0,0,0,0,0c0,0,0,0,0,0c0,0,0,0,0,0s0,0,0,0c0,0,0,0,0,0c0,0,0,0,0,0c0,0,0,0,0,0s0,0,0,0c0,0,0,0,0,0c0,0,0,0,0,0c0,0,0,0,0,0
	c0,0,0,0,0,0s0,0,0,0s0,0,0,0s0,0,0,0c0,0,0,0,0,0c0,0,0,0,0,0c0,0,0,0,0,0c0,0,0,0,0,0s0,0,0,0s0,0,0,0c0,0,0,0,0,0c0,0,0,0,0,0
	c0,0,0,0,0,0c0,0,0,0,0,0s0,0,0,0s0,0,0,0s0,0,0,0c0,0,0,0,0,0c0,0,0,0,0,0c0,0,0,0,0,0c0,0,0,0,0,0c0,0,0,0,0,0c0,0,0,0,0,0
	c0,0,0,0,0,0s0,0,0,0s0,0,0,0s0,0,0,0c0,0,0,0,0,0c0,0,0,0,0,0c0,0,0,0,0,0c0,0,0,0,0,0c0,0,0,0,0,0c0,0,0,0,0,0c0,0,0,0,0,0
	c0,0,0,0,0,0s0,0,0,0s0,0,0,0c0,0,0,0,0,0s0,0,0,0s0,0,0,0c0,0,0,0,0,0c0,0,0,0,0,0c0,0,0,0,0,0c0,0,0,0,0,0c0,0,0,0,0,0
	c0,0,0,0,0,0c0,0,0,0,0,0c0,0,0,0,0,0c0,0,0,0,0,0c0,0,0,0,0,0c0,0,0,0,0,0c0,0,0,0,0,0c0,0,0,0,0,0c0,0,0,0,0,0c0,0,0,0,0,0
	c0,0,0,0,0,0c0,0,0,0,0,0c0,0,0,0,0,0c0,0,0,0,0,0c0,0,0,0,0,0c0,0,0,0,0,0c0,0,0,0,0,0c0,0,0,0,0,0c0,0,0,0,0,0c0,0,0,0,0,0
	c0,0,0,0,0,0c0,0,0,0,0,0c0,0,0,0,0,0c0,0,0,0,0,0c0,0,0,0,0,0c0,0,0,0,0,0c0,0,0,0,0,0v0c0,0,0,0,0,0c0,0,0,0,0,0c0,0,0,0,0,0
	c0,0,0,0,0,0c0,0,0,0,0,0c0,0,0,0,0,0c0,0,0,0,0,0c0,0,0,0,0,0c0,0,0,0,0,0s0,0,0,0c0,0,0,0,0,0s0,0,0,0s0,0,0,0c0,0,0,0,0,0
	c0,0,0,0,0,0c0,0,0,0,0,0c0,0,0,0,0,0c0,0,0,0,0,0v0c0,0,0,0,0,0c0,0,0,0,0,0c0,0,0,0,0,0c0,0,0,0,0,0c0,0,0,0,0,0c0,0,0,0,0,0
	s0,0,0,0s0,0,0,0c0,0,0,0,0,0c0,0,0,0,0,0c0,0,0,0,0,0v0c0,0,0,0,0,0c0,0,0,0,0,0c0,0,0,0,0,0s0,0,0,0c0,0,0,0,0,0s0,0,0,0
	c0,0,0,0,0,0c0,0,0,0,0,0v0c0,0,0,0,0,0c0,0,0,0,0,0c0,0,0,0,0,0c0,0,0,0,0,0s0,0,0,0c0,0,0,0,0,0c0,0,0,0,0,0v0c0,0,0,0,0,0
	c0,0,0,0,0,0c0,0,0,0,0,0s0,0,0,0s0,0,0,0c0,0,0,0,0,0c0,0,0,0,0,0v0c0,0,0,0,0,0c0,0,0,0,0,0c0,0,0,0,0,0s0,0,0,0c0,0,0,0,0,0v0
	c0,0,0,0,0,0c0,0,0,0,0,0c0,0,0,0,0,0c0,0,0,0,0,0c0,0,0,0,0,0c0,0,0,0,0,0v0c0,0,0,0,0,0c0,0,0,0,0,0s0,0,0,0c0,0,0,0,0,0
	c0,0,0,0,0,0v0c0,0,0,0,0,0c0,0,0,0,0,0c0,0,0,0,0,0c0,0,0,0,0,0v0c0,0,0,0,0,0c0,0,0,0,0,0c0,0,0,0,0,0s0,0,0,0c0,0,0,0,0,0v0
	c0,0,0,0,0,0c0,0,0,0,0,0c0,0,0,0,0,0c0,0,0,0,0,0v0c0,0,0,0,0,0c0,0,0,0,0,0s0,0,0,0c0,0,0,0,0,0v0c0,0,0,0,0,0c0,0,0,0,0,0
	s0,0,0,0c0,0,0,0,0,0v0c0,0,0,0,0,0c0,0,0,0,0,0s0,0,0,0c0,0,0,0,0,0v0c0,0,0,0,0,0c0,0,0,0,0,0c0,0,0,0,0,0c0,0,0,0,0,0v0
	c0,0,0,0,0,0c0,0,0,0,0,0s0,0,0,0v0c0,0,0,0,0,0c0,0,0,0,0,0s0,0,0,0c0,0,0,0,0,0v0c0,0,0,0,0,0c0,0,0,0,0,0s0,0,0,0c0,0,0,0,0,0v0
	c0,0,0,0,0,0s0,0,0,0c0,0,0,0,0,0v0c0,0,0,0,0,0c0,0,0,0,0,0c0,0,0,0,0,0v0c0,0,0,0,0,0c0,0,0,0,0,0c0,0,0,0,0,0c0,0,0,0,0,0v0
	c0,0,0,0,0,0c0,0,0,0,0,0c0,0,0,0,0,0v0c0,0,0,0,0,0c0,0,0,0,0,0s0,0,0,0v0c0,0,0,0,0,0c0,0,0,0,0,0s0,0,0,0c0,0,0,0,0,0v0
	c0,0,0,0,0,0s0,0,0,0c0,0,0,0,0,0v0c0,0,0,0,0,0s0,0,0,0c0,0,0,0,0,0v0c0,0,0,0,0,0c0,0,0,0,0,0c0,0,0,0,0,0v0c0,0,0,0,0,0
	c0,0,0,0,0,0s0,0,0,0v0c0,0,0,0,0,0c0,0,0,0,0,0s0,0,0,0v0c0,0,0,0,0,0c0,0,0,0,0,0s0,0,0,0v0c0,0,0,0,0,0c0,0,0,0,0,0H91.5z
	 M91.6,14c0.5,6.2,0.7,12.4,0,18.3l9.9,1.1c0.8-6.8,0.6-13.7,0-20.3L91.6,14z M91.6,32.2c-0.2,1.4,0.2,2.9,1,4
	c0.8,1,1.7,1.6,2.3,1.8c1.3,0.6,2.5,0.6,3.4,0.6c0.9-0.1,2.1-0.3,3.2-0.9c1.1-0.6,2.9-2,3.2-4.7l-10-0.9c0.2-2,1.6-3,2-3.2
	c0.5-0.3,0.8-0.3,0.9-0.3c0.1,0,0.5,0,1.2,0.3c0.4,0.2,1.1,0.5,1.7,1.4c0.7,0.9,1,2.1,0.8,3.3L91.6,32.2z M104.7,33.2
	c0.5-4,0.6-7.9,0.5-11.8l-10,0.2c0.1,3.6,0,7.1-0.4,10.4L104.7,33.2z M95.6,23.4c2.3,5.4,4.1,10.8,5.3,16.3l9.8-2
	c-1.3-6.4-3.4-12.5-5.8-18.3L95.6,23.4z M100.8,38.2c-0.2,1.4,0.2,2.7,1,3.8c0.7,1,1.6,1.5,2.3,1.8c1.2,0.6,2.5,0.7,3.3,0.6l-0.4-10
	c0.1,0,0.6,0,1.3,0.3c0.4,0.2,1.1,0.6,1.6,1.4c0.7,0.9,0.9,2,0.8,3.1L100.8,38.2z M107,44.5c1.2,0,2.5-0.2,3.8-0.8
	c1-0.5,3.9-2.6,3.1-6.3l-9.8,2.2c-0.3-1.3,0-2.6,0.6-3.5c0.5-0.8,1.1-1.2,1.4-1.3c0.5-0.3,0.9-0.3,1.2-0.3L107,44.5z M114,38.8
	c0.6-8.8,0.9-17.7,0.9-26.5l-10,0c0,8.6-0.3,17.3-0.9,25.9L114,38.8z"/>
<path class="st0" d="M18.1,11.6c0-1.2-3.1-0.9-3.2,0.3c-0.5,4.7-1.6,9.3-2.9,13.8c-1.3-4.6-2.5-9.3-3.1-14.1
	c-0.2-1.2-3.3-0.9-3.2,0.3c0.6,8.6,0.2,17.3-0.5,25.9c-0.1,1.1,3.1,1,3.2-0.3c0.3-3.5,0.6-7.1,0.7-10.6c0.5,1.5,0.9,3,1.3,4.4
	c0.3,1.1,2.9,1,3.2,0c0.5-1.6,1-3.1,1.4-4.7c0.1,3.8,0.3,7.5,0.6,11.2c0.1,1.2,3.3,1,3.2-0.3C18.2,28.8,17.8,20.2,18.1,11.6z
	 M33.6,33c-0.9-1.9-1.7-3.9-2.4-5.8c0.1,0,0.2-0.1,0.4-0.1c1.1-0.4,1.3-3.7,0.1-3.2c-0.5,0.2-0.9,0.4-1.4,0.5
	c-1.2-3.8-2.1-7.6-2.5-11.6c-0.1-0.6-0.8-0.8-1.6-0.8c-0.8-0.1-1.8,0.2-1.9,0.8c-0.8,4.8-2.2,9.3-4,13.7c-0.2,0-0.4,0-0.5,0.1
	c-0.9,0.1-1.3,2.1-0.8,2.9c-0.6,1.3-1.2,2.6-1.9,3.9c-0.6,1.1,2.6,1.3,3.1,0.2c0.8-1.4,1.4-2.8,2.1-4.2c2-0.3,4-0.7,5.9-1.2
	c0.7,1.9,1.5,3.8,2.3,5.7C31,34.8,34.2,34.3,33.6,33z M23.8,25.9c0.8-1.9,1.4-3.8,2-5.8c0.4,1.7,0.9,3.4,1.4,5.1
	C26,25.4,24.9,25.7,23.8,25.9z M45.3,12.3c0-1.2-3.2-1-3.2,0.3c0,5.3-0.1,10.7-0.4,16c-1.8-5.3-4-10.5-6.6-15.5
	c-0.3-1-2.9-0.8-3.2,0.2c0,0,0,0.1,0,0.1s0,0.1,0,0.1c0.5,6.4,0.7,12.9,0,19.3c-0.1,1.1,3.1,1,3.2-0.3c0.5-3.7,0.5-7.4,0.5-11.1
	c2.4,5.6,4.4,11.4,5.6,17.3c-0.1,0.5,0.7,0.8,1.4,0.8c0.9,0,2-0.4,1.8-1C45,29.8,45.3,21,45.3,12.3z M51.4,13.8
	c-0.2,2.9-0.3,5.9-0.4,8.8c-0.6,0.1-1.2,0.3-1.9,0.4c0.1-2.1,0.1-4.2,0.1-6.2c-0.1-1.2-3.3-1-3.2,0.3c0.1,2.2,0,4.3-0.1,6.5
	c-1,0.2-1.3,2.9-0.2,3.2c-0.2,2.2-0.5,4.4-0.7,6.5c-0.1,1.1,3.1,1,3.2-0.3c0.3-2.2,0.5-4.4,0.7-6.7c0.7-0.1,1.3-0.3,1.9-0.5
	C50.7,30,50.6,34,50.5,38c0,1.2,3.2,1,3.2-0.3c0.2-8.1,0.5-16.1,0.9-24.2C54.7,12.4,51.5,12.6,51.4,13.8z M69.5,33
	c-0.9-1.9-1.7-3.9-2.4-5.8c0.1,0,0.2-0.1,0.4-0.1c1.1-0.4,1.3-3.7,0.1-3.2c-0.5,0.2-0.9,0.4-1.4,0.5c-1.2-3.8-2.1-7.6-2.5-11.6
	c-0.1-0.6-0.8-0.8-1.6-0.8c-0.8-0.1-1.8,0.2-1.9,0.8c-0.8,4.8-2.2,9.3-4,13.7c-0.2,0-0.4,0-0.5,0.1c-0.9,0.1-1.3,2.1-0.8,2.9
	c-0.6,1.3-1.2,2.6-1.9,3.9c-0.6,1.1,2.6,1.3,3.2,0.2c0.8-1.4,1.4-2.8,2.1-4.2c2-0.3,4-0.7,5.9-1.2c0.7,1.9,1.5,3.8,2.3,5.7
	C66.9,34.8,70,34.3,69.5,33z M59.6,25.9c0.8-1.9,1.4-3.8,2-5.8c0.4,1.7,0.9,3.4,1.4,5.1C61.9,25.4,60.7,25.7,59.6,25.9z M79.5,12.3
	c-4,0-8.6,0.1-12.4,1.7c-1.1,0.5-1.2,3.7-0.1,3.2c0.9-0.4,1.9-0.7,2.8-0.9c-0.4,5.7-0.6,11.5-0.6,17.2c0,1.2,3.2,1,3.2-0.3
	c0-5.8,0.2-11.6,0.6-17.4c2-0.2,3.9-0.2,5.7-0.2C80.2,15.6,80.7,12.3,79.5,12.3z M87.2,12.3c-4,0-8.6,0.1-12.4,1.7
	c-1.1,0.5-1.2,3.7-0.1,3.2c0.9-0.4,1.9-0.7,2.8-0.9C77.2,22.1,77,27.8,77,33.5c0,1.2,3.2,1,3.2-0.3c0-5.8,0.2-11.6,0.6-17.4
	c2-0.2,3.9-0.2,5.7-0.2C87.9,15.6,88.3,12.3,87.2,12.3z M98.2,33c-0.9-1.9-1.7-3.9-2.4-5.8c0.1,0,0.2-0.1,0.4-0.1
	c1.1-0.4,1.3-3.7,0.1-3.2c-0.5,0.2-0.9,0.4-1.4,0.5c-1.2-3.8-2.1-7.6-2.5-11.6c-0.1-0.6-0.8-0.8-1.6-0.8c-0.8-0.1-1.8,0.2-1.9,0.8
	c-0.8,4.8-2.2,9.3-4,13.7c-0.2,0-0.4,0-0.5,0.1c-0.9,0.1-1.3,2.1-0.8,2.9c-0.6,1.3-1.2,2.6-1.9,3.9c-0.6,1.1,2.6,1.3,3.2,0.2
	c0.8-1.4,1.4-2.8,2.1-4.2c2-0.3,4-0.7,5.9-1.2c0.7,1.9,1.5,3.8,2.3,5.7C95.6,34.8,98.8,34.3,98.2,33z M88.4,25.9
	c0.8-1.9,1.4-3.8,2-5.8c0.4,1.7,0.9,3.4,1.4,5.1C90.6,25.4,89.5,25.7,88.4,25.9z M109.9,12.3c0-1.2-3.2-1-3.2,0.3
	c0,5.3-0.1,10.7-0.4,16c-1.8-5.3-4-10.5-6.6-15.5c-0.3-1-2.9-0.8-3.2,0.2c0,0,0,0.1,0,0.1s0,0.1,0,0.1c0.5,6.4,0.7,12.9,0,19.3
	c-0.1,1.1,3.1,1,3.2-0.3c0.5-3.7,0.5-7.4,0.5-11.1c2.4,5.6,4.3,11.4,5.6,17.3c-0.1,0.5,0.7,0.8,1.4,0.8c0.9,0,2-0.4,1.8-1
	C109.6,29.8,109.9,21,109.9,12.3z"/>
</svg>
