<?xml version="1.0" encoding="utf-8"?>
<!-- Generator: Adobe Illustrator 25.2.0, SVG Export Plug-In . SVG Version: 6.00 Build 0)  -->
<svg version="1.1" id="Layer_1" xmlns="http://www.w3.org/2000/svg" xmlns:xlink="http://www.w3.org/1999/xlink" x="0px" y="0px"
	 viewBox="0 0 90 41" style="enable-background:new 0 0 90 41;" xml:space="preserve">
<style type="text/css">
	.st0{fill:#00C868;}
</style>
<path d="M18.9,10.6l4.7-1.6l0,0l0,0L18.9,10.6z M10.6,8.8l1,4.9l1.5-0.3l1.1-1.1L10.6,8.8z M10.3,8.9L9.1,4.1L8.8,4.1L8.4,4.3
	L10.3,8.9z M6.7,24.2L2,26.1l0,0l0,0L6.7,24.2z M10.5,27.9h5v-3.4l-3.2-1.2L10.5,27.9z M10.6,32l5-0.2l0,0l0,0L10.6,32z M13.8,31.7
	l-5,0.3l0,0.1l0,0L13.8,31.7z M13.7,28.2L13,23.3l-4.3,0.6v4.3H13.7z M16.1,27.3l2.6,4.3l0,0l0,0L16.1,27.3z M13.9,26.1l2.2,4.5
	l0.1-0.1l0.1-0.1L13.9,26.1z M13.8,26.2l-5-0.1L8.6,38.5l8.7-8.7L13.8,26.2z M14.1,20.7l5,0.4l0,0l0,0L14.1,20.7z M10.8,21l5,0.5
	l0-0.1l0-0.1L10.8,21z M10.6,24.9l-4.2,2.7l8.5,13l0.7-15.5L10.6,24.9z M9.2,20.8l5-0.4l0,0l0,0L9.2,20.8z M10.1,12.6l0.4-5L6.8,7.4
	l-1.4,3.4L10.1,12.6z M12.1,11.8l-4.7-1.7l0,0.1l0,0.1L12.1,11.8z M14,9.5l-0.2-5l0,0L14,9.5z M15.9,11.8l-4.8,1.3l0,0l0,0
	L15.9,11.8z M16.6,16.7l5-0.2l0,0l0,0L16.6,16.7z M13.5,13.9l-0.3,5l0,0l0,0L13.5,13.9z M11.5,14.7l-4.9-0.9l0,0.1l0,0.1L11.5,14.7z
	 M11,18.6l-5-0.6l0,0.1l0,0.1L11,18.6z M12.7,19.4l0.4,5l0.1,0l0.1,0L12.7,19.4z M14.3,18.4l-5-0.5l0,0l0,0L14.3,18.4z M14.6,15.8
	l5,0.7l0,0l0,0L14.6,15.8z M14.7,15l-4.9-0.7l0,0l0,0L14.7,15z M14.7,14.9h-5l10,0.6L14.7,14.9z M23.6,8.9c-1.3-3.6-4-6.4-7.9-6.9
	C12.2,1.6,9.1,3.2,7,5.4l7.2,6.9c0.1-0.1,0.2-0.2,0.3-0.2c0.1-0.1,0.1-0.1,0.2-0.1c0.1,0,0,0-0.2,0c-0.1,0-0.1,0-0.2,0
	c-0.1,0-0.1,0-0.2-0.1c-0.1,0-0.1-0.1-0.1-0.1c0,0-0.1,0-0.1-0.1c0,0,0,0,0,0c0,0.1,0.1,0.2,0.2,0.5L23.6,8.9z M9.7,3.9
	C9.4,4,9.3,4,9.2,4c0,0-0.1,0-0.1,0c0,0,0,0,0,0c0,0,0,0,0,0l2.4,9.7c0.1,0,0.1,0,0.2,0c0,0,0,0,0,0c0,0,0,0,0,0c0,0,0,0,0,0
	c0,0-0.1,0-0.1,0L9.7,3.9z M8.4,4.3c-5,2-6.8,7.3-7.3,10.7C0.5,18.7,0.8,23.1,2,26.1l9.2-3.9c-0.4-0.9-0.7-3.2-0.3-5.6
	c0.2-1.2,0.5-2,0.8-2.6c0.3-0.5,0.5-0.5,0.3-0.5L8.4,4.3z M2.1,26.2c1.3,3,3.7,5.3,6.6,6.4l3.6-9.3c-0.4-0.2-0.8-0.5-1-1L2.1,26.2z
	 M5.5,27.9c0,1.5,0,2.9,0.1,4.4l10-0.7c-0.1-1.2-0.1-2.5-0.1-3.8H5.5z M5.6,32.3c0.2,3,2.4,4.5,3.6,5c1.2,0.5,2.5,0.6,3.4,0.5
	c0.9-0.1,2.2-0.3,3.3-1.1c1.2-0.7,3-2.5,2.8-5.4l-10,0.7c-0.2-2.2,1.3-3.5,1.9-3.9c0.6-0.4,1-0.4,1.1-0.4c0.1,0,0.6,0,1.2,0.2
	c0.6,0.3,2.4,1.3,2.6,3.7L5.6,32.3z M18.8,31.5c-0.1-1.1-0.1-2.2-0.1-3.3h-10c0,1.3,0,2.5,0.1,3.8L18.8,31.5z M14.5,33.2
	c1.6-0.2,3-0.8,4.2-1.5l-5.1-8.6c-0.3,0.2-0.4,0.2-0.5,0.2L14.5,33.2z M18.7,31.6c4.4-2.8,5.8-7.8,6.2-11.6c0.4-4-0.3-8.1-1.3-11.1
	l-9.4,3.3c0.6,1.7,1,4.4,0.8,6.9c-0.2,2.7-1.1,3.7-1.5,4L18.7,31.6z M11.7,21.7c0.3-0.1,0.5-0.2,0.7-0.3c0.1,0,0.2-0.1,0.1,0
	c0,0-0.3,0.1-0.7,0.2c-0.4,0.2-1,0.5-1.6,1.1l7.1,7.1c-0.6,0.6-1.2,0.9-1.5,1c-0.3,0.1-0.6,0.2-0.6,0.2c-0.1,0,0.1,0,0.2-0.1
	c0.2-0.1,0.4-0.1,0.7-0.3L11.7,21.7z M18.8,26.3c0-1.7,0.1-3.4,0.3-5.2l-10-0.8c-0.2,1.9-0.3,3.8-0.3,5.8L18.8,26.3z M19,21.1
	c0.3-3.3-2.2-5.1-3.5-5.6c-1.3-0.5-2.5-0.6-3.4-0.5c-0.9,0.1-2.1,0.3-3.2,0.9C7.8,16.5,6,18,5.8,20.7l10,0.7c-0.1,2-1.5,3-2,3.3
	c-0.5,0.3-0.9,0.3-1,0.3c-0.1,0-0.6,0-1.2-0.3c-0.4-0.2-1-0.5-1.6-1.3c-0.7-0.9-1-2-0.9-3.1L19,21.1z M5.8,20.6
	c-0.1,1.4-0.2,2.9-0.3,4.2l10,0.5c0.1-1.3,0.1-2.5,0.2-3.7L5.8,20.6z M14.8,22.2c-0.1-0.2-0.3-0.5-0.4-0.9c-0.1-0.4-0.2-0.8-0.2-0.9
	l-10,0.9C4.3,23,5,25.6,6.4,27.7L14.8,22.2z M14.1,20.4c0-0.5-0.1-1.6,0-2.8c0.1-1.3,0.3-2.4,0.6-3.1l-9.3-3.7
	c-0.8,2-1.1,4.2-1.3,5.9c-0.1,1.8-0.1,3.5,0,4.6L14.1,20.4z M9.8,17.6c1,0.1,2.2,0,3.3-0.4c0.9-0.3,3-1.3,3.8-3.8l-9.5-3
	c0.3-1,0.9-1.6,1.3-2c0.4-0.3,0.8-0.5,1-0.6c0.4-0.1,0.6-0.1,0.9-0.1L9.8,17.6z M16.8,13.5C17,13,17,13,17,12.8c0.1-0.1,0,0-0.1,0.1
	c-0.1,0.2-0.4,0.6-1,1c-0.6,0.4-1.2,0.5-1.7,0.6l-0.5-10c-1.1,0.1-2.3,0.4-3.3,1c-1,0.6-1.6,1.4-2,2.1C7.8,8.7,7.4,10,7.4,10.2
	L16.8,13.5z M14.3,14.5c-0.5,0-1.2-0.1-2-0.5c-0.7-0.4-1.1-0.9-1.2-1.2c-0.1-0.3-0.2-0.4-0.1-0.3c0,0.1,0.1,0.2,0.2,0.7l9.7-2.5
	c0-0.2-0.4-1.7-1.1-2.9c-0.4-0.7-1.1-1.6-2.3-2.3c-1.2-0.7-2.4-0.9-3.6-0.9L14.3,14.5z M11.1,13.1c0.3,1,0.4,2.3,0.5,3.8l10-0.6
	c-0.1-1.6-0.3-3.8-0.8-5.9L11.1,13.1z M11.6,16.9c0.1,1.3,0.1,2.8-0.2,4c-0.1,0.6-0.2,1-0.3,1.2c-0.1,0.2,0-0.1,0.3-0.3l5,8.6
	c3.4-2,4.4-5.6,4.8-7.8c0.4-2.4,0.4-4.8,0.3-6.2L11.6,16.9z M13.8,8.9c-0.8,0-1.8,0-2.8,0.3c-0.5,0.1-1.3,0.4-2.1,1
	C8,10.9,6.9,12,6.6,13.9l9.9,1.7c-0.3,1.5-1.2,2.4-1.7,2.8c-0.5,0.4-0.9,0.5-1,0.5c-0.2,0.1-0.3,0.1-0.6,0.1L13.8,8.9z M6.6,14
	c-0.2,1.3-0.4,2.7-0.5,4.1l9.9,1.1c0.1-1.3,0.3-2.5,0.5-3.8L6.6,14z M6.1,18.2C5.9,20.3,6.9,22,8,22.9c0.9,0.8,1.9,1.1,2.4,1.2
	c1,0.3,2.1,0.3,2.7,0.3l-0.7-10c0.2,0,0.4,0,0.6,0.1c0.1,0,0.7,0.2,1.4,0.8c0.4,0.3,0.8,0.8,1.2,1.5c0.3,0.7,0.5,1.6,0.4,2.3
	L6.1,18.2z M13.2,24.4c0.7-0.1,1.8-0.3,2.9-0.9c1.1-0.6,2.9-2.1,3.1-4.7l-10-0.9c0.2-1.9,1.5-2.9,2-3.2c0.5-0.3,0.9-0.3,0.9-0.3
	L13.2,24.4z M19.2,18.9c0.1-0.8,0.2-1.5,0.3-2.4l-9.9-1.4c-0.1,0.8-0.3,1.8-0.4,2.8L19.2,18.9z M19.6,16.4c0-0.1,0-0.2,0-0.4
	c0-0.1,0-0.2,0-0.4l-9.9-1.2c0,0.1,0,0.2,0,0.4c0,0.1,0,0.2,0,0.4L19.6,16.4z M19.6,15.7c0-0.1,0-0.2,0-0.2c0-0.1,0,0,0,0
	C19.7,15.6,19.7,15.6,19.6,15.7c0,0,0,0.1-0.1,0.2c0,0.1-0.1,0.3-0.2,0.7c-0.1,0.1-0.2,0.6-0.6,1.1c-0.1,0.2-1.4,2-3.8,2.1
	c-2.8,0.2-4.2-1.9-4.5-2.3c-0.4-0.6-0.5-1.2-0.6-1.3c-0.1-0.4-0.1-0.7-0.2-0.8c0-0.1,0-0.2,0-0.3c0-0.2,0-0.4,0-0.2h10
	c0,0,0,0,0-0.1c0,0,0,0,0-0.1c0,0,0-0.1,0-0.2c0,0,0-0.1,0-0.3c0-0.1,0-0.4-0.2-0.8c0-0.2-0.2-0.7-0.6-1.3c-0.3-0.4-1.7-2.5-4.5-2.3
	c-2.4,0.1-3.6,1.9-3.8,2.1c-0.3,0.5-0.5,0.9-0.6,1.1c-0.1,0.3-0.2,0.6-0.2,0.7c0,0.1,0,0.2-0.1,0.2c0,0.1,0,0.2,0,0.2
	c0,0.1,0,0.1,0,0.1c0,0,0,0,0,0c0,0,0,0,0,0.1L19.6,15.7z M19.7,15.5c0.1-1.1,0-2.3-0.6-3.4c-0.6-1.1-1.3-1.7-2-2.2
	c-1.2-0.8-2.5-1-3.3-1l-0.5,10c-0.2,0-0.8-0.1-1.6-0.5c-0.4-0.3-1-0.8-1.4-1.6c-0.4-0.9-0.6-1.8-0.5-2.5L19.7,15.5z M31.2,27.2
	l4.9-1.2l0,0l0,0L31.2,27.2z M30.9,10.8l4.9,1.1l0,0l0,0L30.9,10.8z M30.3,9.9l1.8-4.7l-0.9-0.3h-0.9V9.9z M30.3,9.9l-2.2,4.5
	l1.1,0.5h1.2V9.9z M30.1,9.9l1.6-4.7L31.5,5l-0.2,0L30.1,9.9z M27.7,10.6l4.9,1.1l0,0l0,0L27.7,10.6z M23,24l3.5,3.5l0.4-0.4
	l0.3-0.4L23,24z M22.9,24.1l-5-0.2l-0.6,13l9.2-9.2L22.9,24.1z M25.9,8.1l4.8,1.3l0,0l0,0L25.9,8.1z M22.8,7.9l4.8,1.3l0,0l0,0
	L22.8,7.9z M19.7,27.5l-5,0.2l0,0L19.7,27.5z M22,28.2v-5h-0.8l-0.7,0.2L22,28.2z M22.4,28.1l1.2,4.9l0.4-0.1l0.4-0.2L22.4,28.1z
	 M25.6,25.1l4.1,2.9l0,0l0,0L25.6,25.1z M27.1,22.6l5-0.5L30.4,6.3l-7.6,13.8L27.1,22.6z M27.9,27.5l-4.9,1.2l0,0.1l0,0.1L27.9,27.5
	z M36,26c-1.1-4.6-1.3-9.6-0.3-14.2L26,9.7c-1.3,6.1-1.2,12.7,0.3,18.7L36,26z M35.8,11.9c0.3-1.4,0.1-3-0.8-4.4
	c-0.8-1.2-1.9-1.9-2.8-2.2l-3.6,9.3c-0.5-0.2-1.3-0.6-1.9-1.6c-0.7-1-0.9-2.3-0.6-3.3L35.8,11.9z M30.3,4.9L30.3,4.9l0,10h0V4.9z
	 M32.6,5.5c-0.3-0.1-0.5-0.2-0.6-0.3c-0.1,0-0.2-0.1-0.3-0.1l-3.2,9.5c0.1,0,0,0,0,0c0,0-0.1,0-0.1-0.1c-0.1,0-0.2-0.1-0.3-0.1
	L32.6,5.5z M31.3,5c-1.3-0.3-2.8-0.3-4,0.1c-0.9,0.3-3.7,1.3-4.4,4.5l9.8,2c-0.3,1.3-1,2.1-1.5,2.5c-0.5,0.4-0.9,0.5-1.1,0.6
	c-0.3,0.1-0.7,0.1-1.1,0L31.3,5z M22.9,9.6c-1,4.6-2,8.6-4,11.7l8.4,5.4c3.1-4.8,4.4-10.5,5.4-15L22.9,9.6z M19.5,20.4
	c-0.1,0.1-0.3,0.3-0.3,0.4C19.1,20.9,19,21,19,21.1c0,0.1-0.1,0.1-0.1,0.1c0,0,0,0.1,0,0.1c0,0,0,0,0,0c0,0,0-0.1,0.1-0.1
	c0-0.1,0.1-0.1,0.2-0.2c0.1-0.1,0.2-0.2,0.3-0.4l7.1,7.1c0.1-0.1,0.3-0.3,0.3-0.4c0.1-0.1,0.1-0.2,0.2-0.2c0-0.1,0.1-0.1,0.1-0.1
	c0,0,0-0.1,0-0.1c0,0,0,0,0,0c0,0,0,0.1-0.1,0.1c0,0.1-0.1,0.1-0.2,0.2c-0.1,0.1-0.2,0.2-0.3,0.4L19.5,20.4z M27.9,24.3
	c0.2-4.8,1.4-9.9,2.8-14.9l-9.6-2.7c-1.4,5.2-2.9,11.1-3.2,17.1L27.9,24.3z M30.8,9.4c0.3-1.1,0.3-2.5-0.3-3.7
	c-0.5-1.2-1.4-2-2.1-2.5c-1.3-0.9-2.7-1.1-3.6-1.1c-1,0-2.1,0.1-3.2,0.5c-0.9,0.4-3,1.4-3.6,4l9.7,2.6c-0.5,2-2.1,2.6-2.3,2.7
	c-0.4,0.2-0.7,0.2-0.9,0.2c-0.1,0-0.7,0-1.6-0.6c-0.5-0.3-1.1-0.9-1.6-1.9c-0.5-1-0.4-2.1-0.2-2.9L30.8,9.4z M18,6.5
	c-1.8,6.3-3.6,13.8-3.3,21.2l10-0.4c-0.2-5.7,1.2-12,2.9-18.1L18,6.5z M14.7,27.7c0.2,3.9,3.6,5.2,4.7,5.4c1.4,0.3,2.9,0.2,4.1-0.2
	l-3-9.5c0.3-0.1,0.6-0.1,1.1,0c0.3,0.1,0.9,0.2,1.5,0.8c0.8,0.7,1.5,1.8,1.5,3.1L14.7,27.7z M22,33.2c0.7,0,1.3-0.1,1.5-0.2
	c0.1,0,0.2-0.1,0.2-0.1c0,0,0,0-0.1,0l-2.4-9.7c-0.2,0-0.3,0.1-0.3,0.1c-0.1,0,0,0,0,0c0.1,0,0.2,0,0.4-0.1c0.2,0,0.4-0.1,0.7-0.1
	V33.2z M24.3,32.7c2.8-1.2,4.5-3.5,5.3-4.7l-8.2-5.8c-0.4,0.5-0.6,0.8-0.9,1.1c-0.2,0.2-0.3,0.2-0.2,0.2L24.3,32.7z M29.7,28
	c0.7-1,1.3-2.1,1.8-3l-8.8-4.8c-0.5,0.8-0.8,1.5-1.2,2.1L29.7,28z M22.1,23.1c0.2,1.8,0.5,3.7,0.9,5.5l9.7-2.3
	c-0.3-1.4-0.6-2.8-0.7-4.3L22.1,23.1z M23.1,28.8c0.7,2.5,2.7,3.7,3.9,4.1c1.2,0.4,2.4,0.5,3.3,0.4c0.9-0.1,2.1-0.4,3.3-1.1
	c1.2-0.8,3.2-2.9,2.5-6.1l-9.7,2.4c-0.3-1.1-0.1-2.2,0.4-3.2c0.4-0.8,1-1.3,1.4-1.5c0.6-0.4,1.1-0.4,1.2-0.5c0.1,0,0.5,0,1,0.1
	c0.5,0.2,2,0.9,2.5,2.8L23.1,28.8z M43.8,18.2l5-0.4l0,0l0,0L43.8,18.2z M40.5,18.5l5-0.4l0,0l0,0L40.5,18.5z M40.5,25.1l-4.6-1.9
	l0,0l0,0L40.5,25.1z M35,25.3l3.7-3.4l0,0l0,0L35,25.3z M39,14.8l1.6,4.7l0,0L39,14.8z M38.1,13.2l-0.3-5l0,0l0,0L38.1,13.2z
	 M35.1,11l-4.4-2.3l0,0l0,0L35.1,11z M37.5,8.9L38.4,4l0,0l0,0L37.5,8.9z M38.9,10.6l4.2-2.7l0-0.1l0-0.1L38.9,10.6z M40.1,13.3h5
	v-0.7l-0.2-0.7L40.1,13.3z M42.4,13.9L41.2,9l-0.1,0l-0.1,0L42.4,13.9z M43.3,13l-5-0.1l0,0.9l0.3,0.8L43.3,13z M43.7,7.3l4.9,0.9
	l0,0l0,0L43.7,7.3z M40.5,7.1l-4.9-0.9l0,0.1l0,0.1L40.5,7.1z M40.4,8.3l-3.2,3.9l6.9,5.6L45.3,9L40.4,8.3z M32.7,9.7L29,6.5l0,0
	l0,0L32.7,9.7z M34.6,14.7l2.7,4.2l9.9-6.4L35.7,9.9L34.6,14.7z M30.6,20.7l5,0.7l0,0l0,0L30.6,20.7z M33.9,27.7l2.2-4.5l0,0l0,0
	L33.9,27.7z M43.3,26.4l3.9,3.2l0,0l0,0L43.3,26.4z M48.7,17.7c-0.3-2.9-2.4-4.3-3.7-4.8c-1.2-0.5-2.5-0.6-3.4-0.5
	c-0.9,0.1-2.2,0.3-3.3,1.1c-1.2,0.7-3.1,2.5-2.8,5.5l10-1c0.2,2.3-1.3,3.6-1.9,4c-0.6,0.4-1,0.4-1.1,0.4c-0.1,0-0.5,0-1.1-0.2
	c-0.6-0.2-2.3-1.2-2.5-3.5L48.7,17.7z M35.5,18.9c0,0.6,0.1,1.3,0.2,1.8c0.1,0.6,0.1,1,0.2,1.5c0,0.5,0,0.8,0,1c0,0.2,0,0.2,0,0
	l9.3,3.8c0.8-2.1,0.8-4.2,0.7-5.5c-0.1-0.7-0.1-1.4-0.2-2c-0.1-0.6-0.1-1-0.2-1.4L35.5,18.9z M35.9,23.3c0.3-0.7,0.8-1.2,1.3-1.5
	c0.4-0.2,0.8-0.2,0.8-0.2c0.1,0,0.2,0,0.2,0c0,0,0.2,0.1,0.4,0.3l-7.3,6.8c1.8,2,4.4,2.9,6.7,2.9c2.2,0,5.7-1,7.2-4.6L35.9,23.3z
	 M38.6,21.9C38.5,21.7,38.6,21.7,38.6,21.9c-0.1,0-0.1-0.2,0.1-0.5c0.2-0.4,0.5-0.8,0.9-1.1c0.4-0.4,0.8-0.6,1-0.7l-3.2-9.5
	c-3.3,1.1-6.2,3.7-7.7,6.9c-1.6,3.4-1.9,8,1.6,11.7L38.6,21.9z M40.7,19.6c0.8-0.3,2.9-1.1,3.8-3.5c1.1-2.8-0.5-5-1.2-5.8
	c-0.8-0.9-1.8-1.3-2.5-1.6c-0.7-0.3-1.8-0.5-2.9-0.5l0.6,10c-0.6,0-1-0.1-1.2-0.2c-0.2-0.1-0.7-0.3-1.2-0.8
	c-0.4-0.4-1.8-2.2-0.9-4.7c0.4-1.1,1.1-1.7,1.5-2c0.4-0.3,0.8-0.4,0.9-0.5L40.7,19.6z M37.7,8.3c-0.4,0-0.6,0-0.7,0
	c-0.2,0,0,0,0.5,0.2c0.6,0.2,1.8,1,2.2,2.7c0.2,0.7,0.1,1.3,0.1,1.7c0,0.2-0.1,0.3-0.1,0.4c0,0.1-0.1,0.1-0.1,0.1l-8.9-4.6
	c-0.5,1-1.2,2.8-0.7,4.9c0.6,2.3,2.3,3.5,3.5,4.1c1.1,0.5,2.2,0.6,2.9,0.6c0.8,0,1.5,0,2,0L37.7,8.3z M39.6,13.3
	c-0.1,0.2-0.2,0.3-0.2,0.3c0,0.1-0.1,0.1-0.1,0.1c0,0,0,0,0,0C39.4,13.6,39.5,13.5,39.6,13.3c0.2-0.1,0.2-0.1,0.1,0
	c-0.1,0-0.3,0.2-0.6,0.3c-0.2,0.1-0.5,0.2-0.8,0.2c-0.4,0.1-0.9,0.1-1.6,0L38.3,4c-1.4-0.2-2.4,0.1-2.9,0.3c-0.5,0.2-1,0.5-1.2,0.6
	c-0.6,0.4-1.1,0.8-1.4,1.1c-0.4,0.4-0.7,0.7-1,1.1c-0.2,0.3-0.7,0.8-1,1.5L39.6,13.3z M36.7,13.9c-0.7-0.1-1.2-0.4-1.5-0.6
	c-0.3-0.2-0.5-0.4-0.7-0.5c-0.2-0.2-0.3-0.4-0.3-0.3c0,0,0.1,0.1,0.2,0.2c0,0,0.1,0.2,0.1,0.2c0.1,0.1,0.1,0.2,0.2,0.4L43,7.8
	c0,0,0,0-0.2-0.3c-0.1-0.2-0.3-0.5-0.5-0.8c-0.2-0.3-0.5-0.8-1-1.2C41,5.2,40,4.3,38.4,4L36.7,13.9z M34.6,13.2
	c0.2,0.4,0.5,0.9,0.6,1.4l9.6-2.8c-0.4-1.3-1-2.7-1.8-4L34.6,13.2z M35.1,13.3c0,1.9,0.9,3.4,2,4.3c1,0.8,2,1.1,2.7,1.3
	c1.4,0.3,2.8,0.2,4.1-0.2l-3-9.5c0.3-0.1,0.6-0.1,1.1,0c0.2,0.1,0.9,0.2,1.5,0.8c0.8,0.7,1.6,1.9,1.6,3.4H35.1z M43.6,18.8
	c0.7-0.2,1.8-0.6,2.9-1.5c1.2-1.1,2.5-3.3,1.6-5.9l-9.5,3.2c-0.3-0.9-0.3-1.9,0-2.9c0.3-0.9,0.8-1.5,1.2-1.8
	c0.7-0.6,1.3-0.7,1.4-0.8L43.6,18.8z M48.3,13.1c0-1.8,0.1-3.7,0.3-4.9l-9.8-1.9c-0.4,2.1-0.5,4.8-0.5,6.5L48.3,13.1z M48.7,8.1
	c0.2-1.2,0.1-2.4-0.5-3.6c-0.6-1.1-1.4-1.8-2.1-2.3c-1.3-0.8-2.7-1-3.6-1c-1,0-2.1,0.1-3.2,0.6c-0.9,0.4-3,1.6-3.6,4.3L45.5,8
	c-0.4,2.1-2,2.9-2.3,3c-0.4,0.2-0.8,0.2-0.9,0.2c-0.1,0-0.7,0-1.5-0.5c-0.4-0.3-1.1-0.8-1.5-1.6c-0.5-0.9-0.6-1.9-0.4-2.7L48.7,8.1z
	 M35.6,6.3c-0.1,0.4-0.1,0.9-0.2,1.3L45.3,9c0.1-0.4,0.1-0.8,0.2-1.2L35.6,6.3z M43.5,4.4c-1.9-1.6-4.5-2.6-7.5-2.2
	c-2.9,0.4-5.3,2-7.1,4.2l7.6,6.5c0.8-0.9,1.1-0.9,0.9-0.8c-0.1,0-0.2,0-0.3,0c-0.1,0,0,0,0.1,0.1L43.5,4.4z M28.9,6.5
	c-1.7,2-3.5,5.5-1.5,9.1c1.6,2.8,4.6,3.7,6,4l2.2-9.7c-0.3-0.1-0.4-0.1-0.4-0.1c0,0,0.5,0.3,0.9,0.9c0.2,0.3,0.3,0.8,0.4,1.2
	c0.1,0.4,0,0.8-0.1,1c-0.1,0.4-0.2,0.5,0.1,0.1L28.9,6.5z M31.8,10.6c-3,2-5.6,5.1-6.2,9.5l9.9,1.4c0.1-0.9,0.6-1.8,1.8-2.5
	L31.8,10.6z M25.6,20c-0.6,4.4,1.1,9.7,6.1,12.1l4.3-9c-0.2-0.1-0.3-0.2-0.4-0.5c-0.1-0.3-0.2-0.8-0.2-1.2L25.6,20z M31.8,32.2
	c2.3,1.1,5.3,1.3,7.6,1.1c1.3-0.1,2.6-0.4,3.9-0.9c1.2-0.5,2.7-1.3,3.9-2.7l-7.7-6.4c0.3-0.4,0.5-0.4,0.2-0.3
	c-0.3,0.1-0.7,0.2-1.3,0.3c-0.6,0.1-1.1,0.1-1.6,0c-0.5-0.1-0.7-0.2-0.6-0.1L31.8,32.2z M47.2,29.6c1.1-1.4,1.6-2.9,1.8-4
	c0.2-1.2,0.2-2.4,0.2-3.3c-0.1-1.7-0.4-4.1-0.4-4.5l-10,0.9c0.1,0.6,0.2,1.5,0.2,2c0.1,0.7,0.1,1.3,0.2,1.9c0,0.6,0,1-0.1,1.2
	c0,0.2,0,0,0.3-0.4L47.2,29.6z M56.7,18.2l5-0.4l0,0l0,0L56.7,18.2z M53.5,18.5l5-0.4l0,0l0,0L53.5,18.5z M53.5,25.1l-4.6-1.9l0,0
	l0,0L53.5,25.1z M47.9,25.3l3.7-3.4l0,0l0,0L47.9,25.3z M52,14.8l1.6,4.7l0,0L52,14.8z M51,13.2l-0.3-5l0,0l0,0L51,13.2z M48.1,11
	l-4.4-2.3l0,0l0,0L48.1,11z M50.5,8.9L51.3,4l0,0l0,0L50.5,8.9z M51.8,10.6L56,7.9l0-0.1l0-0.1L51.8,10.6z M53,13.3h5v-0.7l-0.2-0.7
	L53,13.3z M55.3,13.9L54.1,9l-0.1,0l-0.1,0L55.3,13.9z M56.3,13l-5-0.1l0,0.9l0.3,0.8L56.3,13z M56.7,7.3l4.9,0.9l0,0l0,0L56.7,7.3z
	 M53.5,7.1l-4.9-0.9l0,0.1l0,0.1L53.5,7.1z M53.3,8.3l-3.2,3.9l6.9,5.6L58.3,9L53.3,8.3z M45.7,9.7l-3.8-3.3l0,0l0,0L45.7,9.7z
	 M47.5,14.7l2.7,4.2l9.9-6.4L48.6,9.9L47.5,14.7z M43.5,20.7l5,0.7l0,0l0,0L43.5,20.7z M46.9,27.7l2.2-4.5l0,0l0,0L46.9,27.7z
	 M56.2,26.4l3.9,3.2l0,0l0,0L56.2,26.4z M61.7,17.7c-0.3-2.9-2.4-4.3-3.7-4.8c-1.2-0.5-2.5-0.6-3.4-0.5c-0.9,0.1-2.2,0.3-3.3,1.1
	c-1.2,0.7-3.1,2.5-2.8,5.5l10-1c0.2,2.3-1.3,3.6-1.9,4c-0.6,0.4-1,0.4-1.1,0.4c-0.1,0-0.5,0-1.1-0.2c-0.6-0.2-2.3-1.2-2.5-3.5
	L61.7,17.7z M48.5,18.9c0,0.6,0.1,1.3,0.2,1.8c0.1,0.6,0.1,1,0.2,1.5c0,0.5,0,0.8,0,1c0,0.2,0,0.2,0,0l9.3,3.8
	c0.8-2.1,0.8-4.2,0.7-5.5c-0.1-0.7-0.1-1.4-0.2-2c-0.1-0.6-0.1-1-0.2-1.4L48.5,18.9z M48.8,23.3c0.3-0.7,0.8-1.2,1.3-1.5
	c0.4-0.2,0.8-0.2,0.8-0.2c0.1,0,0.2,0,0.2,0c0,0,0.2,0.1,0.4,0.3l-7.3,6.8c1.8,2,4.4,2.9,6.7,2.9c2.2,0,5.7-1,7.2-4.6L48.8,23.3z
	 M51.6,21.9C51.5,21.7,51.5,21.7,51.6,21.9c-0.1,0-0.1-0.2,0.1-0.5s0.5-0.8,0.9-1.1c0.4-0.4,0.8-0.6,1-0.7l-3.2-9.5
	c-3.3,1.1-6.2,3.7-7.7,6.9c-1.6,3.4-1.9,8,1.6,11.7L51.6,21.9z M53.6,19.6c0.8-0.3,2.9-1.1,3.8-3.5c1.1-2.8-0.5-5-1.2-5.8
	c-0.8-0.9-1.8-1.3-2.5-1.6c-0.7-0.3-1.8-0.5-2.9-0.5l0.6,10c-0.6,0-1-0.1-1.2-0.2c-0.2-0.1-0.7-0.3-1.2-0.8
	c-0.4-0.4-1.8-2.2-0.9-4.7c0.4-1.1,1.1-1.7,1.5-2c0.4-0.3,0.8-0.4,0.9-0.5L53.6,19.6z M50.7,8.3c-0.4,0-0.6,0-0.7,0
	c-0.2,0,0,0,0.5,0.2c0.6,0.2,1.8,1,2.2,2.7c0.2,0.7,0.1,1.3,0.1,1.7c0,0.2-0.1,0.3-0.1,0.4c0,0.1-0.1,0.1-0.1,0.1l-8.9-4.6
	c-0.5,1-1.2,2.8-0.7,4.9c0.6,2.3,2.3,3.5,3.5,4.1c1.1,0.5,2.2,0.6,2.9,0.6c0.8,0,1.5,0,2,0L50.7,8.3z M52.5,13.3
	c-0.1,0.2-0.2,0.3-0.2,0.3c0,0.1-0.1,0.1-0.1,0.1c0,0,0,0,0,0C52.4,13.6,52.5,13.5,52.5,13.3c0.2-0.1,0.2-0.1,0.1,0
	c-0.1,0-0.3,0.2-0.6,0.3c-0.2,0.1-0.5,0.2-0.8,0.2c-0.4,0.1-0.9,0.1-1.6,0L51.3,4c-1.4-0.2-2.4,0.1-2.9,0.3c-0.5,0.2-1,0.5-1.2,0.6
	c-0.6,0.4-1.1,0.8-1.4,1.1c-0.4,0.4-0.7,0.7-1,1.1c-0.2,0.3-0.7,0.8-1,1.5L52.5,13.3z M49.6,13.9c-0.7-0.1-1.2-0.4-1.5-0.6
	c-0.3-0.2-0.5-0.4-0.7-0.5c-0.2-0.2-0.3-0.4-0.3-0.3c0,0,0.1,0.1,0.2,0.2c0,0,0.1,0.2,0.1,0.2c0.1,0.1,0.1,0.2,0.2,0.4L56,7.8
	c0,0,0,0-0.2-0.3c-0.1-0.2-0.3-0.5-0.5-0.8c-0.2-0.3-0.5-0.8-1-1.2c-0.4-0.4-1.4-1.3-3-1.5L49.6,13.9z M47.6,13.2
	c0.2,0.4,0.5,0.9,0.6,1.4l9.6-2.8c-0.4-1.3-1-2.7-1.8-4L47.6,13.2z M48,13.3c0,1.9,0.9,3.4,2,4.3c1,0.8,2,1.1,2.7,1.3
	c1.4,0.3,2.8,0.2,4.1-0.2l-3-9.5c0.3-0.1,0.6-0.1,1.1,0c0.2,0.1,0.9,0.2,1.5,0.8c0.8,0.7,1.6,1.9,1.6,3.4H48z M56.5,18.8
	c0.7-0.2,1.8-0.6,2.9-1.5c1.2-1.1,2.5-3.3,1.6-5.9l-9.5,3.2c-0.3-0.9-0.3-1.9,0-2.9c0.3-0.9,0.8-1.5,1.2-1.8C53.4,9.2,54,9.1,54.1,9
	L56.5,18.8z M61.3,13.1c0-1.8,0.1-3.7,0.3-4.9l-9.8-1.9c-0.4,2.1-0.5,4.8-0.5,6.5L61.3,13.1z M61.6,8.1c0.2-1.2,0.1-2.4-0.5-3.6
	c-0.6-1.1-1.4-1.8-2.1-2.3c-1.3-0.8-2.7-1-3.6-1c-1,0-2.1,0.1-3.2,0.6c-0.9,0.4-3,1.6-3.6,4.3L58.4,8c-0.4,2.1-2,2.9-2.3,3
	c-0.4,0.2-0.8,0.2-0.9,0.2c-0.1,0-0.7,0-1.5-0.5c-0.4-0.3-1.1-0.8-1.5-1.6c-0.5-0.9-0.6-1.9-0.4-2.7L61.6,8.1z M48.6,6.3
	c-0.1,0.4-0.1,0.9-0.2,1.3L58.3,9c0.1-0.4,0.1-0.8,0.2-1.2L48.6,6.3z M56.5,4.4c-1.9-1.6-4.5-2.6-7.5-2.2c-2.9,0.4-5.3,2-7.1,4.2
	l7.6,6.5c0.8-0.9,1.1-0.9,0.9-0.8c-0.1,0-0.2,0-0.3,0c-0.1,0,0,0,0.1,0.1L56.5,4.4z M41.9,6.5c-1.7,2-3.5,5.5-1.5,9.1
	c1.6,2.8,4.6,3.7,6,4l2.2-9.7c-0.3-0.1-0.4-0.1-0.4-0.1c0,0,0.5,0.3,0.9,0.9c0.2,0.3,0.3,0.8,0.4,1.2c0.1,0.4,0,0.8-0.1,1
	c-0.1,0.4-0.2,0.5,0.1,0.1L41.9,6.5z M44.8,10.6c-3,2-5.6,5.1-6.2,9.5l9.9,1.4c0.1-0.9,0.6-1.8,1.8-2.5L44.8,10.6z M38.6,20
	c-0.6,4.4,1.1,9.7,6.1,12.1l4.3-9c-0.2-0.1-0.3-0.2-0.4-0.5c-0.1-0.3-0.2-0.8-0.2-1.2L38.6,20z M44.7,32.2c2.3,1.1,5.3,1.3,7.6,1.1
	c1.3-0.1,2.6-0.4,3.9-0.9c1.2-0.5,2.7-1.3,3.9-2.7l-7.7-6.4c0.3-0.4,0.5-0.4,0.2-0.3c-0.3,0.1-0.7,0.2-1.3,0.3
	c-0.6,0.1-1.1,0.1-1.6,0c-0.5-0.1-0.7-0.2-0.6-0.1L44.7,32.2z M60.1,29.6c1.1-1.4,1.6-2.9,1.8-4c0.2-1.2,0.2-2.4,0.2-3.3
	c-0.1-1.7-0.4-4.1-0.4-4.5l-10,0.9c0.1,0.6,0.2,1.5,0.2,2c0.1,0.7,0.1,1.3,0.2,1.9c0,0.6,0,1-0.1,1.2c0,0.2,0,0,0.3-0.4L60.1,29.6z
	 M70.1,6.3l5,0l0,0v0H70.1z M66.9,6.6l-5-0.1l0,0.1v0.1H66.9z M66.5,22.6l-4.7,1.6l9.7-1.3L66.5,22.6z M60,7.1l-4.7,1.6L55.4,9
	l0.2,0.3L60,7.1z M56.8,7.3l-4.9-1.2l-0.1,0.6v0.6H56.8z M56.8,7.5h-5v0.2l0,0.2L56.8,7.5z M56.8,26.9l5,0.7l0-0.1l0-0.1L56.8,26.9z
	 M60,26.6L55,26l0,0.1l0,0.1L60,26.6z M60.5,15.5l4.6-2l-9.6,2L60.5,15.5z M66,32.8l5,0.6l0.1-0.8l-0.2-0.8L66,32.8z M67.4,33.5
	l0.2-5l-0.2,0l-0.2,0L67.4,33.5z M69.2,32.5l-5-0.3l-0.1,0.7l0.2,0.7L69.2,32.5z M75.1,6.3c0-3.1-2.3-4.7-3.6-5.2
	c-1.2-0.5-2.5-0.6-3.4-0.5c-0.9,0.1-2.1,0.3-3.3,1c-1.1,0.7-2.9,2.2-3,4.9l10,0.2c0,2.1-1.4,3.1-1.9,3.4c-0.5,0.3-0.9,0.4-1.1,0.4
	c-0.1,0-0.6,0-1.2-0.2c-0.3-0.1-1-0.5-1.5-1.1c-0.6-0.7-1-1.7-1-2.8H75.1z M61.9,6.6c0,5.2-0.1,10.5-0.4,15.7l10,0.5
	c0.2-5.4,0.4-10.8,0.4-16.2H61.9z M71.3,21C69.4,15.4,67,9.9,64.4,4.8l-8.9,4.5c2.4,4.8,4.6,9.7,6.3,14.8L71.3,21z M64.7,5.5
	C63.9,3.1,62,2.2,61,1.8c-1.1-0.4-2.2-0.4-3-0.4c-0.9,0.1-1.9,0.3-2.9,0.8c-0.9,0.4-2.6,1.6-3.1,3.9l9.7,2.4c-0.4,1.8-1.7,2.5-2,2.7
	c-0.4,0.2-0.7,0.3-0.9,0.3c-0.1,0-0.5,0-1-0.1c-0.4-0.1-1.9-0.8-2.5-2.6L64.7,5.5z M51.8,7.3C51.8,7.3,51.8,7.3,51.8,7.3
	C51.8,7.3,51.8,7.3,51.8,7.3C51.8,7.3,51.8,7.3,51.8,7.3C51.8,7.3,51.8,7.3,51.8,7.3C51.8,7.3,51.8,7.3,51.8,7.3
	C51.8,7.3,51.8,7.3,51.8,7.3C51.8,7.3,51.8,7.3,51.8,7.3C51.8,7.3,51.8,7.3,51.8,7.3C51.8,7.3,51.8,7.3,51.8,7.3
	C51.8,7.3,51.8,7.3,51.8,7.3C51.8,7.3,51.8,7.3,51.8,7.3C51.8,7.3,51.8,7.3,51.8,7.3C51.8,7.3,51.8,7.3,51.8,7.3
	C51.8,7.3,51.8,7.3,51.8,7.3C51.8,7.3,51.8,7.3,51.8,7.3C51.8,7.3,51.8,7.3,51.8,7.3C51.8,7.3,51.8,7.3,51.8,7.3
	C51.8,7.3,51.8,7.3,51.8,7.3C51.8,7.3,51.8,7.3,51.8,7.3C51.8,7.3,51.8,7.3,51.8,7.3C51.8,7.3,51.8,7.3,51.8,7.3
	C51.8,7.3,51.8,7.3,51.8,7.3C51.8,7.3,51.8,7.3,51.8,7.3C51.8,7.3,51.8,7.3,51.8,7.3C51.8,7.3,51.8,7.3,51.8,7.3
	C51.8,7.3,51.8,7.3,51.8,7.3C51.8,7.3,51.8,7.3,51.8,7.3C51.8,7.3,51.8,7.3,51.8,7.3C51.8,7.3,51.8,7.3,51.8,7.3
	C51.8,7.3,51.8,7.3,51.8,7.3C51.8,7.3,51.8,7.3,51.8,7.3C51.8,7.3,51.8,7.3,51.8,7.3C51.8,7.3,51.8,7.3,51.8,7.3
	C51.8,7.3,51.8,7.3,51.8,7.3C51.8,7.3,51.8,7.3,51.8,7.3C51.8,7.3,51.8,7.3,51.8,7.3C51.8,7.3,51.8,7.3,51.8,7.3
	C51.8,7.3,51.8,7.3,51.8,7.3C51.8,7.3,51.8,7.3,51.8,7.3C51.8,7.3,51.8,7.3,51.8,7.3C51.8,7.3,51.8,7.3,51.8,7.3
	C51.8,7.3,51.8,7.3,51.8,7.3C51.8,7.3,51.8,7.3,51.8,7.3C51.8,7.3,51.8,7.3,51.8,7.3C51.8,7.3,51.8,7.3,51.8,7.3
	C51.8,7.3,51.8,7.3,51.8,7.3C51.8,7.3,51.8,7.3,51.8,7.3C51.8,7.3,51.8,7.3,51.8,7.3C51.8,7.3,51.8,7.3,51.8,7.3
	C51.8,7.3,51.8,7.3,51.8,7.3C51.8,7.3,51.8,7.3,51.8,7.3C51.8,7.3,51.8,7.3,51.8,7.3C51.8,7.3,51.8,7.3,51.8,7.3
	C51.8,7.3,51.8,7.3,51.8,7.3C51.8,7.3,51.8,7.3,51.8,7.3C51.8,7.3,51.8,7.3,51.8,7.3C51.8,7.3,51.8,7.3,51.8,7.3
	C51.8,7.3,51.8,7.3,51.8,7.3C51.8,7.3,51.8,7.3,51.8,7.3C51.8,7.3,51.8,7.3,51.8,7.3C51.8,7.3,51.8,7.3,51.8,7.3
	C51.8,7.3,51.8,7.3,51.8,7.3C51.8,7.3,51.8,7.3,51.8,7.3C51.8,7.3,51.8,7.3,51.8,7.3C51.8,7.3,51.8,7.3,51.8,7.3
	C51.8,7.3,51.8,7.3,51.8,7.3C51.8,7.3,51.8,7.3,51.8,7.3C51.8,7.3,51.8,7.3,51.8,7.3C51.8,7.3,51.8,7.3,51.8,7.3
	C51.8,7.3,51.8,7.3,51.8,7.3C51.8,7.3,51.8,7.3,51.8,7.3C51.8,7.3,51.8,7.3,51.8,7.3C51.8,7.3,51.8,7.3,51.8,7.3
	C51.8,7.3,51.8,7.3,51.8,7.3C51.8,7.3,51.8,7.3,51.8,7.3C51.8,7.3,51.8,7.3,51.8,7.3C51.8,7.3,51.8,7.3,51.8,7.3
	C51.8,7.3,51.8,7.3,51.8,7.3C51.8,7.3,51.8,7.3,51.8,7.3C51.8,7.3,51.8,7.3,51.8,7.3C51.8,7.3,51.8,7.3,51.8,7.3
	C51.8,7.3,51.8,7.3,51.8,7.3C51.8,7.3,51.8,7.3,51.8,7.3C51.8,7.3,51.8,7.3,51.8,7.3C51.8,7.3,51.8,7.3,51.8,7.3
	C51.8,7.3,51.8,7.3,51.8,7.3C51.8,7.3,51.8,7.3,51.8,7.3C51.8,7.3,51.8,7.3,51.8,7.3C51.8,7.3,51.8,7.3,51.8,7.3
	C51.8,7.3,51.8,7.3,51.8,7.3C51.8,7.3,51.8,7.3,51.8,7.3C51.8,7.3,51.8,7.3,51.8,7.3C51.8,7.3,51.8,7.3,51.8,7.3
	C51.8,7.3,51.8,7.3,51.8,7.3C51.8,7.3,51.8,7.3,51.8,7.3C51.8,7.3,51.8,7.3,51.8,7.3C51.8,7.3,51.8,7.3,51.8,7.3
	C51.8,7.3,51.8,7.3,51.8,7.3C51.8,7.3,51.8,7.3,51.8,7.3C51.8,7.3,51.8,7.3,51.8,7.3C51.8,7.3,51.8,7.3,51.8,7.3
	C51.8,7.3,51.8,7.3,51.8,7.3C51.8,7.3,51.8,7.3,51.8,7.3C51.8,7.3,51.8,7.3,51.8,7.3C51.8,7.3,51.8,7.3,51.8,7.3
	C51.8,7.3,51.8,7.3,51.8,7.3C51.8,7.3,51.8,7.3,51.8,7.3C51.8,7.3,51.8,7.3,51.8,7.3C51.8,7.3,51.8,7.3,51.8,7.3
	C51.8,7.3,51.8,7.3,51.8,7.3C51.8,7.3,51.8,7.3,51.8,7.3C51.8,7.3,51.8,7.3,51.8,7.3C51.8,7.3,51.8,7.3,51.8,7.3
	C51.8,7.3,51.8,7.3,51.8,7.3C51.8,7.4,51.8,7.4,51.8,7.3C51.8,7.4,51.8,7.4,51.8,7.3C51.8,7.4,51.8,7.4,51.8,7.3
	C51.8,7.4,51.8,7.4,51.8,7.3C51.8,7.4,51.8,7.4,51.8,7.3C51.8,7.4,51.8,7.4,51.8,7.3C51.8,7.4,51.8,7.4,51.8,7.3
	C51.8,7.4,51.8,7.4,51.8,7.3C51.8,7.4,51.8,7.4,51.8,7.3C51.8,7.4,51.8,7.4,51.8,7.3C51.8,7.4,51.8,7.4,51.8,7.3
	C51.8,7.4,51.8,7.4,51.8,7.3C51.8,7.4,51.8,7.4,51.8,7.3C51.8,7.4,51.8,7.4,51.8,7.3C51.8,7.4,51.8,7.4,51.8,7.3
	C51.8,7.4,51.8,7.4,51.8,7.3C51.8,7.4,51.8,7.4,51.8,7.3C51.8,7.4,51.8,7.4,51.8,7.3C51.8,7.4,51.8,7.4,51.8,7.3
	C51.8,7.4,51.8,7.4,51.8,7.3C51.8,7.4,51.8,7.4,51.8,7.3C51.8,7.4,51.8,7.4,51.8,7.3C51.8,7.4,51.8,7.4,51.8,7.3
	C51.8,7.4,51.8,7.4,51.8,7.3C51.8,7.4,51.8,7.4,51.8,7.3C51.8,7.4,51.8,7.4,51.8,7.3C51.8,7.4,51.8,7.4,51.8,7.3
	C51.8,7.4,51.8,7.4,51.8,7.3C51.8,7.4,51.8,7.4,51.8,7.3C51.8,7.4,51.8,7.4,51.8,7.3C51.8,7.4,51.8,7.4,51.8,7.3
	C51.8,7.4,51.8,7.4,51.8,7.3C51.8,7.4,51.8,7.4,51.8,7.3C51.8,7.4,51.8,7.4,51.8,7.3C51.8,7.4,51.8,7.4,51.8,7.3
	C51.8,7.4,51.8,7.4,51.8,7.3C51.8,7.4,51.8,7.4,51.8,7.3C51.8,7.4,51.8,7.4,51.8,7.3C51.8,7.4,51.8,7.4,51.8,7.3
	C51.8,7.4,51.8,7.4,51.8,7.3C51.8,7.4,51.8,7.4,51.8,7.3C51.8,7.4,51.8,7.4,51.8,7.3C51.8,7.4,51.8,7.4,51.8,7.3
	C51.8,7.4,51.8,7.4,51.8,7.3C51.8,7.4,51.8,7.4,51.8,7.3C51.8,7.4,51.8,7.4,51.8,7.3C51.8,7.4,51.8,7.4,51.8,7.3
	C51.8,7.4,51.8,7.4,51.8,7.3C51.8,7.4,51.8,7.4,51.8,7.3C51.8,7.4,51.8,7.4,51.8,7.3C51.8,7.4,51.8,7.4,51.8,7.3
	C51.8,7.4,51.8,7.4,51.8,7.3C51.8,7.4,51.8,7.4,51.8,7.3C51.8,7.4,51.8,7.4,51.8,7.3C51.8,7.4,51.8,7.4,51.8,7.3
	C51.8,7.4,51.8,7.4,51.8,7.3C51.8,7.4,51.8,7.4,51.8,7.3C51.8,7.4,51.8,7.4,51.8,7.3C51.8,7.4,51.8,7.4,51.8,7.3
	C51.8,7.4,51.8,7.4,51.8,7.3C51.8,7.4,51.8,7.4,51.8,7.3C51.8,7.4,51.8,7.4,51.8,7.3C51.8,7.4,51.8,7.4,51.8,7.3
	C51.8,7.4,51.8,7.4,51.8,7.3C51.8,7.4,51.8,7.4,51.8,7.3C51.8,7.4,51.8,7.4,51.8,7.3C51.8,7.4,51.8,7.4,51.8,7.3
	C51.8,7.4,51.8,7.4,51.8,7.3C51.8,7.4,51.8,7.4,51.8,7.3C51.8,7.4,51.8,7.4,51.8,7.3C51.8,7.4,51.8,7.4,51.8,7.3
	C51.8,7.4,51.8,7.4,51.8,7.3C51.8,7.4,51.8,7.4,51.8,7.3C51.8,7.4,51.8,7.4,51.8,7.3C51.8,7.4,51.8,7.4,51.8,7.3
	C51.8,7.4,51.8,7.4,51.8,7.3C51.8,7.4,51.8,7.4,51.8,7.3C51.8,7.4,51.8,7.4,51.8,7.3C51.8,7.4,51.8,7.4,51.8,7.3
	C51.8,7.4,51.8,7.4,51.8,7.3C51.8,7.4,51.8,7.4,51.8,7.3C51.8,7.4,51.8,7.4,51.8,7.3C51.8,7.4,51.8,7.4,51.8,7.3
	C51.8,7.4,51.8,7.4,51.8,7.3C51.8,7.4,51.8,7.4,51.8,7.3C51.8,7.4,51.8,7.4,51.8,7.3C51.8,7.4,51.8,7.4,51.8,7.3
	C51.8,7.4,51.8,7.4,51.8,7.3C51.8,7.4,51.8,7.4,51.8,7.3C51.8,7.4,51.8,7.4,51.8,7.3C51.8,7.4,51.8,7.4,51.8,7.3
	C51.8,7.4,51.8,7.4,51.8,7.3C51.8,7.4,51.8,7.4,51.8,7.3C51.8,7.4,51.8,7.4,51.8,7.3C51.8,7.4,51.8,7.4,51.8,7.3
	C51.8,7.4,51.8,7.4,51.8,7.3C51.8,7.4,51.8,7.4,51.8,7.3C51.8,7.4,51.8,7.4,51.8,7.3C51.8,7.4,51.8,7.4,51.8,7.3
	C51.8,7.4,51.8,7.4,51.8,7.3C51.8,7.4,51.8,7.4,51.8,7.3C51.8,7.4,51.8,7.4,51.8,7.3C51.8,7.4,51.8,7.4,51.8,7.3
	C51.8,7.4,51.8,7.4,51.8,7.3C51.8,7.4,51.8,7.4,51.8,7.3C51.8,7.4,51.8,7.4,51.8,7.3C51.8,7.4,51.8,7.4,51.8,7.3
	C51.8,7.4,51.8,7.4,51.8,7.3C51.8,7.4,51.8,7.4,51.8,7.3C51.8,7.4,51.8,7.4,51.8,7.3C51.8,7.4,51.8,7.4,51.8,7.3
	C51.8,7.4,51.8,7.4,51.8,7.3C51.8,7.4,51.8,7.4,51.8,7.3C51.8,7.4,51.8,7.4,51.8,7.3C51.8,7.4,51.8,7.4,51.8,7.3
	C51.8,7.4,51.8,7.4,51.8,7.3C51.8,7.4,51.8,7.4,51.8,7.3C51.8,7.4,51.8,7.4,51.8,7.3C51.8,7.4,51.8,7.4,51.8,7.3
	C51.8,7.4,51.8,7.4,51.8,7.3C51.8,7.4,51.8,7.4,51.8,7.3C51.8,7.4,51.8,7.4,51.8,7.3C51.8,7.4,51.8,7.4,51.8,7.3
	C51.8,7.4,51.8,7.4,51.8,7.3C51.8,7.4,51.8,7.4,51.8,7.3C51.8,7.4,51.8,7.4,51.8,7.3C51.8,7.4,51.8,7.4,51.8,7.3
	C51.8,7.4,51.8,7.4,51.8,7.3C51.8,7.4,51.8,7.4,51.8,7.3C51.8,7.4,51.8,7.4,51.8,7.3C51.8,7.4,51.8,7.4,51.8,7.3
	C51.8,7.4,51.8,7.4,51.8,7.3C51.8,7.4,51.8,7.4,51.8,7.3C51.8,7.4,51.8,7.4,51.8,7.3C51.8,7.4,51.8,7.4,51.8,7.3
	C51.8,7.4,51.8,7.4,51.8,7.3C51.8,7.4,51.8,7.4,51.8,7.3C51.8,7.4,51.8,7.4,51.8,7.3C51.8,7.4,51.8,7.4,51.8,7.3
	C51.8,7.4,51.8,7.4,51.8,7.3C51.8,7.4,51.8,7.4,51.8,7.3C51.8,7.4,51.8,7.4,51.8,7.3C51.8,7.4,51.8,7.4,51.8,7.3
	C51.8,7.4,51.8,7.4,51.8,7.3C51.8,7.4,51.8,7.4,51.8,7.3C51.8,7.4,51.8,7.4,51.8,7.3C51.8,7.4,51.8,7.4,51.8,7.3
	C51.8,7.4,51.8,7.4,51.8,7.3C51.8,7.4,51.8,7.4,51.8,7.3C51.8,7.4,51.8,7.4,51.8,7.3C51.8,7.4,51.8,7.4,51.8,7.3
	C51.8,7.4,51.8,7.4,51.8,7.3C51.8,7.4,51.8,7.4,51.8,7.3C51.8,7.4,51.8,7.4,51.8,7.3C51.8,7.4,51.8,7.4,51.8,7.3
	C51.8,7.4,51.8,7.4,51.8,7.3C51.8,7.4,51.8,7.4,51.8,7.3C51.8,7.4,51.8,7.4,51.8,7.3C51.8,7.4,51.8,7.4,51.8,7.3
	C51.8,7.4,51.8,7.4,51.8,7.3C51.8,7.4,51.8,7.4,51.8,7.3C51.8,7.4,51.8,7.4,51.8,7.3C51.8,7.4,51.8,7.4,51.8,7.3
	C51.8,7.4,51.8,7.4,51.8,7.3C51.8,7.4,51.8,7.4,51.8,7.3C51.8,7.4,51.8,7.4,51.8,7.3C51.8,7.4,51.8,7.4,51.8,7.3
	C51.8,7.4,51.8,7.4,51.8,7.3C51.8,7.4,51.8,7.4,51.8,7.3C51.8,7.4,51.8,7.4,51.8,7.3C51.8,7.4,51.8,7.4,51.8,7.3
	C51.8,7.4,51.8,7.4,51.8,7.3C51.8,7.4,51.8,7.4,51.8,7.3C51.8,7.4,51.8,7.4,51.8,7.3C51.8,7.4,51.8,7.4,51.8,7.3
	C51.8,7.4,51.8,7.4,51.8,7.3C51.8,7.4,51.8,7.4,51.8,7.3C51.8,7.4,51.8,7.4,51.8,7.3C51.8,7.4,51.8,7.4,51.8,7.3
	C51.8,7.4,51.8,7.4,51.8,7.3C51.8,7.4,51.8,7.4,51.8,7.3C51.8,7.4,51.8,7.4,51.8,7.3C51.8,7.4,51.8,7.4,51.8,7.3
	C51.8,7.4,51.8,7.4,51.8,7.3C51.8,7.4,51.8,7.4,51.8,7.3C51.8,7.4,51.8,7.4,51.8,7.3C51.8,7.4,51.8,7.4,51.8,7.3
	C51.8,7.4,51.8,7.4,51.8,7.3C51.8,7.4,51.8,7.4,51.8,7.3C51.8,7.4,51.8,7.4,51.8,7.3C51.8,7.4,51.8,7.4,51.8,7.3
	C51.8,7.4,51.8,7.4,51.8,7.3C51.8,7.4,51.8,7.4,51.8,7.3C51.8,7.4,51.8,7.4,51.8,7.3C51.8,7.4,51.8,7.4,51.8,7.3
	C51.8,7.4,51.8,7.4,51.8,7.3C51.8,7.4,51.8,7.4,51.8,7.3C51.8,7.4,51.8,7.4,51.8,7.3C51.8,7.4,51.8,7.4,51.8,7.3
	C51.8,7.4,51.8,7.4,51.8,7.3C51.8,7.4,51.8,7.4,51.8,7.3C51.8,7.4,51.8,7.4,51.8,7.3C51.8,7.4,51.8,7.4,51.8,7.3
	C51.8,7.4,51.8,7.4,51.8,7.3C51.8,7.4,51.8,7.4,51.8,7.3C51.8,7.4,51.8,7.4,51.8,7.3C51.8,7.4,51.8,7.4,51.8,7.3
	C51.8,7.4,51.8,7.4,51.8,7.3C51.8,7.4,51.8,7.4,51.8,7.3C51.8,7.4,51.8,7.4,51.8,7.3C51.8,7.4,51.8,7.4,51.8,7.3
	C51.8,7.4,51.8,7.4,51.8,7.3C51.8,7.4,51.8,7.4,51.8,7.3C51.8,7.4,51.8,7.4,51.8,7.3C51.8,7.4,51.8,7.4,51.8,7.3
	C51.8,7.4,51.8,7.4,51.8,7.3C51.8,7.4,51.8,7.4,51.8,7.3C51.8,7.4,51.8,7.4,51.8,7.3C51.8,7.4,51.8,7.4,51.8,7.3
	C51.8,7.4,51.8,7.4,51.8,7.3C51.8,7.4,51.8,7.4,51.8,7.3C51.8,7.4,51.8,7.4,51.8,7.3C51.8,7.4,51.8,7.4,51.8,7.3
	C51.8,7.4,51.8,7.4,51.8,7.3C51.8,7.4,51.8,7.4,51.8,7.3C51.8,7.4,51.8,7.4,51.8,7.3C51.8,7.4,51.8,7.4,51.8,7.3
	C51.8,7.4,51.8,7.4,51.8,7.3C51.8,7.4,51.8,7.4,51.8,7.3C51.8,7.4,51.8,7.4,51.8,7.3C51.8,7.4,51.8,7.4,51.8,7.3
	C51.8,7.4,51.8,7.4,51.8,7.3C51.8,7.4,51.8,7.4,51.8,7.3C51.8,7.4,51.8,7.4,51.8,7.3C51.8,7.4,51.8,7.4,51.8,7.3
	C51.8,7.4,51.8,7.4,51.8,7.3C51.8,7.4,51.8,7.4,51.8,7.3C51.8,7.4,51.8,7.4,51.8,7.3C51.8,7.4,51.8,7.4,51.8,7.3
	C51.8,7.4,51.8,7.4,51.8,7.3C51.8,7.4,51.8,7.4,51.8,7.3C51.8,7.4,51.8,7.4,51.8,7.3C51.8,7.4,51.8,7.4,51.8,7.3
	C51.8,7.4,51.8,7.4,51.8,7.3C51.8,7.4,51.8,7.4,51.8,7.3C51.8,7.4,51.8,7.4,51.8,7.3C51.8,7.4,51.8,7.4,51.8,7.3
	C51.8,7.4,51.8,7.4,51.8,7.3C51.8,7.4,51.8,7.4,51.8,7.3C51.8,7.4,51.8,7.4,51.8,7.3C51.8,7.4,51.8,7.4,51.8,7.3
	C51.8,7.4,51.8,7.4,51.8,7.3C51.8,7.4,51.8,7.4,51.8,7.3C51.8,7.4,51.8,7.4,51.8,7.3C51.8,7.4,51.8,7.4,51.8,7.3
	C51.8,7.4,51.8,7.4,51.8,7.3C51.8,7.4,51.8,7.4,51.8,7.3C51.8,7.4,51.8,7.4,51.8,7.3C51.8,7.4,51.8,7.4,51.8,7.3
	C51.8,7.4,51.8,7.4,51.8,7.3C51.8,7.4,51.8,7.4,51.8,7.3C51.8,7.4,51.8,7.4,51.8,7.3C51.8,7.4,51.8,7.4,51.8,7.3
	C51.8,7.4,51.8,7.4,51.8,7.3C51.8,7.4,51.8,7.4,51.8,7.3C51.8,7.4,51.8,7.4,51.8,7.3C51.8,7.4,51.8,7.4,51.8,7.3
	C51.8,7.4,51.8,7.4,51.8,7.3C51.8,7.4,51.8,7.4,51.8,7.3C51.8,7.4,51.8,7.4,51.8,7.3C51.8,7.4,51.8,7.4,51.8,7.3
	C51.8,7.4,51.8,7.4,51.8,7.3C51.8,7.4,51.8,7.4,51.8,7.3C51.8,7.4,51.8,7.4,51.8,7.3C51.8,7.4,51.8,7.4,51.8,7.3
	C51.8,7.4,51.8,7.4,51.8,7.3C51.8,7.4,51.8,7.4,51.8,7.3C51.8,7.4,51.8,7.4,51.8,7.3C51.8,7.4,51.8,7.4,51.8,7.3
	C51.8,7.4,51.8,7.4,51.8,7.3C51.8,7.4,51.8,7.4,51.8,7.3C51.8,7.4,51.8,7.4,51.8,7.3C51.8,7.4,51.8,7.4,51.8,7.3
	C51.8,7.4,51.8,7.4,51.8,7.3C51.8,7.4,51.8,7.4,51.8,7.3C51.8,7.4,51.8,7.4,51.8,7.3C51.8,7.4,51.8,7.4,51.8,7.3
	C51.8,7.4,51.8,7.4,51.8,7.3C51.8,7.4,51.8,7.4,51.8,7.3C51.8,7.4,51.8,7.4,51.8,7.3C51.8,7.4,51.8,7.4,51.8,7.3
	C51.8,7.4,51.8,7.4,51.8,7.3C51.8,7.4,51.8,7.4,51.8,7.3C51.8,7.4,51.8,7.4,51.8,7.3C51.8,7.4,51.8,7.4,51.8,7.3
	C51.8,7.4,51.8,7.4,51.8,7.3C51.8,7.4,51.8,7.4,51.8,7.3C51.8,7.4,51.8,7.4,51.8,7.3C51.8,7.4,51.8,7.4,51.8,7.3
	C51.8,7.4,51.8,7.4,51.8,7.3C51.8,7.4,51.8,7.4,51.8,7.3C51.8,7.4,51.8,7.4,51.8,7.3C51.8,7.4,51.8,7.4,51.8,7.3
	C51.8,7.4,51.8,7.4,51.8,7.3C51.8,7.4,51.8,7.4,51.8,7.3C51.8,7.4,51.8,7.4,51.8,7.3C51.8,7.4,51.8,7.4,51.8,7.3
	C51.8,7.4,51.8,7.4,51.8,7.3C51.8,7.4,51.8,7.4,51.8,7.3C51.8,7.4,51.8,7.4,51.8,7.3C51.8,7.4,51.8,7.4,51.8,7.3
	C51.8,7.4,51.8,7.4,51.8,7.3C51.8,7.4,51.8,7.4,51.8,7.3C51.8,7.4,51.8,7.4,51.8,7.3C51.8,7.4,51.8,7.4,51.8,7.3
	C51.8,7.4,51.8,7.4,51.8,7.3C51.8,7.4,51.8,7.4,51.8,7.3C51.8,7.4,51.8,7.4,51.8,7.3C51.8,7.4,51.8,7.4,51.8,7.3
	C51.8,7.4,51.8,7.4,51.8,7.3C51.8,7.4,51.8,7.4,51.8,7.3C51.8,7.4,51.8,7.4,51.8,7.3C51.8,7.4,51.8,7.4,51.8,7.3
	C51.8,7.4,51.8,7.4,51.8,7.3C51.8,7.4,51.8,7.4,51.8,7.3C51.8,7.4,51.8,7.4,51.8,7.3C51.8,7.4,51.8,7.4,51.8,7.3
	C51.8,7.4,51.8,7.4,51.8,7.3C51.8,7.4,51.8,7.4,51.8,7.3C51.8,7.4,51.8,7.4,51.8,7.3C51.8,7.4,51.8,7.4,51.8,7.3
	C51.8,7.4,51.8,7.4,51.8,7.3C51.8,7.4,51.8,7.4,51.8,7.3C51.8,7.4,51.8,7.4,51.8,7.3C51.8,7.4,51.8,7.4,51.8,7.3
	C51.8,7.4,51.8,7.4,51.8,7.3C51.8,7.4,51.8,7.4,51.8,7.3C51.8,7.4,51.8,7.4,51.8,7.3C51.8,7.4,51.8,7.4,51.8,7.3
	C51.8,7.4,51.8,7.4,51.8,7.3C51.8,7.4,51.8,7.4,51.8,7.3C51.8,7.4,51.8,7.4,51.8,7.3C51.8,7.4,51.8,7.4,51.8,7.3
	C51.8,7.4,51.8,7.4,51.8,7.3C51.8,7.4,51.8,7.4,51.8,7.3C51.8,7.4,51.8,7.4,51.8,7.3C51.8,7.4,51.8,7.4,51.8,7.3
	C51.8,7.4,51.8,7.4,51.8,7.3C51.8,7.4,51.8,7.4,51.8,7.3C51.8,7.4,51.8,7.4,51.8,7.3C51.8,7.4,51.8,7.4,51.8,7.3
	C51.8,7.4,51.8,7.4,51.8,7.3C51.8,7.4,51.8,7.4,51.8,7.3C51.8,7.4,51.8,7.4,51.8,7.3C51.8,7.4,51.8,7.4,51.8,7.3
	C51.8,7.4,51.8,7.4,51.8,7.3C51.8,7.4,51.8,7.4,51.8,7.3C51.8,7.4,51.8,7.4,51.8,7.3C51.8,7.4,51.8,7.4,51.8,7.3
	C51.8,7.4,51.8,7.4,51.8,7.3C51.8,7.4,51.8,7.4,51.8,7.3C51.8,7.4,51.8,7.4,51.8,7.3C51.8,7.4,51.8,7.4,51.8,7.3
	C51.8,7.4,51.8,7.4,51.8,7.3C51.8,7.4,51.8,7.4,51.8,7.3C51.8,7.4,51.8,7.4,51.8,7.3C51.8,7.4,51.8,7.4,51.8,7.3
	C51.8,7.4,51.8,7.4,51.8,7.3C51.8,7.4,51.8,7.4,51.8,7.3C51.8,7.4,51.8,7.4,51.8,7.3C51.8,7.4,51.8,7.4,51.8,7.3
	C51.8,7.4,51.8,7.4,51.8,7.3C51.8,7.4,51.8,7.4,51.8,7.3C51.8,7.4,51.8,7.4,51.8,7.3C51.8,7.4,51.8,7.4,51.8,7.3
	C51.8,7.4,51.8,7.4,51.8,7.3C51.8,7.4,51.8,7.4,51.8,7.3C51.8,7.4,51.8,7.4,51.8,7.3C51.8,7.4,51.8,7.4,51.8,7.3
	C51.8,7.4,51.8,7.4,51.8,7.3C51.8,7.4,51.8,7.4,51.8,7.3C51.8,7.4,51.8,7.4,51.8,7.3C51.8,7.4,51.8,7.4,51.8,7.3
	C51.8,7.4,51.8,7.4,51.8,7.3C51.8,7.4,51.8,7.4,51.8,7.3C51.8,7.4,51.8,7.4,51.8,7.3C51.8,7.4,51.8,7.4,51.8,7.3
	C51.8,7.4,51.8,7.4,51.8,7.3C51.8,7.4,51.8,7.4,51.8,7.3C51.8,7.4,51.8,7.4,51.8,7.3C51.8,7.4,51.8,7.4,51.8,7.3
	C51.8,7.4,51.8,7.4,51.8,7.3C51.8,7.4,51.8,7.4,51.8,7.3C51.8,7.4,51.8,7.4,51.8,7.3C51.8,7.4,51.8,7.4,51.8,7.3
	C51.8,7.4,51.8,7.4,51.8,7.3C51.8,7.4,51.8,7.4,51.8,7.3C51.8,7.4,51.8,7.4,51.8,7.3l10,0.1c0,0,0,0,0,0c0,0,0,0,0,0s0,0,0,0
	c0,0,0,0,0,0c0,0,0,0,0,0c0,0,0,0,0,0c0,0,0,0,0,0c0,0,0,0,0,0s0,0,0,0c0,0,0,0,0,0s0,0,0,0c0,0,0,0,0,0s0,0,0,0c0,0,0,0,0,0
	s0,0,0,0c0,0,0,0,0,0c0,0,0,0,0,0c0,0,0,0,0,0c0,0,0,0,0,0c0,0,0,0,0,0s0,0,0,0c0,0,0,0,0,0s0,0,0,0c0,0,0,0,0,0s0,0,0,0
	c0,0,0,0,0,0s0,0,0,0c0,0,0,0,0,0s0,0,0,0c0,0,0,0,0,0c0,0,0,0,0,0c0,0,0,0,0,0s0,0,0,0c0,0,0,0,0,0s0,0,0,0c0,0,0,0,0,0s0,0,0,0
	c0,0,0,0,0,0s0,0,0,0c0,0,0,0,0,0s0,0,0,0c0,0,0,0,0,0c0,0,0,0,0,0c0,0,0,0,0,0c0,0,0,0,0,0c0,0,0,0,0,0s0,0,0,0c0,0,0,0,0,0
	s0,0,0,0c0,0,0,0,0,0s0,0,0,0c0,0,0,0,0,0s0,0,0,0c0,0,0,0,0,0s0,0,0,0c0,0,0,0,0,0c0,0,0,0,0,0c0,0,0,0,0,0s0,0,0,0c0,0,0,0,0,0
	s0,0,0,0c0,0,0,0,0,0s0,0,0,0c0,0,0,0,0,0s0,0,0,0c0,0,0,0,0,0s0,0,0,0c0,0,0,0,0,0c0,0,0,0,0,0c0,0,0,0,0,0c0,0,0,0,0,0
	c0,0,0,0,0,0s0,0,0,0c0,0,0,0,0,0s0,0,0,0c0,0,0,0,0,0s0,0,0,0c0,0,0,0,0,0s0,0,0,0c0,0,0,0,0,0c0,0,0,0,0,0c0,0,0,0,0,0
	c0,0,0,0,0,0c0,0,0,0,0,0s0,0,0,0c0,0,0,0,0,0s0,0,0,0c0,0,0,0,0,0s0,0,0,0c0,0,0,0,0,0s0,0,0,0c0,0,0,0,0,0s0,0,0,0c0,0,0,0,0,0
	c0,0,0,0,0,0c0,0,0,0,0,0c0,0,0,0,0,0c0,0,0,0,0,0s0,0,0,0c0,0,0,0,0,0s0,0,0,0c0,0,0,0,0,0s0,0,0,0c0,0,0,0,0,0s0,0,0,0
	c0,0,0,0,0,0c0,0,0,0,0,0c0,0,0,0,0,0c0,0,0,0,0,0c0,0,0,0,0,0s0,0,0,0c0,0,0,0,0,0s0,0,0,0c0,0,0,0,0,0s0,0,0,0c0,0,0,0,0,0
	s0,0,0,0c0,0,0,0,0,0s0,0,0,0c0,0,0,0,0,0c0,0,0,0,0,0c0,0,0,0,0,0s0,0,0,0c0,0,0,0,0,0s0,0,0,0c0,0,0,0,0,0s0,0,0,0c0,0,0,0,0,0
	s0,0,0,0c0,0,0,0,0,0s0,0,0,0c0,0,0,0,0,0c0,0,0,0,0,0c0,0,0,0,0,0c0,0,0,0,0,0c0,0,0,0,0,0s0,0,0,0c0,0,0,0,0,0s0,0,0,0
	c0,0,0,0,0,0s0,0,0,0c0,0,0,0,0,0s0,0,0,0c0,0,0,0,0,0c0,0,0,0,0,0c0,0,0,0,0,0c0,0,0,0,0,0c0,0,0,0,0,0s0,0,0,0c0,0,0,0,0,0
	s0,0,0,0c0,0,0,0,0,0s0,0,0,0c0,0,0,0,0,0s0,0,0,0c0,0,0,0,0,0s0,0,0,0c0,0,0,0,0,0c0,0,0,0,0,0c0,0,0,0,0,0c0,0,0,0,0,0
	c0,0,0,0,0,0s0,0,0,0c0,0,0,0,0,0s0,0,0,0c0,0,0,0,0,0s0,0,0,0c0,0,0,0,0,0s0,0,0,0c0,0,0,0,0,0c0,0,0,0,0,0c0,0,0,0,0,0
	c0,0,0,0,0,0c0,0,0,0,0,0s0,0,0,0c0,0,0,0,0,0s0,0,0,0c0,0,0,0,0,0s0,0,0,0c0,0,0,0,0,0s0,0,0,0c0,0,0,0,0,0s0,0,0,0c0,0,0,0,0,0
	c0,0,0,0,0,0c0,0,0,0,0,0s0,0,0,0c0,0,0,0,0,0s0,0,0,0c0,0,0,0,0,0s0,0,0,0c0,0,0,0,0,0s0,0,0,0c0,0,0,0,0,0s0,0,0,0c0,0,0,0,0,0
	c0,0,0,0,0,0c0,0,0,0,0,0c0,0,0,0,0,0c0,0,0,0,0,0s0,0,0,0c0,0,0,0,0,0s0,0,0,0c0,0,0,0,0,0s0,0,0,0c0,0,0,0,0,0s0,0,0,0
	c0,0,0,0,0,0s0,0,0,0c0,0,0,0,0,0c0,0,0,0,0,0c0,0,0,0,0,0s0,0,0,0c0,0,0,0,0,0s0,0,0,0c0,0,0,0,0,0s0,0,0,0c0,0,0,0,0,0s0,0,0,0
	c0,0,0,0,0,0s0,0,0,0c0,0,0,0,0,0c0,0,0,0,0,0c0,0,0,0,0,0c0,0,0,0,0,0c0,0,0,0,0,0s0,0,0,0c0,0,0,0,0,0s0,0,0,0c0,0,0,0,0,0
	s0,0,0,0c0,0,0,0,0,0s0,0,0,0c0,0,0,0,0,0c0,0,0,0,0,0c0,0,0,0,0,0c0,0,0,0,0,0c0,0,0,0,0,0s0,0,0,0c0,0,0,0,0,0s0,0,0,0
	c0,0,0,0,0,0s0,0,0,0c0,0,0,0,0,0s0,0,0,0c0,0,0,0,0,0s0,0,0,0c0,0,0,0,0,0c0,0,0,0,0,0c0,0,0,0,0,0c0,0,0,0,0,0c0,0,0,0,0,0
	s0,0,0,0c0,0,0,0,0,0s0,0,0,0c0,0,0,0,0,0s0,0,0,0c0,0,0,0,0,0s0,0,0,0c0,0,0,0,0,0c0,0,0,0,0,0c0,0,0,0,0,0c0,0,0,0,0,0
	c0,0,0,0,0,0s0,0,0,0c0,0,0,0,0,0s0,0,0,0c0,0,0,0,0,0s0,0,0,0c0,0,0,0,0,0s0,0,0,0c0,0,0,0,0,0s0,0,0,0c0,0,0,0,0,0c0,0,0,0,0,0
	c0,0,0,0,0,0s0,0,0,0c0,0,0,0,0,0s0,0,0,0c0,0,0,0,0,0s0,0,0,0c0,0,0,0,0,0s0,0,0,0c0,0,0,0,0,0s0,0,0,0c0,0,0,0,0,0c0,0,0,0,0,0
	c0,0,0,0,0,0c0,0,0,0,0,0c0,0,0,0,0,0s0,0,0,0c0,0,0,0,0,0s0,0,0,0c0,0,0,0,0,0s0,0,0,0c0,0,0,0,0,0s0,0,0,0c0,0,0,0,0,0s0,0,0,0
	c0,0,0,0,0,0c0,0,0,0,0,0c0,0,0,0,0,0s0,0,0,0c0,0,0,0,0,0s0,0,0,0c0,0,0,0,0,0s0,0,0,0c0,0,0,0,0,0s0,0,0,0c0,0,0,0,0,0s0,0,0,0
	c0,0,0,0,0,0c0,0,0,0,0,0c0,0,0,0,0,0c0,0,0,0,0,0c0,0,0,0,0,0s0,0,0,0c0,0,0,0,0,0s0,0,0,0c0,0,0,0,0,0s0,0,0,0c0,0,0,0,0,0
	s0,0,0,0c0,0,0,0,0,0c0,0,0,0,0,0c0,0,0,0,0,0c0,0,0,0,0,0c0,0,0,0,0,0s0,0,0,0c0,0,0,0,0,0s0,0,0,0c0,0,0,0,0,0s0,0,0,0
	c0,0,0,0,0,0s0,0,0,0c0,0,0,0,0,0s0,0,0,0c0,0,0,0,0,0c0,0,0,0,0,0c0,0,0,0,0,0c0,0,0,0,0,0c0,0,0,0,0,0s0,0,0,0c0,0,0,0,0,0
	s0,0,0,0c0,0,0,0,0,0s0,0,0,0c0,0,0,0,0,0s0,0,0,0c0,0,0,0,0,0c0,0,0,0,0,0c0,0,0,0,0,0c0,0,0,0,0,0c0,0,0,0,0,0s0,0,0,0
	c0,0,0,0,0,0s0,0,0,0c0,0,0,0,0,0s0,0,0,0c0,0,0,0,0,0s0,0,0,0c0,0,0,0,0,0s0,0,0,0c0,0,0,0,0,0c0,0,0,0,0,0c0,0,0,0,0,0s0,0,0,0
	c0,0,0,0,0,0s0,0,0,0c0,0,0,0,0,0s0,0,0,0c0,0,0,0,0,0s0,0,0,0c0,0,0,0,0,0s0,0,0,0c0,0,0,0,0,0c0,0,0,0,0,0c0,0,0,0,0,0
	c0,0,0,0,0,0c0,0,0,0,0,0s0,0,0,0c0,0,0,0,0,0s0,0,0,0c0,0,0,0,0,0s0,0,0,0c0,0,0,0,0,0s0,0,0,0c0,0,0,0,0,0c0,0,0,0,0,0
	c0,0,0,0,0,0c0,0,0,0,0,0c0,0,0,0,0,0s0,0,0,0c0,0,0,0,0,0s0,0,0,0c0,0,0,0,0,0s0,0,0,0c0,0,0,0,0,0s0,0,0,0c0,0,0,0,0,0s0,0,0,0
	c0,0,0,0,0,0c0,0,0,0,0,0c0,0,0,0,0,0c0,0,0,0,0,0c0,0,0,0,0,0s0,0,0,0c0,0,0,0,0,0s0,0,0,0c0,0,0,0,0,0s0,0,0,0c0,0,0,0,0,0
	s0,0,0,0c0,0,0,0,0,0c0,0,0,0,0,0c0,0,0,0,0,0c0,0,0,0,0,0c0,0,0,0,0,0s0,0,0,0c0,0,0,0,0,0s0,0,0,0c0,0,0,0,0,0s0,0,0,0
	c0,0,0,0,0,0s0,0,0,0c0,0,0,0,0,0s0,0,0,0c0,0,0,0,0,0c0,0,0,0,0,0c0,0,0,0,0,0s0,0,0,0c0,0,0,0,0,0s0,0,0,0c0,0,0,0,0,0s0,0,0,0
	c0,0,0,0,0,0s0,0,0,0c0,0,0,0,0,0s0,0,0,0c0,0,0,0,0,0c0,0,0,0,0,0c0,0,0,0,0,0c0,0,0,0,0,0c0,0,0,0,0,0s0,0,0,0c0,0,0,0,0,0
	s0,0,0,0c0,0,0,0,0,0s0,0,0,0c0,0,0,0,0,0s0,0,0,0c0,0,0,0,0,0s0,0,0,0c0,0,0,0,0,0c0,0,0,0,0,0c0,0,0,0,0,0s0,0,0,0c0,0,0,0,0,0
	s0,0,0,0c0,0,0,0,0,0s0,0,0,0c0,0,0,0,0,0s0,0,0,0c0,0,0,0,0,0s0,0,0,0c0,0,0,0,0,0c0,0,0,0,0,0c0,0,0,0,0,0c0,0,0,0,0,0
	c0,0,0,0,0,0s0,0,0,0c0,0,0,0,0,0s0,0,0,0c0,0,0,0,0,0s0,0,0,0c0,0,0,0,0,0s0,0,0,0c0,0,0,0,0,0c0,0,0,0,0,0c0,0,0,0,0,0
	c0,0,0,0,0,0c0,0,0,0,0,0s0,0,0,0c0,0,0,0,0,0s0,0,0,0c0,0,0,0,0,0s0,0,0,0c0,0,0,0,0,0s0,0,0,0c0,0,0,0,0,0s0,0,0,0c0,0,0,0,0,0
	c0,0,0,0,0,0c0,0,0,0,0,0c0,0,0,0,0,0c0,0,0,0,0,0s0,0,0,0c0,0,0,0,0,0s0,0,0,0c0,0,0,0,0,0s0,0,0,0c0,0,0,0,0,0s0,0,0,0
	c0,0,0,0,0,0c0,0,0,0,0,0c0,0,0,0,0,0c0,0,0,0,0,0c0,0,0,0,0,0s0,0,0,0c0,0,0,0,0,0s0,0,0,0c0,0,0,0,0,0H51.8z M51.8,7.4
	C51.8,7.4,51.8,7.4,51.8,7.4C51.8,7.4,51.8,7.4,51.8,7.4C51.8,7.4,51.8,7.4,51.8,7.4C51.8,7.4,51.8,7.4,51.8,7.4
	C51.8,7.4,51.8,7.4,51.8,7.4C51.8,7.4,51.8,7.4,51.8,7.4C51.8,7.4,51.8,7.4,51.8,7.4C51.8,7.4,51.8,7.4,51.8,7.4
	C51.8,7.4,51.8,7.4,51.8,7.4C51.8,7.4,51.8,7.4,51.8,7.4C51.8,7.4,51.8,7.4,51.8,7.4C51.8,7.4,51.8,7.4,51.8,7.4
	C51.8,7.4,51.8,7.4,51.8,7.4C51.8,7.4,51.8,7.4,51.8,7.4C51.8,7.4,51.8,7.4,51.8,7.4C51.8,7.4,51.8,7.4,51.8,7.4
	C51.8,7.4,51.8,7.4,51.8,7.4C51.8,7.4,51.8,7.4,51.8,7.4C51.8,7.4,51.8,7.4,51.8,7.4C51.8,7.4,51.8,7.4,51.8,7.4
	C51.8,7.4,51.8,7.4,51.8,7.4C51.8,7.4,51.8,7.4,51.8,7.4C51.8,7.4,51.8,7.4,51.8,7.4C51.8,7.4,51.8,7.4,51.8,7.4
	C51.8,7.4,51.8,7.4,51.8,7.4C51.8,7.4,51.8,7.4,51.8,7.4C51.8,7.4,51.8,7.4,51.8,7.4C51.8,7.4,51.8,7.4,51.8,7.4
	C51.8,7.4,51.8,7.4,51.8,7.4C51.8,7.4,51.8,7.4,51.8,7.4C51.8,7.4,51.8,7.4,51.8,7.4C51.8,7.4,51.8,7.4,51.8,7.4
	C51.8,7.4,51.8,7.4,51.8,7.4C51.8,7.4,51.8,7.4,51.8,7.4C51.8,7.4,51.8,7.4,51.8,7.4C51.8,7.4,51.8,7.4,51.8,7.4
	C51.8,7.4,51.8,7.4,51.8,7.4C51.8,7.4,51.8,7.4,51.8,7.4C51.8,7.4,51.8,7.4,51.8,7.4C51.8,7.4,51.8,7.4,51.8,7.4
	C51.8,7.4,51.8,7.4,51.8,7.4C51.8,7.4,51.8,7.4,51.8,7.4C51.8,7.4,51.8,7.4,51.8,7.4C51.8,7.4,51.8,7.4,51.8,7.4
	C51.8,7.4,51.8,7.4,51.8,7.4C51.8,7.4,51.8,7.4,51.8,7.4C51.8,7.4,51.8,7.4,51.8,7.4C51.8,7.4,51.8,7.4,51.8,7.4
	C51.8,7.4,51.8,7.4,51.8,7.4C51.8,7.4,51.8,7.4,51.8,7.4C51.8,7.4,51.8,7.4,51.8,7.4C51.8,7.4,51.8,7.4,51.8,7.4
	C51.8,7.4,51.8,7.4,51.8,7.4C51.8,7.4,51.8,7.4,51.8,7.4C51.8,7.4,51.8,7.4,51.8,7.4C51.8,7.4,51.8,7.4,51.8,7.4
	C51.8,7.4,51.8,7.4,51.8,7.4C51.8,7.4,51.8,7.4,51.8,7.4C51.8,7.4,51.8,7.4,51.8,7.4C51.8,7.4,51.8,7.4,51.8,7.4
	C51.8,7.4,51.8,7.4,51.8,7.4C51.8,7.4,51.8,7.4,51.8,7.4C51.8,7.4,51.8,7.4,51.8,7.4C51.8,7.4,51.8,7.4,51.8,7.4
	C51.8,7.4,51.8,7.4,51.8,7.4C51.8,7.4,51.8,7.4,51.8,7.4C51.8,7.4,51.8,7.4,51.8,7.4C51.8,7.4,51.8,7.4,51.8,7.4
	C51.8,7.4,51.8,7.4,51.8,7.4C51.8,7.4,51.8,7.4,51.8,7.4C51.8,7.4,51.8,7.4,51.8,7.4C51.8,7.4,51.8,7.4,51.8,7.4
	C51.8,7.4,51.8,7.4,51.8,7.4C51.8,7.4,51.8,7.4,51.8,7.4C51.8,7.4,51.8,7.4,51.8,7.4C51.8,7.4,51.8,7.4,51.8,7.4
	C51.8,7.4,51.8,7.4,51.8,7.4C51.8,7.4,51.8,7.4,51.8,7.4C51.8,7.4,51.8,7.4,51.8,7.4C51.8,7.4,51.8,7.4,51.8,7.4
	C51.8,7.4,51.8,7.4,51.8,7.4C51.8,7.4,51.8,7.4,51.8,7.4C51.8,7.4,51.8,7.4,51.8,7.4C51.8,7.4,51.8,7.4,51.8,7.4
	C51.8,7.4,51.8,7.4,51.8,7.4C51.8,7.4,51.8,7.4,51.8,7.4C51.8,7.4,51.8,7.4,51.8,7.4C51.8,7.4,51.8,7.4,51.8,7.4
	C51.8,7.4,51.8,7.4,51.8,7.4C51.8,7.4,51.8,7.4,51.8,7.4C51.8,7.4,51.8,7.4,51.8,7.4C51.8,7.4,51.8,7.4,51.8,7.4
	C51.8,7.4,51.8,7.4,51.8,7.4C51.8,7.4,51.8,7.4,51.8,7.4C51.8,7.4,51.8,7.4,51.8,7.4C51.8,7.4,51.8,7.4,51.8,7.4
	C51.8,7.4,51.8,7.4,51.8,7.4C51.8,7.4,51.8,7.4,51.8,7.4C51.8,7.4,51.8,7.4,51.8,7.4C51.8,7.4,51.8,7.4,51.8,7.4
	C51.8,7.4,51.8,7.4,51.8,7.4C51.8,7.4,51.8,7.4,51.8,7.4C51.8,7.4,51.8,7.4,51.8,7.4C51.8,7.4,51.8,7.4,51.8,7.4
	C51.8,7.4,51.8,7.4,51.8,7.4C51.8,7.4,51.8,7.4,51.8,7.4C51.8,7.4,51.8,7.4,51.8,7.4C51.8,7.4,51.8,7.4,51.8,7.4
	C51.8,7.4,51.8,7.4,51.8,7.4C51.8,7.4,51.8,7.4,51.8,7.4C51.8,7.4,51.8,7.4,51.8,7.4C51.8,7.4,51.8,7.4,51.8,7.4
	C51.8,7.4,51.8,7.4,51.8,7.4C51.8,7.4,51.8,7.4,51.8,7.4C51.8,7.4,51.8,7.4,51.8,7.4C51.8,7.4,51.8,7.4,51.8,7.4
	C51.8,7.4,51.8,7.4,51.8,7.4C51.8,7.4,51.8,7.4,51.8,7.4C51.8,7.4,51.8,7.4,51.8,7.4C51.8,7.4,51.8,7.4,51.8,7.4
	C51.8,7.4,51.8,7.4,51.8,7.4C51.8,7.4,51.8,7.4,51.8,7.4C51.8,7.4,51.8,7.4,51.8,7.4C51.8,7.4,51.8,7.4,51.8,7.4
	C51.8,7.4,51.8,7.4,51.8,7.4C51.8,7.4,51.8,7.4,51.8,7.4C51.8,7.4,51.8,7.4,51.8,7.4C51.8,7.4,51.8,7.4,51.8,7.4
	C51.8,7.4,51.8,7.4,51.8,7.4C51.8,7.4,51.8,7.4,51.8,7.4C51.8,7.4,51.8,7.4,51.8,7.4C51.8,7.4,51.8,7.4,51.8,7.4
	C51.8,7.4,51.8,7.4,51.8,7.4C51.8,7.4,51.8,7.4,51.8,7.4C51.8,7.4,51.8,7.4,51.8,7.4C51.8,7.4,51.8,7.4,51.8,7.4
	C51.8,7.4,51.8,7.4,51.8,7.4C51.8,7.4,51.8,7.4,51.8,7.4C51.8,7.4,51.8,7.4,51.8,7.4C51.8,7.4,51.8,7.4,51.8,7.4
	C51.8,7.4,51.8,7.4,51.8,7.4C51.8,7.4,51.8,7.4,51.8,7.4C51.8,7.4,51.8,7.4,51.8,7.4C51.8,7.4,51.8,7.4,51.8,7.4
	C51.8,7.4,51.8,7.4,51.8,7.4C51.8,7.4,51.8,7.4,51.8,7.4C51.8,7.4,51.8,7.4,51.8,7.4C51.8,7.4,51.8,7.4,51.8,7.4
	C51.8,7.4,51.8,7.4,51.8,7.4C51.8,7.4,51.8,7.4,51.8,7.4C51.8,7.4,51.8,7.4,51.8,7.4C51.8,7.4,51.8,7.4,51.8,7.4
	C51.8,7.4,51.8,7.4,51.8,7.4C51.8,7.4,51.8,7.4,51.8,7.4C51.8,7.4,51.8,7.4,51.8,7.4C51.8,7.4,51.8,7.4,51.8,7.4
	C51.8,7.4,51.8,7.4,51.8,7.4C51.8,7.4,51.8,7.4,51.8,7.4C51.8,7.4,51.8,7.4,51.8,7.4C51.8,7.4,51.8,7.4,51.8,7.4
	C51.8,7.4,51.8,7.4,51.8,7.4C51.8,7.4,51.8,7.4,51.8,7.4C51.8,7.4,51.8,7.4,51.8,7.4C51.8,7.4,51.8,7.4,51.8,7.4
	C51.8,7.4,51.8,7.4,51.8,7.4C51.8,7.5,51.8,7.5,51.8,7.4C51.8,7.5,51.8,7.5,51.8,7.4C51.8,7.5,51.8,7.5,51.8,7.4
	C51.8,7.5,51.8,7.5,51.8,7.4C51.8,7.5,51.8,7.5,51.8,7.4C51.8,7.5,51.8,7.5,51.8,7.4C51.8,7.5,51.8,7.5,51.8,7.4
	C51.8,7.5,51.8,7.5,51.8,7.4C51.8,7.5,51.8,7.5,51.8,7.4C51.8,7.5,51.8,7.5,51.8,7.4C51.8,7.5,51.8,7.5,51.8,7.4
	C51.8,7.5,51.8,7.5,51.8,7.4C51.8,7.5,51.8,7.5,51.8,7.4C51.8,7.5,51.8,7.5,51.8,7.4C51.8,7.5,51.8,7.5,51.8,7.4
	C51.8,7.5,51.8,7.5,51.8,7.4C51.8,7.5,51.8,7.5,51.8,7.4C51.8,7.5,51.8,7.5,51.8,7.4C51.8,7.5,51.8,7.5,51.8,7.4
	C51.8,7.5,51.8,7.5,51.8,7.4C51.8,7.5,51.8,7.5,51.8,7.4C51.8,7.5,51.8,7.5,51.8,7.4C51.8,7.5,51.8,7.5,51.8,7.4
	C51.8,7.5,51.8,7.5,51.8,7.4C51.8,7.5,51.8,7.5,51.8,7.4C51.8,7.5,51.8,7.5,51.8,7.4C51.8,7.5,51.8,7.5,51.8,7.4
	C51.8,7.5,51.8,7.5,51.8,7.4C51.8,7.5,51.8,7.5,51.8,7.4C51.8,7.5,51.8,7.5,51.8,7.4C51.8,7.5,51.8,7.5,51.8,7.4
	C51.8,7.5,51.8,7.5,51.8,7.4C51.8,7.5,51.8,7.5,51.8,7.4C51.8,7.5,51.8,7.5,51.8,7.4C51.8,7.5,51.8,7.5,51.8,7.4
	C51.8,7.5,51.8,7.5,51.8,7.4C51.8,7.5,51.8,7.5,51.8,7.4C51.8,7.5,51.8,7.5,51.8,7.4C51.8,7.5,51.8,7.5,51.8,7.4
	C51.8,7.5,51.8,7.5,51.8,7.4C51.8,7.5,51.8,7.5,51.8,7.4C51.8,7.5,51.8,7.5,51.8,7.4C51.8,7.5,51.8,7.5,51.8,7.4
	C51.8,7.5,51.8,7.5,51.8,7.4C51.8,7.5,51.8,7.5,51.8,7.4C51.8,7.5,51.8,7.5,51.8,7.4C51.8,7.5,51.8,7.5,51.8,7.4
	C51.8,7.5,51.8,7.5,51.8,7.4C51.8,7.5,51.8,7.5,51.8,7.4C51.8,7.5,51.8,7.5,51.8,7.4C51.8,7.5,51.8,7.5,51.8,7.4
	C51.8,7.5,51.8,7.5,51.8,7.4C51.8,7.5,51.8,7.5,51.8,7.4C51.8,7.5,51.8,7.5,51.8,7.4C51.8,7.5,51.8,7.5,51.8,7.4
	C51.8,7.5,51.8,7.5,51.8,7.4C51.8,7.5,51.8,7.5,51.8,7.4C51.8,7.5,51.8,7.5,51.8,7.4C51.8,7.5,51.8,7.5,51.8,7.4
	C51.8,7.5,51.8,7.5,51.8,7.4C51.8,7.5,51.8,7.5,51.8,7.4C51.8,7.5,51.8,7.5,51.8,7.4C51.8,7.5,51.8,7.5,51.8,7.4
	C51.8,7.5,51.8,7.5,51.8,7.4C51.8,7.5,51.8,7.5,51.8,7.4C51.8,7.5,51.8,7.5,51.8,7.4C51.8,7.5,51.8,7.5,51.8,7.4
	C51.8,7.5,51.8,7.5,51.8,7.4C51.8,7.5,51.8,7.5,51.8,7.4C51.8,7.5,51.8,7.5,51.8,7.4C51.8,7.5,51.8,7.5,51.8,7.4
	C51.8,7.5,51.8,7.5,51.8,7.4C51.8,7.5,51.8,7.5,51.8,7.4C51.8,7.5,51.8,7.5,51.8,7.4C51.8,7.5,51.8,7.5,51.8,7.4
	C51.8,7.5,51.8,7.5,51.8,7.4C51.8,7.5,51.8,7.5,51.8,7.4C51.8,7.5,51.8,7.5,51.8,7.4C51.8,7.5,51.8,7.5,51.8,7.4
	C51.8,7.5,51.8,7.5,51.8,7.4C51.8,7.5,51.8,7.5,51.8,7.4C51.8,7.5,51.8,7.5,51.8,7.4C51.8,7.5,51.8,7.5,51.8,7.4
	C51.8,7.5,51.8,7.5,51.8,7.4C51.8,7.5,51.8,7.5,51.8,7.4C51.8,7.5,51.8,7.5,51.8,7.4C51.8,7.5,51.8,7.5,51.8,7.4
	C51.8,7.5,51.8,7.5,51.8,7.4C51.8,7.5,51.8,7.5,51.8,7.4C51.8,7.5,51.8,7.5,51.8,7.4C51.8,7.5,51.8,7.5,51.8,7.4
	C51.8,7.5,51.8,7.5,51.8,7.4C51.8,7.5,51.8,7.5,51.8,7.4C51.8,7.5,51.8,7.5,51.8,7.4C51.8,7.5,51.8,7.5,51.8,7.4
	C51.8,7.5,51.8,7.5,51.8,7.4C51.8,7.5,51.8,7.5,51.8,7.4C51.8,7.5,51.8,7.5,51.8,7.4C51.8,7.5,51.8,7.5,51.8,7.4
	C51.8,7.5,51.8,7.5,51.8,7.4C51.8,7.5,51.8,7.5,51.8,7.4C51.8,7.5,51.8,7.5,51.8,7.4C51.8,7.5,51.8,7.5,51.8,7.4
	C51.8,7.5,51.8,7.5,51.8,7.4C51.8,7.5,51.8,7.5,51.8,7.4C51.8,7.5,51.8,7.5,51.8,7.4C51.8,7.5,51.8,7.5,51.8,7.4
	C51.8,7.5,51.8,7.5,51.8,7.4C51.8,7.5,51.8,7.5,51.8,7.4C51.8,7.5,51.8,7.5,51.8,7.4C51.8,7.5,51.8,7.5,51.8,7.4
	C51.8,7.5,51.8,7.5,51.8,7.4C51.8,7.5,51.8,7.5,51.8,7.4C51.8,7.5,51.8,7.5,51.8,7.4C51.8,7.5,51.8,7.5,51.8,7.4
	C51.8,7.5,51.8,7.5,51.8,7.4C51.8,7.5,51.8,7.5,51.8,7.4C51.8,7.5,51.8,7.5,51.8,7.4C51.8,7.5,51.8,7.5,51.8,7.4
	C51.8,7.5,51.8,7.5,51.8,7.4C51.8,7.5,51.8,7.5,51.8,7.4C51.8,7.5,51.8,7.5,51.8,7.4C51.8,7.5,51.8,7.5,51.8,7.4
	C51.8,7.5,51.8,7.5,51.8,7.4C51.8,7.5,51.8,7.5,51.8,7.4C51.8,7.5,51.8,7.5,51.8,7.4C51.8,7.5,51.8,7.5,51.8,7.4
	C51.8,7.5,51.8,7.5,51.8,7.4C51.8,7.5,51.8,7.5,51.8,7.4C51.8,7.5,51.8,7.5,51.8,7.4C51.8,7.5,51.8,7.5,51.8,7.4
	C51.8,7.5,51.8,7.5,51.8,7.4C51.8,7.5,51.8,7.5,51.8,7.4C51.8,7.5,51.8,7.5,51.8,7.4C51.8,7.5,51.8,7.5,51.8,7.4
	C51.8,7.5,51.8,7.5,51.8,7.4C51.8,7.5,51.8,7.5,51.8,7.4C51.8,7.5,51.8,7.5,51.8,7.4C51.8,7.5,51.8,7.5,51.8,7.4
	C51.8,7.5,51.8,7.5,51.8,7.4C51.8,7.5,51.8,7.5,51.8,7.4C51.8,7.5,51.8,7.5,51.8,7.4C51.8,7.5,51.8,7.5,51.8,7.4
	C51.8,7.5,51.8,7.5,51.8,7.4C51.8,7.5,51.8,7.5,51.8,7.4C51.8,7.5,51.8,7.5,51.8,7.4C51.8,7.5,51.8,7.5,51.8,7.4
	C51.8,7.5,51.8,7.5,51.8,7.4C51.8,7.5,51.8,7.5,51.8,7.4C51.8,7.5,51.8,7.5,51.8,7.4C51.8,7.5,51.8,7.5,51.8,7.4
	C51.8,7.5,51.8,7.5,51.8,7.4C51.8,7.5,51.8,7.5,51.8,7.4C51.8,7.5,51.8,7.5,51.8,7.4C51.8,7.5,51.8,7.5,51.8,7.4
	C51.8,7.5,51.8,7.5,51.8,7.4C51.8,7.5,51.8,7.5,51.8,7.4C51.8,7.5,51.8,7.5,51.8,7.4C51.8,7.5,51.8,7.5,51.8,7.4
	C51.8,7.5,51.8,7.5,51.8,7.4C51.8,7.5,51.8,7.5,51.8,7.4C51.8,7.5,51.8,7.5,51.8,7.4C51.8,7.5,51.8,7.5,51.8,7.4
	C51.8,7.5,51.8,7.5,51.8,7.4C51.8,7.5,51.8,7.5,51.8,7.4C51.8,7.5,51.8,7.5,51.8,7.4C51.8,7.5,51.8,7.5,51.8,7.4
	C51.8,7.5,51.8,7.5,51.8,7.4C51.8,7.5,51.8,7.5,51.8,7.4C51.8,7.5,51.8,7.5,51.8,7.4C51.8,7.5,51.8,7.5,51.8,7.4
	C51.8,7.5,51.8,7.5,51.8,7.4C51.8,7.5,51.8,7.5,51.8,7.4C51.8,7.5,51.8,7.5,51.8,7.4C51.8,7.5,51.8,7.5,51.8,7.4
	C51.8,7.5,51.8,7.5,51.8,7.4C51.8,7.5,51.8,7.5,51.8,7.4C51.8,7.5,51.8,7.5,51.8,7.4C51.8,7.5,51.8,7.5,51.8,7.4
	C51.8,7.5,51.8,7.5,51.8,7.4C51.8,7.5,51.8,7.5,51.8,7.4C51.8,7.5,51.8,7.5,51.8,7.4C51.8,7.5,51.8,7.5,51.8,7.4
	C51.8,7.5,51.8,7.5,51.8,7.4C51.8,7.5,51.8,7.5,51.8,7.4C51.8,7.5,51.8,7.5,51.8,7.4C51.8,7.5,51.8,7.5,51.8,7.4
	C51.8,7.5,51.8,7.5,51.8,7.4C51.8,7.5,51.8,7.5,51.8,7.4C51.8,7.5,51.8,7.5,51.8,7.4C51.8,7.5,51.8,7.5,51.8,7.4
	C51.8,7.5,51.8,7.5,51.8,7.4C51.8,7.5,51.8,7.5,51.8,7.4C51.8,7.5,51.8,7.5,51.8,7.4C51.8,7.5,51.8,7.5,51.8,7.4
	C51.8,7.5,51.8,7.5,51.8,7.4C51.8,7.5,51.8,7.5,51.8,7.4C51.8,7.5,51.8,7.5,51.8,7.4C51.8,7.5,51.8,7.5,51.8,7.4
	C51.8,7.5,51.8,7.5,51.8,7.4C51.8,7.5,51.8,7.5,51.8,7.4C51.8,7.5,51.8,7.5,51.8,7.4C51.8,7.5,51.8,7.5,51.8,7.4
	C51.8,7.5,51.8,7.5,51.8,7.4C51.8,7.5,51.8,7.5,51.8,7.4C51.8,7.5,51.8,7.5,51.8,7.4C51.8,7.5,51.8,7.5,51.8,7.4
	C51.8,7.5,51.8,7.5,51.8,7.4C51.8,7.5,51.8,7.5,51.8,7.4C51.8,7.5,51.8,7.5,51.8,7.4C51.8,7.5,51.8,7.5,51.8,7.4
	C51.8,7.5,51.8,7.5,51.8,7.4C51.8,7.5,51.8,7.5,51.8,7.4C51.8,7.5,51.8,7.5,51.8,7.4C51.8,7.5,51.8,7.5,51.8,7.4
	C51.8,7.5,51.8,7.5,51.8,7.4C51.8,7.5,51.8,7.5,51.8,7.4C51.8,7.5,51.8,7.5,51.8,7.4C51.8,7.5,51.8,7.5,51.8,7.4
	C51.8,7.5,51.8,7.5,51.8,7.4C51.8,7.5,51.8,7.5,51.8,7.4C51.8,7.5,51.8,7.5,51.8,7.4C51.8,7.5,51.8,7.5,51.8,7.4
	C51.8,7.5,51.8,7.5,51.8,7.4C51.8,7.5,51.8,7.5,51.8,7.4C51.8,7.5,51.8,7.5,51.8,7.4C51.8,7.5,51.8,7.5,51.8,7.4
	C51.8,7.5,51.8,7.5,51.8,7.4C51.8,7.5,51.8,7.5,51.8,7.4C51.8,7.5,51.8,7.5,51.8,7.4C51.8,7.5,51.8,7.5,51.8,7.4
	C51.8,7.5,51.8,7.5,51.8,7.4C51.8,7.5,51.8,7.5,51.8,7.4C51.8,7.5,51.8,7.5,51.8,7.4C51.8,7.5,51.8,7.5,51.8,7.4
	C51.8,7.5,51.8,7.5,51.8,7.4C51.8,7.5,51.8,7.5,51.8,7.4C51.8,7.5,51.8,7.5,51.8,7.4C51.8,7.5,51.8,7.5,51.8,7.4
	C51.8,7.5,51.8,7.5,51.8,7.4C51.8,7.5,51.8,7.5,51.8,7.4C51.8,7.5,51.8,7.5,51.8,7.4C51.8,7.5,51.8,7.5,51.8,7.4
	C51.8,7.5,51.8,7.5,51.8,7.4C51.8,7.5,51.8,7.5,51.8,7.4C51.8,7.5,51.8,7.5,51.8,7.4C51.8,7.5,51.8,7.5,51.8,7.4
	C51.8,7.5,51.8,7.5,51.8,7.4C51.8,7.5,51.8,7.5,51.8,7.4C51.8,7.5,51.8,7.5,51.8,7.4C51.8,7.5,51.8,7.5,51.8,7.4
	C51.8,7.5,51.8,7.5,51.8,7.4C51.8,7.5,51.8,7.5,51.8,7.4C51.8,7.5,51.8,7.5,51.8,7.4C51.8,7.5,51.8,7.5,51.8,7.4
	C51.8,7.5,51.8,7.5,51.8,7.4C51.8,7.5,51.8,7.5,51.8,7.4C51.8,7.5,51.8,7.5,51.8,7.4C51.8,7.5,51.8,7.5,51.8,7.4
	C51.8,7.5,51.8,7.5,51.8,7.4C51.8,7.5,51.8,7.5,51.8,7.4C51.8,7.5,51.8,7.5,51.8,7.4C51.8,7.5,51.8,7.5,51.8,7.4
	C51.8,7.5,51.8,7.5,51.8,7.4C51.8,7.5,51.8,7.5,51.8,7.4C51.8,7.5,51.8,7.5,51.8,7.4C51.8,7.5,51.8,7.5,51.8,7.4
	C51.8,7.5,51.8,7.5,51.8,7.4C51.8,7.5,51.8,7.5,51.8,7.4C51.8,7.5,51.8,7.5,51.8,7.4C51.8,7.5,51.8,7.5,51.8,7.4
	C51.8,7.5,51.8,7.5,51.8,7.4C51.8,7.5,51.8,7.5,51.8,7.4C51.8,7.5,51.8,7.5,51.8,7.4C51.8,7.5,51.8,7.5,51.8,7.4
	C51.8,7.5,51.8,7.5,51.8,7.4C51.8,7.5,51.8,7.5,51.8,7.4C51.8,7.5,51.8,7.5,51.8,7.4C51.8,7.5,51.8,7.5,51.8,7.4
	C51.8,7.5,51.8,7.5,51.8,7.4C51.8,7.5,51.8,7.5,51.8,7.4C51.8,7.5,51.8,7.5,51.8,7.4C51.8,7.5,51.8,7.5,51.8,7.4
	C51.8,7.5,51.8,7.5,51.8,7.4C51.8,7.5,51.8,7.5,51.8,7.4C51.8,7.5,51.8,7.5,51.8,7.4c0,0.1,0,0.1,0,0.1c0,0,0,0,0,0c0,0,0,0,0,0
	s0,0,0,0c0,0,0,0,0,0c0,0,0,0,0,0c0,0,0,0,0,0c0,0,0,0,0,0c0,0,0,0,0,0c0,0,0,0,0,0c0,0,0,0,0,0c0,0,0,0,0,0s0,0,0,0s0,0,0,0
	s0,0,0,0s0,0,0,0c0,0,0,0,0,0c0,0,0,0,0,0c0,0,0,0,0,0c0,0,0,0,0,0c0,0,0,0,0,0c0,0,0,0,0,0c0,0,0,0,0,0c0,0,0,0,0,0s0,0,0,0
	s0,0,0,0c0,0,0,0,0,0s0,0,0,0s0,0,0,0s0,0,0,0c0,0,0,0,0,0c0,0,0,0,0,0c0,0,0,0,0,0c0,0,0,0,0,0c0,0,0,0,0,0c0,0,0,0,0,0
	c0,0,0,0,0,0c0,0,0,0,0,0c0,0,0,0,0,0c0,0,0,0,0,0c0,0,0,0,0,0c0,0,0,0,0,0c0,0,0,0,0,0c0,0,0,0,0,0s0,0,0,0s0,0,0,0c0,0,0,0,0,0
	c0,0,0,0,0,0c0,0,0,0,0,0c0,0,0,0,0,0c0,0,0,0,0,0c0,0,0,0,0,0c0,0,0,0,0,0c0,0,0,0,0,0c0,0,0,0,0,0c0,0,0,0,0,0s0,0,0,0
	c0,0,0,0,0,0c0,0,0,0,0,0c0,0,0,0,0,0c0,0,0,0,0,0h10c0,0,0,0,0,0c0,0,0,0,0,0c0,0,0,0,0,0c0,0,0,0,0,0c0,0,0,0,0,0s0,0,0,0
	c0,0,0,0,0,0c0,0,0,0,0,0c0,0,0,0,0,0c0,0,0,0,0,0c0,0,0,0,0,0c0,0,0,0,0,0c0,0,0,0,0,0c0,0,0,0,0,0c0,0,0,0,0,0c0,0,0,0,0,0
	s0,0,0,0s0,0,0,0c0,0,0,0,0,0c0,0,0,0,0,0c0,0,0,0,0,0c0,0,0,0,0,0c0,0,0,0,0,0c0,0,0,0,0,0c0,0,0,0,0,0c0,0,0,0,0,0c0,0,0,0,0,0
	c0,0,0,0,0,0c0,0,0,0,0,0c0,0,0,0,0,0c0,0,0,0,0,0c0,0,0,0,0,0s0,0,0,0s0,0,0,0s0,0,0,0c0,0,0,0,0,0s0,0,0,0s0,0,0,0c0,0,0,0,0,0
	c0,0,0,0,0,0c0,0,0,0,0,0c0,0,0,0,0,0c0,0,0,0,0,0c0,0,0,0,0,0c0,0,0,0,0,0c0,0,0,0,0,0s0,0,0,0s0,0,0,0s0,0,0,0s0,0,0,0
	c0,0,0,0,0,0c0,0,0,0,0,0c0,0,0,0,0,0c0,0,0,0,0,0c0,0,0,0,0,0c0,0,0,0,0,0c0,0,0,0,0,0c0,0,0,0,0,0s0,0,0,0c0,0,0,0,0,0
	c0,0,0,0,0,0c0,0,0,0,0,0c0,0,0,0,0,0c0,0,0,0,0,0c0,0,0,0,0,0c0,0,0,0,0,0c0,0,0,0,0,0s0,0,0,0s0,0,0,0c0,0,0,0,0,0c0,0,0,0,0,0
	c0,0,0,0,0,0c0,0,0,0,0,0s0,0,0,0s0,0,0,0s0,0,0,0c0,0,0,0,0,0c0,0,0,0,0,0c0,0,0,0,0,0c0,0,0,0,0,0c0,0,0,0,0,0s0,0,0,0s0,0,0,0
	s0,0,0,0c0,0,0,0,0,0c0,0,0,0,0,0c0,0,0,0,0,0c0,0,0,0,0,0s0,0,0,0s0,0,0,0c0,0,0,0,0,0c0,0,0,0,0,0c0,0,0,0,0,0c0,0,0,0,0,0
	s0,0,0,0c0,0,0,0,0,0c0,0,0,0,0,0c0,0,0,0,0,0c0,0,0,0,0,0c0,0,0,0,0,0c0,0,0,0,0,0c0,0,0,0,0,0c0,0,0,0,0,0c0,0,0,0,0,0
	c0,0,0,0,0,0c0,0,0,0,0,0c0,0,0,0,0,0c0,0,0,0,0,0c0,0,0,0,0,0c0,0,0,0,0,0c0,0,0,0,0,0s0,0,0,0c0,0,0,0,0,0c0,0,0,0,0,0
	c0,0,0,0,0,0c0,0,0,0,0,0s0,0,0,0c0,0,0,0,0,0c0,0,0,0,0,0c0,0,0,0,0,0c0,0,0,0,0,0s0,0,0,0c0,0,0,0,0,0c0,0,0,0,0,0c0,0,0,0,0,0
	s0,0,0,0c0,0,0,0,0,0s0,0,0,0c0,0,0,0,0,0c0,0,0,0,0,0s0,0,0,0s0,0,0,0c0,0,0,0,0,0c0,0,0,0,0,0s0,0,0,0c0,0,0,0,0,0s0,0,0,0
	c0,0,0,0,0,0c0,0,0,0,0,0c0,0,0,0,0,0s0,0,0,0c0,0,0,0,0,0c0,0,0,0,0,0s0,0,0,0c0,0,0,0,0,0c0,0,0,0,0,0c0,0,0,0,0,0s0,0,0,0
	c0,0,0,0,0,0c0,0,0,0,0,0c0,0,0,0,0,0s0,0,0,0s0,0,0,0c0,0,0,0,0,0c0,0,0,0,0,0c0,0,0,0,0,0s0,0,0,0c0,0,0,0,0,0c0,0,0,0,0,0
	c0,0,0,0,0,0c0,0,0,0,0,0c0,0,0,0,0,0c0,0,0,0,0,0c0,0,0,0,0,0c0,0,0,0,0,0c0,0,0,0,0,0c0,0,0,0,0,0c0,0,0,0,0,0c0,0,0,0,0,0
	c0,0,0,0,0,0c0,0,0,0,0,0c0,0,0,0,0,0c0,0,0,0,0,0c0,0,0,0,0,0c0,0,0,0,0,0c0,0,0,0,0,0c0,0,0,0,0,0s0,0,0,0c0,0,0,0,0,0
	c0,0,0,0,0,0c0,0,0,0,0,0s0,0,0,0s0,0,0,0c0,0,0,0,0,0c0,0,0,0,0,0c0,0,0,0,0,0c0,0,0,0,0,0c0,0,0,0,0,0c0,0,0,0,0,0c0,0,0,0,0,0
	c0,0,0,0,0,0s0,0,0,0s0,0,0,0c0,0,0,0,0,0c0,0,0,0,0,0s0,0,0,0c0,0,0,0,0,0s0,0,0,0s0,0,0,0c0,0,0,0,0,0c0,0,0,0,0,0s0,0,0,0
	c0,0,0,0,0,0c0,0,0,0,0,0s0,0,0,0s0,0,0,0c0,0,0,0,0,0s0,0,0,0s0,0,0,0c0,0,0,0,0,0s0,0,0,0c0,0,0,0,0,0c0,0,0,0,0,0s0,0,0,0
	s0,0,0,0c0,0,0,0,0,0s0,0,0,0s0,0,0,0c0,0,0,0,0,0c0,0,0,0,0,0s0,0,0,0c0,0,0,0,0,0c0,0,0,0,0,0c0,0,0,0,0,0c0,0,0,0,0,0
	c0,0,0,0,0,0s0,0,0,0c0,0,0,0,0,0s0,0,0,0s0,0,0,0c0,0,0,0,0,0c0,0,0,0,0,0c0,0,0,0,0,0c0,0,0,0,0,0c0,0,0,0,0,0c0,0,0,0,0,0
	c0,0,0,0,0,0c0,0,0,0,0,0c0,0,0,0,0,0c0,0,0,0,0,0c0,0,0,0,0,0c0,0,0,0,0,0c0,0,0,0,0,0c0,0,0,0,0,0c0,0,0,0,0,0c0,0,0,0,0,0
	c0,0,0,0,0,0c0,0,0,0,0,0c0,0,0,0,0,0c0,0,0,0,0,0c0,0,0,0,0,0c0,0,0,0,0,0c0,0,0,0,0,0s0,0,0,0s0,0,0,0c0,0,0,0,0,0s0,0,0,0
	c0,0,0,0,0,0s0,0,0,0s0,0,0,0c0,0,0,0,0,0c0,0,0,0,0,0c0,0,0,0,0,0c0,0,0,0,0,0s0,0,0,0c0,0,0,0,0,0s0,0,0,0s0,0,0,0c0,0,0,0,0,0
	s0,0,0,0c0,0,0,0,0,0s0,0,0,0c0,0,0,0,0,0c0,0,0,0,0,0s0,0,0,0c0,0,0,0,0,0c0,0,0,0,0,0s0,0,0,0c0,0,0,0,0,0s0,0,0,0s0,0,0,0
	c0,0,0,0,0,0s0,0,0,0c0,0,0,0,0,0s0,0,0,0s0,0,0,0c0,0,0,0,0,0s0,0,0,0c0,0,0,0,0,0s0,0,0,0s0,0,0,0c0,0,0,0,0,0s0,0,0,0
	c0,0,0,0,0,0c0,0,0,0,0,0c0,0,0,0,0,0s0,0,0,0s0,0,0,0c0,0,0,0,0,0s0,0,0,0c0,0,0,0,0,0s0,0,0,0s0,0,0,0c0,0,0,0,0,0s0,0,0,0
	c0,0,0,0,0,0c0,0,0,0,0,0s0,0,0,0c0,0,0,0,0,0s0,0,0,0c0,0,0,0,0,0c0,0,0,0,0,0c0,0,0,0,0,0s0,0,0,0s0,0,0,0c0,0,0,0,0,0
	c0,0,0,0,0,0c0,0,0,0,0,0c0,0,0,0,0,0c0,0,0,0,0,0s0,0,0,0s0,0,0,0c0,0,0,0,0,0s0,0,0,0c0,0,0,0,0,0s0,0,0,0c0,0,0,0,0,0
	c0,0,0,0,0,0c0,0,0,0,0,0c0,0,0,0,0,0c0,0,0,0,0,0c0,0,0,0,0,0c0,0,0,0,0,0c0,0,0,0,0,0c0,0,0,0,0,0c0,0,0,0,0,0c0,0,0,0,0,0
	c0,0,0,0,0,0c0,0,0,0,0,0c0,0,0,0,0,0c0,0,0,0,0,0c0,0,0,0,0,0c0,0,0,0,0,0c0,0,0,0,0,0c0,0,0,0,0,0c0,0,0,0,0,0c0,0,0,0,0,0
	c0,0,0,0,0,0c0,0,0,0,0,0c0,0,0,0,0,0c0,0,0,0,0,0c0,0,0,0,0,0c0,0,0,0,0,0c0,0,0,0,0,0c0,0,0,0,0,0c0,0,0,0,0,0c0,0,0,0,0,0
	c0,0,0,0,0,0c0,0,0,0,0,0c0,0,0,0,0,0c0,0,0,0,0,0s0,0,0,0c0,0,0,0,0,0s0,0,0,0s0,0,0,0s0,0,0,0c0,0,0,0,0,0s0,0,0,0s0,0,0,0
	c0,0,0,0,0,0s0,0,0,0c0,0,0,0,0,0s0,0,0,0c0,0,0,0,0,0c0,0,0,0,0,0c0,0,0,0,0,0c0,0,0,0,0,0s0,0,0,0s0,0,0,0c0,0,0,0,0,0
	c0,0,0,0,0,0s0,0,0,0c0,0,0,0,0,0c0,0,0,0,0,0c0,0,0,0,0,0s0,0,0,0c0,0,0,0,0,0s0,0,0,0c0,0,0,0,0,0c0,0,0,0,0,0c0,0,0,0,0,0
	c0,0,0,0,0,0c0,0,0,0,0,0s0,0,0,0s0,0,0,0s0,0,0,0s0,0,0,0s0,0,0,0s0,0,0,0c0,0,0,0,0,0s0,0,0,0c0,0,0,0,0,0s0,0,0,0c0,0,0,0,0,0
	c0,0,0,0,0,0c0,0,0,0,0,0s0,0,0,0c0,0,0,0,0,0s0,0,0,0c0,0,0,0,0,0c0,0,0,0,0,0c0,0,0,0,0,0s0,0,0,0c0,0,0,0,0,0c0,0,0,0,0,0
	s0,0,0,0s0,0,0,0s0,0,0,0s0,0,0,0s0,0,0,0s0,0,0,0s0,0,0,0s0,0,0,0s0,0,0,0c0,0,0,0,0,0s0,0,0,0c0,0,0,0,0,0s0,0,0,0c0,0,0,0,0,0
	s0,0,0,0c0,0,0,0,0,0s0,0,0,0c0,0,0,0,0,0s0,0,0,0c0,0,0,0,0,0s0,0,0,0c0,0,0,0,0,0s0,0,0,0c0,0,0,0,0,0s0,0,0,0c0,0,0,0,0,0
	s0,0,0,0c0,0,0,0,0,0s0,0,0,0c0,0,0,0,0,0s0,0,0,0c0,0,0,0,0,0s0,0,0,0c0,0,0,0,0,0s0,0,0,0c0,0,0,0,0,0s0,0,0,0s0,0,0,0
	c0,0,0,0,0,0s0,0,0,0s0,0,0,0s0,0,0,0s0,0,0,0c0,0,0,0,0,0s0,0,0,0s0,0,0,0s0,0,0,0c0,0,0,0,0,0s0,0,0,0s0,0,0,0s0,0,0,0s0,0,0,0
	s0,0,0,0s0,0,0,0c0,0,0,0,0,0s0,0,0,0s0,0,0,0c0,0,0,0,0,0s0,0,0,0s0,0,0,0s0,0,0,0s0,0,0,0s0,0,0,0c0,0,0,0,0,0s0,0,0,0s0,0,0,0
	c0,0,0,0,0,0s0,0,0,0s0,0,0,0c0,0,0,0,0,0s0,0,0,0s0,0,0,0s0,0,0,0s0,0,0,0c0,0,0,0,0,0s0,0,0,0c0,0,0,0,0,0c0,0,0,0,0,0s0,0,0,0
	c0,0,0,0,0,0s0,0,0,0s0,0,0,0c0,0,0,0,0,0s0,0,0,0c0,0,0,0,0,0s0,0,0,0c0,0,0,0,0,0s0,0,0,0c0,0,0,0,0,0c0,0,0,0,0,0c0,0,0,0,0,0
	s0,0,0,0c0,0,0,0,0,0s0,0,0,0c0,0,0,0,0,0s0,0,0,0c0,0,0,0,0,0H51.8z M51.8,8c0.5,6.2,0.7,12.4,0,18.3l9.9,1.1
	c0.8-6.8,0.6-13.7,0-20.3L51.8,8z M51.8,26.2c-0.2,1.4,0.2,2.9,1,4c0.8,1,1.7,1.6,2.3,1.8c1.3,0.6,2.5,0.6,3.4,0.6
	c0.9-0.1,2.1-0.3,3.2-0.9c1.1-0.6,2.9-2,3.2-4.7l-10-0.9c0.2-2,1.6-3,2-3.2c0.5-0.3,0.8-0.3,0.9-0.3c0.1,0,0.5,0,1.2,0.3
	c0.4,0.2,1.1,0.5,1.7,1.4c0.7,0.9,1,2.1,0.8,3.3L51.8,26.2z M65,27.2c0.5-4,0.6-7.9,0.5-11.8l-10,0.2c0.1,3.6,0,7.1-0.4,10.4
	L65,27.2z M55.9,17.4c2.3,5.4,4.1,10.8,5.3,16.3l9.8-2c-1.3-6.4-3.4-12.5-5.8-18.3L55.9,17.4z M61.1,32.2c-0.2,1.4,0.2,2.7,1,3.8
	c0.7,1,1.6,1.5,2.3,1.8c1.2,0.6,2.5,0.7,3.3,0.6l-0.4-10c0.1,0,0.6,0,1.3,0.3c0.4,0.2,1.1,0.6,1.6,1.4c0.7,0.9,1,2,0.8,3.1
	L61.1,32.2z M67.3,38.5c1.2,0,2.5-0.2,3.8-0.8c1-0.5,3.9-2.6,3.1-6.3l-9.8,2.2c-0.3-1.3,0-2.6,0.6-3.5c0.5-0.8,1.1-1.2,1.4-1.3
	c0.5-0.3,0.9-0.3,1.2-0.3L67.3,38.5z M74.2,32.8c0.6-8.8,0.9-17.7,0.9-26.5l-10,0c0,8.6-0.3,17.3-0.9,25.9L74.2,32.8z M80.5,16.4
	l-2.8,4.1l0,0l0,0L80.5,16.4z M73.1,11.2l-4.8,1.4l0,0l0,0L73.1,11.2z M74.1,8.9l-0.2,5l0,0l0,0L74.1,8.9z M78.3,14.1h5v-1L83,12.3
	L78.3,14.1z M78.6,14.6l2.8-4.1l0,0l0,0L78.6,14.6z M81.1,14.4l3,4l0.3-0.2l0.2-0.2L81.1,14.4z M81.2,14.4L78,10.5l-0.2,0.1
	l-0.2,0.2L81.2,14.4z M81.5,13.8l-5-0.1l0,0v0H81.5z M82.6,7.6l-4.7-1.8l0,0l0,0L82.6,7.6z M79.5,7.4l-4.7-1.8l0,0l0,0L79.5,7.4z
	 M78.9,9.4l-3.7,3.3l6.5,7.3l2.1-9.5L78.9,9.4z M72.8,7l1.1,4.9l0,0l0,0L72.8,7z M70.1,12l4.6-1.9l0,0l0,0L70.1,12z M80.2,19.9
	l-4.4,2.4l0,0l0,0L80.2,19.9z M76.3,26.4l1.2-4.9l0,0L76.3,26.4z M75.7,19.9l1.9-4.6l0,0l0,0L75.7,19.9z M77.9,18.4l1.9-4.6l0,0l0,0
	L77.9,18.4z M70,23.4l4.9-1l0,0L70,23.4z M81.2,27.4l-2.2-4.5L81.2,27.4z M83.4,12.2c-1-0.7-2-1.2-2.8-1.5c-0.9-0.4-1.4-0.6-2-0.9
	c-1.2-0.6-0.8-0.7-0.6-0.1l-9.6,2.9c1.1,3.6,4,5.3,5.7,6.1c0.8,0.4,1.9,0.8,2.4,1.1c0.7,0.3,1,0.5,1.2,0.6L83.4,12.2z M77.9,9.8
	c0,0.1,0.2,0.5,0,1.2c-0.1,0.4-0.4,1.2-1.3,1.9c-0.9,0.8-2,1-2.7,0.9l0.5-10c-1.4-0.1-2.9,0.3-4.1,1.3c-1.2,1-1.7,2.2-2,3.1
	c-0.5,1.7-0.2,3.2,0.1,4.3L77.9,9.8z M73.9,13.9c-0.6,0-1.1-0.2-1.3-0.3c-0.3-0.1-0.4-0.3-0.4-0.3c0,0,0.1,0.1,0.3,0.4
	c0.2,0.3,0.5,0.7,0.7,1.2c0.2,0.4,0.4,0.8,0.5,1.1l9.3-3.7c-0.4-1-1.2-2.6-2.2-4.2c-0.5-0.7-1.2-1.6-2.1-2.4
	c-0.8-0.7-2.4-1.8-4.4-1.8L73.9,13.9z M73.3,14.1c0,2.4,1.5,3.9,2.5,4.6l5.5-8.3c0.7,0.5,1.9,1.7,1.9,3.7H73.3z M75.8,18.7
	c1.6,1.1,3.4,1.2,4.4,1.1c1.1-0.1,2.6-0.4,3.9-1.4l-6.1-8c0.4-0.3,0.8-0.4,0.9-0.5c0.2-0.1,0.3-0.1,0.5-0.1c0.1,0,0.3,0,0.6,0
	c0.2,0,0.8,0.2,1.4,0.6L75.8,18.7z M84.6,17.9c-0.1,0.1-0.3,0.3-0.4,0.4c-0.2,0.1-0.3,0.2-0.4,0.3c-0.1,0.1-0.2,0.1-0.3,0.2
	c0,0-0.1,0-0.1,0c0,0,0,0,0,0c0,0,0,0,0,0c0,0,0,0,0,0c0,0,0.1,0,0.1,0c0.1,0,0.2-0.1,0.3-0.2c0.1-0.1,0.3-0.2,0.4-0.3
	C84.4,18.2,84.6,18,84.6,17.9l-7-7.1c0.1-0.1,0.3-0.3,0.4-0.4c0.2-0.1,0.3-0.2,0.4-0.3c0.1-0.1,0.2-0.1,0.3-0.2c0,0,0.1,0,0.1,0
	c0,0,0,0,0,0c0,0,0,0,0,0c0,0,0,0,0,0c0,0-0.1,0-0.1,0c-0.1,0-0.2,0.1-0.3,0.2c-0.1,0.1-0.3,0.2-0.4,0.3c-0.2,0.1-0.3,0.3-0.5,0.4
	L84.6,17.9z M84.4,18.2c1-0.8,2.1-2.3,2.1-4.4h-10c0-1.7,0.9-2.8,1.5-3.3L84.4,18.2z M86.5,13.9c0-1.6,0.3-3.1,0.8-4.4l-9.3-3.6
	c-1,2.6-1.4,5.3-1.4,7.9L86.5,13.9z M87.3,9.4c0.4-1.1,0.6-2.5,0.1-3.9c-0.5-1.4-1.4-2.2-2.1-2.7c-1.3-0.9-2.8-1.1-3.6-1.1
	c-0.9,0-2,0.1-3.1,0.5c-0.9,0.3-2.8,1.2-3.7,3.5l9.3,3.6c-0.7,1.7-2,2.2-2.2,2.3c-0.4,0.1-0.6,0.1-0.8,0.1c0,0-0.7,0-1.6-0.6
	c-0.5-0.3-1.2-1-1.6-2.2c-0.4-1.2-0.3-2.3,0-3.1L87.3,9.4z M74.8,5.6c-0.3,0.8-0.6,1.7-0.8,2.7l9.8,2.1c0.1-0.4,0.2-0.8,0.4-1.3
	L74.8,5.6z M82.6,6.1c-2.1-2.4-6-5.1-11-4l2.3,9.7c0,0,0,0,0,0c0,0,0,0,0,0c0,0,0,0,0,0c0,0,0,0,0,0s0,0,0,0c0,0,0,0,0,0
	c0,0,0.1,0,0.1,0c0.2,0.1,0.6,0.3,1.1,0.9L82.6,6.1z M71.7,2.1c-5.2,1.2-8.4,6.7-6.2,11.9l9.2-3.9c0.1,0.3,0.1,0.8-0.1,1.1
	c-0.2,0.4-0.5,0.6-0.8,0.6L71.7,2.1z M65.5,14c1.7,4.2,5.5,5.8,7.4,6.7c2.4,1.1,2.8,1.4,2.9,1.7l8.7-4.9c-2-3.7-5.8-5.2-7.4-5.9
	c-2.2-1-2.3-1.3-2.4-1.5L65.5,14z M75.8,22.4c0,0.1,0.1,0.2,0.1,0.3c0,0.1,0,0.1,0.1-0.1c0.1-0.2,0.4-0.6,0.9-0.8
	c0.5-0.2,0.8-0.1,0.7-0.2l-2.3,9.7c1.9,0.5,4,0.4,5.9-0.5c1.9-0.9,3.2-2.4,3.9-4c1.4-3,1.1-6.6-0.5-9.3L75.8,22.4z M77.5,21.6
	c0.7,0.2,0.9,0.6,0.9,0.5c-0.1-0.1-0.1-0.2-0.1-0.3c0,0,0,0.1,0,0.3c0,0.2-0.2,0.7-0.7,1.3c-0.5,0.7-1.4,1.2-2.3,1.3
	c-0.8,0.1-1.4-0.1-1.5-0.1l3.7-9.3c-1-0.4-2.4-0.7-3.9-0.5c-1.6,0.3-2.9,1.1-3.9,2.2c-1.7,2-1.7,4.5-1.5,5.9
	c0.2,1.6,0.8,3.3,1.8,4.8c1,1.5,2.6,3.1,5.1,3.7L77.5,21.6z M73.8,24.5c1.5,0.6,3,0.5,3.7,0.4c0.9-0.1,1.8-0.4,2.6-0.9
	c0.4-0.2,1-0.6,1.5-1c0.5-0.4,1.3-1.4,1.7-2.9c0.4-1.8-0.2-3.4-1.1-4.6c-0.8-1-1.8-1.5-2.4-1.7L76,23.1c-0.2-0.1-0.8-0.4-1.5-1.1
	c-0.8-1-1.3-2.4-1-4c0.3-1.3,1-2,1.3-2.3c0.3-0.3,0.6-0.5,0.7-0.5c0.2-0.1,0.3-0.1,0.4-0.2c0.1,0,0.2,0,0.4,0c0.2,0,0.7,0,1.2,0.3
	L73.8,24.5z M79.7,13.8c-3-1.2-6.7-1.4-9.8,0.2c-1.7,0.8-3.2,2.2-4.1,4.2c-0.9,2-1.1,4.2-0.6,6.3l9.8-2c-0.1-0.4,0-0.3-0.1,0
	c-0.2,0.3-0.4,0.5-0.4,0.5c0,0,0.2-0.1,0.5-0.1c0.4,0,0.8,0.1,1.1,0.2L79.7,13.8z M65.1,24.4c1,4.7,4.5,7.4,8,8.4
	c3.4,1,7.2,0.6,10.3-0.9l-4.5-8.9c-0.8,0.4-2.1,0.5-3.1,0.3c-0.4-0.1-0.7-0.3-0.8-0.4c-0.1-0.1-0.1-0.2-0.2-0.4L65.1,24.4z
	 M83.4,31.8c2.1-1,3.7-2.6,4.7-4.6c1-2,1.2-4.1,0.9-6c-0.5-3.6-2.8-7-5.7-9l-5.7,8.2c0.4,0.3,0.8,0.6,1,1.1c0.3,0.4,0.4,0.8,0.4,1.1
	c0,0.2,0,0.2,0,0.1c0.1-0.1,0.1,0-0.2,0.1L83.4,31.8z"/>
<path class="st0" d="M18.9,10.6c-1.6-4.6-5.7-4.4-8.2-1.7c-0.1,0-0.2,0.1-0.4,0.1C5.5,10.8,5,20.3,6.7,24.2c0.8,1.8,2.2,3.1,3.8,3.7
	c0,1.4,0,2.7,0.1,4.1c0.1,1.2,3.3,1,3.2-0.3c-0.1-1.2-0.1-2.3-0.1-3.5c0.8-0.1,1.6-0.4,2.3-0.9C21,24.3,20.5,15.2,18.9,10.6z
	 M13.9,26.1c-0.1,0-0.1,0-0.1,0.1c0-1.8,0.1-3.7,0.3-5.5c0.1-1.1-3.2-1-3.2,0.3c-0.1,1.3-0.2,2.6-0.2,3.9c-0.8-1.3-1.3-3.1-1.4-4.1
	c-0.2-1.6-0.1-5.6,1-8.2c0.8,0.1,1.8-0.2,1.9-0.8c0.4-1.1,0.7-2.3,2-2.4c1.3-0.1,1.6,1.2,1.9,2.3c0.4,1.6,0.6,3.3,0.7,4.9
	C16.7,19.3,16.7,24.5,13.9,26.1z M13.5,13.9c-0.5,0-1.8,0.1-2,0.8c-0.2,1.3-0.4,2.6-0.5,3.9c-0.1,0.7,1.3,0.8,1.7,0.8
	c0.6-0.1,1.5-0.3,1.5-1c0.1-0.9,0.2-1.7,0.3-2.6c0-0.2,0.1-0.5,0.1-0.7c0-0.2,0-0.3,0-0.1C14.8,14.2,14.1,13.9,13.5,13.9z
	 M31.2,27.2c-1.3-5.3-1.5-11.1-0.3-16.4c0.1-0.4-0.1-0.7-0.5-0.9h0c-0.1,0-0.1-0.1-0.2-0.1c-0.9-0.2-2.2,0.1-2.3,0.8
	c-1,4.5-2.2,9.4-4.7,13.3c0,0-0.1,0.1-0.1,0.1c0.3-5.4,1.6-10.9,3-16c0.4-1.3-2.9-1.3-3.1-0.2C21,14.1,19.4,21,19.7,27.5
	c0,0.8,1.4,1,2.3,0.7c0.1,0,0.3-0.1,0.4-0.1c1.4-0.6,2.4-1.8,3.2-3c0.6-0.8,1-1.7,1.5-2.5c0.2,1.6,0.4,3.3,0.8,4.9
	C28.3,28.8,31.5,28.4,31.2,27.2z M43.8,18.2c-0.1-1.2-3.4-1-3.2,0.3c0.2,1.9,0.8,4.8,0,6.6c-0.8,2-4.1,1.8-5.6,0.2
	c-3.5-3.8,0.2-9.1,4.1-10.4c1.7-0.6,0.1-1.6-1-1.6c-1.7,0.1-4.1,0.1-2.9-2.2c0.3-0.5,1.8-2.1,2.4-2c0.5,0.1,1.1,1.2,1.4,1.6
	c0.5,0.8,0.9,1.8,1.2,2.7c0,0.8,1.3,0.9,2.3,0.6c0.6-0.1,1.1-0.5,0.9-0.9c0-1.8,0.1-4.1,0.4-5.7c0.2-1.3-3-1.3-3.2-0.2
	c-0.1,0.4-0.1,0.8-0.2,1.2c-2.1-1.7-5-1.7-7.6,1.4c-2.5,3-0.7,4.4,1.8,5c-2.1,1.4-3.6,3.4-4,6c-0.4,2.8,0.8,5.7,3.4,6.9
	c2.3,1.1,7.6,0.8,9.3-1.2C44.8,24.5,43.9,20.3,43.8,18.2z M56.7,18.2c-0.1-1.2-3.4-1-3.2,0.3c0.1,1.9,0.8,4.8,0,6.6
	c-0.8,2-4,1.8-5.5,0.2c-3.5-3.8,0.1-9.1,4-10.4c1.7-0.6,0.1-1.6-1-1.6c-1.7,0.1-4.1,0.1-2.9-2.2c0.3-0.5,1.8-2.1,2.4-2
	c0.5,0.1,1,1.2,1.3,1.6c0.5,0.8,0.9,1.8,1.2,2.7c0,0.8,1.3,0.9,2.3,0.6c0.6-0.1,1.1-0.5,0.9-0.9c0-1.8,0.1-4.1,0.4-5.7
	c0.2-1.3-3-1.3-3.2-0.2c-0.1,0.4-0.1,0.8-0.2,1.2c-2.1-1.7-5-1.7-7.6,1.4c-2.5,3-0.7,4.4,1.8,5c-2.1,1.4-3.6,3.4-4,6
	c-0.4,2.8,0.8,5.7,3.4,6.9c2.3,1.1,7.6,0.8,9.3-1.2C57.8,24.5,56.9,20.3,56.7,18.2z M70.1,6.3c0-1.2-3.2-1-3.2,0.3
	c0,5.3-0.1,10.6-0.4,16C64.8,17.2,62.5,12,60,7.1c-0.3-1-2.9-0.8-3.2,0.2c0,0,0,0.1,0,0.1c0,0,0,0.1,0,0.1c0.5,6.4,0.7,12.9,0,19.3
	c-0.2,1.1,3.1,1,3.2-0.3c0.5-3.7,0.5-7.4,0.5-11.1c2.4,5.6,4.3,11.4,5.6,17.3c-0.1,0.5,0.7,0.8,1.4,0.8c0.9,0,2-0.4,1.8-1
	C69.8,23.8,70.1,15,70.1,6.3z M80.5,16.4c-2.3-1.6-6.4-2.2-7.4-5.2c-0.3-0.9-0.2-2.4,1-2.3c1.8,0.1,3.6,3.7,4.2,5.2
	c0,0.2,0.1,0.4,0.3,0.5c0.6,0.4,1.9,0.3,2.5-0.2c0,0,0.1,0,0.1-0.1c0.2-0.2,0.3-0.4,0.3-0.6c0-2.1,0.4-4.2,1.1-6.1
	c0.5-1.2-2.7-1.3-3.1-0.2c-0.2,0.6-0.5,1.3-0.6,2c-1.6-1.8-3.7-3-6.1-2.4c-2.3,0.5-3.6,2.9-2.7,5.1c1.8,4.3,7.8,3.9,10,7.9
	c1.7,3,0.4,7.5-3.8,6.5c-3.5-0.8-4.4-8.1-0.6-6.6c1,0.4,3.8-0.8,2.2-1.4c-3.8-1.5-8.9-0.1-7.9,5c1,4.9,7.3,5.9,11.2,4
	C86,24.9,84.3,19,80.5,16.4z"/>
</svg>
