<?xml version="1.0" encoding="utf-8"?>
<!-- Generator: Adobe Illustrator 25.2.0, SVG Export Plug-In . SVG Version: 6.00 Build 0)  -->
<svg version="1.1" id="Layer_1" xmlns="http://www.w3.org/2000/svg" xmlns:xlink="http://www.w3.org/1999/xlink" x="0px" y="0px"
	 viewBox="0 0 111 39" style="enable-background:new 0 0 111 39;" xml:space="preserve">
<style type="text/css">
	.st0{fill:#00C868;}
</style>
<path d="M19.1,6.7v-5h0l0,0L19.1,6.7z M6.7,8.4l-2-4.6l0,0L6.7,8.4z M6.6,11.7l-2-4.6l0,0L6.6,11.7z M9.5,10.8l5,0.3l0.4-6.7
	L8.3,5.9L9.5,10.8z M12.8,10.2l-0.5-5L8,5.7L7.8,9.9L12.8,10.2z M18.5,10V5h0l0,0L18.5,10z M19,1.7c-3.8,0-9.5,0-14.3,2.1l4,9.2
	c2.7-1.1,6.2-1.3,10.4-1.3L19,1.7z M4.7,3.9c-2.1,0.9-3,2.7-3.3,3.5c-0.4,1-0.6,2-0.6,3c0,0.8,0,2.2,0.8,3.6
	c0.4,0.8,1.3,1.9,2.8,2.5c1.6,0.6,3.1,0.4,4.2-0.1l-4-9.2c0.8-0.3,2-0.6,3.4,0c1.3,0.5,2,1.4,2.3,2c0.3,0.5,0.4,1,0.4,1.1
	c0,0.2,0,0.4,0,0.4c0,0.1,0,0.3-0.1,0.5c0,0.1-0.5,1.3-2,1.9L4.7,3.9z M8.6,16.3c0.6-0.2,1.3-0.5,2-0.7L8.3,5.9
	C7.1,6.2,5.9,6.6,4.7,7.1L8.6,16.3z M4.5,10.5c-0.4,6.9-0.6,13.8-0.6,20.7h10c0-6.7,0.2-13.4,0.6-20.1L4.5,10.5z M3.9,31.1
	c0,3.1,2.3,4.7,3.5,5.2c1.3,0.5,2.5,0.6,3.4,0.5c0.9-0.1,2.1-0.3,3.3-1c1.1-0.7,3-2.3,3-5.1h-10c0-2.2,1.5-3.3,2-3.6
	c0.5-0.3,0.9-0.3,1-0.4c0.1,0,0.6,0,1.2,0.2c0.3,0.1,1,0.5,1.5,1.1c0.6,0.7,1,1.7,1,2.8H3.9z M17.1,30.9c0-6.8,0.2-13.6,0.6-20.3
	l-10-0.6c-0.4,6.9-0.6,13.9-0.6,20.9H17.1z M13.3,15.2C15,15,16.7,15,18.5,15L18.4,5c-1.8,0-4,0.1-6.2,0.3L13.3,15.2z M18.5,15
	c2.6,0,4.2-1.6,4.9-2.7c0.7-1.1,1.1-2.2,1.2-3.2c0.1-0.9,0.2-2.2-0.2-3.5c-0.4-1.3-1.9-3.9-5.3-3.9v10c-1.2,0-2.3-0.5-3.1-1.2
	c-0.7-0.7-1-1.4-1.1-1.7c-0.2-0.7-0.2-1.1-0.1-1.2c0-0.1,0.1-0.5,0.4-0.9C15.4,6.2,16.5,5,18.5,5V15z M21.4,7.8l5,0.3l0,0l0,0
	L21.4,7.8z M21,16.7l1.2,4.9l3.6-0.9l0.2-3.7L21,16.7z M19.1,17.1l-5-0.3l-0.4,6.4L20,22L19.1,17.1z M19.2,10.8l5-0.1l0-0.1l0-0.1
	L19.2,10.8z M15.9,11.1l5-0.1l0-0.1l0-0.1L15.9,11.1z M15.9,17.6l1.2,4.9l3.6-0.9l0.2-3.7L15.9,17.6z M15.6,20.8l5,0.5l0.4-4.4
	l-4.4-0.9L15.6,20.8z M15,27.3l-5-0.6l0,0l0,0L15,27.3z M18.2,27l-5-0.6l0,0L18.2,27z M18.9,20.4l-1.1-4.9l-3.6,0.8l-0.3,3.7
	L18.9,20.4z M20.8,19.9l5,0.2l0.2-6.5L19.7,15L20.8,19.9z M20.5,32l5,0.1l0,0l0,0L20.5,32z M23.7,31.8l-5-0.1l0,0L23.7,31.8z
	 M24.6,7.6l-5-0.4l0,0.1l0,0.1L24.6,7.6z M16.4,7.5c-0.2,3-0.3,6-0.4,8.9l10,0.4c0.1-2.9,0.2-5.8,0.4-8.7L16.4,7.5z M19.7,11.8
	c-0.6,0.1-1.1,0.3-1.6,0.4L20,22c0.8-0.1,1.5-0.3,2.1-0.5L19.7,11.8z M24.1,17.4c0.1-2.2,0.2-4.5,0.1-6.7l-10,0.3
	c0.1,1.9,0,3.9-0.1,5.8L24.1,17.4z M24.2,10.6c-0.2-3-2.4-4.5-3.6-5C19.3,5.1,18,5,17.1,5.1c-0.9,0.1-2.1,0.3-3.3,1
	c-1.1,0.7-3,2.4-2.9,5.3l10-0.5c0.1,2.3-1.4,3.5-2,3.8C18.4,15,18,15,17.9,15c-0.1,0-0.5,0-1.2-0.2c-0.6-0.2-2.4-1.3-2.6-3.7
	L24.2,10.6z M10.9,11.2c0.1,2,0,4-0.1,6.1l10,0.6c0.1-2.3,0.2-4.6,0.1-6.9L10.9,11.2z M14.7,12.7c-2.3,0.6-3.4,2.3-3.9,3.1
	c-0.5,1-0.8,2-0.8,2.9c-0.1,0.9,0,2,0.4,3.2c0.5,1.2,1.7,3.1,4.2,3.7l2.1-9.8c2,0.4,2.8,1.9,3,2.6c0.2,0.6,0.2,1.1,0.2,1.2
	c0,0.2-0.1,0.5-0.3,0.8c-0.1,0.3-0.9,1.5-2.6,2L14.7,12.7z M10.7,20.3c-0.2,2.1-0.4,4.3-0.7,6.4l9.9,1.1c0.2-2.2,0.5-4.4,0.7-6.6
	L10.7,20.3z M10,26.7c-0.4,3.4,2.1,5.2,3.4,5.7c1.2,0.5,2.5,0.6,3.4,0.6c0.9-0.1,2.1-0.3,3.2-0.9c1.1-0.6,2.9-2,3.2-4.5l-9.9-1.2
	c0.2-2,1.6-2.9,2-3.1c0.5-0.3,0.8-0.3,0.9-0.3c0.1,0,0.5,0,1.2,0.3c0.4,0.2,1,0.5,1.6,1.3c0.7,0.9,1,2,0.9,3.2L10,26.7z M23.2,27.6
	c0.3-2.3,0.5-4.6,0.7-6.9l-10-0.8c-0.2,2.1-0.4,4.3-0.7,6.5L23.2,27.6z M20,25.2c0.3-0.1,0.7-0.2,1-0.2c0.3-0.1,0.6-0.1,1-0.2
	L19.7,15c-0.3,0.1-0.7,0.2-1,0.2c-0.3,0.1-0.6,0.1-1,0.2L20,25.2z M15.8,19.7c-0.2,4.1-0.3,8.1-0.4,12.2l10,0.2c0.1-4,0.2-8,0.4-12
	L15.8,19.7z M15.5,31.9c-0.1,3.2,2.3,4.8,3.5,5.4c1.3,0.5,2.5,0.6,3.4,0.5c0.9-0.1,2.1-0.3,3.3-1c1.1-0.6,3-2.2,3-5l-10-0.2
	c0.1-2.1,1.5-3.2,2-3.5c0.5-0.3,0.9-0.3,1-0.3c0.1,0,0.5,0,1.2,0.2c0.3,0.1,1,0.5,1.5,1.2c0.6,0.8,1,1.8,1,2.9L15.5,31.9z
	 M28.7,31.9c0.2-8.1,0.4-16.1,0.9-24l-10-0.5c-0.4,8.1-0.7,16.2-0.9,24.3L28.7,31.9z M29.6,8c0.3-3.3-2.1-5-3.4-5.6
	c-1.3-0.6-2.5-0.6-3.4-0.6c-0.9,0.1-2.1,0.3-3.2,0.9c-1.1,0.6-2.9,2.1-3.1,4.9l10,0.5c-0.1,2.1-1.5,3.1-2,3.4
	c-0.5,0.3-0.9,0.3-1,0.3c-0.1,0-0.6,0-1.3-0.3c-0.4-0.2-1-0.5-1.6-1.3c-0.7-0.9-1-1.9-0.9-3L29.6,8z M37.1,18.2l5-0.4l0,0l0,0
	L37.1,18.2z M33.9,18.5l5-0.4l0,0l0,0L33.9,18.5z M33.9,25.1l-4.6-1.9l0,0l0,0L33.9,25.1z M28.4,25.3l3.7-3.4l0,0l0,0L28.4,25.3z
	 M32.4,14.8l1.6,4.7l0,0L32.4,14.8z M31.5,13.2l-0.3-5l0,0l0,0L31.5,13.2z M28.5,11l-4.4-2.3l0,0l0,0L28.5,11z M30.9,8.9L31.8,4l0,0
	l0,0L30.9,8.9z M32.2,10.6l4.2-2.7l0-0.1l0-0.1L32.2,10.6z M33.4,13.3h5v-0.7l-0.2-0.7L33.4,13.3z M35.8,13.9L34.5,9l-0.1,0l-0.1,0
	L35.8,13.9z M36.7,13l-5-0.1l0,0.9l0.3,0.8L36.7,13z M37.1,7.3L42,8.2l0,0l0,0L37.1,7.3z M33.9,7.1L29,6.2l0,0.1l0,0.1L33.9,7.1z
	 M33.7,8.3l-3.2,3.9l6.9,5.6L38.7,9L33.7,8.3z M26.1,9.7l-3.8-3.3l0,0l0,0L26.1,9.7z M28,14.7l2.7,4.2l9.9-6.4L29.1,9.9L28,14.7z
	 M24,20.7l5,0.7l0,0l0,0L24,20.7z M27.3,27.7l2.2-4.5l0,0l0,0L27.3,27.7z M36.7,26.4l3.9,3.2l0,0l0,0L36.7,26.4z M42.1,17.7
	c-0.3-2.9-2.4-4.3-3.7-4.8c-1.2-0.5-2.5-0.6-3.4-0.5c-0.9,0.1-2.2,0.3-3.3,1.1c-1.2,0.7-3.1,2.5-2.8,5.5l10-1c0.2,2.3-1.3,3.6-1.9,4
	c-0.6,0.4-1,0.4-1.1,0.4c-0.1,0-0.5,0-1.1-0.2c-0.6-0.2-2.3-1.2-2.5-3.5L42.1,17.7z M28.9,18.9c0,0.6,0.1,1.3,0.2,1.8
	c0.1,0.6,0.1,1,0.2,1.5c0,0.5,0,0.8,0,1c0,0.2,0,0.2,0,0l9.3,3.8c0.8-2.1,0.8-4.2,0.7-5.5c-0.1-0.7-0.1-1.4-0.2-2
	c-0.1-0.6-0.1-1-0.2-1.4L28.9,18.9z M29.3,23.3c0.3-0.7,0.8-1.2,1.3-1.5c0.4-0.2,0.8-0.2,0.8-0.2c0.1,0,0.2,0,0.2,0
	c0,0,0.2,0.1,0.4,0.3l-7.3,6.8c1.8,2,4.4,2.9,6.7,2.9c2.2,0,5.7-1,7.2-4.6L29.3,23.3z M32,21.9C31.9,21.7,32,21.7,32,21.9
	c-0.1,0-0.1-0.2,0.1-0.5c0.2-0.4,0.5-0.8,0.9-1.1c0.4-0.4,0.8-0.6,1-0.7l-3.2-9.5c-3.3,1.1-6.2,3.7-7.7,6.9c-1.6,3.4-1.9,8,1.6,11.7
	L32,21.9z M34,19.6c0.8-0.3,2.9-1.1,3.8-3.5c1.1-2.8-0.5-5-1.2-5.8c-0.8-0.9-1.8-1.3-2.5-1.6c-0.7-0.3-1.8-0.5-2.9-0.5l0.6,10
	c-0.6,0-1-0.1-1.2-0.2c-0.2-0.1-0.7-0.3-1.2-0.8c-0.4-0.4-1.8-2.2-0.9-4.7c0.4-1.1,1.1-1.7,1.5-2c0.4-0.3,0.8-0.4,0.9-0.5L34,19.6z
	 M31.1,8.3c-0.4,0-0.6,0-0.7,0c-0.2,0,0,0,0.5,0.2c0.6,0.2,1.8,1,2.2,2.7c0.2,0.7,0.1,1.3,0.1,1.7c0,0.2-0.1,0.3-0.1,0.4
	c0,0.1-0.1,0.1-0.1,0.1l-8.9-4.6c-0.5,1-1.2,2.8-0.7,4.9c0.6,2.3,2.3,3.5,3.5,4.1c1.1,0.5,2.2,0.6,2.9,0.6c0.8,0,1.5,0,2,0L31.1,8.3
	z M32.9,13.3c-0.1,0.2-0.2,0.3-0.2,0.3c0,0.1-0.1,0.1-0.1,0.1c0,0,0,0,0,0C32.8,13.6,32.9,13.5,32.9,13.3c0.2-0.1,0.2-0.1,0.1,0
	c-0.1,0-0.3,0.2-0.6,0.3c-0.2,0.1-0.5,0.2-0.8,0.2c-0.4,0.1-0.9,0.1-1.6,0L31.7,4c-1.4-0.2-2.4,0.1-2.9,0.3c-0.5,0.2-1,0.5-1.2,0.6
	c-0.6,0.4-1.1,0.8-1.4,1.1c-0.4,0.4-0.7,0.7-1,1.1c-0.2,0.3-0.7,0.8-1,1.5L32.9,13.3z M30,13.9c-0.7-0.1-1.2-0.4-1.5-0.6
	c-0.3-0.2-0.5-0.4-0.7-0.5c-0.2-0.2-0.3-0.4-0.3-0.3c0,0,0.1,0.1,0.2,0.2c0,0,0.1,0.2,0.1,0.2c0.1,0.1,0.1,0.2,0.2,0.4l8.3-5.5
	c0,0,0,0-0.2-0.3c-0.1-0.2-0.3-0.5-0.5-0.8c-0.2-0.3-0.5-0.8-1-1.2c-0.4-0.4-1.4-1.3-3-1.5L30,13.9z M28,13.2
	c0.2,0.4,0.5,0.9,0.6,1.4l9.6-2.8c-0.4-1.3-1-2.7-1.8-4L28,13.2z M28.4,13.3c0,1.9,0.9,3.4,2,4.3c1,0.8,2,1.1,2.7,1.3
	c1.4,0.3,2.8,0.2,4.1-0.2l-3-9.5c0.3-0.1,0.6-0.1,1.1,0c0.2,0.1,0.9,0.2,1.5,0.8c0.8,0.7,1.6,1.9,1.6,3.4H28.4z M37,18.8
	c0.7-0.2,1.8-0.6,2.9-1.5c1.2-1.1,2.5-3.3,1.6-5.9l-9.5,3.2c-0.3-0.9-0.3-1.9,0-2.9c0.3-0.9,0.8-1.5,1.2-1.8
	c0.7-0.6,1.3-0.7,1.4-0.8L37,18.8z M41.7,13.1c0-1.8,0.1-3.7,0.3-4.9l-9.8-1.9c-0.4,2.1-0.5,4.8-0.5,6.5L41.7,13.1z M42,8.1
	c0.2-1.2,0.1-2.4-0.5-3.6c-0.6-1.1-1.4-1.8-2.1-2.3c-1.3-0.8-2.7-1-3.6-1c-1,0-2.1,0.1-3.2,0.6c-0.9,0.4-3,1.6-3.6,4.3L38.8,8
	c-0.4,2.1-2,2.9-2.3,3c-0.4,0.2-0.8,0.2-0.9,0.2c-0.1,0-0.7,0-1.5-0.5c-0.4-0.3-1.1-0.8-1.5-1.6c-0.5-0.9-0.6-1.9-0.4-2.7L42,8.1z
	 M29,6.3c-0.1,0.4-0.1,0.9-0.2,1.3L38.7,9c0.1-0.4,0.1-0.8,0.2-1.2L29,6.3z M36.9,4.4c-1.9-1.6-4.5-2.6-7.5-2.2
	c-2.9,0.4-5.3,2-7.1,4.2l7.6,6.5c0.8-0.9,1.1-0.9,0.9-0.8c-0.1,0-0.2,0-0.3,0c-0.1,0,0,0,0.1,0.1L36.9,4.4z M22.3,6.5
	c-1.7,2-3.5,5.5-1.5,9.1c1.6,2.8,4.6,3.7,6,4l2.2-9.7c-0.3-0.1-0.4-0.1-0.4-0.1c0,0,0.5,0.3,0.9,0.9c0.2,0.3,0.3,0.8,0.4,1.2
	c0.1,0.4,0,0.8-0.1,1c-0.1,0.4-0.2,0.5,0.1,0.1L22.3,6.5z M25.2,10.6c-3,2-5.6,5.1-6.2,9.5l9.9,1.4c0.1-0.9,0.6-1.8,1.8-2.5
	L25.2,10.6z M19,20c-0.6,4.4,1.1,9.7,6.1,12.1l4.3-9c-0.2-0.1-0.3-0.2-0.4-0.5c-0.1-0.3-0.2-0.8-0.2-1.2L19,20z M25.1,32.2
	c2.3,1.1,5.3,1.3,7.6,1.1c1.3-0.1,2.6-0.4,3.9-0.9c1.2-0.5,2.7-1.3,3.9-2.7l-7.7-6.4c0.3-0.4,0.5-0.4,0.2-0.3
	c-0.3,0.1-0.7,0.2-1.3,0.3c-0.6,0.1-1.1,0.1-1.6,0c-0.5-0.1-0.7-0.2-0.6-0.1L25.1,32.2z M40.5,29.6c1.1-1.4,1.6-2.9,1.8-4
	c0.2-1.2,0.2-2.4,0.2-3.3c-0.1-1.7-0.4-4.1-0.4-4.5l-10,0.9c0.1,0.6,0.2,1.5,0.2,2c0.1,0.7,0.1,1.3,0.2,1.9c0,0.6,0,1-0.1,1.2
	c0,0.2,0,0,0.3-0.4L40.5,29.6z M53,14.9L52,10l-13.3,2.8l11.9,6.5L53,14.9z M57,10.8l-4.7,1.6l0,0L57,10.8z M49.9,6.8l-0.9-4.9
	l-0.1,0l-0.1,0L49.9,6.8z M48.8,7.2l-4.9,1l1.2,6.2l5.7-2.6L48.8,7.2z M48.8,6.7h5V6.5l0-0.2L48.8,6.7z M45.6,7l-5,0.2l0,0l0,0
	L45.6,7z M45.4,23.4l5,0.4l0,0L45.4,23.4z M48.6,23.1l-5-0.4l0,0l0,0L48.6,23.1z M49,15.4l1.6-4.7l-6.4-2.1L44,15.3L49,15.4z
	 M54.9,20.8l4.7-1.7l0,0l0,0L54.9,20.8z M50.9,26.1l-3.3-3.8l-8.3,7.2l10.9,1.5L50.9,26.1z M53.3,19.9l-4.9,0.7l0,0l0,0L53.3,19.9z
	 M50.1,20.2l-4.9,0.8l0,0.1l0,0.1L50.1,20.2z M48.2,25.3l-3.1-3.9l0,0l0,0L48.2,25.3z M46.6,26.3l-2.1-4.5l0,0l0,0L46.6,26.3z
	 M46,26.6l1.5,4.8l-2.8-9.6L46,26.6z M47,28.2l-1.3-4.8l-0.1,0l-0.1,0L47,28.2z M48.6,27.6l1.2-4.8l-1.9-0.5l-1.7,0.9L48.6,27.6z
	 M58.5,23.8L53.5,23l0,0L58.5,23.8z M49,13.3h5v-0.1l0-0.1L49,13.3z M52.5,9.8l2.8-4.2l0,0l0,0L52.5,9.8z M53.2,12.8l-2.9-4.1l0,0
	l0,0L53.2,12.8z M49,13.5h-5v5.1l5.1-0.1L49,13.5z M54,19.8c1.5-0.3,3.6-0.9,5.4-2.3c0.9-0.8,1.9-1.9,2.5-3.5
	c0.5-1.6,0.4-3.3-0.1-4.7l-9.5,3.2c-0.1-0.3-0.2-0.9,0-1.6c0.2-0.7,0.6-1.1,0.8-1.2c0.1-0.1,0.1-0.1-0.1,0c-0.2,0.1-0.6,0.2-1,0.3
	L54,19.8z M61.8,9.2c-1-2.8-3.2-4.8-5.2-5.9c-2-1.1-4.7-1.9-7.5-1.4l1.7,9.9c-0.1,0-0.1,0,0.2,0c0.2,0,0.5,0.1,0.8,0.3
	c0.3,0.2,0.5,0.3,0.6,0.4c0.1,0.1,0.1,0.1,0-0.1L61.8,9.2z M48.9,1.9c-0.8,0.2-1.5,0.4-2.1,0.7l4.1,9.1c0,0,0,0,0,0c0,0,0,0,0.1,0
	L48.9,1.9z M53.7,6.2c0,0.2,0.1,0.4,0.1,0.5c0,0.1,0,0.1,0,0h-10c0,0.1,0,0.7,0.1,1.4L53.7,6.2z M53.8,6.4c-0.2-3-2.4-4.4-3.7-4.9
	C48.9,1,47.6,0.9,46.7,1c-0.9,0.1-2.2,0.3-3.3,1.1c-1.2,0.7-3,2.4-2.8,5.2l10-0.5c0.1,2.2-1.3,3.4-1.9,3.7c-0.6,0.3-1,0.4-1.1,0.4
	c-0.1,0-0.6,0-1.2-0.2c-0.6-0.2-2.4-1.3-2.6-3.6L53.8,6.4z M40.6,7.3c0.3,5.2,0.2,10.4-0.2,15.6l10,0.8c0.4-5.6,0.5-11.3,0.2-17
	L40.6,7.3z M40.4,23c-0.3,3.3,2.2,5,3.4,5.6c1.3,0.5,2.5,0.6,3.4,0.6c0.9-0.1,2.1-0.3,3.2-0.9c1.1-0.6,2.9-2.1,3.1-4.7l-10-0.7
	c0.1-2,1.6-3,2-3.3c0.5-0.3,0.9-0.3,1-0.3c0.1,0,0.6,0,1.2,0.3c0.4,0.2,1,0.5,1.6,1.3c0.7,0.9,1,2,0.9,3.1L40.4,23z M53.6,23.5
	c0.2-2.7,0.3-5.3,0.4-7.9l-10-0.2c-0.1,2.5-0.2,4.9-0.4,7.4L53.6,23.5z M47.4,20.2c1.5,0.5,2.4,1.4,2.8,2.4l9.4-3.5
	c-1.6-4.4-5.2-7.2-9-8.4L47.4,20.2z M50.2,22.6c0.2,0.4,0.1,0.5,0.1,0.4c0-0.2,0.1-0.6,0.4-1c0.3-0.4,0.8-0.6,1-0.7
	c0.2-0.1,0.2,0-0.1,0l-1.4,9.9c2.7,0.4,6.2-0.1,8.4-3c2.2-2.8,1.9-6.3,1-9L50.2,22.6z M54.2,29.9c2.8-2.4,4.9-6.1,4.1-10.8l-9.9,1.6
	c0.1,0.4,0,0.6-0.1,0.7c-0.1,0.2-0.3,0.5-0.7,0.9L54.2,29.9z M58.3,19.2c-0.4-2.8-2.5-4.1-3.8-4.6c-1.2-0.5-2.5-0.5-3.4-0.4
	c-0.9,0.1-2.1,0.4-3.3,1.1c-1.1,0.7-3.1,2.6-2.7,5.7l9.9-1.5c0.4,2.5-1.3,3.9-1.9,4.3c-0.6,0.4-1,0.4-1.1,0.4c-0.1,0-0.5,0-1.1-0.2
	c-0.6-0.2-2.2-1.1-2.6-3.3L58.3,19.2z M45.2,21c0,0.1,0,0.2,0,0.3c0,0,0,0,0,0c0,0,0,0,0,0c0,0,0,0-0.1,0.1l6.2,7.8
	c3.1-2.5,4.4-6.2,3.7-9.9L45.2,21z M45,21.4c-0.1,0.1-0.3,0.2-0.6,0.4l4.3,9c0.9-0.4,1.8-1,2.6-1.6L45,21.4z M44.4,21.8
	c0.1-0.1,0.2-0.1-0.2,0.1C44.1,22,44,22,43.8,22c0,0-0.2,0.1-0.3,0.1c-0.1,0-0.2,0.1-0.4,0.2c0,0-0.6,0.3-1.1,0.9
	c-0.2,0.2-1.1,1.2-1.3,2.9c-0.1,1,0.1,2.1,0.7,3.1c0.5,0.9,1.3,1.5,1.8,1.8c0.9,0.5,1.8,0.6,2,0.7c0.3,0,0.6,0,0.7,0
	c0.5,0,0.8-0.1,0.8-0.1c0.2,0,0.4-0.1,0.5-0.1l-2.6-9.6c-0.1,0,0,0,0.1,0c0,0,0.1,0,0.2,0c0.1,0,0.3,0,0.6-0.1c0.1,0,0.4,0,0.7,0
	c0.2,0,1.1,0.1,2,0.7c0.5,0.3,1.2,0.9,1.8,1.8c0.6,1,0.8,2.1,0.7,3.1c-0.2,1.6-1.1,2.6-1.3,2.8c-0.5,0.6-1.1,0.9-1.1,0.9
	c-0.2,0.1-0.3,0.2-0.3,0.2c-0.1,0.1-0.2,0.1-0.2,0.1c0,0-0.1,0,0,0c0,0,0.1,0,0.1-0.1c0.1,0,0.1-0.1,0.2-0.1c0.1,0,0.4-0.2,0.7-0.3
	L44.4,21.8z M44.5,21.8c-1,0.3-2.8,1-3.8,2.9c-1.4,2.4-0.6,4.9,0.6,6.3c1.9,2.3,4.9,2.7,7.2,2l-2.9-9.6c0.5-0.2,1-0.2,1.5,0
	c0.4,0.1,1.2,0.4,1.9,1.2c0.4,0.5,0.8,1.2,0.9,2.1c0.2,1-0.1,2-0.5,2.9c-0.4,0.8-1,1.2-1.3,1.4c-0.3,0.2-0.6,0.3-0.7,0.3L44.5,21.8z
	 M48.3,33.1c0.9-0.3,1.8-0.6,2.6-1l-4.7-8.8c-0.2,0.1-0.4,0.2-0.6,0.2L48.3,33.1z M47.3,32.5c2.2,0.6,5.5,1.1,8.5,0.3
	c1.6-0.4,3.4-1.2,4.8-2.6c1.5-1.5,2.4-3.4,2.7-5.6L53.5,23c-0.1,0.3-0.1,0.2,0.1,0.1c0.1-0.1,0.2-0.1-0.1,0
	c-0.3,0.1-0.8,0.1-1.5,0.1c-0.7-0.1-1.5-0.2-2.2-0.4L47.3,32.5z M63.4,24.6c1.1-7.1-3.9-11.9-8-14.1l-4.8,8.8c1.2,0.6,2,1.4,2.5,2.1
	c0.4,0.6,0.5,1.2,0.4,1.7L63.4,24.6z M54,13.2c0-0.3,0-0.5,0-0.7c0-0.2,0.1-0.1-0.2,0.2c-0.3,0.4-1,1.3-2.4,1.5
	c-1.2,0.2-1.9-0.3-1.7-0.2l5.4-8.4C54,4.8,52.1,4,50,4.3c-2.3,0.4-3.7,1.8-4.5,3c-1.4,2.1-1.5,4.7-1.5,6.1L54,13.2z M49.8,14
	c0,0-0.1,0-0.2-0.2c-0.1-0.1-0.3-0.4-0.5-1c-0.2-0.6-0.3-1.5,0-2.4C49.4,9.5,50,9,50.3,8.7l5.7,8.2c1-0.7,2-1.7,2.5-3.2
	c0.5-1.5,0.4-2.9,0-4c-0.7-2-2.2-3.4-3.3-4.1L49.8,14z M50.3,8.8c0.2-0.2,0.4-0.2,0.5-0.3c0.1,0,0.2-0.1,0.2-0.1c0,0-0.1,0-0.3,0
	c-0.2,0-0.5,0-0.8,0c-0.2,0-0.3,0-0.5,0c-0.2,0-0.4,0-0.5,0l0.2,10c0.4,0,1.6,0,2.6-0.1c0.9-0.1,2.8-0.3,4.5-1.5L50.3,8.8z M54,13.5
	C54,13.5,54,13.5,54,13.5C54,13.5,54,13.5,54,13.5L54,13.5C54,13.5,54,13.5,54,13.5C54,13.5,54,13.5,54,13.5L54,13.5
	C54,13.5,54,13.5,54,13.5C54,13.5,54,13.5,54,13.5C54,13.5,54,13.5,54,13.5L54,13.5C54,13.5,54,13.5,54,13.5
	C54,13.5,54,13.5,54,13.5L54,13.5C54,13.5,54,13.5,54,13.5C54,13.5,54,13.5,54,13.5L54,13.5C54,13.5,54,13.5,54,13.5
	C54,13.5,54,13.5,54,13.5L54,13.5C54,13.5,54,13.5,54,13.5L54,13.5C54,13.5,54,13.5,54,13.5C54,13.5,54,13.5,54,13.5L54,13.5
	C54,13.5,54,13.5,54,13.5L54,13.5C54,13.5,54,13.5,54,13.5C54,13.5,54,13.5,54,13.5L54,13.5C54,13.5,54,13.5,54,13.5L54,13.5
	C54,13.5,54,13.5,54,13.5L54,13.5C54,13.5,54,13.5,54,13.5L54,13.5C54,13.5,54,13.5,54,13.5L54,13.5C54,13.5,54,13.5,54,13.5
	L54,13.5C54,13.5,54,13.5,54,13.5L54,13.5C54,13.5,54,13.5,54,13.5L54,13.5C54,13.5,54,13.5,54,13.5L54,13.5
	C54,13.5,54,13.5,54,13.5L54,13.5C54,13.5,54,13.5,54,13.5L54,13.5C54,13.5,54,13.5,54,13.5L54,13.5L54,13.5
	C54,13.5,54,13.5,54,13.5L54,13.5C54,13.5,54,13.5,54,13.5L54,13.5C54,13.5,54,13.5,54,13.5C54,13.5,54,13.5,54,13.5L54,13.5
	C54,13.5,54,13.5,54,13.5L54,13.5L54,13.5C54,13.5,54,13.5,54,13.5L54,13.5L54,13.5C54,13.5,54,13.5,54,13.5L54,13.5L54,13.5
	C54,13.5,54,13.5,54,13.5L54,13.5L54,13.5C54,13.5,54,13.5,54,13.5C54,13.5,54,13.5,54,13.5L54,13.5C54,13.5,54,13.5,54,13.5
	C54,13.5,54,13.5,54,13.5L54,13.5L54,13.5C54,13.5,54,13.5,54,13.5C54,13.5,54,13.5,54,13.5L54,13.5L54,13.5
	C54,13.5,54,13.5,54,13.5C54,13.5,54,13.5,54,13.5L54,13.5L54,13.5C54,13.5,54,13.5,54,13.5C54,13.5,54,13.5,54,13.5
	C54,13.5,54,13.5,54,13.5L54,13.5L54,13.5C54,13.5,54,13.5,54,13.5C54,13.5,54,13.5,54,13.5C54,13.5,54,13.5,54,13.5L54,13.5
	L54,13.5L54,13.5C54,13.5,54,13.5,54,13.5C54,13.5,54,13.5,54,13.5C54,13.5,54,13.5,54,13.5C54,13.5,54,13.5,54,13.5L54,13.5
	L54,13.5L54,13.5C54,13.5,54,13.5,54,13.5C54,13.5,54,13.5,54,13.5C54,13.5,54,13.5,54,13.5C54,13.5,54,13.5,54,13.5
	C54,13.5,54,13.5,54,13.5C54,13.5,54,13.5,54,13.5L54,13.5L54,13.5L54,13.5L54,13.5L54,13.5C54,13.5,54,13.5,54,13.5
	C54,13.5,54,13.5,54,13.5C54,13.5,54,13.5,54,13.5C54,13.5,54,13.5,54,13.5C54,13.5,54,13.5,54,13.5C54,13.5,54,13.5,54,13.5
	C54,13.5,54,13.5,54,13.5C54,13.5,54,13.5,54,13.5C54,13.5,54,13.5,54,13.5C54,13.5,54,13.5,54,13.5C54,13.5,54,13.5,54,13.5
	C54,13.5,54,13.5,54,13.5C54,13.5,54,13.5,54,13.5C54,13.5,54,13.5,54,13.5C54,13.5,54,13.5,54,13.5C54,13.5,54,13.5,54,13.5
	C54,13.5,54,13.5,54,13.5C54,13.5,54,13.5,54,13.5C54,13.5,54,13.5,54,13.5C54,13.5,54,13.5,54,13.5C54,13.5,54,13.5,54,13.5
	C54,13.5,54,13.5,54,13.5L54,13.5L54,13.5L54,13.5L54,13.5C54,13.5,54,13.5,54,13.5C54,13.5,54,13.5,54,13.5
	C54,13.5,54,13.5,54,13.5C54,13.5,54,13.5,54,13.5L54,13.5C54,13.5,54,13.5,54,13.5C54,13.5,54,13.5,54,13.5
	C54,13.5,54,13.5,54,13.5L54,13.5L54,13.5C54,13.5,54,13.5,54,13.5C54,13.5,54,13.5,54,13.5L54,13.5C54,13.5,54,13.5,54,13.5
	C54,13.5,54,13.5,54,13.5L54,13.5L54,13.5C54,13.5,54,13.5,54,13.5C54,13.5,54,13.5,54,13.5L54,13.5C54,13.5,54,13.5,54,13.5
	L54,13.5L54,13.5C54,13.5,54,13.5,54,13.5L54,13.5C54,13.5,54,13.5,54,13.5L54,13.5L54,13.5C54,13.5,54,13.5,54,13.5L54,13.5
	C54,13.5,54,13.5,54,13.5L54,13.5C54,13.5,54,13.5,54,13.5L54,13.5C54,13.5,54,13.5,54,13.5L54,13.5C54,13.5,54,13.5,54,13.5
	L54,13.5C54,13.5,54,13.5,54,13.5L54,13.5C54,13.5,54,13.5,54,13.5L54,13.5C54,13.5,54,13.5,54,13.5L54,13.5
	C54,13.5,54,13.5,54,13.5L54,13.5C54,13.5,54,13.5,54,13.5C54,13.5,54,13.5,54,13.5L54,13.5C54,13.5,54,13.5,54,13.5L54,13.5
	L54,13.5C54,13.5,54,13.5,54,13.5L54,13.5L54,13.5C54,13.5,54,13.5,54,13.5L54,13.5L54,13.5C54,13.5,54,13.5,54,13.5L54,13.5
	L54,13.5C54,13.5,54,13.5,54,13.5C54,13.5,54,13.5,54,13.5L54,13.5C54,13.5,54,13.5,54,13.5C54,13.5,54,13.5,54,13.5L54,13.5
	L54,13.5L54,13.5C54,13.5,54,13.5,54,13.5C54,13.5,54,13.5,54,13.5L54,13.5L54,13.5L54,13.5C54,13.5,54,13.5,54,13.5
	C54,13.5,54,13.5,54,13.5L54,13.5L54,13.5L54,13.5C54,13.5,54,13.5,54,13.5L54,13.5C54,13.5,54,13.5,54,13.5
	C54,13.5,54,13.5,54,13.5L54,13.5L54,13.5L54,13.5L54,13.5L54,13.5C54,13.5,54,13.5,54,13.5L54,13.5C54,13.5,54,13.5,54,13.5
	L54,13.5C54,13.5,54,13.5,54,13.5C54,13.5,54,13.5,54,13.5L54,13.5C54,13.5,54,13.5,54,13.5L54,13.5C54,13.5,54,13.5,54,13.5
	L54,13.5C54,13.5,54,13.5,54,13.5L54,13.5L54,13.5C54,13.5,54,13.5,54,13.5L54,13.5C54,13.5,54,13.5,54,13.5L54,13.5
	C54,13.5,54,13.5,54,13.5L54,13.5C54,13.5,54,13.5,54,13.5L54,13.5L54,13.5L54,13.5C54,13.5,54,13.5,54,13.5L54,13.5
	C54,13.5,54,13.5,54,13.5L54,13.5L54,13.5C54,13.5,54,13.5,54,13.5L54,13.5L54,13.5L54,13.5C54,13.5,54,13.5,54,13.5L54,13.5
	L54,13.5L54,13.5L54,13.5C54,13.5,54,13.5,54,13.5L54,13.5L54,13.5L54,13.5L54,13.5L54,13.5C54,13.5,54,13.5,54,13.5L54,13.5
	L54,13.5L54,13.5L54,13.5L54,13.5L54,13.5L54,13.5C54,13.5,54,13.5,54,13.5L54,13.5C54,13.5,54,13.5,54,13.5L54,13.5L54,13.5
	C54,13.5,54,13.5,54,13.5L54,13.5L54,13.5C54,13.5,54,13.5,54,13.5L54,13.5L54,13.5C54,13.5,54,13.5,54,13.5L54,13.5L54,13.5
	L54,13.5C54,13.5,54,13.5,54,13.5L54,13.5L54,13.5C54,13.5,54,13.5,54,13.5L54,13.5L54,13.5L54,13.5L54,13.5L54,13.5L54,13.5
	C54,13.5,54,13.5,54,13.5L54,13.5L54,13.5C54,13.5,54,13.5,54,13.5L54,13.5L54,13.5L54,13.5L54,13.5L54,13.5L54,13.5L54,13.5
	C54,13.5,54,13.5,54,13.5L54,13.5L54,13.5L54,13.5C54,13.5,54,13.5,54,13.5L54,13.5L54,13.5L54,13.5L54,13.5L54,13.5L54,13.5
	L54,13.5C54,13.5,54,13.5,54,13.5L54,13.5L54,13.5L54,13.5L54,13.5L54,13.5L54,13.5L54,13.5L54,13.5L54,13.5
	C54,13.5,54,13.5,54,13.5L54,13.5L54,13.5L54,13.5L54,13.5L54,13.5L54,13.5L54,13.5L54,13.5L54,13.5C54,13.5,54,13.5,54,13.5
	L54,13.5L54,13.5L54,13.5L54,13.5L54,13.5C54,13.5,54,13.5,54,13.5L54,13.5L54,13.5L54,13.5L54,13.5L54,13.5L54,13.5
	C54,13.5,54,13.5,54,13.5L54,13.5L54,13.5L54,13.5L54,13.5L54,13.5L54,13.5C54,13.5,54,13.5,54,13.5L54,13.5L54,13.5L54,13.5
	L54,13.5L54,13.5L54,13.5C54,13.5,54,13.5,54,13.5L54,13.5L54,13.5L54,13.5L54,13.5L54,13.5L54,13.5L54,13.5L54,13.5L54,13.5
	L54,13.5L54,13.5L54,13.5L54,13.5L54,13.5L54,13.5L54,13.5L54,13.5L54,13.5C54,13.5,54,13.5,54,13.5L54,13.5L54,13.5L54,13.5
	L54,13.5L54,13.5L54,13.5L54,13.5L54,13.5L54,13.5L54,13.5L54,13.5L54,13.5C54,13.5,54,13.5,54,13.5L54,13.5L54,13.5L54,13.5
	L54,13.5L54,13.5L54,13.5L54,13.5L54,13.5L54,13.5L54,13.5L54,13.5L54,13.5L54,13.5L54,13.5L54,13.5L54,13.5L54,13.5L54,13.5
	L54,13.5L54,13.5L54,13.5L54,13.5L54,13.5L54,13.5L54,13.5L54,13.5L54,13.5L54,13.5L54,13.5L54,13.5L54,13.5L54,13.5L54,13.5
	L54,13.5L54,13.5L54,13.5L54,13.5L54,13.5L54,13.5L54,13.5L54,13.5L54,13.5C54,13.5,54,13.5,54,13.5L54,13.5L54,13.5L54,13.5
	L54,13.5L54,13.5L54,13.5L54,13.5L54,13.5L54,13.5L54,13.5L54,13.5L54,13.5L54,13.5L54,13.5L54,13.5L54,13.5L54,13.5L54,13.5
	L54,13.5L54,13.5L54,13.5L54,13.5L54,13.5L54,13.5L54,13.5L54,13.5L54,13.5L54,13.5L54,13.5L54,13.5L54,13.5L54,13.5L54,13.5
	L54,13.5l-5,0h-5l0,0l0,0l0,0l0,0l0,0l0,0l0,0l0,0l0,0l0,0l0,0l0,0l0,0l0,0l0,0l0,0l0,0l0,0l0,0l0,0l0,0l0,0l0,0l0,0l0,0l0,0l0,0
	l0,0l0,0l0,0l0,0l0,0l0,0l0,0c0,0,0,0,0,0l0,0l0,0l0,0l0,0l0,0l0,0l0,0l0,0l0,0l0,0l0,0l0,0l0,0l0,0l0,0l0,0l0,0l0,0l0,0l0,0l0,0
	l0,0l0,0l0,0l0,0l0,0v0l0,0l0,0l0,0l0,0l0,0l0,0l0,0l0,0l0,0l0,0l0,0l0,0l0,0l0,0l0,0c0,0,0,0,0,0l0,0l0,0l0,0l0,0l0,0l0,0l0,0l0,0
	l0,0l0,0l0,0l0,0c0,0,0,0,0,0l0,0l0,0l0,0l0,0l0,0l0,0l0,0l0,0l0,0v0l0,0l0,0l0,0l0,0l0,0l0,0l0,0l0,0c0,0,0,0,0,0l0,0l0,0l0,0l0,0
	l0,0l0,0c0,0,0,0,0,0l0,0l0,0l0,0l0,0l0,0l0,0c0,0,0,0,0,0l0,0l0,0l0,0l0,0l0,0l0,0c0,0,0,0,0,0l0,0l0,0l0,0l0,0l0,0c0,0,0,0,0,0
	l0,0l0,0l0,0l0,0v0l0,0l0,0l0,0l0,0c0,0,0,0,0,0l0,0l0,0l0,0l0,0v0l0,0l0,0l0,0l0,0c0,0,0,0,0,0l0,0l0,0l0,0v0l0,0l0,0l0,0
	c0,0,0,0,0,0l0,0l0,0l0,0c0,0,0,0,0,0l0,0l0,0l0,0v0l0,0l0,0l0,0c0,0,0,0,0,0l0,0l0,0c0,0,0,0,0,0l0,0l0,0l0,0v0l0,0l0,0
	c0,0,0,0,0,0l0,0l0,0c0,0,0,0,0,0l0,0l0,0l0,0c0,0,0,0,0,0l0,0l0,0c0,0,0,0,0,0l0,0l0,0c0,0,0,0,0,0l0,0l0,0c0,0,0,0,0,0l0,0
	c0,0,0,0,0,0l0,0l0,0v0l0,0l0,0v0l0,0c0,0,0,0,0,0l0,0l0,0v0l0,0l0,0c0,0,0,0,0,0l0,0v0l0,0l0,0c0,0,0,0,0,0l0,0v0l0,0c0,0,0,0,0,0
	l0,0l0,0c0,0,0,0,0,0l0,0c0,0,0,0,0,0l0,0v0l0,0c0,0,0,0,0,0l0,0c0,0,0,0,0,0l0,0c0,0,0,0,0,0l0,0c0,0,0,0,0,0l0,0l0,0c0,0,0,0,0,0
	l0,0c0,0,0,0,0,0l0,0c0,0,0,0,0,0l0,0c0,0,0,0,0,0s0,0,0,0l0,0c0,0,0,0,0,0l0,0c0,0,0,0,0,0l0,0v0l0,0v0l0,0c0,0,0,0,0,0s0,0,0,0
	l0,0c0,0,0,0,0,0l0,0v0l0,0c0,0,0,0,0,0s0,0,0,0l0,0v0l0,0c0,0,0,0,0,0s0,0,0,0l0,0v0l0,0c0,0,0,0,0,0s0,0,0,0l0,0c0,0,0,0,0,0
	s0,0,0,0l0,0v0c0,0,0,0,0,0l0,0v0c0,0,0,0,0,0l0,0v0c0,0,0,0,0,0l0,0v0c0,0,0,0,0,0l0,0c0,0,0,0,0,0s0,0,0,0l0,0c0,0,0,0,0,0v0
	c0,0,0,0,0,0l0,0c0,0,0,0,0,0v0c0,0,0,0,0,0l0,0c0,0,0,0,0,0v0c0,0,0,0,0,0l0,0c0,0,0,0,0,0v0c0,0,0,0,0,0l0,0c0,0,0,0,0,0v0v0
	c0,0,0,0,0,0l0,0c0,0,0,0,0,0v0v0c0,0,0,0,0,0l0,0c0,0,0,0,0,0c0,0,0,0,0,0v0v0c0,0,0,0,0,0c0,0,0,0,0,0l0,0c0,0,0,0,0,0
	c0,0,0,0,0,0v0v0c0,0,0,0,0,0c0,0,0,0,0,0c0,0,0,0,0,0l0,0c0,0,0,0,0,0c0,0,0,0,0,0c0,0,0,0,0,0c0,0,0,0,0,0v0v0v0v0c0,0,0,0,0,0
	c0,0,0,0,0,0c0,0,0,0,0,0c0,0,0,0,0,0c0,0,0,0,0,0c0,0,0,0,0,0c0,0,0,0,0,0c0,0,0,0,0,0c0,0,0,0,0,0c0,0,0,0,0,0c0,0,0,0,0,0
	c0,0,0,0,0,0c0,0,0,0,0,0c0,0,0,0,0,0c0,0,0,0,0,0c0,0,0,0,0,0c0,0,0,0,0,0c0,0,0,0,0,0c0,0,0,0,0,0c0,0,0,0,0,0c0,0,0,0,0,0
	c0,0,0,0,0,0v0v0v0v0v0c0,0,0,0,0,0c0,0,0,0,0,0c0,0,0,0,0,0c0,0,0,0,0,0c0,0,0,0,0,0c0,0,0,0,0,0v0v0v0c0,0,0,0,0,0c0,0,0,0,0,0
	c0,0,0,0,0,0c0,0,0,0,0,0v0v0v0c0,0,0,0,0,0c0,0,0,0,0,0c0,0,0,0,0,0v0v0c0,0,0,0,0,0c0,0,0,0,0,0c0,0,0,0,0,0v0v0c0,0,0,0,0,0
	c0,0,0,0,0,0v0v0c0,0,0,0,0,0c0,0,0,0,0,0v0v0c0,0,0,0,0,0c0,0,0,0,0,0v0c0,0,0,0,0,0c0,0,0,0,0,0v0v0c0,0,0,0,0,0v0v0c0,0,0,0,0,0
	v0v0c0,0,0,0,0,0v0v0c0,0,0,0,0,0v0c0,0,0,0,0,0c0,0,0,0,0,0v0c0,0,0,0,0,0v0c0,0,0,0,0,0v0v0c0,0,0,0,0,0v0c0,0,0,0,0,0v0
	c0,0,0,0,0,0v0c0,0,0,0,0,0v0c0,0,0,0,0,0v0c0,0,0,0,0,0v0c0,0,0,0,0,0v0c0,0,0,0,0,0v0c0,0,0,0,0,0v0c0,0,0,0,0,0v0c0,0,0,0,0,0v0
	c0,0,0,0,0,0s0,0,0,0v0c0,0,0,0,0,0v0c0,0,0,0,0,0c0,0,0,0,0,0v0c0,0,0,0,0,0v0c0,0,0,0,0,0c0,0,0,0,0,0v0c0,0,0,0,0,0c0,0,0,0,0,0
	v0c0,0,0,0,0,0c0,0,0,0,0,0v0c0,0,0,0,0,0c0,0,0,0,0,0c0,0,0,0,0,0v0c0,0,0,0,0,0s0,0,0,0v0c0,0,0,0,0,0c0,0,0,0,0,0H54z M54,13.5
	c0,0.2,0,0.4,0,0.6c0,0.2-0.1,0.4-0.1,0.5c0,0.1-0.1,0.3-0.1,0.3c0,0,0,0.1,0,0.1c0,0,0,0,0,0c0,0,0,0,0,0c0,0,0-0.1,0-0.1
	c0-0.1,0.1-0.2,0.1-0.4c0-0.2,0.1-0.3,0.1-0.5c0-0.2,0-0.4,0-0.6H44c0-0.2,0-0.4,0-0.6c0-0.2,0.1-0.4,0.1-0.5c0-0.1,0.1-0.3,0.1-0.3
	c0,0,0-0.1,0-0.1c0,0,0,0,0,0c0,0,0,0,0,0c0,0,0,0.1,0,0.1c0,0.1-0.1,0.2-0.1,0.4c0,0.2-0.1,0.3-0.1,0.5c0,0.2,0,0.4,0,0.6H54z
	 M71.5,10.4l4.8,1.4l0,0l0,0L71.5,10.4z M68.1,6.4l0.7-5l0,0l0,0L68.1,6.4z M61.6,7.7l-5,0.6l0.8,7.2l6.4-3.3L61.6,7.7z M61.5,6.9
	l5-0.6l0-0.1l0-0.1L61.5,6.9z M58.3,7.2l4.9-0.8l0,0l0,0L58.3,7.2z M58.4,27.5l5,0.7l0,0l0,0L58.4,27.5z M61.6,27.2l5,0.6l0,0l0,0
	L61.6,27.2z M62.2,20.7l-2.4-4.4l-2.5,1.3l-0.2,2.8L62.2,20.7z M67,19.2l4.4,2.3l3.6-6.9l-7.7-0.5L67,19.2z M67.4,32.7l-4.1,2.8l0,0
	L67.4,32.7z M70.4,31.9l-4.1,2.8l0,0l0,0L70.4,31.9z M70.5,18.8l4.3,2.5l0,0l0,0L70.5,18.8z M70,18l1.9-4.6l0,0l0,0L70,18z
	 M66.2,17.5l-3-4L48.9,24.1l17.8-1.7L66.2,17.5z M62.2,17.4l-5-0.1l-0.1,8.7l7.6-4.3L62.2,17.4z M61.9,10.1v-5h-5.5l0.5,5.5
	L61.9,10.1z M62,10l-3-4l-0.3,0.2l-0.2,0.2L62,10z M67.7,8.4l-2.4,4.4l0,0l0,0L67.7,8.4z M66.5,13.5l-4-3.1l0,0l0,0L66.5,13.5z
	 M76.3,11.7c0.8-2.9,0-5.7-1.9-7.6c-1.7-1.7-3.9-2.4-5.6-2.6l-1.4,9.9c0.1,0,0.1,0,0.2,0c0,0,0.1,0,0.1,0c0,0,0,0-0.1-0.1
	c-0.1,0-0.2-0.1-0.3-0.2c-0.2-0.2-0.5-0.6-0.6-1.1c-0.1-0.5-0.1-0.9,0-1L76.3,11.7z M68.8,1.5C65.4,1,62,1.9,59.3,3.2l4.5,8.9
	c1.3-0.7,2.6-0.9,3.6-0.8L68.8,1.5z M66.6,7.1c0-0.3-0.1-0.6-0.1-0.8l-9.9,1.2c0,0.2,0.1,0.4,0.1,0.7L66.6,7.1z M66.4,6.1
	c-0.5-2.8-2.6-4-3.8-4.5c-1.2-0.5-2.4-0.5-3.4-0.4c-0.9,0.1-2.1,0.4-3.3,1.1C54.8,3,52.8,5,53.3,8.1l9.8-1.8c0.2,1.1,0,2.1-0.5,3
	c-0.4,0.8-1,1.2-1.3,1.4c-0.6,0.4-1,0.4-1.1,0.4c-0.1,0-0.5,0-1.1-0.2c-0.5-0.2-2.2-1-2.5-3.2L66.4,6.1z M53.3,8
	c1,6,0.8,12.5,0.1,19l9.9,1.2c0.8-6.9,1.1-14.4-0.2-21.8L53.3,8z M53.4,26.9c-0.2,1.4,0.2,2.9,1,4c0.8,1,1.7,1.6,2.3,1.8
	c1.3,0.6,2.5,0.6,3.4,0.6c0.9-0.1,2.1-0.3,3.2-0.9c1.1-0.6,2.9-2,3.2-4.6l-9.9-1.2c0.2-1.9,1.6-2.8,2-3.1c0.5-0.3,0.8-0.3,0.9-0.3
	c0.1,0,0.6,0,1.2,0.3c0.4,0.2,1.1,0.5,1.7,1.4c0.7,0.9,1,2.1,0.8,3.3L53.4,26.9z M66.6,27.8c0.3-2.3,0.4-4.5,0.6-6.8l-10-0.5
	c-0.1,2.1-0.3,4.2-0.5,6.3L66.6,27.8z M64.5,25.1c0.5-0.3,1.1-0.5,1.6-0.7c0.3-0.1,0.4-0.1,0.6-0.2c0.1,0,0.1,0,0,0l0.6-10
	c-1.7-0.1-3.3,0.3-4.4,0.7c-1.2,0.4-2.2,0.9-3,1.3L64.5,25.1z M62.5,16.9c-2.9,5.5-3.3,12.7,0.7,18.6l8.2-5.7
	c-1.5-2.2-1.6-5.4-0.1-8.3L62.5,16.9z M63.3,35.5c1.3,1.9,3.4,2.4,4.2,2.5c1.1,0.2,2.1,0.1,3-0.1c0.8-0.2,2.2-0.6,3.3-1.7
	c0.6-0.6,1.4-1.7,1.7-3.2c0.2-1.6-0.3-3-1-3.9l-8.1,5.8c-0.5-0.7-1-1.8-0.8-3.2c0.2-1.3,0.9-2.2,1.3-2.6c0.4-0.4,0.8-0.6,1-0.7
	c0.2-0.1,0.4-0.1,0.4-0.2c0.1,0,0.3-0.1,0.7,0c0.1,0,1.5,0.2,2.5,1.7L63.3,35.5z M74.6,29.1c-1.4-2-1.4-5,0.2-7.7l-8.6-5.1
	c-3.1,5.3-4,12.5,0.1,18.5L74.6,29.1z M74.8,21.3c1.5-2.6,0.4-5-0.4-6.1c-0.8-1-1.7-1.6-2.5-1.9l-3.7,9.3c-0.5-0.2-1.1-0.6-1.6-1.2
	c-0.3-0.4-0.7-1-0.9-2c-0.2-1.1,0-2.1,0.6-3.1L74.8,21.3z M71.8,13.3c-2.1-0.8-4.2-1-6.1-0.8l0.9,10c0.7-0.1,1.2,0,1.5,0.2
	L71.8,13.3z M69.2,21.5c3-2.3,6-5.6,7.1-9.7L66.7,9c-0.4,1.4-1.6,3-3.5,4.4L69.2,21.5z M67.2,17.4c0-2.6-0.1-5.3-0.4-7.9l-10,1
	c0.2,2.3,0.3,4.5,0.3,6.8L67.2,17.4z M61.9,15.1c1.6,0,2.7-0.8,3-1c0.2-0.2,0.4-0.3,0.4-0.4c0,0,0.1-0.1,0.1-0.1c0,0,0,0,0,0
	l-7.1-7.1C58.4,6.5,58.6,6.3,59,6c0.3-0.2,1.3-1,3-1V15.1z M65,14c0.2-0.2,0.5-0.3,0.7-0.5c0.3-0.2,0.5-0.3,0.7-0.4
	c0.2-0.1,0.2-0.1,0,0c-0.2,0-0.7,0-1.3-0.3L70.1,4c-2.9-1.6-5.8-0.7-7.2-0.2c-1.6,0.6-3,1.6-3.9,2.2L65,14z M65.3,12.8
	c-0.4-0.2-0.9-0.6-1.3-1.2c-0.4-0.6-0.5-1.2-0.6-1.6c-0.1-0.7,0.1-1.1,0-0.9c-0.1,0.1-0.2,0.4-0.4,0.7c-0.2,0.3-0.4,0.6-0.5,0.8
	l7.9,6.1c0.4-0.6,1.6-2.1,2.3-3.8c0.3-0.8,0.8-2.2,0.6-3.9c-0.2-2-1.3-3.9-3.3-5L65.3,12.8z M62.5,10.6c-0.7,1-1.7,1.9-2.8,2.5
	l5,8.7c2.3-1.3,4.3-3.2,5.8-5.2L62.5,10.6z M79.5,6.8l0-5l0,0h0V6.8z M75.2,9l2,4.6l1.2-0.5l0.8-1.1L75.2,9z M71.3,16.2l-4.9-0.9
	l0,0L71.3,16.2z M73.2,26.4l3.6-3.5l0,0L73.2,26.4z M83.8,24.2l4.6,2l0,0l0,0L83.8,24.2z M81,22.8l-4.8-1.4l0,0L81,22.8z M77.6,26.4
	l-0.8,4.9l0.1,0l0.1,0L77.6,26.4z M74.6,22.8l4.8-1.5l0,0l0,0L74.6,22.8z M74.2,18l4.7-1.7l-9.7,1.2L74.2,18z M76.8,21.3l2.7-4.2
	l0,0l0,0L76.8,21.3z M79.5,20.2l2.7-4.2l0,0l0,0L79.5,20.2z M76.9,15.3l-5,0.4l0,0l0,0L76.9,15.3z M79.9,9.4L82,4.9l0,0L79.9,9.4z
	 M81.5,15.7l-5,0.4l0,0l0,0L81.5,15.7z M79.5,1.9c-3.7,0-6.5,1.8-8.3,4.2l8.1,5.9c0.1-0.1,0.1-0.1,0.1-0.1c0,0,0,0,0,0c0,0,0,0,0,0
	c0,0,0.1,0,0.2,0V1.9z M73.2,4.5c-2.9,1.3-4.4,3.7-5.3,5.6c-0.9,1.9-1.3,3.9-1.5,5.3l9.8,1.8c0.2-1.1,0.5-2.1,0.8-2.9
	c0.4-0.8,0.5-0.7,0.2-0.5L73.2,4.5z M66.3,15.3c-0.3,2-0.6,4.4-0.3,6.9c0.3,2.5,1.2,5.4,3.5,7.7l7.2-6.9c-0.3-0.3-0.6-0.9-0.8-2
	c-0.1-1.1-0.1-2.5,0.2-3.9L66.3,15.3z M69.6,29.9c6.2,6.5,15.8,3.1,18.8-3.7l-9.1-4.1c-0.3,0.6-0.8,1-1.4,1.1c-0.3,0.1-0.5,0-0.6,0
	c-0.1,0-0.3-0.1-0.5-0.3L69.6,29.9z M88.3,26.2c0.7-1.7,1.2-3.8,1.5-5.9c0.3-2.1,0.3-4.6,0-6.9c-0.3-2.3-0.9-4.9-2.4-7.2
	c-1.6-2.5-4.3-4.4-8-4.4l0,10c0,0-0.1,0-0.3-0.1c-0.1-0.1-0.1-0.1,0,0c0.3,0.4,0.6,1.3,0.8,2.8c0.2,1.5,0.1,3.1,0,4.6
	c-0.2,1.6-0.5,2.6-0.7,3L88.3,26.2z M76.2,21.4c-0.1,0.2-0.1,0.5-0.2,0.6c0,0.1-0.1,0.2-0.1,0.2c0,0.1,0,0.1,0,0.1
	c0,0,0-0.1,0.1-0.1c0.1-0.1,0.2-0.2,0.5-0.3c0.2-0.1,0.5-0.3,0.9-0.3c0.4-0.1,0.7-0.1,1,0l-1.4,9.9c3.6,0.5,5.9-1.7,7-3.1
	c1.1-1.4,1.6-3,1.9-4L76.2,21.4z M78.5,21.5c0.5,0.1,0.9,0.3,1.1,0.4c0.2,0.1,0.2,0.2,0.2,0.2c0,0-0.1-0.1-0.2-0.3
	c-0.1-0.2-0.1-0.3-0.2-0.5l-9.6,2.9c0.3,1,0.9,2.4,1.8,3.7c0.9,1.2,2.5,3,5.2,3.4L78.5,21.5z M79.4,21.4c-0.2-0.7-0.3-1.7-0.2-3
	l-10-0.9c-0.2,2-0.1,4.4,0.6,6.8L79.4,21.4z M69.5,19.7c0.8,2.2,2.3,4.4,4.6,5.9l5.4-8.4c0,0-0.3-0.2-0.5-0.9L69.5,19.7z M74.1,25.5
	c1.5,1,3.2,1,3.9,1c0.9,0,1.8-0.2,2.7-0.5c0.4-0.2,0.9-0.4,1.4-0.7c0.5-0.3,1.2-0.9,1.9-1.8c0.7-1.1,1.2-2.8,0.5-4.6
	c-0.6-1.6-1.7-2.4-2.3-2.8l-5.4,8.4c-0.3-0.2-1.2-0.9-1.7-2.2c-0.6-1.6-0.1-3.1,0.4-4c0.5-0.8,1.1-1.2,1.3-1.3
	c0.2-0.2,0.4-0.2,0.5-0.2c0.1,0,0.2-0.1,0.3-0.1c0.1,0,0.3,0,0.5,0c0.2,0,0.8,0.2,1.4,0.6L74.1,25.5z M82.2,16
	c-0.1-0.1-0.1-0.1-0.1-0.1C82.1,15.9,82.1,15.9,82.2,16c-0.1-0.1-0.2-0.3-0.3-1.1l-10,0.9c0.3,2.9,1.3,6.4,4.9,8.7L82.2,16z
	 M81.9,14.9C81.9,14.9,81.9,14.9,81.9,14.9C81.9,14.9,81.9,14.9,81.9,14.9C81.9,14.9,81.9,14.9,81.9,14.9c0-0.2,0-0.2,0-0.3
	c0-0.2,0-0.4,0-0.7c0-0.5,0.1-1,0.2-1.3c0-0.1,0.1-0.1,0-0.1c0,0.1-0.2,0.4-0.6,0.7c-0.4,0.4-1.1,0.8-2,0.9
	c-0.8,0.1-1.4-0.1-1.7-0.2L82,4.9c-1-0.5-2.2-0.8-3.6-0.6c-1.4,0.2-2.6,0.8-3.4,1.6C73.4,7.2,72.8,9,72.5,10
	c-0.6,2.2-0.7,4.6-0.6,5.8L81.9,14.9z M77.8,14c-0.9-0.4-1.3-0.9-1.5-1.2c-0.1-0.1-0.2-0.3-0.2-0.3c0-0.1-0.1-0.1-0.1-0.1
	c0,0,0,0.1,0.1,0.2c0,0.2,0.1,0.3,0.1,0.6c0.2,1,0.2,2.1,0.3,2.9l10-0.7c0-0.5-0.1-2.2-0.4-3.9c-0.1-0.8-0.4-1.8-0.8-2.8
	c-0.3-0.7-1.2-2.7-3.4-3.7L77.8,14z M76.5,16.1c0.2,2.1,0.1,3.8-0.3,5.3l9.6,2.9c1-3.2,0.9-6.4,0.7-9L76.5,16.1z M98,6.3l5,0v0v0H98
	z M94.8,6.6l-5-0.1l0,0.1v0.1H94.8z M94.4,22.6l-4.7,1.6l9.7-1.3L94.4,22.6z M87.9,7.1l-4.7,1.6L83.2,9l0.2,0.3L87.9,7.1z M84.7,7.3
	l-4.9-1.2l-0.1,0.6v0.6H84.7z M84.7,7.5h-5v0.2l0,0.2L84.7,7.5z M84.7,26.9l5,0.7l0-0.1l0-0.1L84.7,26.9z M87.9,26.6l-5-0.6l0,0.1
	l0,0.1L87.9,26.6z M88.4,15.5l4.6-2l-9.6,2L88.4,15.5z M93.9,32.8l5,0.6l0.1-0.8l-0.2-0.8L93.9,32.8z M95.3,33.5l0.2-5l-0.2,0
	l-0.2,0L95.3,33.5z M97.1,32.5l-5-0.3l-0.1,0.7l0.2,0.7L97.1,32.5z M103,6.3c0-3.1-2.3-4.7-3.6-5.2C98.2,0.5,97,0.5,96,0.6
	c-0.9,0.1-2.1,0.3-3.3,1c-1.1,0.7-2.9,2.2-3,4.9l10,0.2c0,2.1-1.4,3.1-1.9,3.4c-0.5,0.3-0.9,0.4-1.1,0.4c-0.1,0-0.6,0-1.2-0.2
	c-0.3-0.1-1-0.5-1.5-1.1c-0.6-0.7-1-1.7-1-2.8H103z M89.8,6.6c0,5.2-0.1,10.5-0.4,15.7l10,0.5c0.2-5.4,0.4-10.8,0.4-16.2H89.8z
	 M99.2,21c-1.9-5.6-4.3-11.1-6.9-16.2l-8.9,4.5c2.4,4.8,4.6,9.7,6.3,14.8L99.2,21z M92.6,5.5c-0.8-2.3-2.7-3.3-3.7-3.6
	c-1.1-0.4-2.2-0.4-3-0.4C85,1.6,84,1.8,83,2.3c-0.9,0.4-2.6,1.6-3.1,3.9l9.7,2.4c-0.4,1.8-1.7,2.5-2,2.7c-0.4,0.2-0.7,0.3-0.9,0.3
	c-0.1,0-0.5,0-1-0.1c-0.4-0.1-1.9-0.8-2.5-2.6L92.6,5.5z M79.7,7.3C79.7,7.3,79.7,7.3,79.7,7.3C79.7,7.3,79.7,7.3,79.7,7.3
	C79.7,7.3,79.7,7.3,79.7,7.3C79.7,7.3,79.7,7.3,79.7,7.3C79.7,7.3,79.7,7.3,79.7,7.3C79.7,7.3,79.7,7.3,79.7,7.3
	C79.7,7.3,79.7,7.3,79.7,7.3C79.7,7.3,79.7,7.3,79.7,7.3C79.7,7.3,79.7,7.3,79.7,7.3C79.7,7.3,79.7,7.3,79.7,7.3
	C79.7,7.3,79.7,7.3,79.7,7.3C79.7,7.3,79.7,7.3,79.7,7.3C79.7,7.3,79.7,7.3,79.7,7.3C79.7,7.3,79.7,7.3,79.7,7.3
	C79.7,7.3,79.7,7.3,79.7,7.3C79.7,7.3,79.7,7.3,79.7,7.3C79.7,7.3,79.7,7.3,79.7,7.3C79.7,7.3,79.7,7.3,79.7,7.3
	C79.7,7.3,79.7,7.3,79.7,7.3C79.7,7.3,79.7,7.3,79.7,7.3C79.7,7.3,79.7,7.3,79.7,7.3C79.7,7.3,79.7,7.3,79.7,7.3
	C79.7,7.3,79.7,7.3,79.7,7.3C79.7,7.3,79.7,7.3,79.7,7.3C79.7,7.3,79.7,7.3,79.7,7.3C79.7,7.3,79.7,7.3,79.7,7.3
	C79.7,7.3,79.7,7.3,79.7,7.3C79.7,7.3,79.7,7.3,79.7,7.3C79.7,7.3,79.7,7.3,79.7,7.3C79.7,7.3,79.7,7.3,79.7,7.3
	C79.7,7.3,79.7,7.3,79.7,7.3C79.7,7.3,79.7,7.3,79.7,7.3C79.7,7.3,79.7,7.3,79.7,7.3C79.7,7.3,79.7,7.3,79.7,7.3
	C79.7,7.3,79.7,7.3,79.7,7.3C79.7,7.3,79.7,7.3,79.7,7.3C79.7,7.3,79.7,7.3,79.7,7.3C79.7,7.3,79.7,7.3,79.7,7.3
	C79.7,7.3,79.7,7.3,79.7,7.3C79.7,7.3,79.7,7.3,79.7,7.3C79.7,7.3,79.7,7.3,79.7,7.3C79.7,7.3,79.7,7.3,79.7,7.3
	C79.7,7.3,79.7,7.3,79.7,7.3C79.7,7.3,79.7,7.3,79.7,7.3C79.7,7.3,79.7,7.3,79.7,7.3C79.7,7.3,79.7,7.3,79.7,7.3
	C79.7,7.3,79.7,7.3,79.7,7.3C79.7,7.3,79.7,7.3,79.7,7.3C79.7,7.3,79.7,7.3,79.7,7.3C79.7,7.3,79.7,7.3,79.7,7.3
	C79.7,7.3,79.7,7.3,79.7,7.3C79.7,7.3,79.7,7.3,79.7,7.3C79.7,7.3,79.7,7.3,79.7,7.3C79.7,7.3,79.7,7.3,79.7,7.3
	C79.7,7.3,79.7,7.3,79.7,7.3C79.7,7.3,79.7,7.3,79.7,7.3C79.7,7.3,79.7,7.3,79.7,7.3C79.7,7.3,79.7,7.3,79.7,7.3
	C79.7,7.3,79.7,7.3,79.7,7.3C79.7,7.3,79.7,7.3,79.7,7.3C79.7,7.3,79.7,7.3,79.7,7.3C79.7,7.3,79.7,7.3,79.7,7.3
	C79.7,7.3,79.7,7.3,79.7,7.3C79.7,7.3,79.7,7.3,79.7,7.3C79.7,7.3,79.7,7.3,79.7,7.3C79.7,7.3,79.7,7.3,79.7,7.3
	C79.7,7.3,79.7,7.3,79.7,7.3C79.7,7.3,79.7,7.3,79.7,7.3C79.7,7.3,79.7,7.3,79.7,7.3C79.7,7.3,79.7,7.3,79.7,7.3
	C79.7,7.3,79.7,7.3,79.7,7.3C79.7,7.3,79.7,7.3,79.7,7.3C79.7,7.3,79.7,7.3,79.7,7.3C79.7,7.3,79.7,7.3,79.7,7.3
	C79.7,7.3,79.7,7.3,79.7,7.3C79.7,7.3,79.7,7.3,79.7,7.3C79.7,7.3,79.7,7.3,79.7,7.3C79.7,7.3,79.7,7.3,79.7,7.3
	C79.7,7.3,79.7,7.3,79.7,7.3C79.7,7.3,79.7,7.3,79.7,7.3C79.7,7.3,79.7,7.3,79.7,7.3C79.7,7.3,79.7,7.3,79.7,7.3
	C79.7,7.3,79.7,7.3,79.7,7.3C79.7,7.3,79.7,7.3,79.7,7.3C79.7,7.3,79.7,7.3,79.7,7.3C79.7,7.3,79.7,7.3,79.7,7.3
	C79.7,7.3,79.7,7.3,79.7,7.3C79.7,7.3,79.7,7.3,79.7,7.3C79.7,7.3,79.7,7.3,79.7,7.3C79.7,7.3,79.7,7.3,79.7,7.3
	C79.7,7.3,79.7,7.3,79.7,7.3C79.7,7.3,79.7,7.3,79.7,7.3C79.7,7.3,79.7,7.3,79.7,7.3C79.7,7.3,79.7,7.3,79.7,7.3
	C79.7,7.3,79.7,7.3,79.7,7.3C79.7,7.3,79.7,7.3,79.7,7.3C79.7,7.3,79.7,7.3,79.7,7.3C79.7,7.3,79.7,7.3,79.7,7.3
	C79.7,7.3,79.7,7.3,79.7,7.3C79.7,7.3,79.7,7.3,79.7,7.3C79.7,7.3,79.7,7.3,79.7,7.3C79.7,7.3,79.7,7.3,79.7,7.3
	C79.7,7.3,79.7,7.3,79.7,7.3C79.7,7.3,79.7,7.3,79.7,7.3C79.7,7.3,79.7,7.3,79.7,7.3C79.7,7.3,79.7,7.3,79.7,7.3
	C79.7,7.3,79.7,7.3,79.7,7.3C79.7,7.3,79.7,7.3,79.7,7.3C79.7,7.3,79.7,7.3,79.7,7.3C79.7,7.3,79.7,7.3,79.7,7.3
	C79.7,7.3,79.7,7.3,79.7,7.3C79.7,7.3,79.7,7.3,79.7,7.3C79.7,7.3,79.7,7.3,79.7,7.3C79.7,7.3,79.7,7.3,79.7,7.3
	C79.7,7.4,79.7,7.4,79.7,7.3C79.7,7.4,79.7,7.4,79.7,7.3C79.7,7.4,79.7,7.4,79.7,7.3C79.7,7.4,79.7,7.4,79.7,7.3
	C79.7,7.4,79.7,7.4,79.7,7.3C79.7,7.4,79.7,7.4,79.7,7.3C79.7,7.4,79.7,7.4,79.7,7.3C79.7,7.4,79.7,7.4,79.7,7.3
	C79.7,7.4,79.7,7.4,79.7,7.3C79.7,7.4,79.7,7.4,79.7,7.3C79.7,7.4,79.7,7.4,79.7,7.3C79.7,7.4,79.7,7.4,79.7,7.3
	C79.7,7.4,79.7,7.4,79.7,7.3C79.7,7.4,79.7,7.4,79.7,7.3C79.7,7.4,79.7,7.4,79.7,7.3C79.7,7.4,79.7,7.4,79.7,7.3
	C79.7,7.4,79.7,7.4,79.7,7.3C79.7,7.4,79.7,7.4,79.7,7.3C79.7,7.4,79.7,7.4,79.7,7.3C79.7,7.4,79.7,7.4,79.7,7.3
	C79.7,7.4,79.7,7.4,79.7,7.3C79.7,7.4,79.7,7.4,79.7,7.3C79.7,7.4,79.7,7.4,79.7,7.3C79.7,7.4,79.7,7.4,79.7,7.3
	C79.7,7.4,79.7,7.4,79.7,7.3C79.7,7.4,79.7,7.4,79.7,7.3C79.7,7.4,79.7,7.4,79.7,7.3C79.7,7.4,79.7,7.4,79.7,7.3
	C79.7,7.4,79.7,7.4,79.7,7.3C79.7,7.4,79.7,7.4,79.7,7.3C79.7,7.4,79.7,7.4,79.7,7.3C79.7,7.4,79.7,7.4,79.7,7.3
	C79.7,7.4,79.7,7.4,79.7,7.3C79.7,7.4,79.7,7.4,79.7,7.3C79.7,7.4,79.7,7.4,79.7,7.3C79.7,7.4,79.7,7.4,79.7,7.3
	C79.7,7.4,79.7,7.4,79.7,7.3C79.7,7.4,79.7,7.4,79.7,7.3C79.7,7.4,79.7,7.4,79.7,7.3C79.7,7.4,79.7,7.4,79.7,7.3
	C79.7,7.4,79.7,7.4,79.7,7.3C79.7,7.4,79.7,7.4,79.7,7.3C79.7,7.4,79.7,7.4,79.7,7.3C79.7,7.4,79.7,7.4,79.7,7.3
	C79.7,7.4,79.7,7.4,79.7,7.3C79.7,7.4,79.7,7.4,79.7,7.3C79.7,7.4,79.7,7.4,79.7,7.3C79.7,7.4,79.7,7.4,79.7,7.3
	C79.7,7.4,79.7,7.4,79.7,7.3C79.7,7.4,79.7,7.4,79.7,7.3C79.7,7.4,79.7,7.4,79.7,7.3C79.7,7.4,79.7,7.4,79.7,7.3
	C79.7,7.4,79.7,7.4,79.7,7.3C79.7,7.4,79.7,7.4,79.7,7.3C79.7,7.4,79.7,7.4,79.7,7.3C79.7,7.4,79.7,7.4,79.7,7.3
	C79.7,7.4,79.7,7.4,79.7,7.3C79.7,7.4,79.7,7.4,79.7,7.3C79.7,7.4,79.7,7.4,79.7,7.3C79.7,7.4,79.7,7.4,79.7,7.3
	C79.7,7.4,79.7,7.4,79.7,7.3C79.7,7.4,79.7,7.4,79.7,7.3C79.7,7.4,79.7,7.4,79.7,7.3C79.7,7.4,79.7,7.4,79.7,7.3
	C79.7,7.4,79.7,7.4,79.7,7.3C79.7,7.4,79.7,7.4,79.7,7.3C79.7,7.4,79.7,7.4,79.7,7.3C79.7,7.4,79.7,7.4,79.7,7.3
	C79.7,7.4,79.7,7.4,79.7,7.3C79.7,7.4,79.7,7.4,79.7,7.3C79.7,7.4,79.7,7.4,79.7,7.3C79.7,7.4,79.7,7.4,79.7,7.3
	C79.7,7.4,79.7,7.4,79.7,7.3C79.7,7.4,79.7,7.4,79.7,7.3C79.7,7.4,79.7,7.4,79.7,7.3C79.7,7.4,79.7,7.4,79.7,7.3
	C79.7,7.4,79.7,7.4,79.7,7.3C79.7,7.4,79.7,7.4,79.7,7.3C79.7,7.4,79.7,7.4,79.7,7.3C79.7,7.4,79.7,7.4,79.7,7.3
	C79.7,7.4,79.7,7.4,79.7,7.3C79.7,7.4,79.7,7.4,79.7,7.3C79.7,7.4,79.7,7.4,79.7,7.3C79.7,7.4,79.7,7.4,79.7,7.3
	C79.7,7.4,79.7,7.4,79.7,7.3C79.7,7.4,79.7,7.4,79.7,7.3C79.7,7.4,79.7,7.4,79.7,7.3C79.7,7.4,79.7,7.4,79.7,7.3
	C79.7,7.4,79.7,7.4,79.7,7.3C79.7,7.4,79.7,7.4,79.7,7.3C79.7,7.4,79.7,7.4,79.7,7.3C79.7,7.4,79.7,7.4,79.7,7.3
	C79.7,7.4,79.7,7.4,79.7,7.3C79.7,7.4,79.7,7.4,79.7,7.3C79.7,7.4,79.7,7.4,79.7,7.3C79.7,7.4,79.7,7.4,79.7,7.3
	C79.7,7.4,79.7,7.4,79.7,7.3C79.7,7.4,79.7,7.4,79.7,7.3C79.7,7.4,79.7,7.4,79.7,7.3C79.7,7.4,79.7,7.4,79.7,7.3
	C79.7,7.4,79.7,7.4,79.7,7.3C79.7,7.4,79.7,7.4,79.7,7.3C79.7,7.4,79.7,7.4,79.7,7.3C79.7,7.4,79.7,7.4,79.7,7.3
	C79.7,7.4,79.7,7.4,79.7,7.3C79.7,7.4,79.7,7.4,79.7,7.3C79.7,7.4,79.7,7.4,79.7,7.3C79.7,7.4,79.7,7.4,79.7,7.3
	C79.7,7.4,79.7,7.4,79.7,7.3C79.7,7.4,79.7,7.4,79.7,7.3C79.7,7.4,79.7,7.4,79.7,7.3C79.7,7.4,79.7,7.4,79.7,7.3
	C79.7,7.4,79.7,7.4,79.7,7.3C79.7,7.4,79.7,7.4,79.7,7.3C79.7,7.4,79.7,7.4,79.7,7.3C79.7,7.4,79.7,7.4,79.7,7.3
	C79.7,7.4,79.7,7.4,79.7,7.3C79.7,7.4,79.7,7.4,79.7,7.3C79.7,7.4,79.7,7.4,79.7,7.3C79.7,7.4,79.7,7.4,79.7,7.3
	C79.7,7.4,79.7,7.4,79.7,7.3C79.7,7.4,79.7,7.4,79.7,7.3C79.7,7.4,79.7,7.4,79.7,7.3C79.7,7.4,79.7,7.4,79.7,7.3
	C79.7,7.4,79.7,7.4,79.7,7.3C79.7,7.4,79.7,7.4,79.7,7.3C79.7,7.4,79.7,7.4,79.7,7.3C79.7,7.4,79.7,7.4,79.7,7.3
	C79.7,7.4,79.7,7.4,79.7,7.3C79.7,7.4,79.7,7.4,79.7,7.3C79.7,7.4,79.7,7.4,79.7,7.3C79.7,7.4,79.7,7.4,79.7,7.3
	C79.7,7.4,79.7,7.4,79.7,7.3C79.7,7.4,79.7,7.4,79.7,7.3C79.7,7.4,79.7,7.4,79.7,7.3C79.7,7.4,79.7,7.4,79.7,7.3
	C79.7,7.4,79.7,7.4,79.7,7.3C79.7,7.4,79.7,7.4,79.7,7.3C79.7,7.4,79.7,7.4,79.7,7.3C79.7,7.4,79.7,7.4,79.7,7.3
	C79.7,7.4,79.7,7.4,79.7,7.3C79.7,7.4,79.7,7.4,79.7,7.3C79.7,7.4,79.7,7.4,79.7,7.3C79.7,7.4,79.7,7.4,79.7,7.3
	C79.7,7.4,79.7,7.4,79.7,7.3C79.7,7.4,79.7,7.4,79.7,7.3C79.7,7.4,79.7,7.4,79.7,7.3C79.7,7.4,79.7,7.4,79.7,7.3
	C79.7,7.4,79.7,7.4,79.7,7.3C79.7,7.4,79.7,7.4,79.7,7.3C79.7,7.4,79.7,7.4,79.7,7.3C79.7,7.4,79.7,7.4,79.7,7.3
	C79.7,7.4,79.7,7.4,79.7,7.3C79.7,7.4,79.7,7.4,79.7,7.3C79.7,7.4,79.7,7.4,79.7,7.3C79.7,7.4,79.7,7.4,79.7,7.3
	C79.7,7.4,79.7,7.4,79.7,7.3C79.7,7.4,79.7,7.4,79.7,7.3C79.7,7.4,79.7,7.4,79.7,7.3C79.7,7.4,79.7,7.4,79.7,7.3
	C79.7,7.4,79.7,7.4,79.7,7.3C79.7,7.4,79.7,7.4,79.7,7.3C79.7,7.4,79.7,7.4,79.7,7.3C79.7,7.4,79.7,7.4,79.7,7.3
	C79.7,7.4,79.7,7.4,79.7,7.3C79.7,7.4,79.7,7.4,79.7,7.3C79.7,7.4,79.7,7.4,79.7,7.3C79.7,7.4,79.7,7.4,79.7,7.3
	C79.7,7.4,79.7,7.4,79.7,7.3C79.7,7.4,79.7,7.4,79.7,7.3C79.7,7.4,79.7,7.4,79.7,7.3C79.7,7.4,79.7,7.4,79.7,7.3
	C79.7,7.4,79.7,7.4,79.7,7.3C79.7,7.4,79.7,7.4,79.7,7.3C79.7,7.4,79.7,7.4,79.7,7.3C79.7,7.4,79.7,7.4,79.7,7.3
	C79.7,7.4,79.7,7.4,79.7,7.3C79.7,7.4,79.7,7.4,79.7,7.3C79.7,7.4,79.7,7.4,79.7,7.3C79.7,7.4,79.7,7.4,79.7,7.3
	C79.7,7.4,79.7,7.4,79.7,7.3C79.7,7.4,79.7,7.4,79.7,7.3C79.7,7.4,79.7,7.4,79.7,7.3C79.7,7.4,79.7,7.4,79.7,7.3
	C79.7,7.4,79.7,7.4,79.7,7.3C79.7,7.4,79.7,7.4,79.7,7.3C79.7,7.4,79.7,7.4,79.7,7.3C79.7,7.4,79.7,7.4,79.7,7.3
	C79.7,7.4,79.7,7.4,79.7,7.3C79.7,7.4,79.7,7.4,79.7,7.3C79.7,7.4,79.7,7.4,79.7,7.3C79.7,7.4,79.7,7.4,79.7,7.3
	C79.7,7.4,79.7,7.4,79.7,7.3C79.7,7.4,79.7,7.4,79.7,7.3C79.7,7.4,79.7,7.4,79.7,7.3C79.7,7.4,79.7,7.4,79.7,7.3
	C79.7,7.4,79.7,7.4,79.7,7.3C79.7,7.4,79.7,7.4,79.7,7.3C79.7,7.4,79.7,7.4,79.7,7.3C79.7,7.4,79.7,7.4,79.7,7.3
	C79.7,7.4,79.7,7.4,79.7,7.3C79.7,7.4,79.7,7.4,79.7,7.3C79.7,7.4,79.7,7.4,79.7,7.3C79.7,7.4,79.7,7.4,79.7,7.3
	C79.7,7.4,79.7,7.4,79.7,7.3C79.7,7.4,79.7,7.4,79.7,7.3C79.7,7.4,79.7,7.4,79.7,7.3C79.7,7.4,79.7,7.4,79.7,7.3
	C79.7,7.4,79.7,7.4,79.7,7.3C79.7,7.4,79.7,7.4,79.7,7.3C79.7,7.4,79.7,7.4,79.7,7.3C79.7,7.4,79.7,7.4,79.7,7.3
	C79.7,7.4,79.7,7.4,79.7,7.3C79.7,7.4,79.7,7.4,79.7,7.3C79.7,7.4,79.7,7.4,79.7,7.3C79.7,7.4,79.7,7.4,79.7,7.3
	C79.7,7.4,79.7,7.4,79.7,7.3C79.7,7.4,79.7,7.4,79.7,7.3C79.7,7.4,79.7,7.4,79.7,7.3C79.7,7.4,79.7,7.4,79.7,7.3
	C79.7,7.4,79.7,7.4,79.7,7.3C79.7,7.4,79.7,7.4,79.7,7.3C79.7,7.4,79.7,7.4,79.7,7.3C79.7,7.4,79.7,7.4,79.7,7.3
	C79.7,7.4,79.7,7.4,79.7,7.3C79.7,7.4,79.7,7.4,79.7,7.3C79.7,7.4,79.7,7.4,79.7,7.3C79.7,7.4,79.7,7.4,79.7,7.3
	C79.7,7.4,79.7,7.4,79.7,7.3C79.7,7.4,79.7,7.4,79.7,7.3C79.7,7.4,79.7,7.4,79.7,7.3C79.7,7.4,79.7,7.4,79.7,7.3
	C79.7,7.4,79.7,7.4,79.7,7.3C79.7,7.4,79.7,7.4,79.7,7.3C79.7,7.4,79.7,7.4,79.7,7.3C79.7,7.4,79.7,7.4,79.7,7.3
	C79.7,7.4,79.7,7.4,79.7,7.3C79.7,7.4,79.7,7.4,79.7,7.3C79.7,7.4,79.7,7.4,79.7,7.3C79.7,7.4,79.7,7.4,79.7,7.3
	C79.7,7.4,79.7,7.4,79.7,7.3C79.7,7.4,79.7,7.4,79.7,7.3C79.7,7.4,79.7,7.4,79.7,7.3C79.7,7.4,79.7,7.4,79.7,7.3
	C79.7,7.4,79.7,7.4,79.7,7.3C79.7,7.4,79.7,7.4,79.7,7.3C79.7,7.4,79.7,7.4,79.7,7.3C79.7,7.4,79.7,7.4,79.7,7.3
	C79.7,7.4,79.7,7.4,79.7,7.3C79.7,7.4,79.7,7.4,79.7,7.3C79.7,7.4,79.7,7.4,79.7,7.3C79.7,7.4,79.7,7.4,79.7,7.3
	C79.7,7.4,79.7,7.4,79.7,7.3C79.7,7.4,79.7,7.4,79.7,7.3C79.7,7.4,79.7,7.4,79.7,7.3C79.7,7.4,79.7,7.4,79.7,7.3
	C79.7,7.4,79.7,7.4,79.7,7.3C79.7,7.4,79.7,7.4,79.7,7.3C79.7,7.4,79.7,7.4,79.7,7.3C79.7,7.4,79.7,7.4,79.7,7.3
	C79.7,7.4,79.7,7.4,79.7,7.3C79.7,7.4,79.7,7.4,79.7,7.3C79.7,7.4,79.7,7.4,79.7,7.3C79.7,7.4,79.7,7.4,79.7,7.3
	C79.7,7.4,79.7,7.4,79.7,7.3C79.7,7.4,79.7,7.4,79.7,7.3C79.7,7.4,79.7,7.4,79.7,7.3C79.7,7.4,79.7,7.4,79.7,7.3
	C79.7,7.4,79.7,7.4,79.7,7.3C79.7,7.4,79.7,7.4,79.7,7.3C79.7,7.4,79.7,7.4,79.7,7.3C79.7,7.4,79.7,7.4,79.7,7.3
	C79.7,7.4,79.7,7.4,79.7,7.3C79.7,7.4,79.7,7.4,79.7,7.3C79.7,7.4,79.7,7.4,79.7,7.3C79.7,7.4,79.7,7.4,79.7,7.3
	C79.7,7.4,79.7,7.4,79.7,7.3C79.7,7.4,79.7,7.4,79.7,7.3C79.7,7.4,79.7,7.4,79.7,7.3C79.7,7.4,79.7,7.4,79.7,7.3
	C79.7,7.4,79.7,7.4,79.7,7.3C79.7,7.4,79.7,7.4,79.7,7.3C79.7,7.4,79.7,7.4,79.7,7.3C79.7,7.4,79.7,7.4,79.7,7.3
	C79.7,7.4,79.7,7.4,79.7,7.3C79.7,7.4,79.7,7.4,79.7,7.3C79.7,7.4,79.7,7.4,79.7,7.3C79.7,7.4,79.7,7.4,79.7,7.3
	C79.7,7.4,79.7,7.4,79.7,7.3C79.7,7.4,79.7,7.4,79.7,7.3C79.7,7.4,79.7,7.4,79.7,7.3C79.7,7.4,79.7,7.4,79.7,7.3
	C79.7,7.4,79.7,7.4,79.7,7.3C79.7,7.4,79.7,7.4,79.7,7.3C79.7,7.4,79.7,7.4,79.7,7.3C79.7,7.4,79.7,7.4,79.7,7.3
	C79.7,7.4,79.7,7.4,79.7,7.3C79.7,7.4,79.7,7.4,79.7,7.3C79.7,7.4,79.7,7.4,79.7,7.3C79.7,7.4,79.7,7.4,79.7,7.3
	C79.7,7.4,79.7,7.4,79.7,7.3C79.7,7.4,79.7,7.4,79.7,7.3C79.7,7.4,79.7,7.4,79.7,7.3C79.7,7.4,79.7,7.4,79.7,7.3
	C79.7,7.4,79.7,7.4,79.7,7.3C79.7,7.4,79.7,7.4,79.7,7.3C79.7,7.4,79.7,7.4,79.7,7.3C79.7,7.4,79.7,7.4,79.7,7.3
	C79.7,7.4,79.7,7.4,79.7,7.3C79.7,7.4,79.7,7.4,79.7,7.3C79.7,7.4,79.7,7.4,79.7,7.3C79.7,7.4,79.7,7.4,79.7,7.3
	C79.7,7.4,79.7,7.4,79.7,7.3C79.7,7.4,79.7,7.4,79.7,7.3C79.7,7.4,79.7,7.4,79.7,7.3C79.7,7.4,79.7,7.4,79.7,7.3
	C79.7,7.4,79.7,7.4,79.7,7.3C79.7,7.4,79.7,7.4,79.7,7.3C79.7,7.4,79.7,7.4,79.7,7.3C79.7,7.4,79.7,7.4,79.7,7.3
	C79.7,7.4,79.7,7.4,79.7,7.3C79.7,7.4,79.7,7.4,79.7,7.3C79.7,7.4,79.7,7.4,79.7,7.3C79.7,7.4,79.7,7.4,79.7,7.3
	C79.7,7.4,79.7,7.4,79.7,7.3C79.7,7.4,79.7,7.4,79.7,7.3C79.7,7.4,79.7,7.4,79.7,7.3C79.7,7.4,79.7,7.4,79.7,7.3
	C79.7,7.4,79.7,7.4,79.7,7.3C79.7,7.4,79.7,7.4,79.7,7.3C79.7,7.4,79.7,7.4,79.7,7.3C79.7,7.4,79.7,7.4,79.7,7.3
	C79.7,7.4,79.7,7.4,79.7,7.3C79.7,7.4,79.7,7.4,79.7,7.3C79.7,7.4,79.7,7.4,79.7,7.3C79.7,7.4,79.7,7.4,79.7,7.3
	C79.7,7.4,79.7,7.4,79.7,7.3C79.7,7.4,79.7,7.4,79.7,7.3C79.7,7.4,79.7,7.4,79.7,7.3C79.7,7.4,79.7,7.4,79.7,7.3
	C79.7,7.4,79.7,7.4,79.7,7.3C79.7,7.4,79.7,7.4,79.7,7.3C79.7,7.4,79.7,7.4,79.7,7.3C79.7,7.4,79.7,7.4,79.7,7.3
	C79.7,7.4,79.7,7.4,79.7,7.3C79.7,7.4,79.7,7.4,79.7,7.3C79.7,7.4,79.7,7.4,79.7,7.3C79.7,7.4,79.7,7.4,79.7,7.3
	C79.7,7.4,79.7,7.4,79.7,7.3C79.7,7.4,79.7,7.4,79.7,7.3C79.7,7.4,79.7,7.4,79.7,7.3C79.7,7.4,79.7,7.4,79.7,7.3
	C79.7,7.4,79.7,7.4,79.7,7.3C79.7,7.4,79.7,7.4,79.7,7.3C79.7,7.4,79.7,7.4,79.7,7.3C79.7,7.4,79.7,7.4,79.7,7.3
	C79.7,7.4,79.7,7.4,79.7,7.3C79.7,7.4,79.7,7.4,79.7,7.3C79.7,7.4,79.7,7.4,79.7,7.3C79.7,7.4,79.7,7.4,79.7,7.3
	C79.7,7.4,79.7,7.4,79.7,7.3C79.7,7.4,79.7,7.4,79.7,7.3C79.7,7.4,79.7,7.4,79.7,7.3C79.7,7.4,79.7,7.4,79.7,7.3
	C79.7,7.4,79.7,7.4,79.7,7.3C79.7,7.4,79.7,7.4,79.7,7.3C79.7,7.4,79.7,7.4,79.7,7.3C79.7,7.4,79.7,7.4,79.7,7.3
	C79.7,7.4,79.7,7.4,79.7,7.3C79.7,7.4,79.7,7.4,79.7,7.3C79.7,7.4,79.7,7.4,79.7,7.3C79.7,7.4,79.7,7.4,79.7,7.3
	C79.7,7.4,79.7,7.4,79.7,7.3C79.7,7.4,79.7,7.4,79.7,7.3C79.7,7.4,79.7,7.4,79.7,7.3C79.7,7.4,79.7,7.4,79.7,7.3
	C79.7,7.4,79.7,7.4,79.7,7.3C79.7,7.4,79.7,7.4,79.7,7.3C79.7,7.4,79.7,7.4,79.7,7.3C79.7,7.4,79.7,7.4,79.7,7.3
	C79.7,7.4,79.7,7.4,79.7,7.3C79.7,7.4,79.7,7.4,79.7,7.3C79.7,7.4,79.7,7.4,79.7,7.3C79.7,7.4,79.7,7.4,79.7,7.3
	C79.7,7.4,79.7,7.4,79.7,7.3C79.7,7.4,79.7,7.4,79.7,7.3C79.7,7.4,79.7,7.4,79.7,7.3C79.7,7.4,79.7,7.4,79.7,7.3
	C79.7,7.4,79.7,7.4,79.7,7.3C79.7,7.4,79.7,7.4,79.7,7.3C79.7,7.4,79.7,7.4,79.7,7.3C79.7,7.4,79.7,7.4,79.7,7.3
	C79.7,7.4,79.7,7.4,79.7,7.3C79.7,7.4,79.7,7.4,79.7,7.3C79.7,7.4,79.7,7.4,79.7,7.3C79.7,7.4,79.7,7.4,79.7,7.3
	C79.7,7.4,79.7,7.4,79.7,7.3C79.7,7.4,79.7,7.4,79.7,7.3l10,0.1c0,0,0,0,0,0c0,0,0,0,0,0s0,0,0,0c0,0,0,0,0,0c0,0,0,0,0,0
	c0,0,0,0,0,0c0,0,0,0,0,0c0,0,0,0,0,0s0,0,0,0c0,0,0,0,0,0s0,0,0,0c0,0,0,0,0,0s0,0,0,0c0,0,0,0,0,0s0,0,0,0c0,0,0,0,0,0
	c0,0,0,0,0,0c0,0,0,0,0,0c0,0,0,0,0,0c0,0,0,0,0,0s0,0,0,0c0,0,0,0,0,0s0,0,0,0c0,0,0,0,0,0s0,0,0,0c0,0,0,0,0,0s0,0,0,0
	c0,0,0,0,0,0s0,0,0,0c0,0,0,0,0,0c0,0,0,0,0,0c0,0,0,0,0,0s0,0,0,0c0,0,0,0,0,0s0,0,0,0c0,0,0,0,0,0s0,0,0,0c0,0,0,0,0,0s0,0,0,0
	c0,0,0,0,0,0s0,0,0,0c0,0,0,0,0,0c0,0,0,0,0,0c0,0,0,0,0,0c0,0,0,0,0,0c0,0,0,0,0,0s0,0,0,0c0,0,0,0,0,0s0,0,0,0c0,0,0,0,0,0
	s0,0,0,0c0,0,0,0,0,0s0,0,0,0c0,0,0,0,0,0s0,0,0,0c0,0,0,0,0,0c0,0,0,0,0,0c0,0,0,0,0,0s0,0,0,0c0,0,0,0,0,0s0,0,0,0c0,0,0,0,0,0
	s0,0,0,0c0,0,0,0,0,0s0,0,0,0c0,0,0,0,0,0s0,0,0,0c0,0,0,0,0,0c0,0,0,0,0,0c0,0,0,0,0,0c0,0,0,0,0,0c0,0,0,0,0,0s0,0,0,0
	c0,0,0,0,0,0s0,0,0,0c0,0,0,0,0,0s0,0,0,0c0,0,0,0,0,0s0,0,0,0c0,0,0,0,0,0c0,0,0,0,0,0c0,0,0,0,0,0c0,0,0,0,0,0c0,0,0,0,0,0
	s0,0,0,0c0,0,0,0,0,0s0,0,0,0c0,0,0,0,0,0s0,0,0,0c0,0,0,0,0,0s0,0,0,0c0,0,0,0,0,0s0,0,0,0c0,0,0,0,0,0c0,0,0,0,0,0c0,0,0,0,0,0
	c0,0,0,0,0,0c0,0,0,0,0,0s0,0,0,0c0,0,0,0,0,0s0,0,0,0c0,0,0,0,0,0s0,0,0,0c0,0,0,0,0,0s0,0,0,0c0,0,0,0,0,0c0,0,0,0,0,0
	c0,0,0,0,0,0c0,0,0,0,0,0c0,0,0,0,0,0s0,0,0,0c0,0,0,0,0,0s0,0,0,0c0,0,0,0,0,0s0,0,0,0c0,0,0,0,0,0s0,0,0,0c0,0,0,0,0,0s0,0,0,0
	c0,0,0,0,0,0c0,0,0,0,0,0c0,0,0,0,0,0s0,0,0,0c0,0,0,0,0,0s0,0,0,0c0,0,0,0,0,0s0,0,0,0c0,0,0,0,0,0s0,0,0,0c0,0,0,0,0,0s0,0,0,0
	c0,0,0,0,0,0c0,0,0,0,0,0c0,0,0,0,0,0c0,0,0,0,0,0c0,0,0,0,0,0s0,0,0,0c0,0,0,0,0,0s0,0,0,0c0,0,0,0,0,0s0,0,0,0c0,0,0,0,0,0
	s0,0,0,0c0,0,0,0,0,0c0,0,0,0,0,0c0,0,0,0,0,0c0,0,0,0,0,0c0,0,0,0,0,0s0,0,0,0c0,0,0,0,0,0s0,0,0,0c0,0,0,0,0,0s0,0,0,0
	c0,0,0,0,0,0s0,0,0,0c0,0,0,0,0,0s0,0,0,0c0,0,0,0,0,0c0,0,0,0,0,0c0,0,0,0,0,0c0,0,0,0,0,0c0,0,0,0,0,0s0,0,0,0c0,0,0,0,0,0
	s0,0,0,0c0,0,0,0,0,0s0,0,0,0c0,0,0,0,0,0s0,0,0,0c0,0,0,0,0,0c0,0,0,0,0,0c0,0,0,0,0,0c0,0,0,0,0,0c0,0,0,0,0,0s0,0,0,0
	c0,0,0,0,0,0s0,0,0,0c0,0,0,0,0,0s0,0,0,0c0,0,0,0,0,0s0,0,0,0c0,0,0,0,0,0s0,0,0,0c0,0,0,0,0,0c0,0,0,0,0,0c0,0,0,0,0,0s0,0,0,0
	c0,0,0,0,0,0s0,0,0,0c0,0,0,0,0,0s0,0,0,0c0,0,0,0,0,0s0,0,0,0c0,0,0,0,0,0s0,0,0,0c0,0,0,0,0,0c0,0,0,0,0,0c0,0,0,0,0,0
	c0,0,0,0,0,0c0,0,0,0,0,0s0,0,0,0c0,0,0,0,0,0s0,0,0,0c0,0,0,0,0,0s0,0,0,0c0,0,0,0,0,0s0,0,0,0c0,0,0,0,0,0s0,0,0,0c0,0,0,0,0,0
	c0,0,0,0,0,0c0,0,0,0,0,0s0,0,0,0c0,0,0,0,0,0s0,0,0,0c0,0,0,0,0,0s0,0,0,0c0,0,0,0,0,0s0,0,0,0c0,0,0,0,0,0s0,0,0,0c0,0,0,0,0,0
	c0,0,0,0,0,0c0,0,0,0,0,0c0,0,0,0,0,0c0,0,0,0,0,0s0,0,0,0c0,0,0,0,0,0s0,0,0,0c0,0,0,0,0,0s0,0,0,0c0,0,0,0,0,0s0,0,0,0
	c0,0,0,0,0,0c0,0,0,0,0,0c0,0,0,0,0,0c0,0,0,0,0,0c0,0,0,0,0,0s0,0,0,0c0,0,0,0,0,0s0,0,0,0c0,0,0,0,0,0s0,0,0,0c0,0,0,0,0,0
	s0,0,0,0c0,0,0,0,0,0s0,0,0,0c0,0,0,0,0,0c0,0,0,0,0,0c0,0,0,0,0,0c0,0,0,0,0,0c0,0,0,0,0,0s0,0,0,0c0,0,0,0,0,0s0,0,0,0
	c0,0,0,0,0,0s0,0,0,0c0,0,0,0,0,0s0,0,0,0c0,0,0,0,0,0c0,0,0,0,0,0c0,0,0,0,0,0c0,0,0,0,0,0c0,0,0,0,0,0s0,0,0,0c0,0,0,0,0,0
	s0,0,0,0c0,0,0,0,0,0s0,0,0,0c0,0,0,0,0,0s0,0,0,0c0,0,0,0,0,0s0,0,0,0c0,0,0,0,0,0c0,0,0,0,0,0c0,0,0,0,0,0s0,0,0,0c0,0,0,0,0,0
	s0,0,0,0c0,0,0,0,0,0s0,0,0,0c0,0,0,0,0,0s0,0,0,0c0,0,0,0,0,0s0,0,0,0c0,0,0,0,0,0c0,0,0,0,0,0c0,0,0,0,0,0c0,0,0,0,0,0
	c0,0,0,0,0,0s0,0,0,0c0,0,0,0,0,0s0,0,0,0c0,0,0,0,0,0s0,0,0,0c0,0,0,0,0,0s0,0,0,0c0,0,0,0,0,0s0,0,0,0c0,0,0,0,0,0c0,0,0,0,0,0
	c0,0,0,0,0,0s0,0,0,0c0,0,0,0,0,0s0,0,0,0c0,0,0,0,0,0s0,0,0,0c0,0,0,0,0,0s0,0,0,0c0,0,0,0,0,0s0,0,0,0c0,0,0,0,0,0c0,0,0,0,0,0
	c0,0,0,0,0,0c0,0,0,0,0,0c0,0,0,0,0,0s0,0,0,0c0,0,0,0,0,0s0,0,0,0c0,0,0,0,0,0s0,0,0,0c0,0,0,0,0,0s0,0,0,0c0,0,0,0,0,0
	c0,0,0,0,0,0c0,0,0,0,0,0c0,0,0,0,0,0c0,0,0,0,0,0s0,0,0,0c0,0,0,0,0,0s0,0,0,0c0,0,0,0,0,0s0,0,0,0c0,0,0,0,0,0s0,0,0,0
	c0,0,0,0,0,0s0,0,0,0c0,0,0,0,0,0c0,0,0,0,0,0c0,0,0,0,0,0c0,0,0,0,0,0c0,0,0,0,0,0s0,0,0,0c0,0,0,0,0,0s0,0,0,0c0,0,0,0,0,0
	s0,0,0,0c0,0,0,0,0,0s0,0,0,0c0,0,0,0,0,0c0,0,0,0,0,0c0,0,0,0,0,0c0,0,0,0,0,0c0,0,0,0,0,0s0,0,0,0c0,0,0,0,0,0s0,0,0,0
	c0,0,0,0,0,0s0,0,0,0c0,0,0,0,0,0s0,0,0,0c0,0,0,0,0,0s0,0,0,0c0,0,0,0,0,0c0,0,0,0,0,0c0,0,0,0,0,0s0,0,0,0c0,0,0,0,0,0s0,0,0,0
	c0,0,0,0,0,0s0,0,0,0c0,0,0,0,0,0s0,0,0,0c0,0,0,0,0,0s0,0,0,0c0,0,0,0,0,0c0,0,0,0,0,0c0,0,0,0,0,0c0,0,0,0,0,0c0,0,0,0,0,0
	s0,0,0,0c0,0,0,0,0,0s0,0,0,0c0,0,0,0,0,0s0,0,0,0c0,0,0,0,0,0s0,0,0,0c0,0,0,0,0,0c0,0,0,0,0,0c0,0,0,0,0,0c0,0,0,0,0,0
	c0,0,0,0,0,0s0,0,0,0c0,0,0,0,0,0s0,0,0,0c0,0,0,0,0,0s0,0,0,0c0,0,0,0,0,0s0,0,0,0c0,0,0,0,0,0s0,0,0,0c0,0,0,0,0,0c0,0,0,0,0,0
	c0,0,0,0,0,0c0,0,0,0,0,0c0,0,0,0,0,0s0,0,0,0c0,0,0,0,0,0s0,0,0,0c0,0,0,0,0,0s0,0,0,0c0,0,0,0,0,0s0,0,0,0c0,0,0,0,0,0
	c0,0,0,0,0,0c0,0,0,0,0,0c0,0,0,0,0,0c0,0,0,0,0,0s0,0,0,0c0,0,0,0,0,0s0,0,0,0c0,0,0,0,0,0s0,0,0,0c0,0,0,0,0,0s0,0,0,0
	c0,0,0,0,0,0s0,0,0,0c0,0,0,0,0,0c0,0,0,0,0,0c0,0,0,0,0,0s0,0,0,0c0,0,0,0,0,0s0,0,0,0c0,0,0,0,0,0s0,0,0,0c0,0,0,0,0,0s0,0,0,0
	c0,0,0,0,0,0s0,0,0,0c0,0,0,0,0,0c0,0,0,0,0,0c0,0,0,0,0,0c0,0,0,0,0,0c0,0,0,0,0,0s0,0,0,0c0,0,0,0,0,0s0,0,0,0c0,0,0,0,0,0
	s0,0,0,0c0,0,0,0,0,0s0,0,0,0c0,0,0,0,0,0s0,0,0,0c0,0,0,0,0,0c0,0,0,0,0,0c0,0,0,0,0,0s0,0,0,0c0,0,0,0,0,0s0,0,0,0c0,0,0,0,0,0
	s0,0,0,0c0,0,0,0,0,0s0,0,0,0c0,0,0,0,0,0s0,0,0,0c0,0,0,0,0,0c0,0,0,0,0,0c0,0,0,0,0,0c0,0,0,0,0,0c0,0,0,0,0,0s0,0,0,0
	c0,0,0,0,0,0s0,0,0,0c0,0,0,0,0,0s0,0,0,0c0,0,0,0,0,0s0,0,0,0c0,0,0,0,0,0c0,0,0,0,0,0c0,0,0,0,0,0c0,0,0,0,0,0c0,0,0,0,0,0
	s0,0,0,0c0,0,0,0,0,0s0,0,0,0c0,0,0,0,0,0s0,0,0,0c0,0,0,0,0,0s0,0,0,0c0,0,0,0,0,0s0,0,0,0c0,0,0,0,0,0c0,0,0,0,0,0c0,0,0,0,0,0
	c0,0,0,0,0,0c0,0,0,0,0,0s0,0,0,0c0,0,0,0,0,0s0,0,0,0c0,0,0,0,0,0s0,0,0,0c0,0,0,0,0,0s0,0,0,0c0,0,0,0,0,0c0,0,0,0,0,0
	c0,0,0,0,0,0c0,0,0,0,0,0c0,0,0,0,0,0s0,0,0,0c0,0,0,0,0,0s0,0,0,0c0,0,0,0,0,0H79.7z M79.7,7.4C79.7,7.4,79.7,7.4,79.7,7.4
	C79.7,7.4,79.7,7.4,79.7,7.4C79.7,7.4,79.7,7.4,79.7,7.4C79.7,7.4,79.7,7.4,79.7,7.4C79.7,7.4,79.7,7.4,79.7,7.4
	C79.7,7.4,79.7,7.4,79.7,7.4C79.7,7.4,79.7,7.4,79.7,7.4C79.7,7.4,79.7,7.4,79.7,7.4C79.7,7.4,79.7,7.4,79.7,7.4
	C79.7,7.4,79.7,7.4,79.7,7.4C79.7,7.4,79.7,7.4,79.7,7.4C79.7,7.4,79.7,7.4,79.7,7.4C79.7,7.4,79.7,7.4,79.7,7.4
	C79.7,7.4,79.7,7.4,79.7,7.4C79.7,7.4,79.7,7.4,79.7,7.4C79.7,7.4,79.7,7.4,79.7,7.4C79.7,7.4,79.7,7.4,79.7,7.4
	C79.7,7.4,79.7,7.4,79.7,7.4C79.7,7.4,79.7,7.4,79.7,7.4C79.7,7.4,79.7,7.4,79.7,7.4C79.7,7.4,79.7,7.4,79.7,7.4
	C79.7,7.4,79.7,7.4,79.7,7.4C79.7,7.4,79.7,7.4,79.7,7.4C79.7,7.4,79.7,7.4,79.7,7.4C79.7,7.4,79.7,7.4,79.7,7.4
	C79.7,7.4,79.7,7.4,79.7,7.4C79.7,7.4,79.7,7.4,79.7,7.4C79.7,7.4,79.7,7.4,79.7,7.4C79.7,7.4,79.7,7.4,79.7,7.4
	C79.7,7.4,79.7,7.4,79.7,7.4C79.7,7.4,79.7,7.4,79.7,7.4C79.7,7.4,79.7,7.4,79.7,7.4C79.7,7.4,79.7,7.4,79.7,7.4
	C79.7,7.4,79.7,7.4,79.7,7.4C79.7,7.4,79.7,7.4,79.7,7.4C79.7,7.4,79.7,7.4,79.7,7.4C79.7,7.4,79.7,7.4,79.7,7.4
	C79.7,7.4,79.7,7.4,79.7,7.4C79.7,7.4,79.7,7.4,79.7,7.4C79.7,7.4,79.7,7.4,79.7,7.4C79.7,7.4,79.7,7.4,79.7,7.4
	C79.7,7.4,79.7,7.4,79.7,7.4C79.7,7.4,79.7,7.4,79.7,7.4C79.7,7.4,79.7,7.4,79.7,7.4C79.7,7.4,79.7,7.4,79.7,7.4
	C79.7,7.4,79.7,7.4,79.7,7.4C79.7,7.4,79.7,7.4,79.7,7.4C79.7,7.4,79.7,7.4,79.7,7.4C79.7,7.4,79.7,7.4,79.7,7.4
	C79.7,7.4,79.7,7.4,79.7,7.4C79.7,7.4,79.7,7.4,79.7,7.4C79.7,7.4,79.7,7.4,79.7,7.4C79.7,7.4,79.7,7.4,79.7,7.4
	C79.7,7.4,79.7,7.4,79.7,7.4C79.7,7.4,79.7,7.4,79.7,7.4C79.7,7.4,79.7,7.4,79.7,7.4C79.7,7.4,79.7,7.4,79.7,7.4
	C79.7,7.4,79.7,7.4,79.7,7.4C79.7,7.4,79.7,7.4,79.7,7.4C79.7,7.4,79.7,7.4,79.7,7.4C79.7,7.4,79.7,7.4,79.7,7.4
	C79.7,7.4,79.7,7.4,79.7,7.4C79.7,7.4,79.7,7.4,79.7,7.4C79.7,7.4,79.7,7.4,79.7,7.4C79.7,7.4,79.7,7.4,79.7,7.4
	C79.7,7.4,79.7,7.4,79.7,7.4C79.7,7.4,79.7,7.4,79.7,7.4C79.7,7.4,79.7,7.4,79.7,7.4C79.7,7.4,79.7,7.4,79.7,7.4
	C79.7,7.4,79.7,7.4,79.7,7.4C79.7,7.4,79.7,7.4,79.7,7.4C79.7,7.4,79.7,7.4,79.7,7.4C79.7,7.4,79.7,7.4,79.7,7.4
	C79.7,7.4,79.7,7.4,79.7,7.4C79.7,7.4,79.7,7.4,79.7,7.4C79.7,7.4,79.7,7.4,79.7,7.4C79.7,7.4,79.7,7.4,79.7,7.4
	C79.7,7.4,79.7,7.4,79.7,7.4C79.7,7.4,79.7,7.4,79.7,7.4C79.7,7.4,79.7,7.4,79.7,7.4C79.7,7.4,79.7,7.4,79.7,7.4
	C79.7,7.4,79.7,7.4,79.7,7.4C79.7,7.4,79.7,7.4,79.7,7.4C79.7,7.4,79.7,7.4,79.7,7.4C79.7,7.4,79.7,7.4,79.7,7.4
	C79.7,7.4,79.7,7.4,79.7,7.4C79.7,7.4,79.7,7.4,79.7,7.4C79.7,7.4,79.7,7.4,79.7,7.4C79.7,7.4,79.7,7.4,79.7,7.4
	C79.7,7.4,79.7,7.4,79.7,7.4C79.7,7.4,79.7,7.4,79.7,7.4C79.7,7.4,79.7,7.4,79.7,7.4C79.7,7.4,79.7,7.4,79.7,7.4
	C79.7,7.4,79.7,7.4,79.7,7.4C79.7,7.4,79.7,7.4,79.7,7.4C79.7,7.4,79.7,7.4,79.7,7.4C79.7,7.4,79.7,7.4,79.7,7.4
	C79.7,7.4,79.7,7.4,79.7,7.4C79.7,7.4,79.7,7.4,79.7,7.4C79.7,7.4,79.7,7.4,79.7,7.4C79.7,7.4,79.7,7.4,79.7,7.4
	C79.7,7.4,79.7,7.4,79.7,7.4C79.7,7.4,79.7,7.4,79.7,7.4C79.7,7.4,79.7,7.4,79.7,7.4C79.7,7.4,79.7,7.4,79.7,7.4
	C79.7,7.4,79.7,7.4,79.7,7.4C79.7,7.4,79.7,7.4,79.7,7.4C79.7,7.4,79.7,7.4,79.7,7.4C79.7,7.4,79.7,7.4,79.7,7.4
	C79.7,7.4,79.7,7.4,79.7,7.4C79.7,7.4,79.7,7.4,79.7,7.4C79.7,7.4,79.7,7.4,79.7,7.4C79.7,7.4,79.7,7.4,79.7,7.4
	C79.7,7.4,79.7,7.4,79.7,7.4C79.7,7.4,79.7,7.4,79.7,7.4C79.7,7.4,79.7,7.4,79.7,7.4C79.7,7.4,79.7,7.4,79.7,7.4
	C79.7,7.4,79.7,7.4,79.7,7.4C79.7,7.4,79.7,7.4,79.7,7.4C79.7,7.4,79.7,7.4,79.7,7.4C79.7,7.4,79.7,7.4,79.7,7.4
	C79.7,7.4,79.7,7.4,79.7,7.4C79.7,7.4,79.7,7.4,79.7,7.4C79.7,7.4,79.7,7.4,79.7,7.4C79.7,7.4,79.7,7.4,79.7,7.4
	C79.7,7.4,79.7,7.4,79.7,7.4C79.7,7.4,79.7,7.4,79.7,7.4C79.7,7.4,79.7,7.4,79.7,7.4C79.7,7.4,79.7,7.4,79.7,7.4
	C79.7,7.4,79.7,7.4,79.7,7.4C79.7,7.4,79.7,7.4,79.7,7.4C79.7,7.4,79.7,7.4,79.7,7.4C79.7,7.4,79.7,7.4,79.7,7.4
	C79.7,7.4,79.7,7.4,79.7,7.4C79.7,7.4,79.7,7.4,79.7,7.4C79.7,7.4,79.7,7.4,79.7,7.4C79.7,7.4,79.7,7.4,79.7,7.4
	C79.7,7.4,79.7,7.4,79.7,7.4C79.7,7.4,79.7,7.4,79.7,7.4C79.7,7.4,79.7,7.4,79.7,7.4C79.7,7.4,79.7,7.4,79.7,7.4
	C79.7,7.4,79.7,7.4,79.7,7.4C79.7,7.4,79.7,7.4,79.7,7.4C79.7,7.4,79.7,7.4,79.7,7.4C79.7,7.4,79.7,7.4,79.7,7.4
	C79.7,7.4,79.7,7.4,79.7,7.4C79.7,7.4,79.7,7.4,79.7,7.4C79.7,7.4,79.7,7.4,79.7,7.4C79.7,7.4,79.7,7.4,79.7,7.4
	C79.7,7.4,79.7,7.4,79.7,7.4C79.7,7.4,79.7,7.4,79.7,7.4C79.7,7.4,79.7,7.4,79.7,7.4C79.7,7.4,79.7,7.4,79.7,7.4
	C79.7,7.4,79.7,7.4,79.7,7.4C79.7,7.4,79.7,7.4,79.7,7.4C79.7,7.4,79.7,7.4,79.7,7.4C79.7,7.4,79.7,7.4,79.7,7.4
	C79.7,7.4,79.7,7.4,79.7,7.4C79.7,7.4,79.7,7.4,79.7,7.4C79.7,7.4,79.7,7.4,79.7,7.4C79.7,7.4,79.7,7.4,79.7,7.4
	C79.7,7.4,79.7,7.4,79.7,7.4C79.7,7.4,79.7,7.4,79.7,7.4C79.7,7.4,79.7,7.4,79.7,7.4C79.7,7.4,79.7,7.4,79.7,7.4
	C79.7,7.5,79.7,7.5,79.7,7.4C79.7,7.5,79.7,7.5,79.7,7.4C79.7,7.5,79.7,7.5,79.7,7.4C79.7,7.5,79.7,7.5,79.7,7.4
	C79.7,7.5,79.7,7.5,79.7,7.4C79.7,7.5,79.7,7.5,79.7,7.4C79.7,7.5,79.7,7.5,79.7,7.4C79.7,7.5,79.7,7.5,79.7,7.4
	C79.7,7.5,79.7,7.5,79.7,7.4C79.7,7.5,79.7,7.5,79.7,7.4C79.7,7.5,79.7,7.5,79.7,7.4C79.7,7.5,79.7,7.5,79.7,7.4
	C79.7,7.5,79.7,7.5,79.7,7.4C79.7,7.5,79.7,7.5,79.7,7.4C79.7,7.5,79.7,7.5,79.7,7.4C79.7,7.5,79.7,7.5,79.7,7.4
	C79.7,7.5,79.7,7.5,79.7,7.4C79.7,7.5,79.7,7.5,79.7,7.4C79.7,7.5,79.7,7.5,79.7,7.4C79.7,7.5,79.7,7.5,79.7,7.4
	C79.7,7.5,79.7,7.5,79.7,7.4C79.7,7.5,79.7,7.5,79.7,7.4C79.7,7.5,79.7,7.5,79.7,7.4C79.7,7.5,79.7,7.5,79.7,7.4
	C79.7,7.5,79.7,7.5,79.7,7.4C79.7,7.5,79.7,7.5,79.7,7.4C79.7,7.5,79.7,7.5,79.7,7.4C79.7,7.5,79.7,7.5,79.7,7.4
	C79.7,7.5,79.7,7.5,79.7,7.4C79.7,7.5,79.7,7.5,79.7,7.4C79.7,7.5,79.7,7.5,79.7,7.4C79.7,7.5,79.7,7.5,79.7,7.4
	C79.7,7.5,79.7,7.5,79.7,7.4C79.7,7.5,79.7,7.5,79.7,7.4C79.7,7.5,79.7,7.5,79.7,7.4C79.7,7.5,79.7,7.5,79.7,7.4
	C79.7,7.5,79.7,7.5,79.7,7.4C79.7,7.5,79.7,7.5,79.7,7.4C79.7,7.5,79.7,7.5,79.7,7.4C79.7,7.5,79.7,7.5,79.7,7.4
	C79.7,7.5,79.7,7.5,79.7,7.4C79.7,7.5,79.7,7.5,79.7,7.4C79.7,7.5,79.7,7.5,79.7,7.4C79.7,7.5,79.7,7.5,79.7,7.4
	C79.7,7.5,79.7,7.5,79.7,7.4C79.7,7.5,79.7,7.5,79.7,7.4C79.7,7.5,79.7,7.5,79.7,7.4C79.7,7.5,79.7,7.5,79.7,7.4
	C79.7,7.5,79.7,7.5,79.7,7.4C79.7,7.5,79.7,7.5,79.7,7.4C79.7,7.5,79.7,7.5,79.7,7.4C79.7,7.5,79.7,7.5,79.7,7.4
	C79.7,7.5,79.7,7.5,79.7,7.4C79.7,7.5,79.7,7.5,79.7,7.4C79.7,7.5,79.7,7.5,79.7,7.4C79.7,7.5,79.7,7.5,79.7,7.4
	C79.7,7.5,79.7,7.5,79.7,7.4C79.7,7.5,79.7,7.5,79.7,7.4C79.7,7.5,79.7,7.5,79.7,7.4C79.7,7.5,79.7,7.5,79.7,7.4
	C79.7,7.5,79.7,7.5,79.7,7.4C79.7,7.5,79.7,7.5,79.7,7.4C79.7,7.5,79.7,7.5,79.7,7.4C79.7,7.5,79.7,7.5,79.7,7.4
	C79.7,7.5,79.7,7.5,79.7,7.4C79.7,7.5,79.7,7.5,79.7,7.4C79.7,7.5,79.7,7.5,79.7,7.4C79.7,7.5,79.7,7.5,79.7,7.4
	C79.7,7.5,79.7,7.5,79.7,7.4C79.7,7.5,79.7,7.5,79.7,7.4C79.7,7.5,79.7,7.5,79.7,7.4C79.7,7.5,79.7,7.5,79.7,7.4
	C79.7,7.5,79.7,7.5,79.7,7.4C79.7,7.5,79.7,7.5,79.7,7.4C79.7,7.5,79.7,7.5,79.7,7.4C79.7,7.5,79.7,7.5,79.7,7.4
	C79.7,7.5,79.7,7.5,79.7,7.4C79.7,7.5,79.7,7.5,79.7,7.4C79.7,7.5,79.7,7.5,79.7,7.4C79.7,7.5,79.7,7.5,79.7,7.4
	C79.7,7.5,79.7,7.5,79.7,7.4C79.7,7.5,79.7,7.5,79.7,7.4C79.7,7.5,79.7,7.5,79.7,7.4C79.7,7.5,79.7,7.5,79.7,7.4
	C79.7,7.5,79.7,7.5,79.7,7.4C79.7,7.5,79.7,7.5,79.7,7.4C79.7,7.5,79.7,7.5,79.7,7.4C79.7,7.5,79.7,7.5,79.7,7.4
	C79.7,7.5,79.7,7.5,79.7,7.4C79.7,7.5,79.7,7.5,79.7,7.4C79.7,7.5,79.7,7.5,79.7,7.4C79.7,7.5,79.7,7.5,79.7,7.4
	C79.7,7.5,79.7,7.5,79.7,7.4C79.7,7.5,79.7,7.5,79.7,7.4C79.7,7.5,79.7,7.5,79.7,7.4C79.7,7.5,79.7,7.5,79.7,7.4
	C79.7,7.5,79.7,7.5,79.7,7.4C79.7,7.5,79.7,7.5,79.7,7.4C79.7,7.5,79.7,7.5,79.7,7.4C79.7,7.5,79.7,7.5,79.7,7.4
	C79.7,7.5,79.7,7.5,79.7,7.4C79.7,7.5,79.7,7.5,79.7,7.4C79.7,7.5,79.7,7.5,79.7,7.4C79.7,7.5,79.7,7.5,79.7,7.4
	C79.7,7.5,79.7,7.5,79.7,7.4C79.7,7.5,79.7,7.5,79.7,7.4C79.7,7.5,79.7,7.5,79.7,7.4C79.7,7.5,79.7,7.5,79.7,7.4
	C79.7,7.5,79.7,7.5,79.7,7.4C79.7,7.5,79.7,7.5,79.7,7.4C79.7,7.5,79.7,7.5,79.7,7.4C79.7,7.5,79.7,7.5,79.7,7.4
	C79.7,7.5,79.7,7.5,79.7,7.4C79.7,7.5,79.7,7.5,79.7,7.4C79.7,7.5,79.7,7.5,79.7,7.4C79.7,7.5,79.7,7.5,79.7,7.4
	C79.7,7.5,79.7,7.5,79.7,7.4C79.7,7.5,79.7,7.5,79.7,7.4C79.7,7.5,79.7,7.5,79.7,7.4C79.7,7.5,79.7,7.5,79.7,7.4
	C79.7,7.5,79.7,7.5,79.7,7.4C79.7,7.5,79.7,7.5,79.7,7.4C79.7,7.5,79.7,7.5,79.7,7.4C79.7,7.5,79.7,7.5,79.7,7.4
	C79.7,7.5,79.7,7.5,79.7,7.4C79.7,7.5,79.7,7.5,79.7,7.4C79.7,7.5,79.7,7.5,79.7,7.4C79.7,7.5,79.7,7.5,79.7,7.4
	C79.7,7.5,79.7,7.5,79.7,7.4C79.7,7.5,79.7,7.5,79.7,7.4C79.7,7.5,79.7,7.5,79.7,7.4C79.7,7.5,79.7,7.5,79.7,7.4
	C79.7,7.5,79.7,7.5,79.7,7.4C79.7,7.5,79.7,7.5,79.7,7.4C79.7,7.5,79.7,7.5,79.7,7.4C79.7,7.5,79.7,7.5,79.7,7.4
	C79.7,7.5,79.7,7.5,79.7,7.4C79.7,7.5,79.7,7.5,79.7,7.4C79.7,7.5,79.7,7.5,79.7,7.4C79.7,7.5,79.7,7.5,79.7,7.4
	C79.7,7.5,79.7,7.5,79.7,7.4C79.7,7.5,79.7,7.5,79.7,7.4C79.7,7.5,79.7,7.5,79.7,7.4C79.7,7.5,79.7,7.5,79.7,7.4
	C79.7,7.5,79.7,7.5,79.7,7.4C79.7,7.5,79.7,7.5,79.7,7.4C79.7,7.5,79.7,7.5,79.7,7.4C79.7,7.5,79.7,7.5,79.7,7.4
	C79.7,7.5,79.7,7.5,79.7,7.4C79.7,7.5,79.7,7.5,79.7,7.4C79.7,7.5,79.7,7.5,79.7,7.4C79.7,7.5,79.7,7.5,79.7,7.4
	C79.7,7.5,79.7,7.5,79.7,7.4C79.7,7.5,79.7,7.5,79.7,7.4C79.7,7.5,79.7,7.5,79.7,7.4C79.7,7.5,79.7,7.5,79.7,7.4
	C79.7,7.5,79.7,7.5,79.7,7.4C79.7,7.5,79.7,7.5,79.7,7.4C79.7,7.5,79.7,7.5,79.7,7.4C79.7,7.5,79.7,7.5,79.7,7.4
	C79.7,7.5,79.7,7.5,79.7,7.4C79.7,7.5,79.7,7.5,79.7,7.4C79.7,7.5,79.7,7.5,79.7,7.4C79.7,7.5,79.7,7.5,79.7,7.4
	C79.7,7.5,79.7,7.5,79.7,7.4C79.7,7.5,79.7,7.5,79.7,7.4C79.7,7.5,79.7,7.5,79.7,7.4C79.7,7.5,79.7,7.5,79.7,7.4
	C79.7,7.5,79.7,7.5,79.7,7.4C79.7,7.5,79.7,7.5,79.7,7.4C79.7,7.5,79.7,7.5,79.7,7.4C79.7,7.5,79.7,7.5,79.7,7.4
	C79.7,7.5,79.7,7.5,79.7,7.4C79.7,7.5,79.7,7.5,79.7,7.4C79.7,7.5,79.7,7.5,79.7,7.4C79.7,7.5,79.7,7.5,79.7,7.4
	C79.7,7.5,79.7,7.5,79.7,7.4C79.7,7.5,79.7,7.5,79.7,7.4C79.7,7.5,79.7,7.5,79.7,7.4C79.7,7.5,79.7,7.5,79.7,7.4
	C79.7,7.5,79.7,7.5,79.7,7.4C79.7,7.5,79.7,7.5,79.7,7.4C79.7,7.5,79.7,7.5,79.7,7.4C79.7,7.5,79.7,7.5,79.7,7.4
	C79.7,7.5,79.7,7.5,79.7,7.4C79.7,7.5,79.7,7.5,79.7,7.4C79.7,7.5,79.7,7.5,79.7,7.4C79.7,7.5,79.7,7.5,79.7,7.4
	C79.7,7.5,79.7,7.5,79.7,7.4C79.7,7.5,79.7,7.5,79.7,7.4C79.7,7.5,79.7,7.5,79.7,7.4C79.7,7.5,79.7,7.5,79.7,7.4
	C79.7,7.5,79.7,7.5,79.7,7.4C79.7,7.5,79.7,7.5,79.7,7.4C79.7,7.5,79.7,7.5,79.7,7.4C79.7,7.5,79.7,7.5,79.7,7.4
	C79.7,7.5,79.7,7.5,79.7,7.4C79.7,7.5,79.7,7.5,79.7,7.4C79.7,7.5,79.7,7.5,79.7,7.4C79.7,7.5,79.7,7.5,79.7,7.4
	C79.7,7.5,79.7,7.5,79.7,7.4C79.7,7.5,79.7,7.5,79.7,7.4C79.7,7.5,79.7,7.5,79.7,7.4C79.7,7.5,79.7,7.5,79.7,7.4
	C79.7,7.5,79.7,7.5,79.7,7.4C79.7,7.5,79.7,7.5,79.7,7.4C79.7,7.5,79.7,7.5,79.7,7.4C79.7,7.5,79.7,7.5,79.7,7.4
	C79.7,7.5,79.7,7.5,79.7,7.4C79.7,7.5,79.7,7.5,79.7,7.4C79.7,7.5,79.7,7.5,79.7,7.4C79.7,7.5,79.7,7.5,79.7,7.4
	C79.7,7.5,79.7,7.5,79.7,7.4C79.7,7.5,79.7,7.5,79.7,7.4C79.7,7.5,79.7,7.5,79.7,7.4C79.7,7.5,79.7,7.5,79.7,7.4
	C79.7,7.5,79.7,7.5,79.7,7.4C79.7,7.5,79.7,7.5,79.7,7.4C79.7,7.5,79.7,7.5,79.7,7.4C79.7,7.5,79.7,7.5,79.7,7.4
	C79.7,7.5,79.7,7.5,79.7,7.4C79.7,7.5,79.7,7.5,79.7,7.4C79.7,7.5,79.7,7.5,79.7,7.4C79.7,7.5,79.7,7.5,79.7,7.4
	C79.7,7.5,79.7,7.5,79.7,7.4C79.7,7.5,79.7,7.5,79.7,7.4C79.7,7.5,79.7,7.5,79.7,7.4C79.7,7.5,79.7,7.5,79.7,7.4
	C79.7,7.5,79.7,7.5,79.7,7.4C79.7,7.5,79.7,7.5,79.7,7.4C79.7,7.5,79.7,7.5,79.7,7.4C79.7,7.5,79.7,7.5,79.7,7.4
	C79.7,7.5,79.7,7.5,79.7,7.4C79.7,7.5,79.7,7.5,79.7,7.4C79.7,7.5,79.7,7.5,79.7,7.4C79.7,7.5,79.7,7.5,79.7,7.4
	C79.7,7.5,79.7,7.5,79.7,7.4C79.7,7.5,79.7,7.5,79.7,7.4C79.7,7.5,79.7,7.5,79.7,7.4C79.7,7.5,79.7,7.5,79.7,7.4
	C79.7,7.5,79.7,7.5,79.7,7.4C79.7,7.5,79.7,7.5,79.7,7.4C79.7,7.5,79.7,7.5,79.7,7.4C79.7,7.5,79.7,7.5,79.7,7.4
	C79.7,7.5,79.7,7.5,79.7,7.4C79.7,7.5,79.7,7.5,79.7,7.4C79.7,7.5,79.7,7.5,79.7,7.4C79.7,7.5,79.7,7.5,79.7,7.4
	C79.7,7.5,79.7,7.5,79.7,7.4C79.7,7.5,79.7,7.5,79.7,7.4C79.7,7.5,79.7,7.5,79.7,7.4C79.7,7.5,79.7,7.5,79.7,7.4
	C79.7,7.5,79.7,7.5,79.7,7.4C79.7,7.5,79.7,7.5,79.7,7.4C79.7,7.5,79.7,7.5,79.7,7.4C79.7,7.5,79.7,7.5,79.7,7.4
	C79.7,7.5,79.7,7.5,79.7,7.4C79.7,7.5,79.7,7.5,79.7,7.4C79.7,7.5,79.7,7.5,79.7,7.4C79.7,7.5,79.7,7.5,79.7,7.4
	C79.7,7.5,79.7,7.5,79.7,7.4C79.7,7.5,79.7,7.5,79.7,7.4C79.7,7.5,79.7,7.5,79.7,7.4C79.7,7.5,79.7,7.5,79.7,7.4
	C79.7,7.5,79.7,7.5,79.7,7.4C79.7,7.5,79.7,7.5,79.7,7.4C79.7,7.5,79.7,7.5,79.7,7.4C79.7,7.5,79.7,7.5,79.7,7.4
	C79.7,7.5,79.7,7.5,79.7,7.4C79.7,7.5,79.7,7.5,79.7,7.4C79.7,7.5,79.7,7.5,79.7,7.4C79.7,7.5,79.7,7.5,79.7,7.4
	C79.7,7.5,79.7,7.5,79.7,7.4C79.7,7.5,79.7,7.5,79.7,7.4C79.7,7.5,79.7,7.5,79.7,7.4C79.7,7.5,79.7,7.5,79.7,7.4
	C79.7,7.5,79.7,7.5,79.7,7.4C79.7,7.5,79.7,7.5,79.7,7.4C79.7,7.5,79.7,7.5,79.7,7.4C79.7,7.5,79.7,7.5,79.7,7.4
	C79.7,7.5,79.7,7.5,79.7,7.4C79.7,7.5,79.7,7.5,79.7,7.4C79.7,7.5,79.7,7.5,79.7,7.4C79.7,7.5,79.7,7.5,79.7,7.4
	C79.7,7.5,79.7,7.5,79.7,7.4C79.7,7.5,79.7,7.5,79.7,7.4c0,0.1,0,0.1,0,0.1c0,0,0,0,0,0c0,0,0,0,0,0s0,0,0,0c0,0,0,0,0,0
	c0,0,0,0,0,0c0,0,0,0,0,0c0,0,0,0,0,0c0,0,0,0,0,0c0,0,0,0,0,0c0,0,0,0,0,0c0,0,0,0,0,0s0,0,0,0s0,0,0,0s0,0,0,0s0,0,0,0
	c0,0,0,0,0,0c0,0,0,0,0,0c0,0,0,0,0,0c0,0,0,0,0,0c0,0,0,0,0,0c0,0,0,0,0,0c0,0,0,0,0,0c0,0,0,0,0,0s0,0,0,0s0,0,0,0c0,0,0,0,0,0
	s0,0,0,0s0,0,0,0s0,0,0,0c0,0,0,0,0,0c0,0,0,0,0,0c0,0,0,0,0,0c0,0,0,0,0,0c0,0,0,0,0,0c0,0,0,0,0,0c0,0,0,0,0,0c0,0,0,0,0,0
	c0,0,0,0,0,0c0,0,0,0,0,0c0,0,0,0,0,0c0,0,0,0,0,0c0,0,0,0,0,0c0,0,0,0,0,0s0,0,0,0s0,0,0,0c0,0,0,0,0,0c0,0,0,0,0,0c0,0,0,0,0,0
	c0,0,0,0,0,0c0,0,0,0,0,0c0,0,0,0,0,0c0,0,0,0,0,0c0,0,0,0,0,0c0,0,0,0,0,0c0,0,0,0,0,0s0,0,0,0c0,0,0,0,0,0c0,0,0,0,0,0
	c0,0,0,0,0,0c0,0,0,0,0,0h10c0,0,0,0,0,0c0,0,0,0,0,0c0,0,0,0,0,0c0,0,0,0,0,0c0,0,0,0,0,0s0,0,0,0c0,0,0,0,0,0c0,0,0,0,0,0
	c0,0,0,0,0,0c0,0,0,0,0,0c0,0,0,0,0,0c0,0,0,0,0,0c0,0,0,0,0,0c0,0,0,0,0,0c0,0,0,0,0,0c0,0,0,0,0,0s0,0,0,0s0,0,0,0c0,0,0,0,0,0
	c0,0,0,0,0,0c0,0,0,0,0,0c0,0,0,0,0,0c0,0,0,0,0,0c0,0,0,0,0,0c0,0,0,0,0,0c0,0,0,0,0,0c0,0,0,0,0,0c0,0,0,0,0,0c0,0,0,0,0,0
	c0,0,0,0,0,0c0,0,0,0,0,0c0,0,0,0,0,0s0,0,0,0s0,0,0,0s0,0,0,0c0,0,0,0,0,0s0,0,0,0s0,0,0,0c0,0,0,0,0,0c0,0,0,0,0,0c0,0,0,0,0,0
	c0,0,0,0,0,0c0,0,0,0,0,0c0,0,0,0,0,0c0,0,0,0,0,0c0,0,0,0,0,0s0,0,0,0s0,0,0,0s0,0,0,0s0,0,0,0c0,0,0,0,0,0c0,0,0,0,0,0
	c0,0,0,0,0,0c0,0,0,0,0,0c0,0,0,0,0,0c0,0,0,0,0,0c0,0,0,0,0,0c0,0,0,0,0,0s0,0,0,0c0,0,0,0,0,0c0,0,0,0,0,0c0,0,0,0,0,0
	c0,0,0,0,0,0c0,0,0,0,0,0c0,0,0,0,0,0c0,0,0,0,0,0c0,0,0,0,0,0s0,0,0,0s0,0,0,0c0,0,0,0,0,0c0,0,0,0,0,0c0,0,0,0,0,0c0,0,0,0,0,0
	s0,0,0,0s0,0,0,0s0,0,0,0c0,0,0,0,0,0c0,0,0,0,0,0c0,0,0,0,0,0c0,0,0,0,0,0c0,0,0,0,0,0s0,0,0,0s0,0,0,0s0,0,0,0c0,0,0,0,0,0
	c0,0,0,0,0,0c0,0,0,0,0,0c0,0,0,0,0,0s0,0,0,0s0,0,0,0c0,0,0,0,0,0c0,0,0,0,0,0c0,0,0,0,0,0c0,0,0,0,0,0s0,0,0,0c0,0,0,0,0,0
	c0,0,0,0,0,0c0,0,0,0,0,0c0,0,0,0,0,0c0,0,0,0,0,0c0,0,0,0,0,0c0,0,0,0,0,0c0,0,0,0,0,0c0,0,0,0,0,0c0,0,0,0,0,0c0,0,0,0,0,0
	c0,0,0,0,0,0c0,0,0,0,0,0c0,0,0,0,0,0c0,0,0,0,0,0c0,0,0,0,0,0s0,0,0,0c0,0,0,0,0,0c0,0,0,0,0,0c0,0,0,0,0,0c0,0,0,0,0,0s0,0,0,0
	c0,0,0,0,0,0c0,0,0,0,0,0c0,0,0,0,0,0c0,0,0,0,0,0s0,0,0,0c0,0,0,0,0,0c0,0,0,0,0,0c0,0,0,0,0,0s0,0,0,0c0,0,0,0,0,0s0,0,0,0
	c0,0,0,0,0,0c0,0,0,0,0,0s0,0,0,0s0,0,0,0c0,0,0,0,0,0c0,0,0,0,0,0s0,0,0,0c0,0,0,0,0,0s0,0,0,0c0,0,0,0,0,0c0,0,0,0,0,0
	c0,0,0,0,0,0s0,0,0,0c0,0,0,0,0,0c0,0,0,0,0,0s0,0,0,0c0,0,0,0,0,0c0,0,0,0,0,0c0,0,0,0,0,0s0,0,0,0c0,0,0,0,0,0c0,0,0,0,0,0
	c0,0,0,0,0,0s0,0,0,0s0,0,0,0c0,0,0,0,0,0c0,0,0,0,0,0c0,0,0,0,0,0s0,0,0,0c0,0,0,0,0,0c0,0,0,0,0,0c0,0,0,0,0,0c0,0,0,0,0,0
	c0,0,0,0,0,0c0,0,0,0,0,0c0,0,0,0,0,0c0,0,0,0,0,0c0,0,0,0,0,0c0,0,0,0,0,0c0,0,0,0,0,0c0,0,0,0,0,0c0,0,0,0,0,0c0,0,0,0,0,0
	c0,0,0,0,0,0c0,0,0,0,0,0c0,0,0,0,0,0c0,0,0,0,0,0c0,0,0,0,0,0c0,0,0,0,0,0s0,0,0,0c0,0,0,0,0,0c0,0,0,0,0,0c0,0,0,0,0,0s0,0,0,0
	s0,0,0,0c0,0,0,0,0,0c0,0,0,0,0,0c0,0,0,0,0,0c0,0,0,0,0,0c0,0,0,0,0,0c0,0,0,0,0,0c0,0,0,0,0,0c0,0,0,0,0,0s0,0,0,0s0,0,0,0
	c0,0,0,0,0,0c0,0,0,0,0,0s0,0,0,0c0,0,0,0,0,0s0,0,0,0s0,0,0,0c0,0,0,0,0,0c0,0,0,0,0,0s0,0,0,0c0,0,0,0,0,0c0,0,0,0,0,0s0,0,0,0
	s0,0,0,0c0,0,0,0,0,0s0,0,0,0s0,0,0,0c0,0,0,0,0,0s0,0,0,0c0,0,0,0,0,0c0,0,0,0,0,0s0,0,0,0s0,0,0,0c0,0,0,0,0,0s0,0,0,0s0,0,0,0
	c0,0,0,0,0,0c0,0,0,0,0,0s0,0,0,0c0,0,0,0,0,0c0,0,0,0,0,0c0,0,0,0,0,0c0,0,0,0,0,0c0,0,0,0,0,0s0,0,0,0c0,0,0,0,0,0s0,0,0,0
	s0,0,0,0c0,0,0,0,0,0c0,0,0,0,0,0c0,0,0,0,0,0c0,0,0,0,0,0c0,0,0,0,0,0c0,0,0,0,0,0c0,0,0,0,0,0c0,0,0,0,0,0c0,0,0,0,0,0
	c0,0,0,0,0,0c0,0,0,0,0,0c0,0,0,0,0,0c0,0,0,0,0,0c0,0,0,0,0,0c0,0,0,0,0,0c0,0,0,0,0,0c0,0,0,0,0,0c0,0,0,0,0,0c0,0,0,0,0,0
	c0,0,0,0,0,0c0,0,0,0,0,0c0,0,0,0,0,0c0,0,0,0,0,0s0,0,0,0s0,0,0,0c0,0,0,0,0,0s0,0,0,0c0,0,0,0,0,0s0,0,0,0s0,0,0,0c0,0,0,0,0,0
	c0,0,0,0,0,0c0,0,0,0,0,0c0,0,0,0,0,0s0,0,0,0c0,0,0,0,0,0s0,0,0,0s0,0,0,0c0,0,0,0,0,0s0,0,0,0c0,0,0,0,0,0s0,0,0,0c0,0,0,0,0,0
	c0,0,0,0,0,0s0,0,0,0c0,0,0,0,0,0c0,0,0,0,0,0s0,0,0,0c0,0,0,0,0,0s0,0,0,0s0,0,0,0c0,0,0,0,0,0s0,0,0,0c0,0,0,0,0,0s0,0,0,0
	s0,0,0,0c0,0,0,0,0,0s0,0,0,0c0,0,0,0,0,0s0,0,0,0s0,0,0,0c0,0,0,0,0,0s0,0,0,0c0,0,0,0,0,0c0,0,0,0,0,0c0,0,0,0,0,0s0,0,0,0
	s0,0,0,0c0,0,0,0,0,0s0,0,0,0c0,0,0,0,0,0s0,0,0,0s0,0,0,0c0,0,0,0,0,0s0,0,0,0c0,0,0,0,0,0c0,0,0,0,0,0s0,0,0,0c0,0,0,0,0,0
	s0,0,0,0c0,0,0,0,0,0c0,0,0,0,0,0c0,0,0,0,0,0s0,0,0,0s0,0,0,0c0,0,0,0,0,0c0,0,0,0,0,0c0,0,0,0,0,0c0,0,0,0,0,0c0,0,0,0,0,0
	s0,0,0,0s0,0,0,0c0,0,0,0,0,0s0,0,0,0c0,0,0,0,0,0s0,0,0,0c0,0,0,0,0,0c0,0,0,0,0,0c0,0,0,0,0,0c0,0,0,0,0,0c0,0,0,0,0,0
	c0,0,0,0,0,0c0,0,0,0,0,0c0,0,0,0,0,0c0,0,0,0,0,0c0,0,0,0,0,0c0,0,0,0,0,0c0,0,0,0,0,0c0,0,0,0,0,0c0,0,0,0,0,0c0,0,0,0,0,0
	c0,0,0,0,0,0c0,0,0,0,0,0c0,0,0,0,0,0c0,0,0,0,0,0c0,0,0,0,0,0c0,0,0,0,0,0c0,0,0,0,0,0c0,0,0,0,0,0c0,0,0,0,0,0c0,0,0,0,0,0
	c0,0,0,0,0,0c0,0,0,0,0,0c0,0,0,0,0,0c0,0,0,0,0,0c0,0,0,0,0,0c0,0,0,0,0,0c0,0,0,0,0,0c0,0,0,0,0,0c0,0,0,0,0,0c0,0,0,0,0,0
	s0,0,0,0c0,0,0,0,0,0s0,0,0,0s0,0,0,0s0,0,0,0c0,0,0,0,0,0s0,0,0,0s0,0,0,0c0,0,0,0,0,0s0,0,0,0c0,0,0,0,0,0s0,0,0,0c0,0,0,0,0,0
	c0,0,0,0,0,0c0,0,0,0,0,0c0,0,0,0,0,0s0,0,0,0s0,0,0,0c0,0,0,0,0,0c0,0,0,0,0,0s0,0,0,0c0,0,0,0,0,0c0,0,0,0,0,0c0,0,0,0,0,0
	s0,0,0,0c0,0,0,0,0,0s0,0,0,0c0,0,0,0,0,0c0,0,0,0,0,0c0,0,0,0,0,0c0,0,0,0,0,0c0,0,0,0,0,0s0,0,0,0s0,0,0,0s0,0,0,0s0,0,0,0
	s0,0,0,0s0,0,0,0c0,0,0,0,0,0s0,0,0,0c0,0,0,0,0,0s0,0,0,0c0,0,0,0,0,0c0,0,0,0,0,0c0,0,0,0,0,0s0,0,0,0c0,0,0,0,0,0s0,0,0,0
	c0,0,0,0,0,0c0,0,0,0,0,0c0,0,0,0,0,0s0,0,0,0c0,0,0,0,0,0c0,0,0,0,0,0s0,0,0,0s0,0,0,0s0,0,0,0s0,0,0,0s0,0,0,0s0,0,0,0s0,0,0,0
	s0,0,0,0s0,0,0,0c0,0,0,0,0,0s0,0,0,0c0,0,0,0,0,0s0,0,0,0c0,0,0,0,0,0s0,0,0,0c0,0,0,0,0,0s0,0,0,0c0,0,0,0,0,0s0,0,0,0
	c0,0,0,0,0,0s0,0,0,0c0,0,0,0,0,0s0,0,0,0c0,0,0,0,0,0s0,0,0,0c0,0,0,0,0,0s0,0,0,0c0,0,0,0,0,0s0,0,0,0c0,0,0,0,0,0s0,0,0,0
	c0,0,0,0,0,0s0,0,0,0c0,0,0,0,0,0s0,0,0,0c0,0,0,0,0,0s0,0,0,0s0,0,0,0c0,0,0,0,0,0s0,0,0,0s0,0,0,0s0,0,0,0s0,0,0,0c0,0,0,0,0,0
	s0,0,0,0s0,0,0,0s0,0,0,0c0,0,0,0,0,0s0,0,0,0s0,0,0,0s0,0,0,0s0,0,0,0s0,0,0,0s0,0,0,0c0,0,0,0,0,0s0,0,0,0s0,0,0,0c0,0,0,0,0,0
	s0,0,0,0s0,0,0,0s0,0,0,0s0,0,0,0s0,0,0,0c0,0,0,0,0,0s0,0,0,0s0,0,0,0c0,0,0,0,0,0s0,0,0,0s0,0,0,0c0,0,0,0,0,0s0,0,0,0s0,0,0,0
	s0,0,0,0s0,0,0,0c0,0,0,0,0,0s0,0,0,0c0,0,0,0,0,0c0,0,0,0,0,0s0,0,0,0c0,0,0,0,0,0s0,0,0,0s0,0,0,0c0,0,0,0,0,0s0,0,0,0
	c0,0,0,0,0,0s0,0,0,0c0,0,0,0,0,0s0,0,0,0c0,0,0,0,0,0c0,0,0,0,0,0c0,0,0,0,0,0s0,0,0,0c0,0,0,0,0,0s0,0,0,0c0,0,0,0,0,0s0,0,0,0
	c0,0,0,0,0,0H79.7z M79.7,8c0.5,6.2,0.7,12.4,0,18.3l9.9,1.1c0.8-6.8,0.6-13.7,0-20.3L79.7,8z M79.7,26.2c-0.2,1.4,0.2,2.9,1,4
	c0.8,1,1.7,1.6,2.3,1.8c1.3,0.6,2.5,0.6,3.4,0.6c0.9-0.1,2.1-0.3,3.2-0.9c1.1-0.6,2.9-2,3.2-4.7l-10-0.9c0.2-2,1.6-3,2-3.2
	c0.5-0.3,0.8-0.3,0.9-0.3c0.1,0,0.5,0,1.2,0.3c0.4,0.2,1.1,0.5,1.7,1.4c0.7,0.9,1,2.1,0.8,3.3L79.7,26.2z M92.9,27.2
	c0.5-4,0.6-7.9,0.5-11.8l-10,0.2c0.1,3.6,0,7.1-0.4,10.4L92.9,27.2z M83.8,17.4c2.3,5.4,4.1,10.8,5.3,16.3l9.8-2
	c-1.3-6.4-3.4-12.5-5.8-18.3L83.8,17.4z M88.9,32.2c-0.2,1.4,0.2,2.7,1,3.8c0.7,1,1.6,1.5,2.3,1.8c1.2,0.6,2.5,0.7,3.3,0.6l-0.4-10
	c0.1,0,0.6,0,1.3,0.3c0.4,0.2,1.1,0.6,1.6,1.4c0.7,0.9,1,2,0.8,3.1L88.9,32.2z M95.2,38.5c1.2,0,2.5-0.2,3.8-0.8
	c1-0.5,3.9-2.6,3.1-6.3l-9.8,2.2c-0.3-1.3,0-2.6,0.6-3.5c0.5-0.8,1.1-1.2,1.4-1.3c0.5-0.3,0.9-0.3,1.2-0.3L95.2,38.5z M102.1,32.8
	c0.6-8.8,0.9-17.7,0.9-26.5l-10,0c0,8.6-0.3,17.3-0.9,25.9L102.1,32.8z M103.5,17.3l-4.8-1.2l-0.3,1.3l0.4,1.3L103.5,17.3z
	 M105.5,7.8l4.9,0.8l0,0l0,0L105.5,7.8z M102.3,7.6l-4.9-0.8l0,0l0,0L102.3,7.6z M101.6,11.6L97,13.5l6.2,16l3.4-16.8L101.6,11.6z
	 M99.8,7.3l4.6-2l0,0l0,0L99.8,7.3z M96.7,8.1l-4.6,2.1l0,0l0,0L96.7,8.1z M100.3,17.5l4.8,1.3l0.4-1.4l-0.4-1.3L100.3,17.5z
	 M94.9,32.5l4.5,2.2l0,0l0,0L94.9,32.5z M98,32.7l4.5,2.1l0,0L98,32.7z M101.7,23.4l4.9-1L103,4l-6,17.8L101.7,23.4z M102.4,27.5
	l-5,0.6l0,0l0,0L102.4,27.5z M105.7,27.2l-5,0.7l0,0l0,0L105.7,27.2z M108.4,18.6c0.8-3.3,1.5-6.6,2.1-10L100.6,7
	c-0.5,3-1.1,6.1-1.9,9.1L108.4,18.6z M110.5,8.6c0.2-1.2,0-2.4-0.6-3.5c-0.6-1.1-1.4-1.8-2.1-2.2c-1.3-0.8-2.7-1-3.6-1
	c-1,0-2.1,0.1-3.2,0.6C100,2.8,97.8,4,97.4,6.8l9.9,1.6c-0.4,2.2-2,3-2.3,3.2c-0.5,0.2-0.8,0.2-1,0.2c-0.1,0-0.7,0-1.5-0.5
	c-0.4-0.3-1-0.8-1.5-1.6c-0.5-0.9-0.6-1.8-0.5-2.6L110.5,8.6z M97.4,6.8c-0.2,1.3-0.4,2.6-0.7,3.8l9.8,2c0.3-1.4,0.5-2.8,0.8-4.3
	L97.4,6.8z M106.3,9.8c-0.6-1.5-1.2-3.1-1.9-4.6l-9.1,4.1c0.6,1.3,1.2,2.7,1.7,4.1L106.3,9.8z M104.4,5.3c-1.1-2.4-3.3-3.1-4.3-3.3
	c-1.2-0.2-2.3-0.2-3.2,0c-0.9,0.2-2.2,0.6-3.4,1.7c-0.6,0.6-1.3,1.5-1.7,2.8c-0.3,1.3-0.1,2.6,0.3,3.7l9.1-4.1
	c0.3,0.8,0.5,1.8,0.2,2.8c-0.3,1-0.8,1.7-1.2,2.1c-0.7,0.7-1.4,0.8-1.4,0.8c-0.2,0-0.5,0.1-0.9,0c-0.3-0.1-1.9-0.4-2.7-2.3
	L104.4,5.3z M92.2,10.2c1.3,2.8,2.4,5.7,3.3,8.7l9.6-2.9c-1-3.4-2.3-6.8-3.8-10.1L92.2,10.2z M95.4,16.2c-1.3,4.9-3,9.6-5.1,14.1
	l9,4.3c2.4-5.1,4.3-10.4,5.7-15.8L95.4,16.2z M90.4,30.3c-0.5,1-0.8,2.5-0.3,4c0.5,1.5,1.4,2.4,2.2,2.9c1.3,0.9,2.8,1.1,3.6,1.2
	c0.9,0,2-0.1,3-0.4c0.9-0.3,2.7-1.1,3.7-3.2l-9-4.3c0.7-1.5,2-2,2.1-2c0.3-0.1,0.5-0.1,0.7-0.1c0,0,0.7,0,1.6,0.6
	c0.5,0.4,1.3,1.1,1.7,2.4c0.4,1.3,0.1,2.5-0.2,3.2L90.4,30.3z M102.5,34.8c1.5-3.2,2.8-6.4,3.9-9.8L97,21.8c-1,3-2.2,5.9-3.5,8.8
	L102.5,34.8z M96.8,24.4c0.3,1.3,0.5,2.6,0.6,3.8l9.9-1.3c-0.2-1.5-0.5-3-0.7-4.5L96.8,24.4z M97.5,28.3c0.4,2.8,2.6,4.1,3.8,4.6
	c1.2,0.5,2.5,0.5,3.4,0.4c0.9-0.1,2.2-0.4,3.3-1.1c1.2-0.8,3.1-2.7,2.6-5.7l-9.9,1.4c-0.3-2.4,1.2-3.8,1.8-4.2
	c0.6-0.4,1.1-0.4,1.2-0.4c0.1,0,0.5,0,1.1,0.2c0.5,0.2,2.2,1.1,2.5,3.3L97.5,28.3z M110.6,26.6c-0.5-3.6-1.3-7.2-2.3-10.7l-9.6,2.8
	c0.9,3,1.6,6.1,2,9.2L110.6,26.6z"/>
<path class="st0" d="M19.1,6.7c-4,0-8.6,0.1-12.4,1.7c-1.1,0.5-1.2,3.8-0.1,3.2c0.9-0.4,1.9-0.7,2.9-0.9c-0.4,6.8-0.6,13.6-0.6,20.4
	c0,1.2,3.2,1,3.2-0.3c0-6.9,0.2-13.8,0.6-20.6c1.9-0.2,3.9-0.2,5.7-0.3C19.8,10,20.2,6.7,19.1,6.7z M21.4,7.8
	c-0.2,2.9-0.3,5.9-0.4,8.8c-0.6,0.1-1.2,0.3-1.9,0.4c0.1-2.1,0.1-4.2,0.1-6.2c-0.1-1.2-3.3-1-3.2,0.3c0.1,2.2,0,4.3-0.1,6.5
	c-1,0.2-1.3,2.9-0.2,3.2c-0.2,2.2-0.5,4.4-0.7,6.5c-0.1,1.1,3.1,1,3.2-0.3c0.3-2.2,0.5-4.4,0.7-6.7c0.7-0.1,1.3-0.3,2-0.5
	C20.7,24,20.6,28,20.5,32c0,1.2,3.2,1,3.2-0.3c0.2-8.1,0.5-16.1,0.9-24.2C24.7,6.4,21.4,6.6,21.4,7.8z M37.1,18.2
	c-0.1-1.2-3.4-1-3.2,0.3c0.1,1.9,0.8,4.8,0,6.6c-0.8,2-4,1.8-5.5,0.2c-3.5-3.8,0.1-9.1,4-10.4c1.7-0.6,0.1-1.6-1-1.6
	c-1.7,0.1-4.1,0.1-2.9-2.2c0.3-0.5,1.8-2.1,2.4-2c0.5,0.1,1,1.2,1.3,1.6c0.5,0.8,0.9,1.8,1.2,2.7c0,0.8,1.3,0.9,2.3,0.6
	c0.6-0.1,1.1-0.5,0.9-0.9c0-1.8,0.1-4.1,0.4-5.7c0.2-1.3-3-1.3-3.2-0.2c-0.1,0.4-0.1,0.8-0.2,1.2c-2.1-1.7-4.9-1.7-7.6,1.4
	c-2.5,3-0.7,4.4,1.8,5c-2.1,1.4-3.6,3.4-4,6c-0.4,2.8,0.8,5.7,3.4,6.9c2.3,1.1,7.6,0.8,9.3-1.2C38.2,24.5,37.3,20.3,37.1,18.2z
	 M53,14.9c2.5-0.5,4.8-1.6,4-4c-0.9-2.6-4.5-4.5-7.1-4c-0.4,0.1-0.8,0.2-1.1,0.4c0-0.1,0-0.3,0-0.4c-0.1-1.2-3.3-1-3.2,0.3
	c0.3,5.4,0.2,10.9-0.2,16.3c-0.1,1.1,3.1,1,3.2-0.3c0.2-2.5,0.3-5.1,0.4-7.6c2.6,0.9,4.9,2.7,5.9,5.4c1.3,3.6-0.5,5.8-4,5.3
	c1.8-1.5,2.8-3.6,2.4-6.2c-0.2-1.3-3.4-0.9-3.2,0.3c0.4,2-0.3,3.9-1.9,5.2c-0.5,0.4-1,0.7-1.6,1c-0.2,0.1-1.3,0.5-0.6,0.3
	c-2.1,0.6-0.5,2.1,1,1.6c0.5-0.1,1-0.4,1.6-0.6c3.9,1,9.1,1.1,9.9-3.8C59.1,19.9,56.4,16.7,53,14.9z M49,13.3
	c-0.1-2.2,0.7-5.4,3.5-3.5c1.2,0.8,2,2.1,0.7,3c-1,0.7-3,0.7-4.2,0.7c0,0,0,0,0,0C49,13.4,49,13.4,49,13.3z M71.5,10.4
	c0.7-2.4-1.2-3.7-3.4-4c-2.2-0.3-4.5,0.2-6.5,1.3c0-0.3-0.1-0.5-0.1-0.8C61.3,5.7,58,6,58.3,7.2c1.1,6.7,0.9,13.7,0.1,20.4
	c-0.2,1.1,3.1,1,3.2-0.3c0.2-2.2,0.4-4.4,0.5-6.5c1.3-0.7,3.3-1.6,4.8-1.5c-2.2,4.2-2.3,9.4,0.4,13.4c0.7,1,3.8,0.3,3.1-0.8
	c-2.7-4-2.3-9.1,0.1-13.1c0.2-0.4-0.2-0.7-0.5-0.8c-1.2-0.5-2.5-0.6-3.8-0.5C68.6,15.6,70.7,13.1,71.5,10.4z M62.2,17.4
	c0-2.4-0.1-4.9-0.3-7.3c0,0,0.1,0,0.1-0.1c1.3-1,3.9-2.6,5.7-1.6c1.9,1-0.3,4.1-1.1,5.2C65.4,15,63.9,16.4,62.2,17.4z M79.5,6.8
	c-1.9,0-3.3,0.9-4.3,2.2c-2.6,1.1-3.5,4.6-3.9,7.1c-0.6,3.4-0.7,7.6,1.9,10.3c3.3,3.4,8.8,1.9,10.6-2.2C85.6,20.1,86.3,6.9,79.5,6.8
	z M81,22.8c-0.4,1.5-1.5,3.9-3.4,3.6c-1.6-0.3-2.6-2.2-3-3.6c-0.5-1.6-0.5-3.3-0.4-4.9c0.5,1.4,1.4,2.6,2.6,3.4
	c0.9,0.6,4-0.3,2.7-1.1c-1.8-1.1-2.4-2.8-2.6-4.9c-0.1-1.5,0.1-7.2,3-5.9c1.3,0.6,1.5,5,1.6,6.2C81.7,18,81.7,20.5,81,22.8z M98,6.3
	c0-1.2-3.2-1-3.2,0.3c0,5.3-0.1,10.6-0.4,16c-1.8-5.3-4-10.5-6.6-15.5c-0.3-1-2.9-0.8-3.2,0.2c0,0,0,0.1,0,0.1c0,0,0,0.1,0,0.1
	c0.5,6.4,0.7,12.9,0,19.3c-0.1,1.1,3.1,1,3.2-0.3c0.5-3.7,0.5-7.4,0.5-11.1c2.4,5.6,4.3,11.4,5.6,17.3c-0.1,0.5,0.7,0.8,1.4,0.8
	c0.9,0,2-0.4,1.8-1C97.7,23.8,98,15,98,6.3z M103.5,17.3c0.8-3.1,1.5-6.3,2-9.5c0.2-1.4-3-1.3-3.2-0.2c-0.2,1.3-0.4,2.7-0.7,4
	c-0.6-1.5-1.2-2.9-1.8-4.3c-0.5-1-3.7-0.5-3.1,0.8c1.4,3,2.6,6.2,3.5,9.4c-1.3,5.2-3.1,10.2-5.4,15c-0.6,1.2,2.6,1.3,3.2,0.2
	c1.4-3,2.6-6.1,3.7-9.3c0.3,1.4,0.5,2.8,0.7,4.1c0.2,1.2,3.4,0.9,3.2-0.3C105.2,23.9,104.5,20.6,103.5,17.3z"/>
</svg>
